<svg width="146" height="145" viewBox="5 5 146 145" fill="none" xmlns="http://www.w3.org/2000/svg">
<path d="M87.0215 77.5C87.0215 98.9919 69.4793 116.42 47.8329 116.42C26.1865 116.42 8.64435 98.9919 8.64435 77.5C8.64435 56.008 26.1865 38.5796 47.8329 38.5796C69.4793 38.5796 87.0215 56.008 87.0215 77.5Z" stroke="#9DB1CD"/>
<circle cx="56.608" cy="55.9722" r="38.5783" transform="rotate(45 56.608 55.9722)" stroke="#9DB1CD" stroke-width="2"/>
<path d="M78.1358 86.3857C56.6439 86.3857 39.2154 68.8435 39.2154 47.1971C39.2154 25.5507 56.6439 8.00854 78.1358 8.00854C99.6278 8.00854 117.056 25.5507 117.056 47.1971C117.056 68.8435 99.6278 86.3857 78.1358 86.3857Z" stroke="#9DB1CD"/>
<circle cx="99.6633" cy="55.9722" r="38.5783" transform="rotate(135 99.6633 55.9722)" stroke="#9DB1CD" stroke-width="2"/>
<path d="M147.627 77.5C147.627 98.9919 130.085 116.42 108.438 116.42C86.7918 116.42 69.2497 98.9919 69.2497 77.5C69.2497 56.008 86.7918 38.5796 108.438 38.5796C130.085 38.5796 147.627 56.008 147.627 77.5Z" stroke="#9DB1CD"/>
<circle cx="99.663" cy="99.0278" r="38.5783" transform="rotate(45 99.663 99.0278)" stroke="#9DB1CD" stroke-width="2"/>
<path d="M78.1358 146.991C56.6439 146.991 39.2154 129.449 39.2154 107.803C39.2154 86.1562 56.6439 68.6141 78.1358 68.6141C99.6278 68.6141 117.056 86.1562 117.056 107.803C117.056 129.449 99.6278 146.991 78.1358 146.991Z" stroke="#9DB1CD"/>
<circle cx="56.6077" cy="99.0278" r="38.5783" transform="rotate(135 56.6077 99.0278)" stroke="#9DB1CD" stroke-width="2"/>
</svg>
