<svg width="283" height="282" viewBox="0 0 283 282" fill="none" xmlns="http://www.w3.org/2000/svg">
<path d="M58.7021 57.5554C58.7021 26.9151 83.541 2.07617 114.181 2.07617C144.822 2.07617 169.661 26.9151 169.661 57.5554V113.035H114.181C83.541 113.035 58.7021 88.1957 58.7021 57.5554Z" stroke="#2B79E6" stroke-width="2"/>
<path d="M224.661 56.9514C224.661 26.0924 199.635 1.07617 168.776 1.07617V1.07617C137.906 1.07617 112.872 26.1011 112.872 56.9708V112.827H168.786C199.645 112.827 224.661 87.8104 224.661 56.9514V56.9514Z" stroke="#2B79E6" stroke-width="2" stroke-linecap="round" stroke-dasharray="2 5"/>
<path d="M223.661 224.444C223.661 255.084 198.822 279.923 168.182 279.923C137.542 279.923 112.703 255.084 112.703 224.444L112.703 168.965L168.182 168.965C198.822 168.965 223.661 193.804 223.661 224.444Z" stroke="#2B79E6" stroke-width="2"/>
<path d="M57.7012 225.089C57.7012 255.909 82.6859 280.923 113.506 280.923V280.923C144.326 280.923 169.311 255.939 169.311 225.119L169.311 169.195L113.565 169.195C82.7124 169.195 57.7012 194.236 57.7012 225.089V225.089Z" stroke="#2B79E6" stroke-width="2" stroke-linecap="round" stroke-dasharray="2 5"/>
<path d="M224.626 58.52C255.267 58.52 280.105 83.3589 280.105 113.999C280.105 144.64 255.267 169.478 224.626 169.478L169.147 169.478L169.147 113.999C169.147 83.3589 193.986 58.52 224.626 58.52Z" stroke="#2B79E6" stroke-width="2"/>
<path d="M225.273 224.479C256.109 224.479 281.105 199.443 281.105 168.608V168.608C281.105 137.728 256.073 112.656 225.194 112.656L169.441 112.656L169.441 168.647C169.441 199.483 194.438 224.479 225.273 224.479V224.479Z" stroke="#2B79E6" stroke-width="2" stroke-linecap="round" stroke-dasharray="2 5"/>
<path d="M168.147 58.52C198.787 58.52 223.626 83.3589 223.626 113.999C223.626 144.64 198.787 169.478 168.147 169.478L112.668 169.478L112.668 113.999C112.668 83.3589 137.506 58.52 168.147 58.52Z" stroke="#2B79E6" stroke-width="2"/>
<path d="M168.147 223.479C198.787 223.479 223.626 198.641 223.626 168C223.626 137.36 198.787 112.521 168.147 112.521L112.668 112.521L112.668 168C112.668 198.641 137.506 223.479 168.147 223.479Z" stroke="#2B79E6" stroke-width="2"/>
<path d="M57.737 223.48C27.0967 223.48 2.25782 198.641 2.25782 168.001C2.25782 137.36 27.0967 112.522 57.7371 112.522L113.216 112.522L113.216 168.001C113.216 198.641 88.3774 223.48 57.737 223.48Z" stroke="#2B79E6" stroke-width="2"/>
<path d="M57.0645 57.5205C26.2433 57.5205 1.25781 82.5528 1.25781 113.374V113.374C1.2578 144.247 26.2853 169.321 57.1582 169.321L112.871 169.321L112.871 113.327C112.871 82.506 87.8857 57.5205 57.0645 57.5205V57.5205Z" stroke="#2B79E6" stroke-width="2" stroke-linecap="round" stroke-dasharray="2 5"/>
<path d="M114.217 223.48C83.5762 223.48 58.7373 198.641 58.7373 168.001C58.7373 137.36 83.5762 112.522 114.217 112.522L169.696 112.522L169.696 168.001C169.696 198.641 144.857 223.48 114.217 223.48Z" stroke="#2B79E6" stroke-width="2"/>
<path d="M114.217 58.5205C83.5762 58.5205 58.7373 83.3594 58.7373 114C58.7373 144.64 83.5762 169.479 114.217 169.479L169.696 169.479L169.696 114C169.696 83.3594 144.857 58.5205 114.217 58.5205Z" stroke="#2B79E6" stroke-width="2"/>
</svg>
