<svg width="141" height="141" viewBox="0 0 141 141" fill="none" xmlns="http://www.w3.org/2000/svg">
<path d="M79.3859 70.5C79.3859 91.9919 61.8438 109.42 40.1973 109.42C18.5509 109.42 1.00879 91.9919 1.00879 70.5C1.00879 49.008 18.5509 31.5796 40.1973 31.5796C61.8438 31.5796 79.3859 49.008 79.3859 70.5Z" stroke="#2B79E6"/>
<circle cx="48.9727" cy="48.9722" r="38.5783" transform="rotate(45 48.9727 48.9722)" stroke="#2B79E6" stroke-width="2"/>
<path d="M70.5005 79.3857C49.0086 79.3857 31.5801 61.8435 31.5801 40.1971C31.5801 18.5507 49.0086 1.00854 70.5005 1.00854C91.9925 1.00854 109.421 18.5507 109.421 40.1971C109.421 61.8435 91.9925 79.3857 70.5005 79.3857Z" stroke="#2B79E6"/>
<circle cx="92.0278" cy="48.9722" r="38.5783" transform="rotate(135 92.0278 48.9722)" stroke="#2B79E6" stroke-width="2"/>
<path d="M139.991 70.5C139.991 91.9919 122.449 109.42 100.803 109.42C79.1564 109.42 61.6143 91.9919 61.6143 70.5C61.6143 49.008 79.1564 31.5796 100.803 31.5796C122.449 31.5796 139.991 49.008 139.991 70.5Z" stroke="#2B79E6"/>
<circle cx="92.0273" cy="92.0278" r="38.5783" transform="rotate(45 92.0273 92.0278)" stroke="#2B79E6" stroke-width="2"/>
<path d="M70.5005 139.991C49.0086 139.991 31.5801 122.449 31.5801 100.803C31.5801 79.1562 49.0086 61.6141 70.5005 61.6141C91.9925 61.6141 109.421 79.1562 109.421 100.803C109.421 122.449 91.9925 139.991 70.5005 139.991Z" stroke="#2B79E6"/>
<circle cx="48.9722" cy="92.0278" r="38.5783" transform="rotate(135 48.9722 92.0278)" stroke="#2B79E6" stroke-width="2"/>
</svg>
