<svg width="128" height="135" viewBox="0 0 128 135" fill="none" xmlns="http://www.w3.org/2000/svg">
<path d="M128 53.8974C128 39.0879 116.768 27.0084 102.769 26.4518C102.238 11.776 90.7162 0 76.5902 0C72.0295 0 67.7399 1.23126 64 3.38622C60.2601 1.23126 55.9705 0 51.4098 0C37.2838 0 25.7619 11.776 25.231 26.4518C11.2325 27.0084 0 39.0879 0 53.8974C0 58.6787 1.17444 63.1759 3.22994 67.0968C1.17444 71.0177 0 75.5148 0 80.2961C0 95.1057 11.2325 107.185 25.231 107.742C25.7619 122.418 37.2838 134.194 51.4098 134.194C55.9705 134.194 60.2601 132.962 64 130.807C67.7399 132.962 72.0295 134.194 76.5902 134.194C90.7162 134.194 102.238 122.418 102.769 107.742C116.768 107.185 128 95.1057 128 80.2961C128 75.5148 126.826 71.0177 124.77 67.0968C126.826 63.1759 128 58.6787 128 53.8974ZM125.902 53.8974C125.902 57.8357 125.014 61.5518 123.476 64.8786C118.93 57.866 111.37 53.1926 102.769 52.8505C102.61 48.4626 101.493 44.3292 99.5897 40.698C101.478 37.0963 102.591 32.9998 102.764 28.6514C115.608 29.2036 125.902 40.2991 125.902 53.8974ZM102.764 79.1434C102.591 74.795 101.478 70.6985 99.5897 67.0968C101.478 63.495 102.591 59.3986 102.764 55.0502C111.036 55.4058 118.232 60.1329 122.318 67.0968C118.232 74.0606 111.036 78.7877 102.764 79.1434ZM89.1803 101.837C82.5679 97.5736 78.0705 90.078 77.6954 81.4548C85.9206 81.8481 93.0702 86.5631 97.1373 93.4955C95.1456 96.8904 92.4185 99.7494 89.1803 101.837ZM98.2959 95.7137C99.681 98.71 100.513 102.028 100.665 105.536C97.3189 105.376 94.1542 104.504 91.2961 103.052C94.0476 101.092 96.4258 98.5982 98.2959 95.7137ZM30.8627 93.4955C34.9298 86.5631 42.0794 81.8481 50.3046 81.4548C49.9295 90.078 45.4321 97.5736 38.8197 101.837C35.5815 99.7494 32.8544 96.8904 30.8627 93.4955ZM36.7039 103.052C33.8458 104.504 30.6811 105.376 27.3347 105.536C27.4874 102.028 28.319 98.71 29.7041 95.7137C31.5742 98.5982 33.9524 101.092 36.7039 103.052ZM5.68238 67.0968C9.76793 60.1329 16.9639 55.4058 25.236 55.0502C25.4092 59.3986 26.522 63.495 28.4103 67.0968C26.522 70.6985 25.4092 74.795 25.236 79.1434C16.9639 78.7877 9.76793 74.0606 5.68238 67.0968ZM38.8197 32.3561C45.4321 36.62 49.9295 44.1155 50.3046 52.7387C42.0794 52.3454 34.9298 47.6305 30.8627 40.698C32.8544 37.3031 35.5815 34.4442 38.8197 32.3561ZM29.7041 38.4799C28.319 35.4835 27.4874 32.1657 27.3347 28.6573C30.6811 28.8174 33.8458 29.6893 36.7039 31.1414C33.9524 33.102 31.5742 35.5953 29.7041 38.4799ZM97.1373 40.698C93.0702 47.6305 85.9206 52.3454 77.6954 52.7387C78.0705 44.1155 82.5679 36.62 89.1803 32.3561C92.4185 34.4442 95.1456 37.3031 97.1373 40.698ZM91.2961 31.1414C94.1542 29.6893 97.3189 28.8174 100.665 28.6573C100.513 32.1657 99.681 35.4835 98.2959 38.4799C96.4258 35.5953 94.0476 33.102 91.2961 31.1414ZM75.541 105.539C72.1739 105.386 68.9898 104.512 66.1158 103.052C70.2567 100.102 73.5524 95.9431 75.541 91.0633V105.539ZM52.459 28.6544C55.8261 28.8073 59.0102 29.6811 61.8842 31.1414C57.7433 34.092 54.4476 38.2505 52.459 43.1302V28.6544ZM52.459 54.9974H75.541V79.1962H52.459V54.9974ZM75.541 43.1302C73.5524 38.2505 70.2567 34.092 66.1158 31.1414C68.9898 29.6811 72.1739 28.8073 75.541 28.6544V43.1302ZM75.4878 52.7975H52.5122C52.8694 44.1497 57.3725 36.6297 64 32.3561C70.6275 36.6297 75.1306 44.1497 75.4878 52.7975ZM50.3607 55.0531V79.1404C42.112 78.7659 34.9391 74.0449 30.8627 67.0968C34.9391 60.1486 42.112 55.4276 50.3607 55.0531ZM29.7041 64.8786C28.3112 61.8655 27.4777 58.5273 27.3319 54.9974H41.1396C36.4851 57.0821 32.5185 60.5374 29.7041 64.8786ZM41.1396 79.1962H27.3319C27.4777 75.6662 28.3112 72.3281 29.7041 69.3149C32.5185 73.6562 36.4851 77.1114 41.1396 79.1962ZM52.459 91.0633C54.4476 95.9431 57.7433 100.102 61.8842 103.052C59.0102 104.512 55.8261 105.386 52.459 105.539V91.0633ZM52.5122 81.3961H75.4878C75.1306 90.0438 70.6275 97.5638 64 101.837C57.3725 97.5638 52.8694 90.0438 52.5122 81.3961ZM77.6393 79.1404V55.0531C85.888 55.4276 93.0609 60.1486 97.1373 67.0968C93.0609 74.0449 85.888 78.7659 77.6393 79.1404ZM98.2959 69.3149C99.6888 72.3281 100.522 75.6662 100.668 79.1962H86.8604C91.5149 77.1114 95.4815 73.6562 98.2959 69.3149ZM86.8604 54.9974H100.668C100.522 58.5273 99.6888 61.8655 98.2959 64.8786C95.4815 60.5374 91.5149 57.0821 86.8604 54.9974ZM86.8604 52.7975C91.5149 50.7127 95.4815 47.2574 98.2959 42.9162C99.6888 45.9293 100.522 49.2675 100.668 52.7975H86.8604ZM77.6393 43.1302V28.6544C81.0064 28.8073 84.1905 29.6811 87.0646 31.1414C82.9237 34.092 79.6279 38.2505 77.6393 43.1302ZM64 29.785C60.5645 27.8054 56.6571 26.6386 52.5094 26.4571C52.8486 17.7847 57.3576 10.2406 64 5.95733C70.6424 10.2406 75.1514 17.7847 75.4906 26.4571C71.3429 26.6386 67.4355 27.8054 64 29.785ZM50.3607 43.1302C48.3721 38.2505 45.0763 34.092 40.9355 31.1414C43.8095 29.6811 46.9936 28.8073 50.3607 28.6544V43.1302ZM41.1396 52.7975H27.3319C27.4777 49.2675 28.3112 45.9293 29.7041 42.9162C32.5185 47.2574 36.4851 50.7127 41.1396 52.7975ZM41.1396 81.3961C36.4851 83.4809 32.5185 86.9361 29.7041 91.2774C28.3112 88.2642 27.4777 84.9261 27.3319 81.3961H41.1396ZM50.3607 91.0633V105.539C46.9936 105.386 43.8095 104.512 40.9355 103.052C45.0763 100.102 48.3721 95.9431 50.3607 91.0633ZM64 104.409C67.4355 106.388 71.3429 107.555 75.4906 107.736C75.1514 116.409 70.6424 123.953 64 128.236C57.3576 123.953 52.8486 116.409 52.5094 107.736C56.6571 107.555 60.5645 106.388 64 104.409ZM77.6393 91.0633C79.6279 95.9431 82.9237 100.102 87.0646 103.052C84.1905 104.512 81.0064 105.386 77.6393 105.539V91.0633ZM86.8604 81.3961H100.668C100.522 84.9261 99.6888 88.2642 98.2959 91.2774C95.4815 86.9361 91.5149 83.4809 86.8604 81.3961ZM76.5902 2.19989C89.5609 2.19989 100.144 12.992 100.671 26.4571C96.5232 26.6386 92.6159 27.8054 89.1803 29.785C85.7168 27.7892 81.7742 26.6182 77.5887 26.4518C77.2625 17.4344 72.8047 9.50898 66.1158 4.74263C69.289 3.13039 72.8337 2.19989 76.5902 2.19989ZM51.4098 2.19989C55.1663 2.19989 58.711 3.13039 61.8842 4.74263C55.1953 9.50898 50.7375 17.4344 50.4113 26.4518C46.2258 26.6182 42.2832 27.7892 38.8197 29.785C35.3841 27.8054 31.4768 26.6386 27.3291 26.4571C27.8558 12.992 38.4391 2.19989 51.4098 2.19989ZM2.09836 53.8974C2.09836 40.2991 12.3923 29.2036 25.236 28.6514C25.4092 32.9998 26.522 37.0963 28.4103 40.698C26.5067 44.3292 25.3897 48.4626 25.231 52.8505C16.6298 53.1926 9.0701 57.866 4.52374 64.8786C2.98591 61.5518 2.09836 57.8357 2.09836 53.8974ZM2.09836 80.2961C2.09836 76.3579 2.98591 72.6417 4.52374 69.3149C9.0701 76.3275 16.6298 81.001 25.231 81.343C25.3897 85.731 26.5067 89.8644 28.4103 93.4955C26.522 97.0973 25.4092 101.194 25.236 105.542C12.3923 104.99 2.09836 93.8945 2.09836 80.2961ZM51.4098 131.994C38.4391 131.994 27.8558 121.202 27.3291 107.736C31.4768 107.555 35.3841 106.388 38.8197 104.409C42.2832 106.404 46.2258 107.575 50.4113 107.742C50.7375 116.759 55.1953 124.685 61.8842 129.451C58.711 131.063 55.1663 131.994 51.4098 131.994ZM76.5902 131.994C72.8337 131.994 69.289 131.063 66.1158 129.451C72.8047 124.685 77.2625 116.759 77.5887 107.742C81.7742 107.575 85.7168 106.404 89.1803 104.409C92.6159 106.388 96.5232 107.555 100.671 107.736C100.144 121.202 89.5609 131.994 76.5902 131.994ZM125.902 80.2961C125.902 93.8945 115.608 104.99 102.764 105.542C102.591 101.194 101.478 97.0973 99.5897 93.4955C101.493 89.8644 102.61 85.731 102.769 81.343C111.37 81.001 118.93 76.3275 123.476 69.3149C125.014 72.6417 125.902 76.3579 125.902 80.2961Z" fill="#2B79E6"/>
</svg>
