<svg width="91" height="91" viewBox="0 0 91 91" fill="none" xmlns="http://www.w3.org/2000/svg">
<path d="M52.8387 44.0322H49.9033V63.1129H52.8387V44.0322Z" fill="#A5F9FE"/>
<path d="M41.0968 44.0322H38.1613V63.1129H41.0968V44.0322Z" fill="#A5F9FE"/>
<path d="M67.5161 55.7741H61.6452C59.2175 55.7741 57.2419 53.7986 57.2419 51.3709V42.5645H60.1774V51.3709C60.1774 52.1796 60.8364 52.8386 61.6452 52.8386H67.5161V55.7741Z" fill="#A5F9FE"/>
<path d="M29.3549 55.7741H23.4839V52.8386H29.3549C30.1636 52.8386 30.8226 52.1796 30.8226 51.3709V42.5645H33.7581V51.3709C33.7581 53.7986 31.7825 55.7741 29.3549 55.7741Z" fill="#A5F9FE"/>
<path d="M52.8387 66.0488H49.9033V68.9843H52.8387V66.0488Z" fill="#A5F9FE"/>
<path d="M41.0968 66.0488H38.1613V68.9843H41.0968V66.0488Z" fill="#A5F9FE"/>
<path d="M73.3871 52.8389H70.4517V55.7744H73.3871V52.8389Z" fill="#A5F9FE"/>
<path d="M66.0484 19.0807C66.0484 16.907 64.8668 15.0092 63.1114 13.9935H62.6623C62.95 13.3007 63.1129 12.5404 63.1129 11.742C63.1129 8.49973 60.4842 5.871 57.2419 5.871H57.035C56.3804 3.34355 54.1039 1.46777 51.371 1.46777C48.638 1.46777 46.3615 3.34355 45.7069 5.871H45.2916C44.6384 3.34355 42.362 1.46777 39.629 1.46777C36.8961 1.46777 34.6196 3.34355 33.965 5.871H33.758C30.5158 5.871 27.8871 8.49973 27.8871 11.742C27.8871 12.5404 28.05 13.3007 28.3377 13.9935H27.8885C26.1331 15.0092 24.9516 16.907 24.9516 19.0807C24.9516 21.454 26.3665 23.4868 28.392 24.4115C28.0808 25.0162 27.8871 25.6914 27.8871 26.4194C27.8871 28.3363 29.1126 29.9669 30.8226 30.5716H31.0457C30.9121 31.125 30.8226 31.6959 30.8226 32.2904C30.8226 36.3428 34.1088 39.6291 38.1613 39.6291C42.2137 39.6291 45.5 36.3428 45.5 32.2904C45.5 36.3428 48.7863 39.6291 52.8387 39.6291C56.8911 39.6291 60.1774 36.3428 60.1774 32.2904C60.1774 31.6959 60.0879 31.125 59.9543 30.5716H60.1774C61.8873 29.9669 63.1129 28.3363 63.1129 26.4194C63.1129 25.6914 62.9191 25.0162 62.608 24.4115C64.6335 23.4868 66.0484 21.454 66.0484 19.0807Z" fill="#9AC4FF"/>
<path d="M46.9678 41.0967H44.0323V73.387H46.9678V41.0967Z" fill="#A5F9FE"/>
<path d="M20.5484 52.8389H17.6129V55.7744H20.5484V52.8389Z" fill="#A5F9FE"/>
<path d="M26.5867 25.0588C26.4751 25.5049 26.4194 25.9599 26.4194 26.4194C26.4194 28.5534 27.5833 30.4879 29.3945 31.5183C29.371 31.7722 29.3549 32.0291 29.3549 32.2903C29.3549 37.1471 33.3045 41.0968 38.1613 41.0968C41.223 41.0968 43.9207 39.5248 45.5 37.1485C47.0793 39.5263 49.777 41.0968 52.8387 41.0968C57.6955 41.0968 61.6452 37.1471 61.6452 32.2903C61.6452 32.0291 61.629 31.7722 61.6056 31.5183C63.4167 30.4879 64.5807 28.5534 64.5807 26.4194C64.5807 25.9599 64.5249 25.5049 64.4133 25.0588C66.3317 23.6982 67.5161 21.4731 67.5161 19.0806C67.5161 16.7088 66.3493 14.4925 64.4412 13.1231C64.5264 12.674 64.5807 12.2145 64.5807 11.7419C64.5807 8.00066 61.7567 4.94042 58.1343 4.49423C57.0203 1.85669 54.4092 0 51.371 0C48.9624 0 46.8386 1.183 45.5 2.98098C44.1614 1.183 42.0376 0 39.629 0C36.5908 0 33.9797 1.85669 32.8657 4.49423C29.2433 4.94042 26.4194 8.00066 26.4194 11.7419C26.4194 12.2145 26.4737 12.674 26.5588 13.1231C24.6507 14.4925 23.4839 16.7088 23.4839 19.0806C23.4839 21.4731 24.6684 23.6982 26.5867 25.0588ZM51.371 2.93548C53.7986 2.93548 55.7742 4.91106 55.7742 7.33871C55.7742 9.76635 53.7986 11.7419 51.371 11.7419V14.6774C55.328 14.6774 58.5409 11.5232 58.6833 7.60143C60.402 8.20174 61.6452 9.82066 61.6452 11.7419C61.6452 14.1696 59.6696 16.1452 57.242 16.1452V19.0806C59.7268 19.0806 61.9196 17.8316 63.248 15.9367C64.0846 16.7557 64.5807 17.8844 64.5807 19.0806C64.5807 20.792 63.5665 22.3596 61.9974 23.0773L60.5957 23.7187L61.3032 25.0881C61.5307 25.524 61.6452 25.9732 61.6452 26.4194C61.6452 27.2134 61.2988 27.9326 60.7616 28.4713C59.3364 25.5255 56.3261 23.4839 52.8387 23.4839V26.4194C56.0766 26.4194 58.7097 29.0525 58.7097 32.2903C58.7097 35.5282 56.0766 38.1613 52.8387 38.1613C49.6009 38.1613 46.9678 35.5282 46.9678 32.2903V7.33871C46.9678 4.91106 48.9433 2.93548 51.371 2.93548ZM27.7521 15.9367C29.0804 17.8316 31.2732 19.0806 33.7581 19.0806V16.1452C31.3304 16.1452 29.3549 14.1696 29.3549 11.7419C29.3549 9.82066 30.598 8.20174 32.3168 7.60143C32.4591 11.5232 35.672 14.6774 39.629 14.6774V11.7419C37.2014 11.7419 35.2258 9.76635 35.2258 7.33871C35.2258 4.91106 37.2014 2.93548 39.629 2.93548C42.0567 2.93548 44.0323 4.91106 44.0323 7.33871V32.2903C44.0323 35.5282 41.3991 38.1613 38.1613 38.1613C34.9235 38.1613 32.2903 35.5282 32.2903 32.2903C32.2903 29.0525 34.9235 26.4194 38.1613 26.4194V23.4839C34.674 23.4839 31.6636 25.5255 30.2384 28.4713C29.7012 27.9326 29.3549 27.2134 29.3549 26.4194C29.3549 25.9732 29.4693 25.524 29.6954 25.0866L30.4028 23.7172L29.0011 23.0758C27.4336 22.3596 26.4194 20.792 26.4194 19.0806C26.4194 17.8844 26.9155 16.7557 27.7521 15.9367Z" fill="#050B37"/>
<path d="M82.1935 16.1455H70.4516V19.081H79.2581V71.9197H11.7419V19.081H20.5484V16.1455H8.80646V74.8552H82.1935V16.1455Z" fill="#050B37"/>
<path d="M85.129 29.3545V32.29H88.0645V80.7255H51.371V82.1932C51.371 85.431 48.7378 88.0642 45.5 88.0642C42.2622 88.0642 39.629 85.431 39.629 82.1932V80.7255H2.93548V32.29H5.87097V29.3545H0V83.6609H36.8154C37.517 87.8205 41.1437 90.9997 45.5 90.9997C49.8563 90.9997 53.483 87.8205 54.1846 83.6609H91V29.3545H85.129Z" fill="#050B37"/>
</svg>
