<svg width="24" height="25" viewBox="0 0 24 25" fill="none" xmlns="http://www.w3.org/2000/svg">
<g clip-path="url(#clip0)">
<path fill-rule="evenodd" clip-rule="evenodd" d="M12 24.0098C9.62662 24.0098 7.30651 23.306 5.33312 21.9874C3.35973 20.6688 1.8217 18.7947 0.913445 16.602C0.00519377 14.4093 -0.232439 11.9965 0.230584 9.66869C0.693607 7.34092 1.83653 5.20272 3.51476 3.52449C5.19299 1.84626 7.33116 0.703368 9.65893 0.240346C11.9867 -0.222677 14.3994 0.0149707 16.5922 0.923222C18.7849 1.83147 20.6591 3.36954 21.9777 5.34293C23.2962 7.31632 24 9.63639 24 12.0098C24 15.1924 22.7357 18.2446 20.4852 20.495C18.2348 22.7455 15.1826 24.0098 12 24.0098ZM12 2.00977C10.0222 2.00977 8.08882 2.59626 6.44433 3.69507C4.79984 4.79389 3.5181 6.35568 2.76122 8.18294C2.00435 10.0102 1.80628 12.0209 2.19213 13.9607C2.57798 15.9005 3.53042 17.6823 4.92895 19.0808C6.32747 20.4794 8.10926 21.4318 10.0491 21.8176C11.9889 22.2035 13.9995 22.0054 15.8268 21.2486C17.654 20.4917 19.2159 19.21 20.3147 17.5655C21.4135 15.921 22 13.9876 22 12.0098C22 9.3576 20.9464 6.81406 19.071 4.93869C17.1957 3.06333 14.6522 2.00977 12 2.00977ZM14.23 15.7098L11.3 12.7708C11.198 12.6705 11.1184 12.5495 11.0666 12.4161C11.0149 12.2826 10.9922 12.1397 11 11.9968V7.00977C11 6.74455 11.1053 6.4902 11.2928 6.30266C11.4804 6.11513 11.7348 6.00977 12 6.00977C12.2652 6.00977 12.5196 6.11513 12.7071 6.30266C12.8947 6.4902 13 6.74455 13 7.00977V11.5408L15.6999 14.2408C15.7964 14.3373 15.873 14.4519 15.9252 14.5779C15.9773 14.704 16.0042 14.8392 16.0041 14.9756C16.0041 15.1121 15.9771 15.2472 15.9248 15.3732C15.8725 15.4993 15.796 15.6138 15.6995 15.7103C15.6029 15.8067 15.4884 15.8832 15.3623 15.9354C15.2362 15.9876 15.101 16.0144 14.9646 16.0144C14.8281 16.0143 14.6931 15.9874 14.567 15.9351C14.441 15.8829 14.3264 15.8063 14.23 15.7098Z" fill="#9DB1CD"/>
</g>
<defs>
<clipPath id="clip0">
<path d="M0 0.00976562H24V24.0098H0V0.00976562Z" fill="white"/>
</clipPath>
</defs>
</svg>
