<svg width="24" height="23" viewBox="0 0 24 23" fill="none" xmlns="http://www.w3.org/2000/svg">
<g clip-path="url(#clip0)">
<path fill-rule="evenodd" clip-rule="evenodd" d="M22 22.0098H2C1.46957 22.0098 0.960888 21.7991 0.585815 21.424C0.210743 21.0489 0 20.5402 0 20.0098V2.00977C0 1.47933 0.210743 0.970623 0.585815 0.595551C0.960888 0.220478 1.46957 0.00976562 2 0.00976562H18C18.5304 0.00976562 19.0391 0.220478 19.4142 0.595551C19.7893 0.970623 20 1.47933 20 2.00977V4.00977H22C22.5304 4.00977 23.0391 4.22048 23.4142 4.59555C23.7893 4.97062 24 5.47933 24 6.00977V20.0098C24 20.5402 23.7893 21.0489 23.4142 21.424C23.0391 21.7991 22.5304 22.0098 22 22.0098ZM18 2.00977H2V4.00977H18V2.00977ZM22 6.00977H2V20.0098H22V6.00977ZM17 10.0098C17.5933 10.0098 18.1734 10.1857 18.6667 10.5154C19.1601 10.845 19.5445 11.3135 19.7716 11.8617C19.9987 12.4099 20.0581 13.0131 19.9424 13.595C19.8266 14.177 19.5409 14.7115 19.1213 15.1311C18.7018 15.5506 18.1673 15.8364 17.5853 15.9521C17.0034 16.0679 16.4001 16.0085 15.8519 15.7814C15.3038 15.5543 14.8353 15.1698 14.5056 14.6765C14.176 14.1831 14 13.6031 14 13.0098C14 12.2141 14.3161 11.4511 14.8787 10.8885C15.4413 10.3258 16.2044 10.0098 17 10.0098ZM17 14.0098C17.1978 14.0098 17.3911 13.9511 17.5555 13.8412C17.72 13.7314 17.8481 13.5752 17.9238 13.3925C17.9995 13.2097 18.0194 13.0086 17.9808 12.8147C17.9422 12.6207 17.847 12.4425 17.7072 12.3027C17.5673 12.1628 17.389 12.0676 17.1951 12.029C17.0011 11.9904 16.8 12.0102 16.6173 12.0859C16.4346 12.1616 16.2785 12.2897 16.1686 12.4542C16.0587 12.6186 16 12.812 16 13.0098C16 13.275 16.1053 13.5293 16.2928 13.7169C16.4804 13.9044 16.7348 14.0098 17 14.0098Z" fill="#9DB1CD"/>
</g>
<defs>
<clipPath id="clip0">
<path d="M0 0.00976562H24V22.0098H0V0.00976562Z" fill="white"/>
</clipPath>
</defs>
</svg>
