<svg width="129" height="130" viewBox="0 0 129 130" fill="none" xmlns="http://www.w3.org/2000/svg">
<path d="M61.4065 3.09855C61.7879 1.22113 62.9321 0.0720058 64.4718 0.00399351C64.9258 -0.0158434 65.3641 0.0365822 65.7953 0.198111C66.2037 0.351139 66.5723 0.559427 66.8981 0.842812C67.2411 1.14037 67.5485 1.47618 67.7121 1.90125C67.863 2.29516 67.954 2.71173 68.0835 3.1609C73.0244 3.46412 77.8899 4.31002 82.6828 5.7737C83.1082 4.76202 83.8027 4.04789 84.86 3.76025C85.5872 3.56189 86.3158 3.58881 87.0217 3.88353C88.681 4.57782 89.347 6.03725 88.893 8.03511C91.1599 9.00287 93.3685 10.1038 95.5102 11.3365C97.6335 12.5579 99.6741 13.9068 101.634 15.3521C103.481 13.666 105.163 14.0981 106.279 14.9738C107.357 15.8183 108.114 17.5483 106.764 19.6255C110.381 22.995 113.595 26.73 116.345 30.8901C117.285 30.5075 118.211 30.3927 119.147 30.8192C119.84 31.1352 120.384 31.6028 120.75 32.273C121.421 33.5057 121.406 35.1791 119.708 36.5889C122.023 41.0579 123.761 45.7522 124.939 50.6703C125.89 50.761 126.752 51.0429 127.421 51.7372C127.915 52.2502 128.234 52.8623 128.318 53.5722C128.491 55.033 127.73 56.4542 126.13 57.1343C126.173 57.6203 126.213 58.1219 126.264 58.6221C126.325 59.2285 126.418 59.8321 126.456 60.44C126.6 62.7198 126.665 65.0039 126.571 67.2865C126.516 68.6468 126.362 70.0028 126.256 71.3616C126.231 71.6634 126.223 71.9681 126.207 72.2727C127.757 72.9967 128.578 74.17 128.316 75.8518C128.037 77.6357 126.818 78.5171 125.063 78.714C123.9 83.7356 122.168 88.5191 119.822 93.093C120.916 94.3554 121.232 95.7412 120.32 97.1935C119.47 98.5467 118.181 99.0129 116.579 98.6657C113.741 103.01 110.394 106.926 106.592 110.436C107.386 112.209 107.085 113.692 105.762 114.741C104.486 115.752 102.805 115.672 101.555 114.609C97.4769 117.611 93.0967 120.121 88.3693 122.086C88.5785 123.03 88.3978 123.881 87.8641 124.651C87.46 125.234 86.932 125.678 86.2504 125.916C85.4677 126.189 84.6878 126.177 83.9194 125.854C83.1581 125.533 82.5888 124.998 82.1875 124.277C77.342 125.703 72.431 126.538 67.3663 126.76C67.3194 126.967 67.2681 127.18 67.2212 127.392C66.8626 129.036 65.3783 130.134 63.7717 129.987C62.1636 129.838 60.9768 128.743 60.7163 127.045C60.7021 126.949 60.6964 126.851 60.685 126.731C55.7299 126.415 50.9015 125.565 46.157 124.108C46.0716 124.267 46.0019 124.407 45.9236 124.543C45.1623 125.845 44.0523 126.535 42.5182 126.337C41.2915 126.178 40.4178 125.475 39.9268 124.342C39.581 123.543 39.5682 122.722 39.9325 121.849C37.6769 120.843 35.4612 119.771 33.3309 118.532C31.2105 117.3 29.1656 115.955 27.1747 114.479C26.5087 115.279 25.6777 115.769 24.6374 115.801C23.8135 115.826 23.072 115.553 22.4402 115.013C21.205 113.957 20.6898 112.092 22.1115 110.265C20.3398 108.561 18.5951 106.82 17.007 104.931C15.4302 103.057 13.9417 101.116 12.5727 99.0355C11.5595 99.4748 10.5334 99.6349 9.50172 99.1446C8.7973 98.8102 8.248 98.303 7.90931 97.5931C7.19066 96.0855 7.656 94.3979 9.19433 93.3197C6.90178 88.8904 5.1756 84.2372 3.98877 79.3559C3.70842 79.312 3.43235 79.2652 3.15485 79.2241C1.95094 79.0513 0.697223 78.0495 0.460994 76.5688C0.196304 74.9011 1.0843 73.6528 2.1829 73.0846C2.36363 72.9911 2.55147 72.9117 2.7877 72.8026C2.50167 70.3358 2.31098 67.8476 2.2939 65.3468C2.27825 62.8402 2.43905 60.3436 2.69663 57.8258C0.971873 57.0224 0.0127288 55.7486 0.483763 53.8286C0.88649 52.1907 2.11175 51.4142 3.80946 51.2937C4.39292 48.7929 5.10872 46.3416 5.97821 43.9342C6.85055 41.5212 7.87373 39.1734 9.05487 36.8581C7.91358 35.6594 7.56493 34.2779 8.41734 32.8057C9.27403 31.3265 10.6373 30.849 12.3222 31.2429C15.1314 26.9397 18.4329 23.0644 22.1826 19.5859C21.2007 17.7736 21.8696 16.113 22.9596 15.2572C24.0155 14.4283 25.6321 14.1449 27.2103 15.4003C31.2817 12.3695 35.6662 9.86436 40.3367 7.89483C40.146 6.10809 40.9386 4.72234 42.3787 4.13716C43.6438 3.62281 45.4483 3.92745 46.5256 5.63343C48.1322 5.23385 49.7374 4.78469 51.3668 4.44321C53.0218 4.09607 54.6925 3.80701 56.3689 3.58456C58.0239 3.36493 59.696 3.25866 61.4065 3.09855ZM83.2221 62.9366C81.5073 60.9756 80.0515 58.9125 78.7594 56.7319C77.4587 54.5385 76.3615 52.2488 75.4621 49.8457C73.7374 49.8981 72.5548 49.1259 71.8988 47.546C69.3913 47.9456 66.8924 48.1468 64.375 48.1198C61.8406 48.0929 59.3303 47.828 56.8314 47.3944C56.1725 49.1896 54.8761 49.9562 52.9962 49.8145C51.1448 54.5413 48.5264 58.785 45.2363 62.5809C46.5184 64.0801 46.5327 65.5891 45.464 67.1279C48.821 71.0471 51.3298 75.4211 53.1442 80.2046C53.9724 80.0984 54.6939 80.2457 55.3713 80.651C56.0629 81.0633 56.4984 81.6839 56.8257 82.3669C61.8989 81.521 66.9166 81.5989 71.9258 82.5085C72.6174 80.7997 73.8783 80.0388 75.7154 80.1961C77.4715 75.3871 80.033 71.0641 83.2932 67.1604C82.2388 65.7619 82.243 64.3663 83.2221 62.9366ZM104.387 78.7863C102.57 83.9311 99.8976 88.5319 96.3527 92.6084C97.457 94.1826 97.2891 95.6491 96.1108 97.0476C99.1462 100.672 101.658 104.596 103.639 108.777C104.083 108.886 104.471 108.944 104.828 109.08C105.203 109.223 105.549 109.443 105.913 109.633C108.696 107.351 114.117 100.964 115.604 98.2066C113.842 96.6494 113.994 94.8896 114.788 93.6824C115.168 93.1043 115.686 92.6962 116.334 92.4327C117.216 92.0742 118.08 92.1422 118.942 92.512C120.116 90.2832 121.074 87.9949 121.944 85.6655C122.864 83.1972 124.014 79.1674 123.966 78.4618C123.469 78.2762 123.002 78.0056 122.672 77.5819C122.339 77.1554 122.073 76.6793 121.767 76.2103C119.534 76.4314 117.27 76.5518 114.998 76.5206C112.729 76.4895 110.475 76.2727 108.201 75.9964C107.944 76.8593 107.603 77.6386 106.863 78.16C106.136 78.6701 105.331 78.8982 104.387 78.7863ZM20.539 53.8966C20.8151 52.987 21.1965 52.2714 21.9407 51.7528C22.6864 51.2328 23.5061 51.1478 24.3784 51.1846C26.1886 46.0795 28.8426 41.4886 32.3917 37.4122C31.1992 35.8861 31.4624 34.1787 32.6478 32.8808C29.6452 29.2946 27.1349 25.3924 25.117 21.1756C24.239 21.221 23.5388 20.8172 22.8429 20.3935C19.1714 23.8324 15.951 27.5844 13.2387 31.7643C14.5522 32.7094 14.9421 34.3417 14.3046 35.7799C13.9815 36.5096 13.3952 37.082 12.6652 37.4178C11.7943 37.8188 10.8721 37.8401 9.93006 37.4362C7.69727 41.9449 5.94406 46.5811 4.85968 51.5233C5.80744 51.9469 6.52324 52.6257 6.87759 53.6246C7.13658 53.6246 7.36997 53.6671 7.582 53.6175C8.33765 53.4375 9.11607 53.4446 9.87598 53.4177C11.7587 53.3511 13.6443 53.395 15.5298 53.395C15.6522 53.395 15.7803 53.3795 15.8984 53.405C16.7152 53.575 17.5534 53.5183 18.3745 53.6373C18.5538 53.6628 18.7331 53.6898 18.9124 53.711C19.4518 53.7748 19.9925 53.8357 20.539 53.8966ZM25.0088 109.213C26.9883 104.77 29.5043 100.671 32.5397 96.9031C31.8908 96.2654 31.6175 95.5371 31.5564 94.6969C31.4937 93.8482 31.8324 93.1425 32.248 92.512C31.6005 91.6746 30.9871 90.8712 30.3638 90.0792C29.1001 88.4752 28.04 86.7395 27.0794 84.9471C26.3664 83.618 25.6905 82.2663 25.1455 80.855C24.9448 80.3364 24.72 79.8263 24.515 79.3332C22.6764 79.4112 20.9801 78.6177 20.5675 75.9114C20.4764 75.9114 20.3739 75.8929 20.28 75.9142C19.4717 76.097 18.6563 76.216 17.8295 76.2755C17.3656 76.3081 16.8917 76.3138 16.4406 76.4144C15.7219 76.5745 14.9876 76.5872 14.269 76.6113C12.3037 76.6751 10.3356 76.634 8.36896 76.6311C8.20673 76.6311 8.03454 76.6411 7.88654 76.5901C7.58485 76.4866 7.29454 76.515 6.99855 76.5447C6.72105 77.7208 6.05506 78.5667 5.00483 79.098C5.29656 80.1635 5.55129 81.1922 5.86152 82.2053C6.21871 83.3729 6.60151 84.5347 7.01278 85.6853C7.66312 87.5004 8.38603 89.2871 9.25837 91.0115C9.42202 91.336 9.58425 91.6619 9.74364 91.9878C9.90017 92.3051 10.0524 92.624 10.2047 92.9371C11.2208 92.5446 12.8046 93.2106 13.5389 94.167C13.9545 94.7082 14.1722 95.3359 14.2092 96.009C14.259 96.9059 13.936 97.6937 13.3895 98.3682C16.1303 102.5 19.3194 106.209 22.9369 109.599C23.5616 109.185 24.2703 109.175 25.0088 109.213ZM96.1762 33.0438C96.2531 33.1486 96.2759 33.1826 96.3015 33.2138C96.3413 33.2606 96.3911 33.2988 96.4267 33.3484C97.245 34.4409 97.4613 35.6027 96.828 36.8596C96.7127 37.0891 96.5932 37.3172 96.4779 37.5411C99.8976 41.466 102.421 45.8811 104.225 50.6972C106.234 50.6165 107.487 51.5261 108.042 53.3525C110.353 52.9303 112.644 52.637 114.949 52.5661C117.294 52.4953 119.645 52.4358 121.927 52.6625C122.254 52.27 122.51 51.8988 122.833 51.5984C123.15 51.3022 123.536 51.0784 123.885 50.829C122.773 46.0355 121.017 41.4844 118.77 37.0508C118.44 37.0948 118.094 37.2081 117.767 37.1727C116.882 37.0778 116.106 36.7434 115.452 36.0944C114.542 35.1933 114.278 33.5836 114.854 32.4954C115.032 32.1596 115.247 31.8437 115.472 31.4753C112.766 27.3662 109.564 23.668 105.988 20.317C105.586 20.4814 105.241 20.6741 104.873 20.7562C104.501 20.8384 104.106 20.8072 103.689 20.8285C101.713 25.221 99.2259 29.2946 96.1762 33.0438ZM46.3932 123.102C46.6807 123.174 46.934 123.235 47.1859 123.303C48.0554 123.543 48.9206 123.802 49.7958 124.023C50.6709 124.244 51.5518 124.442 52.4355 124.624C53.1442 124.77 53.8586 124.892 54.5744 125.001C55.2518 125.104 55.9377 125.156 56.6137 125.266C57.3323 125.38 58.0495 125.497 58.7796 125.499C58.882 125.499 58.993 125.48 59.0855 125.512C59.6832 125.719 60.2894 125.587 60.8914 125.611C61.351 124.353 62.2504 123.588 63.5169 123.438C65.3 123.227 66.5253 124.099 67.2326 125.737C67.3948 125.737 67.5442 125.769 67.6751 125.732C68.2358 125.579 68.8065 125.631 69.3743 125.616C69.4155 125.614 69.4568 125.617 69.4967 125.613C70.1157 125.535 70.7347 125.45 71.3552 125.379C71.8376 125.325 72.3228 125.295 72.8053 125.244C73.1255 125.21 73.4471 125.169 73.7644 125.114C74.3977 125.003 75.0281 124.886 75.6585 124.761C76.3871 124.617 77.1157 124.472 77.8401 124.308C78.7394 124.102 79.636 123.883 80.5311 123.657C80.9736 123.545 81.4091 123.405 81.8773 123.269C81.6838 122.018 82.2331 121.077 82.9873 120.226C80.3247 116.499 78.1474 112.554 76.4583 108.272C75.8748 108.625 75.2643 108.601 74.6553 108.593C73.9949 108.583 73.4827 108.27 72.9462 107.911C72.4054 107.55 72.2119 106.969 71.8518 106.534C71.2399 106.612 70.6522 106.642 70.0886 106.775C69.703 106.865 69.3116 106.807 68.9445 106.895C68.2685 107.058 67.5755 107.068 66.8996 107.095C65.2218 107.163 63.5397 107.118 61.8605 107.116C61.7168 107.116 61.5645 107.14 61.4321 107.101C60.7832 106.905 60.103 107.034 59.4484 106.884C58.9603 106.772 58.4551 106.734 57.9556 106.667C57.459 106.6 56.9623 106.538 56.4842 106.477C56.1099 107.159 55.7 107.718 55.0682 108.095C54.4093 108.488 53.6821 108.492 52.9535 108.474C52.8169 108.791 52.6832 109.06 52.585 109.342C52.0442 110.898 51.3597 112.394 50.6467 113.876C50.1842 114.837 49.6805 115.781 49.1596 116.712C48.6886 117.553 48.1834 118.375 47.6697 119.191C47.22 119.905 46.739 120.598 46.2722 121.301C46.1356 121.505 46.0033 121.713 46.073 121.975C46.1698 122.337 46.2779 122.7 46.3932 123.102ZM72.2318 23.5391C72.949 22.1037 74.0988 21.4434 75.5987 21.4024C76.4867 18.9993 77.4729 16.701 78.6498 14.4864C79.8281 12.2703 81.1031 10.1152 82.5902 8.10312C82.5276 7.66954 82.4693 7.2558 82.4053 6.80522C81.9641 6.67345 81.5301 6.52609 81.0861 6.41273C79.7285 6.06559 78.3766 5.68727 77.0061 5.40247C75.5731 5.10491 74.1259 4.87395 72.6772 4.66283C71.7593 4.52964 70.8286 4.48714 69.9022 4.40354C69.841 4.39787 69.7741 4.41629 69.7186 4.39645C69.1224 4.17683 68.509 4.32986 67.9156 4.27601C67.4033 5.72694 65.9774 6.71312 64.5572 6.61252C63.2352 6.519 62.0654 5.77937 61.4919 4.19808C56.5382 4.44463 51.6799 5.24235 46.8884 6.6777C47.072 7.64546 46.675 8.46727 46.2694 9.25933C48.9917 13.0567 51.1021 17.119 52.7842 21.4364C54.6968 21.0694 56.0615 21.8274 56.9082 23.4909C57.5201 23.4115 58.0865 23.3832 58.6287 23.2514C58.993 23.1622 59.3616 23.2118 59.7102 23.1296C60.4445 22.9567 61.2016 22.934 61.9359 22.9284C63.8926 22.9142 65.855 22.7711 67.8117 23.0176C68.4336 23.0956 69.0655 23.0899 69.6902 23.1565C70.0872 23.199 70.4743 23.3166 70.8699 23.3775C71.3082 23.4456 71.7494 23.4838 72.2318 23.5391ZM101.067 16.2334C97.0799 13.2791 92.8861 10.8789 88.3722 8.95186C87.7204 9.82043 86.7954 10.2002 85.5516 10.2271C84.749 10.1718 83.918 9.77934 83.2406 9.04821C80.4955 13.0397 78.2456 17.2182 76.6504 21.7693C78.119 22.5203 78.7764 23.6949 78.6299 25.3046C78.8092 25.3726 78.9586 25.4264 79.1052 25.4873C80.144 25.9167 81.1985 26.3092 82.2146 26.7852C83.8554 27.5546 85.4563 28.3991 86.9875 29.381C88.2427 30.1873 89.4651 31.0289 90.6277 31.9598C91.0162 32.2716 91.4232 32.5592 91.8231 32.8596C92.3155 32.3821 92.9217 32.2616 93.5009 32.12C94.1043 31.9712 94.6692 32.29 95.2327 32.4161C97.2336 30.4607 102.079 22.5571 102.584 20.4176C100.995 19.4314 100.623 17.9706 101.067 16.2334ZM27.7226 113.583C31.6958 116.542 35.9308 119.018 40.5003 120.93C40.5643 120.869 40.6255 120.815 40.6825 120.757C41.6587 119.754 42.8199 119.521 44.1092 120.006C44.5518 120.172 44.9445 120.471 45.3729 120.717C48.0923 116.815 50.291 112.655 51.8763 108.159C50.5955 107.34 49.9309 106.243 50.1487 104.736C49.9736 104.661 49.847 104.603 49.7175 104.549C48.6601 104.114 47.5872 103.714 46.5483 103.24C44.3298 102.225 42.2194 101.011 40.2228 99.6108C39.2665 98.9406 38.3657 98.1925 37.435 97.4854C37.2643 97.3565 37.0693 97.2587 36.8957 97.1524C35.7971 97.9983 34.6458 97.9544 33.412 97.5662C33.3295 97.6639 33.2313 97.7688 33.1459 97.8836C32.45 98.8173 31.7385 99.7426 31.064 100.692C29.9824 102.215 28.9934 103.798 28.1068 105.44C27.4579 106.644 26.8688 107.88 26.2597 109.107C26.1829 109.26 26.1572 109.439 26.1117 109.592C27.3896 110.341 28.188 111.667 27.7226 113.583ZM51.8322 22.006C50.2099 17.6872 48.0568 13.6787 45.4312 9.95362C45.1196 10.0981 44.8392 10.2583 44.539 10.3603C44.2757 10.4495 43.9925 10.502 43.715 10.5147C43.5015 10.5246 43.2838 10.4325 43.0661 10.4099C42.3503 10.3362 41.7739 10.0046 41.283 9.49737C41.0866 9.29475 40.8817 9.10063 40.6682 8.89093C36.0675 10.8038 31.8338 13.2678 27.8663 16.1881C28.6576 17.8119 28.3232 19.9259 26.2739 20.9022C26.6084 22.5501 31.508 30.2043 33.5444 32.2716C33.9841 32.1681 34.4025 32.0208 34.8322 31.9768C35.5438 31.9046 36.1799 32.1795 36.7548 32.5677C36.9498 32.6995 37.1134 32.7292 37.2571 32.6768C41.2531 29.3655 45.6447 26.8745 50.4916 25.1983C50.2227 24.1994 50.8332 22.6464 51.8322 22.006ZM121.653 53.7294C121.285 53.6912 120.905 53.6189 120.523 53.6161C118.679 53.6033 116.835 53.5948 114.992 53.6147C114.258 53.6232 113.525 53.6968 112.793 53.762C112.247 53.8116 111.703 53.891 111.16 53.9661C110.395 54.0723 109.633 54.1871 108.87 54.3005C108.595 54.3415 108.322 54.3911 108.065 54.4351C107.774 55.7018 107.085 56.5774 105.958 57.0875C106.902 62.204 106.93 67.3064 106.051 72.4257C107.214 72.8876 107.917 73.7222 108.185 74.9323C112.714 75.601 117.229 75.6053 121.719 75.1746C121.769 75.0754 121.8 75.0414 121.803 75.0045C121.917 73.6641 123.158 72.1905 124.795 72.1126C124.906 72.1069 125.015 72.0276 125.156 71.9695C125.198 71.4126 125.238 70.8699 125.284 70.3273C125.318 69.9249 125.358 69.5239 125.395 69.1215C125.432 68.7191 125.5 68.3181 125.503 67.9157C125.514 65.9362 125.508 63.9582 125.507 61.9788C125.507 61.8569 125.511 61.7336 125.5 61.6118C125.426 60.8282 125.346 60.0461 125.272 59.2625C125.214 58.6589 125.161 58.0553 125.101 57.4517C125.099 57.4177 125.054 57.3879 125.03 57.3568C122.852 57.0507 121.853 55.8222 121.653 53.7294ZM100.81 113.784C100.019 111.995 100.408 110.243 102.522 109.018C100.579 104.938 98.1571 101.167 95.2569 97.715C94.6123 97.8722 94.0359 98.1202 93.3785 98.004C92.7253 97.8878 92.1646 97.5704 91.6054 97.263C87.5952 100.603 83.1694 103.116 78.2385 104.832C78.4819 105.949 78.0151 106.834 77.379 107.643C79.0682 111.975 81.2512 115.989 83.9592 119.691C84.1129 119.66 84.214 119.645 84.3122 119.619C85.6328 119.275 86.7129 119.691 87.6194 120.655C87.7574 120.802 87.8869 120.958 88.0036 121.093C93.2903 118.908 98.2738 115.815 100.81 113.784ZM7.01278 75.3956C7.47954 75.4494 7.90077 75.5359 8.322 75.5387C10.3299 75.5529 12.3379 75.5458 14.3444 75.5444C14.4668 75.5444 14.5977 75.567 14.7115 75.5345C15.4003 75.3361 16.1204 75.448 16.8191 75.3162C17.3343 75.2185 17.8693 75.2411 18.3902 75.1675C19.2056 75.0513 20.0153 74.8968 20.9147 74.7452C21.3316 73.9801 21.9023 73.2603 22.7988 72.9131C22.6878 72.1919 22.5683 71.4821 22.4701 70.7708C22.4103 70.3329 22.3961 69.888 22.3335 69.4502C22.2097 68.5717 22.0802 67.6932 22.1015 66.8048C22.1414 65.1597 21.982 63.5133 22.2097 61.8697C22.3007 61.2108 22.2879 60.5392 22.3548 59.876C22.3947 59.4793 22.5057 59.0911 22.5683 58.6972C22.6266 58.3273 22.6636 57.9547 22.7077 57.6019C21.538 57.0677 20.8094 56.2317 20.5418 55.0018C20.0922 54.9466 19.6738 54.8913 19.2554 54.8446C18.8128 54.7964 18.3617 54.7964 17.9291 54.7029C17.1507 54.5357 16.3552 54.5144 15.5768 54.5031C13.2088 54.4691 10.8365 54.3614 8.47142 54.598C7.97477 54.6476 7.4767 54.6929 6.99143 54.7383C6.91174 55.6338 6.55171 56.355 5.99102 56.9501C5.40899 57.5665 4.65903 57.9108 3.74115 57.9349C3.70416 58.3018 3.66858 58.6391 3.63727 58.9749C3.62589 59.0967 3.66573 59.2342 3.62162 59.339C3.46366 59.7117 3.54193 60.0999 3.51062 60.4811C3.47931 60.8608 3.40531 61.2405 3.39962 61.6203C3.38254 63.0074 3.38681 64.3946 3.38539 65.7818C3.38539 66.4959 3.37543 67.21 3.39677 67.9242C3.41954 68.651 3.47504 69.3765 3.51631 70.1034C3.51916 70.1643 3.5092 70.2295 3.52485 70.2862C3.70131 70.9323 3.64012 71.6068 3.76108 72.2585C3.78669 72.3917 3.80519 72.5263 3.82512 72.6453C5.28802 72.9486 6.26709 73.351 7.01278 75.3956ZM95.5586 91.9169C98.8061 88.3193 102.739 81.504 103.351 78.4165C101.947 77.5323 101.375 76.2712 101.736 74.5879C99.2415 73.8512 96.8308 72.9146 94.5184 71.7385C92.1817 70.5497 89.993 69.13 87.9467 67.4878C87.2906 68.0701 86.525 68.3067 85.684 68.3308C84.796 73.8412 82.2501 78.4051 78.0649 82.0225C78.3951 82.7678 78.4876 83.4806 78.2983 84.2684C83.242 86.0778 87.6023 88.8223 91.5043 92.2952C92.7922 91.2722 94.1256 91.139 95.5586 91.9169ZM33.2213 38.1291C29.7206 42.1475 27.1292 46.6207 25.3931 51.6026C26.1288 51.9498 26.5827 52.5066 26.8844 53.1938C27.1861 53.881 27.1833 54.5966 27.0509 55.3532C29.5242 56.1368 31.9278 57.0748 34.2374 58.2664C36.5513 59.4595 38.6916 60.9033 40.755 62.4888C41.4196 61.9561 42.1397 61.677 42.9451 61.6954C43.8559 56.1453 46.4074 51.5474 50.6439 47.9002C50.2412 47.1691 50.2981 46.4295 50.3949 45.7182C50.3081 45.6445 50.2682 45.5949 50.2156 45.568C50.1074 45.5127 49.9964 45.4617 49.8826 45.4206C47.7935 44.6739 45.824 43.675 43.927 42.5457C41.7113 41.2265 39.6137 39.7317 37.6983 37.9959C37.5702 37.8797 37.4108 37.7961 37.2529 37.6899C36.0233 38.7738 34.6928 38.8319 33.2213 38.1291ZM37.1063 92.0954C41.0126 88.5234 45.4156 85.8171 50.3778 84.0091C50.3778 83.6534 50.3508 83.3459 50.3849 83.0456C50.4219 82.7296 50.5173 82.4207 50.5927 82.0806C46.3704 78.4476 43.8374 73.8384 42.9323 68.3365C41.8821 68.192 41.2005 67.9312 40.4462 67.1973C38.4468 68.8055 36.2937 70.1997 34.0211 71.4084C31.747 72.617 29.3663 73.5777 26.9044 74.3513C27.2829 75.1703 27.4451 75.995 27.1819 76.872C26.9214 77.7434 26.3921 78.408 25.588 78.9308C26.3778 81.1908 27.4039 83.3275 28.5736 85.4033C29.7576 87.5018 32.3533 91.1078 33.1559 91.6973C34.6373 90.9024 35.8867 91.1518 37.1063 92.0954ZM87.9652 62.503C89.9703 60.8296 92.1006 59.3716 94.3761 58.1233C96.6644 56.8693 99.0551 55.8492 101.598 54.982C101.341 54.2154 101.397 53.5013 101.681 52.8056C101.975 52.083 102.47 51.5304 103.121 51.1351C103.004 48.9544 97.7743 40.0179 95.5828 38.2694C94.9681 38.6052 94.2878 38.7625 93.555 38.7058C92.8093 38.6477 92.1874 38.3317 91.594 37.8443C89.6558 39.6126 87.5724 41.184 85.3396 42.5499C83.1168 43.9087 80.763 45.0111 78.3481 45.8868C78.3481 46.3048 78.3851 46.6533 78.3381 46.9891C78.2912 47.3221 78.1588 47.6423 78.0621 47.9781C82.29 51.6267 84.8088 56.2261 85.6982 61.701C86.5165 61.7393 86.9306 61.8484 87.9652 62.503ZM54.9159 86.619C55.8552 91.8291 55.7356 97.0079 54.6826 102.185C56.1085 102.782 56.6834 103.937 56.7702 105.395C57.9528 105.568 59.0869 105.752 60.2268 105.895C60.8501 105.974 61.482 106.004 62.1109 106.024C62.8267 106.048 63.5454 106.039 64.2612 106.039C65.6487 106.039 67.0376 106.048 68.4208 105.905C68.482 105.899 68.5432 105.902 68.6044 105.893C69.1651 105.817 69.7272 105.756 70.2836 105.657C70.7333 105.577 71.2086 105.596 71.6284 105.375C71.802 103.597 72.7213 102.449 74.5172 101.998C73.9551 99.4493 73.5623 96.9257 73.4983 94.3625C73.4343 91.7681 73.5068 89.1794 73.9836 86.697C73.43 86.2747 72.9319 85.8964 72.4068 85.4954C67.0618 87.608 61.6527 87.601 56.3162 85.5351C55.8167 85.9233 55.3855 86.2563 54.9159 86.619ZM72.014 24.6329C71.553 24.5748 71.1332 24.5281 70.7162 24.4686C69.9179 24.3552 69.1224 24.2022 68.3212 24.1271C67.4304 24.0449 66.5338 24.0095 65.6387 23.9953C63.9439 23.9684 62.249 23.9599 60.5584 24.1172C60.0945 24.1611 59.6305 24.2008 59.168 24.2617C58.6885 24.324 58.2103 24.402 57.7336 24.4856C57.523 24.5224 57.3181 24.5862 57.1331 24.6315C56.9865 25.391 56.8285 26.0598 56.4045 26.6648C55.9619 27.2967 55.2746 27.5546 54.6754 27.9386C55.7726 33.109 55.8438 38.2623 54.8946 43.4284C55.1579 43.5885 55.404 43.699 55.5962 43.8691C55.8082 44.0575 55.969 44.3027 56.1298 44.4939C56.3746 44.4486 56.5155 44.4373 56.6464 44.3948C57.3921 44.1525 58.1264 43.8648 58.8834 43.6608C60.4488 43.2385 62.0398 42.958 63.672 42.9807C64.1843 42.9877 64.6967 42.9991 65.209 42.9778C66.1709 42.9396 67.1187 43.0855 68.0508 43.2598C69.4141 43.5148 70.7674 43.845 72.0482 44.4103C72.1692 44.4642 72.3214 44.4486 72.3912 44.4571C72.8252 44.1114 73.2051 43.8096 73.6363 43.4667C73.5965 43.223 73.541 42.9297 73.5026 42.6349C73.4115 41.9364 73.3204 41.2364 73.245 40.5365C73.1582 39.7345 73.0757 38.9325 73.0159 38.1291C72.9846 37.7239 73.0031 37.313 73.0031 36.9063C73.0045 35.3406 72.9703 33.7749 73.1368 32.2135C73.1454 32.1327 73.1383 32.0491 73.1511 31.9698C73.2663 31.1947 73.3788 30.4196 73.5011 29.646C73.5993 29.0353 73.7118 28.426 73.8213 27.7913C73.3418 27.4115 72.8181 27.0559 72.4893 26.499C72.1578 25.9422 71.9941 25.3485 72.014 24.6329ZM91.0674 33.6942C87.2607 30.4834 83.0157 28.0222 78.267 26.3247C77.9112 26.9269 77.4445 27.4469 76.8183 27.7544C76.2121 28.0534 75.5532 28.2348 74.8317 28.0916C74.6994 29.0183 74.6054 29.9393 74.4219 30.8419C74.3507 31.1876 74.3735 31.5248 74.3208 31.8621C74.1728 32.8001 74.0689 33.7423 74.0874 34.6931C74.1188 36.2347 73.9836 37.7791 74.197 39.3193C74.3194 40.1964 74.3578 41.0834 74.4674 41.9633C74.5201 42.3926 74.6467 42.812 74.7421 43.2428C76.1779 43.1365 77.1399 43.8719 77.9966 44.8822C82.8293 43.1337 87.1042 40.5308 90.8867 37.0381C90.5011 35.9003 90.3801 34.7852 91.0674 33.6942ZM50.7549 85.0378C48.32 85.8865 46.0389 86.9988 43.8673 88.325C41.6943 89.6527 39.6707 91.1886 37.7908 92.9555C38.3742 94.0834 38.3159 95.2013 37.7168 96.2924C40.4846 98.7734 45.1836 101.813 50.4433 103.679C51.1562 102.472 52.2335 101.874 53.6765 101.847C53.8102 100.944 53.944 100.054 54.0706 99.163C54.1219 98.8046 54.1375 98.4404 54.2058 98.0862C54.3467 97.3522 54.3937 96.6083 54.425 95.8659C54.4606 95.0511 54.4563 94.2336 54.4364 93.4188C54.4136 92.5078 54.4506 91.5995 54.3439 90.6842C54.2414 89.8057 54.1688 88.9201 54.0592 88.0416C54.008 87.6307 53.8999 87.2255 53.8173 86.8131C52.4982 86.7324 51.502 86.1727 50.7549 85.0378ZM88.6255 66.7099C91.251 68.8324 94.1156 70.537 97.2065 71.866C98.8317 72.5646 100.488 73.1724 102.207 73.6329C102.904 72.6609 103.844 72.2458 105.009 72.2132C105.86 67.2256 105.829 62.2706 104.917 57.2944C103.7 57.3298 102.784 56.8282 102.063 55.9299C97.0998 57.5509 92.5986 59.9526 88.6226 63.3078C89.253 64.464 89.2445 65.5721 88.6255 66.7099ZM50.772 26.2624C49.1895 26.7796 47.6612 27.4328 46.1627 28.1597C44.6727 28.8823 43.244 29.7169 41.8536 30.6124C40.4477 31.5192 39.1242 32.5379 37.8434 33.6063C38.3927 34.669 38.444 35.7289 37.9303 36.7689C41.1506 39.6707 44.687 41.9888 48.5933 43.7387C49.339 44.0731 50.0903 44.4174 50.8716 44.6045C52.1609 43.3136 52.5423 43.3406 53.8031 43.179C54.7679 38.1334 54.6655 33.0976 53.5854 28.0959C51.5447 27.4923 51.4351 27.1182 50.772 26.2624ZM75.0409 86.8075C74.2113 91.9566 74.4347 97.0221 75.6258 101.971C76.1295 102.249 76.5849 102.44 76.9677 102.728C77.3505 103.016 77.6608 103.4 78.0194 103.758C82.7496 102.117 87.0573 99.6561 90.918 96.4156C90.6676 95.8517 90.4783 95.3232 90.4612 94.7394C90.4456 94.1599 90.6676 93.6385 90.8298 93.1199C87.127 89.7589 80.5852 85.8071 77.8514 85.2843C77.2068 86.2138 76.2847 86.7055 75.0409 86.8075ZM26.1359 73.4799C31.1522 71.9383 35.7644 69.6301 39.8201 66.3145C39.5397 64.5009 39.6607 64.3365 40.0648 63.339C36.0547 60.0546 31.4994 57.8003 26.5173 56.3167C26.2455 56.8538 25.8299 57.174 25.3504 57.4106C24.8779 57.6458 24.3756 57.796 23.7907 57.7917C23.4492 59.5587 23.2485 61.3185 23.1916 63.0882C23.0891 66.3075 23.2015 69.5168 23.886 72.7119C24.7527 72.6765 25.4614 73.001 26.1359 73.4799ZM71.7437 83.5259C66.8014 82.6446 61.9188 82.612 57.0292 83.3771C56.9965 83.6109 56.9737 83.7894 56.9452 83.968C56.9153 84.1607 56.8783 84.3534 56.8399 84.5702C61.8961 86.483 66.8811 86.4646 71.9258 84.5234C71.866 84.1862 71.8091 83.8759 71.7437 83.5259ZM71.8845 45.5226C70.6436 44.9828 69.3501 44.6059 68.0181 44.3664C65.4267 43.9017 62.8324 43.9201 60.2496 44.4401C59.0827 44.6753 57.9485 45.021 56.8598 45.4759C56.8755 45.8287 56.8485 46.1404 57.1003 46.3869C61.9743 47.2385 66.8526 47.3023 71.728 46.5159C71.7835 46.1659 71.829 45.8726 71.8845 45.5226ZM76.4682 49.5651C78.2513 54.6689 82.105 60.4386 84.0717 62.2126C84.1556 62.1672 84.2439 62.1219 84.3321 62.0723C84.4374 62.0142 84.5427 61.9547 84.6494 61.8952C83.8112 56.6625 81.4191 52.3196 77.443 48.8552C77.0944 49.1089 76.7984 49.3242 76.4682 49.5651ZM52.1011 80.4838C50.1473 75.091 46.8956 70.2734 44.6443 67.8349C44.4536 67.9383 44.2615 68.0418 44.085 68.1381C44.5375 72.9514 47.8504 78.646 51.3213 81.1228C51.5732 80.9159 51.825 80.7105 52.1011 80.4838ZM84.0745 67.825C80.8555 71.6578 78.3851 75.8873 76.6675 80.5716C76.9549 80.7785 77.2139 80.9641 77.4729 81.1497C81.4461 77.6457 83.8283 73.3226 84.6551 68.1254C84.4573 68.0234 84.2823 67.9327 84.0745 67.825ZM51.2729 48.8467C51.068 49.0111 50.883 49.14 50.7193 49.2916C49.1838 50.7156 47.8647 52.3168 46.7874 54.1134C45.4611 56.3267 44.6058 58.7142 44.1177 61.2363C44.0736 61.4644 44.0153 61.7124 44.1675 61.9802C44.2857 61.9277 44.418 61.9079 44.4863 61.8314C47.7224 58.1361 50.2369 54.0086 52.0157 49.4418C51.751 49.2293 51.529 49.0522 51.2729 48.8467Z" fill="#2B79E6"/>
</svg>
