<svg width="125" height="124" viewBox="0 0 125 124" fill="none" xmlns="http://www.w3.org/2000/svg">
<path d="M124.635 49.8033C124.635 36.1187 113.754 24.9568 100.193 24.4425C99.6787 10.8815 88.5168 0 74.8322 0C70.4141 0 66.2586 1.13774 62.6355 3.129C59.0124 1.13774 54.8569 0 50.4388 0C36.7542 0 25.5923 10.8815 25.078 24.4425C11.517 24.9568 0.635498 36.1187 0.635498 49.8033C0.635498 54.2214 1.77323 58.3769 3.7645 62C1.77323 65.6231 0.635498 69.7786 0.635498 74.1967C0.635498 87.8813 11.517 99.0432 25.078 99.5575C25.5923 113.119 36.7542 124 50.4388 124C54.8569 124 59.0124 122.862 62.6355 120.871C66.2586 122.862 70.4141 124 74.8322 124C88.5168 124 99.6787 113.119 100.193 99.5575C113.754 99.0432 124.635 87.8813 124.635 74.1967C124.635 69.7786 123.498 65.6231 121.507 62C123.498 58.3769 124.635 54.2214 124.635 49.8033ZM122.603 49.8033C122.603 53.4424 121.743 56.8763 120.253 59.9503C115.849 53.4704 108.525 49.152 100.193 48.8359C100.039 44.7813 98.9572 40.9619 97.1131 37.6066C98.9423 34.2784 100.02 30.4931 100.188 26.475C112.63 26.9853 122.603 37.2379 122.603 49.8033ZM100.188 73.1315C100.02 69.1134 98.9423 65.3282 97.1131 62C98.9423 58.6718 100.02 54.8866 100.188 50.8685C108.202 51.1971 115.173 55.5652 119.131 62C115.173 68.4348 108.202 72.8029 100.188 73.1315ZM87.0289 94.1018C80.6231 90.1617 76.2663 83.2356 75.9029 75.2674C83.8711 75.6308 90.7972 79.9876 94.7373 86.3934C92.8078 89.5305 90.166 92.1723 87.0289 94.1018ZM95.8597 88.4431C97.2015 91.2119 98.0071 94.2777 98.155 97.5195C94.9132 97.3716 91.8474 96.566 89.0786 95.2242C91.7441 93.4125 94.048 91.1086 95.8597 88.4431ZM30.5337 86.3934C34.4738 79.9876 41.3999 75.6308 49.3681 75.2674C49.0047 83.2356 44.6479 90.1617 38.2421 94.1018C35.105 92.1723 32.4632 89.5305 30.5337 86.3934ZM36.1924 95.2242C33.4236 96.566 30.3578 97.3716 27.116 97.5195C27.2639 94.2777 28.0695 91.2119 29.4113 88.4431C31.223 91.1086 33.5269 93.4125 36.1924 95.2242ZM6.1403 62C10.0982 55.5652 17.0693 51.1971 25.0829 50.8685C25.2506 54.8866 26.3287 58.6718 28.1579 62C26.3287 65.3282 25.2506 69.1134 25.0829 73.1315C17.0693 72.8029 10.0982 68.4348 6.1403 62ZM38.2421 29.8982C44.6479 33.8383 49.0047 40.7644 49.3681 48.7326C41.3999 48.3692 34.4738 44.0124 30.5337 37.6066C32.4632 34.4695 35.105 31.8277 38.2421 29.8982ZM29.4113 35.5569C28.0695 32.7881 27.2639 29.7223 27.116 26.4805C30.3578 26.6284 33.4236 27.434 36.1924 28.7758C33.5269 30.5875 31.223 32.8914 29.4113 35.5569ZM94.7373 37.6066C90.7972 44.0124 83.8711 48.3692 75.9029 48.7326C76.2663 40.7644 80.6231 33.8383 87.0289 29.8982C90.166 31.8277 92.8078 34.4695 94.7373 37.6066ZM89.0786 28.7758C91.8474 27.434 94.9132 26.6284 98.155 26.4805C98.0071 29.7223 97.2015 32.7881 95.8597 35.5569C94.048 32.8914 91.7441 30.5875 89.0786 28.7758ZM73.8158 97.5222C70.554 97.381 67.4694 96.5735 64.6852 95.2242C68.6966 92.4977 71.8894 88.6551 73.8158 84.146V97.5222ZM51.4552 26.4778C54.717 26.619 57.8016 27.4265 60.5858 28.7758C56.5744 31.5023 53.3816 35.3449 51.4552 39.854V26.4778ZM51.4552 50.8197H73.8158V73.1803H51.4552V50.8197ZM73.8158 39.854C71.8894 35.3449 68.6966 31.5023 64.6852 28.7758C67.4694 27.4265 70.554 26.619 73.8158 26.4778V39.854ZM73.7643 48.7869H51.5067C51.8528 40.796 56.2151 33.8473 62.6355 29.8982C69.0559 33.8473 73.4182 40.796 73.7643 48.7869ZM49.4224 50.8712V73.1288C41.4315 72.7827 34.4828 68.4204 30.5337 62C34.4828 55.5796 41.4315 51.2173 49.4224 50.8712ZM29.4113 59.9503C28.062 57.1661 27.2545 54.0815 27.1133 50.8197H40.4895C35.9804 52.7461 32.1378 55.9389 29.4113 59.9503ZM40.4895 73.1803H27.1133C27.2545 69.9185 28.062 66.8339 29.4113 64.0497C32.1378 68.0611 35.9804 71.2539 40.4895 73.1803ZM51.4552 84.146C53.3816 88.6551 56.5744 92.4977 60.5858 95.2242C57.8016 96.5735 54.717 97.381 51.4552 97.5222V84.146ZM51.5067 75.2131H73.7643C73.4182 83.204 69.0559 90.1527 62.6355 94.1018C56.2151 90.1527 51.8528 83.204 51.5067 75.2131ZM75.8486 73.1288V50.8712C83.8395 51.2173 90.7882 55.5796 94.7373 62C90.7882 68.4204 83.8395 72.7827 75.8486 73.1288ZM95.8597 64.0497C97.209 66.8339 98.0165 69.9185 98.1577 73.1803H84.7815C89.2906 71.2539 93.1332 68.0611 95.8597 64.0497ZM84.7815 50.8197H98.1577C98.0165 54.0815 97.209 57.1661 95.8597 59.9503C93.1332 55.9389 89.2906 52.7461 84.7815 50.8197ZM84.7815 48.7869C89.2906 46.8605 93.1332 43.6677 95.8597 39.6562C97.209 42.4405 98.0165 45.5251 98.1577 48.7869H84.7815ZM75.8486 39.854V26.4778C79.1105 26.619 82.195 27.4265 84.9793 28.7758C80.9678 31.5023 77.775 35.3449 75.8486 39.854ZM62.6355 27.5224C59.3073 25.6932 55.5221 24.6151 51.504 24.4474C51.8326 16.4338 56.2007 9.46268 62.6355 5.5048C69.0703 9.46268 73.4384 16.4338 73.767 24.4474C69.7489 24.6151 65.9637 25.6932 62.6355 27.5224ZM49.4224 39.854C47.496 35.3449 44.3032 31.5023 40.2917 28.7758C43.076 27.4265 46.1605 26.619 49.4224 26.4778V39.854ZM40.4895 48.7869H27.1133C27.2545 45.5251 28.062 42.4405 29.4113 39.6562C32.1378 43.6677 35.9804 46.8605 40.4895 48.7869ZM40.4895 75.2131C35.9804 77.1395 32.1378 80.3323 29.4113 84.3438C28.062 81.5595 27.2545 78.475 27.1133 75.2131H40.4895ZM49.4224 84.146V97.5222C46.1605 97.381 43.076 96.5735 40.2917 95.2242C44.3032 92.4977 47.496 88.6551 49.4224 84.146ZM62.6355 96.4776C65.9637 98.3068 69.7489 99.3849 73.767 99.5526C73.4384 107.566 69.0703 114.537 62.6355 118.495C56.2007 114.537 51.8326 107.566 51.504 99.5526C55.5221 99.3849 59.3073 98.3068 62.6355 96.4776ZM75.8486 84.146C77.775 88.6551 80.9678 92.4977 84.9793 95.2242C82.195 96.5735 79.1105 97.381 75.8486 97.5222V84.146ZM84.7815 75.2131H98.1577C98.0165 78.475 97.209 81.5595 95.8597 84.3438C93.1332 80.3323 89.2906 77.1395 84.7815 75.2131ZM74.8322 2.03279C87.3976 2.03279 97.6502 12.0051 98.1605 24.4474C94.1424 24.6151 90.3571 25.6932 87.0289 27.5224C83.6736 25.6783 79.8542 24.5963 75.7996 24.4425C75.4835 16.1101 71.1651 8.78666 64.6852 4.38237C67.7592 2.8926 71.1931 2.03279 74.8322 2.03279ZM50.4388 2.03279C54.0779 2.03279 57.5118 2.8926 60.5858 4.38237C54.1059 8.78666 49.7875 16.1101 49.4714 24.4425C45.4168 24.5963 41.5974 25.6783 38.2421 27.5224C34.9139 25.6932 31.1286 24.6151 27.1105 24.4474C27.6208 12.0051 37.8734 2.03279 50.4388 2.03279ZM2.66829 49.8033C2.66829 37.2379 12.6406 26.9853 25.0829 26.475C25.2506 30.4931 26.3287 34.2784 28.1579 37.6066C26.3138 40.9619 25.2318 44.7813 25.078 48.8359C16.7456 49.152 9.42216 53.4704 5.01787 59.9503C3.5281 56.8763 2.66829 53.4424 2.66829 49.8033ZM2.66829 74.1967C2.66829 70.5576 3.5281 67.1237 5.01787 64.0497C9.42216 70.5296 16.7456 74.848 25.078 75.1641C25.2318 79.2187 26.3138 83.0381 28.1579 86.3934C26.3287 89.7216 25.2506 93.5069 25.0829 97.525C12.6406 97.0147 2.66829 86.7621 2.66829 74.1967ZM50.4388 121.967C37.8734 121.967 27.6208 111.995 27.1105 99.5526C31.1286 99.3849 34.9139 98.3068 38.2421 96.4776C41.5974 98.3217 45.4168 99.4037 49.4714 99.5575C49.7875 107.89 54.1059 115.213 60.5858 119.618C57.5118 121.107 54.0779 121.967 50.4388 121.967ZM74.8322 121.967C71.1931 121.967 67.7592 121.107 64.6852 119.618C71.1651 115.213 75.4835 107.89 75.7996 99.5575C79.8542 99.4037 83.6736 98.3217 87.0289 96.4776C90.3571 98.3068 94.1424 99.3849 98.1605 99.5526C97.6502 111.995 87.3976 121.967 74.8322 121.967ZM122.603 74.1967C122.603 86.7621 112.63 97.0147 100.188 97.525C100.02 93.5069 98.9423 89.7216 97.1131 86.3934C98.9572 83.0381 100.039 79.2187 100.193 75.1641C108.525 74.848 115.849 70.5296 120.253 64.0497C121.743 67.1237 122.603 70.5576 122.603 74.1967Z" fill="#9DB1CD"/>
</svg>
