<svg width="179" height="35" viewBox="0 0 179 35" fill="none" xmlns="http://www.w3.org/2000/svg">
<path d="M30.235 3.41235H0V33.6683H30.235V3.41235ZM3.97829 7.3934H26.2733V29.7038H3.97829V7.3934Z" fill="white"/>
<path d="M18.9131 28.7914L8.66895 18.5402L18.6478 8.55444V14.4597L14.5701 18.5402L18.9131 22.8862V28.7914Z" fill="white"/>
<path d="M125.078 2.0237C125.078 2.38863 124.978 2.72038 124.796 3.03554C124.614 3.35071 124.365 3.59953 124.05 3.78199C123.735 3.96445 123.387 4.04739 123.022 4.04739C122.658 4.04739 122.326 3.96445 122.011 3.78199C121.696 3.59953 121.448 3.35071 121.265 3.03554C121.083 2.72038 121 2.38863 121 2.0237C121 1.65877 121.083 1.32701 121.265 1.01185C121.448 0.696682 121.696 0.447867 122.011 0.265403C122.326 0.0829384 122.658 0 123.022 0C123.387 0 123.735 0.0829384 124.05 0.265403C124.365 0.447867 124.614 0.696682 124.796 1.01185C124.978 1.32701 125.078 1.65877 125.078 2.0237ZM124.68 2.0237C124.68 1.57583 124.514 1.17773 124.199 0.862559C123.884 0.547393 123.486 0.381517 123.039 0.381517C122.591 0.381517 122.193 0.547393 121.879 0.862559C121.564 1.17773 121.398 1.57583 121.398 2.0237C121.398 2.47156 121.564 2.86967 121.879 3.18483C122.193 3.5 122.591 3.66588 123.039 3.66588C123.486 3.66588 123.884 3.5 124.199 3.18483C124.514 2.86967 124.68 2.47156 124.68 2.0237ZM122.111 0.92891H123.089C123.37 0.92891 123.569 0.978673 123.685 1.09479C123.801 1.2109 123.868 1.36019 123.868 1.54265C123.868 1.69194 123.818 1.80806 123.719 1.92417C123.619 2.0237 123.47 2.10664 123.271 2.1564C123.354 2.18957 123.42 2.22275 123.453 2.25592C123.503 2.30569 123.569 2.37204 123.619 2.47156C123.619 2.47156 123.735 2.6872 123.967 3.1019H123.321C123.105 2.6872 122.973 2.43839 122.906 2.35545C122.84 2.27251 122.757 2.23934 122.691 2.23934C122.674 2.23934 122.658 2.23934 122.624 2.23934V3.1019H122.077V0.92891H122.111ZM122.641 1.85782H122.873C123.022 1.85782 123.138 1.82464 123.205 1.77488C123.271 1.72512 123.304 1.65877 123.304 1.57583C123.304 1.49289 123.271 1.42654 123.205 1.37678C123.138 1.32701 123.039 1.29384 122.89 1.29384H122.641V1.85782Z" fill="white"/>
<path d="M40.7277 11.0096C39.2192 10.3461 37.2467 9.31766 37.2798 6.91244C37.2798 5.88401 37.6611 5.02145 38.407 4.30818C39.1529 3.59491 40.1641 3.22998 41.3907 3.22998C43.0152 3.22998 44.275 3.71102 45.1369 4.63993L43.5622 6.82951C42.8992 6.23235 42.5013 5.96695 41.6228 5.96695C40.8271 5.96695 40.3464 6.33188 40.3464 6.91244C40.3464 9.03567 45.6674 8.52145 45.6674 12.6684C45.6674 13.7632 45.253 14.6589 44.4076 15.3722C43.5954 16.0854 42.5511 16.4338 41.2913 16.4338C40.3796 16.4338 39.501 16.2513 38.6722 15.8698C37.8268 15.4883 37.2632 14.9741 36.9814 14.3437L38.6391 12.3532C39.3187 13.2324 40.4293 13.6968 41.3741 13.6968C42.1201 13.6968 42.5842 13.3153 42.5842 12.7181C42.6008 12.0215 41.7554 11.4906 40.7277 11.0096Z" fill="white"/>
<path d="M58.1332 3.42896L53.6078 10.9929V16.1849H50.6904V11.0095L46.2148 3.44554H49.5467L52.2817 8.27256L54.9837 3.44554H58.1332V3.42896Z" fill="white"/>
<path d="M70.7467 16.2015H68.4094L62.3591 8.53796V16.2015H59.624V3.42896H61.9613L68.0116 11.1256V3.42896H70.7467V16.2015Z" fill="white"/>
<path d="M73.7803 16.2015V3.42896H81.339V6.16592H76.6977V8.40526H80.792V11.1422H76.6977V13.4645H81.5214V16.2015H73.7803Z" fill="white"/>
<path d="M87.0414 16.2014H84.124V3.42893C84.4058 3.42893 85.1683 3.42893 86.4281 3.41234C87.6879 3.39575 88.3841 3.39575 88.467 3.39575C91.7657 3.39575 93.1912 4.93841 93.1912 7.47632C93.1912 9.20144 92.4784 10.4455 91.0363 11.1588L94.7494 16.1849H91.2186L88.1189 11.7228H87.0414V16.2014ZM87.0414 6.16589V8.9858H88.1023C89.4284 8.9858 90.0915 8.48817 90.0915 7.5095C90.0915 6.58059 89.5113 6.11613 88.3178 6.11613C88.2681 6.13272 87.8371 6.14931 87.0414 6.16589Z" fill="white"/>
<path d="M101.281 11.6565V8.91954H106.734V14.6091C106.187 15.1565 105.458 15.5878 104.546 15.9195C103.651 16.2513 102.772 16.4172 101.96 16.4172C99.8053 16.4172 98.1312 15.82 96.9377 14.6257C95.7276 13.448 95.1309 11.839 95.1309 9.81528C95.1309 7.94087 95.711 6.36504 96.9045 5.10437C98.0814 3.84371 99.6562 3.21338 101.612 3.21338C103.27 3.21338 104.679 3.64466 105.789 4.54039L104.563 6.89584C104.049 6.36504 102.955 5.95035 101.96 5.95035C99.7556 5.95035 98.2472 7.27736 98.2472 9.81528C98.2472 12.1707 99.739 13.6802 102.027 13.6802C102.391 13.6802 102.773 13.6139 103.17 13.4812C103.585 13.3319 103.867 13.1826 104.032 13.0499V11.6565H101.281Z" fill="white"/>
<path d="M119.05 3.42896L114.541 11.0095V16.2015H111.624V11.0095L107.148 3.44554H110.48L113.199 8.27256L115.901 3.44554H119.05V3.42896Z" fill="white"/>
<path d="M43.1498 29.4431V26.7062H48.6034V32.3957C48.0563 32.9431 47.327 33.3744 46.4153 33.7062C45.5202 34.0379 44.6416 34.2038 43.8294 34.2038C41.6745 34.2038 40.0003 33.6066 38.8068 32.4123C37.5967 31.2346 37 29.6256 37 27.6019C37 25.7275 37.5802 24.1517 38.7737 22.891C39.9506 21.6303 41.5253 21 43.4813 21C45.1389 21 46.5479 21.4313 47.6585 22.327L46.4319 24.6825C45.918 24.1517 44.824 23.737 43.8294 23.737C41.6248 23.737 40.1163 25.064 40.1163 27.6019C40.1163 29.9573 41.6082 31.4668 43.8957 31.4668C44.2604 31.4668 44.6416 31.4005 45.0395 31.2678C45.4539 31.1185 45.7357 30.9692 45.9014 30.8365V29.4431H43.1498Z" fill="white"/>
<path d="M51.1064 33.9881V21.2156H54.0239V31.2511H59.2122V33.9881H51.1064Z" fill="white"/>
<path d="M61.8471 22.891C63.1069 21.6303 64.7479 21 66.7536 21C68.7428 21 70.3672 21.5972 71.627 22.8081C72.9034 24.019 73.5333 25.6114 73.5333 27.6019C73.5333 29.5095 72.9034 31.1019 71.5939 32.346C70.3175 33.59 68.6931 34.2038 66.7536 34.2038C64.7645 34.2038 63.14 33.6066 61.8636 32.3957C60.6039 31.1848 59.974 29.5924 59.974 27.6019C59.9574 25.7275 60.5873 24.1517 61.8471 22.891ZM64.1346 30.3555C64.8474 31.1019 65.7259 31.4668 66.7371 31.4668C67.8974 31.4668 68.8091 31.1019 69.4556 30.3886C70.0855 29.6588 70.417 28.7299 70.417 27.6019C70.417 26.4573 70.0689 25.5284 69.3561 24.8152C68.6433 24.1019 67.7648 23.737 66.7371 23.737C65.6596 23.737 64.7811 24.1019 64.1014 24.8152C63.4052 25.5284 63.0571 26.4573 63.0571 27.6019C63.0571 28.6967 63.4218 29.609 64.1346 30.3555Z" fill="white"/>
<path d="M75.7383 21.2653C77.1638 21.1989 78.4568 21.1492 79.6005 21.1492C82.5014 21.1492 83.8772 22.4264 83.8772 24.3174C83.8772 25.5781 83.3799 26.5236 82.4185 27.1705V27.2037C83.4628 27.5852 84.2419 28.597 84.2419 30.1231C84.2419 31.4169 83.7943 32.379 82.8992 33.0591C82.0041 33.7392 80.8438 34.0544 79.4016 34.0544C77.7108 34.0544 76.4842 34.0212 75.7383 33.9383V21.2653ZM78.6557 23.9525V26.2748H79.6171C80.5122 26.2748 80.9598 25.8601 80.9598 25.0307C80.9598 24.3008 80.3465 23.8861 79.5508 23.8861C79.4016 23.8861 79.1033 23.9027 78.6557 23.9525ZM78.6557 28.8293V31.2179C78.9375 31.2842 79.2524 31.334 79.6337 31.334C80.7609 31.334 81.3245 30.8861 81.3245 29.9904C81.3245 29.2274 80.8106 28.8459 79.7829 28.8459H78.6557V28.8293Z" fill="white"/>
<path d="M84.9385 33.9881L90.2429 21.2156H92.8453L98.1497 33.9881H95.0334L93.9725 31.3009H88.9168L87.8559 33.9881H84.9385ZM91.4529 24.9644L90.0108 28.5805H92.8785L91.4529 24.9644Z" fill="white"/>
<path d="M99.6582 33.9881V21.2156H102.576V31.2511H107.764V33.9881H99.6582Z" fill="white"/>
<path d="M116 33.9881V21.2156H123.376V23.9525H118.917V26.6563H122.846V29.3933H118.934V33.9881H116Z" fill="white"/>
<path d="M126.394 22.891C127.654 21.6303 129.295 21 131.301 21C133.29 21 134.914 21.5972 136.174 22.8081C137.45 24.019 138.08 25.6114 138.08 27.6019C138.08 29.5095 137.45 31.1019 136.141 32.346C134.864 33.59 133.24 34.2038 131.301 34.2038C129.311 34.2038 127.687 33.6066 126.411 32.3957C125.151 31.1848 124.521 29.5924 124.521 27.6019C124.504 25.7275 125.134 24.1517 126.394 22.891ZM128.681 30.3554C129.394 31.1019 130.273 31.4668 131.284 31.4668C132.444 31.4668 133.356 31.1019 134.002 30.3886C134.632 29.6588 134.964 28.7299 134.964 27.6019C134.964 26.4573 134.616 25.5284 133.903 24.8152C133.19 24.1019 132.312 23.737 131.284 23.737C130.206 23.737 129.328 24.1019 128.648 24.8152C127.952 25.5284 127.604 26.4573 127.604 27.6019C127.604 28.6967 127.969 29.609 128.681 30.3554Z" fill="white"/>
<path d="M143.202 33.9881H140.284V21.2155C140.566 21.2155 141.328 21.2155 142.588 21.199C143.848 21.1824 144.544 21.1824 144.627 21.1824C147.926 21.1824 149.351 22.725 149.351 25.2629C149.351 26.9881 148.639 28.2321 147.196 28.9454L150.91 33.9715H147.379L144.279 29.5094H143.202V33.9881ZM143.202 23.9525V26.7724H144.262C145.589 26.7724 146.252 26.2748 146.252 25.2961C146.252 24.3672 145.671 23.9028 144.478 23.9028C144.428 23.9193 144.014 23.9359 143.202 23.9525Z" fill="white"/>
<path d="M162.695 21.2156V28.7132C162.695 30.5544 162.198 31.9312 161.204 32.8435C160.226 33.7559 158.982 34.2037 157.491 34.2037C155.8 34.2037 154.441 33.7227 153.446 32.7606C152.451 31.7985 151.938 30.4051 151.938 28.5805V21.2156H154.838V27.9668C154.838 30.3056 155.717 31.4668 157.474 31.4668C159.148 31.4668 159.778 30.3222 159.778 28.1326V21.2156H162.695Z" fill="white"/>
<path d="M165.597 33.9881V21.2156H168.531L172.459 26.59L176.172 21.2156H178.924V33.9881H176.007V25.8601L172.459 30.8364H172.045L168.514 25.9099V33.9881H165.597Z" fill="white"/>
</svg>
