<svg width="155" height="29" viewBox="0 0 155 29" fill="none" xmlns="http://www.w3.org/2000/svg">
<path d="M42.0048 4.13406L44.1456 0.147675C44.5147 0.0738525 44.8838 0.0738525 45.4006 0.0738525C45.9174 0.0738525 46.2865 0.0738525 46.6556 0.147675L41.3404 9.59689C40.9713 9.67071 40.6022 9.67071 40.0854 9.67071C39.5687 9.67071 39.1996 9.67071 38.8304 9.59689L40.7498 6.20108L37.354 0.147675C37.7231 0.0738525 38.0922 0.0738525 38.609 0.0738525C39.1257 0.0738525 39.4948 0.0738525 39.864 0.147675L42.0048 4.13406Z" fill="#282534"/>
<path d="M55.8095 3.83876V0.147659C56.5478 1.52774e-05 57.3598 1.52774e-05 58.1718 0.147659V9.59688C57.4336 9.74452 56.6216 9.74452 55.8095 9.59688V5.75813H51.897V9.59688C51.1588 9.74452 50.3467 9.74452 49.5347 9.59688V0.147659C50.2729 1.52774e-05 51.0849 1.52774e-05 51.897 0.147659V3.83876H55.8095Z" fill="#282534"/>
<path d="M70.1311 9.59688C69.3928 9.74452 68.5808 9.74452 67.7688 9.59688V4.06022L63.3394 9.59688C62.7489 9.6707 62.1583 9.6707 61.4939 9.59688V0.147659C62.2321 1.52774e-05 63.0442 1.52774e-05 63.8562 0.147659V5.68431L68.2855 0.147659C68.8761 0.0738373 69.4667 0.0738373 70.1311 0.147659V9.59688Z" fill="#282534"/>
<path d="M73.5267 0.147644H77.5869C78.4728 0.147644 79.211 0.36911 79.8016 0.812042C80.3921 1.25497 80.6874 1.84555 80.6874 2.58377C80.6874 3.54346 80.2445 4.20785 79.3586 4.65078C80.2445 5.09372 80.8351 5.83194 80.8351 6.86544C80.8351 8.56335 79.5801 9.52304 77.5869 9.52304H73.4529V0.147644H73.5267ZM75.889 2.06702V3.98639H77.3654C77.956 3.98639 78.399 3.61728 78.399 3.0267C78.399 2.3623 78.0298 2.06702 77.3654 2.06702H75.889ZM75.889 5.68429V7.67749H77.5131C78.1775 7.67749 78.5466 7.30838 78.5466 6.64398C78.5466 5.97958 78.1775 5.68429 77.4393 5.68429H75.889Z" fill="#282534"/>
<path d="M86.2243 7.67749H90.5059C90.6536 8.34188 90.6536 8.93246 90.5059 9.59686H83.9358V0.147644H90.5059C90.6536 0.812042 90.6536 1.47644 90.5059 2.06702H86.2243V3.83874H89.9892C90.1368 4.50314 90.1368 5.16754 89.9892 5.75812H86.2243V7.67749Z" fill="#282534"/>
<path d="M93.5326 0.147644H97.2237C98.2572 0.147644 99.143 0.442932 99.8074 1.03351C100.472 1.62408 100.767 2.3623 100.767 3.32199C100.767 4.28167 100.398 5.01989 99.8074 5.61047C99.143 6.20105 98.331 6.49633 97.2237 6.49633H95.821V9.59686C95.0828 9.7445 94.2708 9.7445 93.4587 9.59686V0.147644H93.5326ZM95.821 4.57696H97.2237C97.8881 4.57696 98.4048 4.13403 98.4048 3.32199C98.4048 2.50995 97.8881 2.06702 97.2237 2.06702H95.821V4.57696Z" fill="#282534"/>
<path d="M111.767 7.01309C111.84 7.16073 111.914 7.45602 111.84 8.0466C111.84 8.63717 111.767 9.00628 111.767 9.15393C110.955 9.59686 109.995 9.89215 108.888 9.89215C107.263 9.89215 106.008 9.44921 104.975 8.48953C104.015 7.52984 103.499 6.34869 103.499 4.94607C103.499 3.54346 104.015 2.3623 104.975 1.40262C105.935 0.442932 107.263 1.10003e-09 108.888 1.10003e-09C109.995 1.10003e-09 110.955 0.221466 111.767 0.73822C111.84 0.885864 111.84 1.25497 111.84 1.84555C111.84 2.43613 111.84 2.73141 111.767 2.87906C110.807 2.28848 109.847 1.99319 109.035 1.99319C108.149 1.99319 107.411 2.28848 106.821 2.80524C106.23 3.32199 105.935 4.06021 105.935 5.0199C105.935 5.90576 106.23 6.64398 106.821 7.23455C107.411 7.75131 108.149 8.0466 109.035 8.0466C109.921 7.89895 110.807 7.60366 111.767 7.01309Z" fill="#282534"/>
<path d="M123.8 9.59688C123.061 9.74452 122.249 9.74452 121.437 9.59688V4.06022L117.008 9.59688C116.417 9.6707 115.827 9.6707 115.162 9.59688V0.147659C115.901 1.52774e-05 116.713 1.52774e-05 117.525 0.147659V5.68431L121.954 0.147659C122.545 0.0738373 123.135 0.0738373 123.8 0.147659V9.59688Z" fill="#282534"/>
<path d="M134.282 0.147644C134.43 0.812042 134.43 1.47644 134.282 2.06702H131.699V9.59686C130.96 9.7445 130.148 9.7445 129.336 9.59686V2.06702H126.753C126.605 1.40262 126.605 0.73822 126.753 0.147644H134.282Z" fill="#282534"/>
<path d="M139.598 7.67749H143.879C144.027 8.34188 144.027 8.93246 143.879 9.59686H137.309V0.147644H143.879C144.027 0.812042 144.027 1.47644 143.879 2.06702H139.598V3.83874H143.362C143.51 4.50314 143.51 5.16754 143.362 5.75812H139.598V7.67749Z" fill="#282534"/>
<path d="M153.919 0.147644C154.067 0.812042 154.067 1.47644 153.919 2.06702H151.335V9.59686C150.597 9.7445 149.785 9.7445 148.973 9.59686V2.06702H146.389C146.241 1.40262 146.241 0.73822 146.389 0.147644H153.919Z" fill="#282534"/>
<path d="M49.7559 23.7707C49.9036 23.9183 49.9036 24.5089 49.9036 25.3948C49.9036 26.2806 49.8297 26.8712 49.7559 27.0927C48.5009 27.8309 47.0245 28.2 45.2528 28.2C42.7428 28.2 40.6758 27.4618 39.1994 25.9853C37.6491 24.5089 36.9109 22.6634 36.9109 20.4487C36.9109 18.234 37.6491 16.3885 39.1994 14.912C40.7496 13.4356 42.7428 12.6974 45.2528 12.6974C47.0245 12.6974 48.5009 13.0665 49.7559 13.8047C49.8297 14.0262 49.9036 14.6168 49.9036 15.5026C49.9036 16.3885 49.8297 16.9052 49.7559 17.1267C48.2057 16.167 46.803 15.7241 45.4742 15.7241C44.0716 15.7241 42.9643 16.167 42.0046 17.0529C41.0449 17.8649 40.602 19.0461 40.602 20.4487C40.602 21.8513 41.0449 23.0325 42.0046 23.9183C42.9643 24.7304 44.0716 25.1733 45.4742 25.1733C46.803 25.1733 48.2795 24.7304 49.7559 23.7707Z" fill="#282534"/>
<path d="M66.3658 27.8309C65.1846 28.0524 63.9297 28.0524 62.7485 27.8309V19.1937L55.8092 27.9047C54.8495 28.0524 53.8899 28.0524 52.9302 27.9047V13.0665C54.1113 12.845 55.3663 12.845 56.5475 13.0665V21.7775L63.4867 13.0665C64.4464 12.9188 65.4061 12.9188 66.3658 13.0665V27.8309Z" fill="#282534"/>
<path d="M79.2848 18.8984V13.0665C80.4659 12.845 81.7209 12.845 82.9021 13.0665V27.9047C81.7209 28.1262 80.4659 28.1262 79.2848 27.9047V21.9251H73.1576V27.9047C71.9764 28.1262 70.7214 28.1262 69.5403 27.9047V13.0665C70.7214 12.845 71.9764 12.845 73.1576 13.0665V18.8984H79.2848Z" fill="#282534"/>
<path d="M89.7675 24.8042H96.4115C96.5591 25.8377 96.5591 26.7974 96.4115 27.8309H86.0764V13.0665H96.4115C96.5591 14.1 96.5591 15.0597 96.4115 16.0932H89.7675V18.8984H95.6733C95.8209 19.9319 95.8209 20.8916 95.6733 21.9251H89.7675V24.8042Z" fill="#282534"/>
<path d="M98.9951 13.0665H104.827C106.525 13.0665 107.854 13.5094 108.887 14.4691C109.921 15.355 110.438 16.61 110.438 18.0864C110.438 19.5628 109.921 20.744 108.887 21.7037C107.854 22.5895 106.525 23.1063 104.827 23.1063H102.612V27.9785C101.431 28.2 100.176 28.2 98.9951 27.9785V13.0665ZM102.612 19.9319H104.753C105.861 19.9319 106.599 19.2675 106.599 18.0126C106.599 16.7576 105.787 16.0932 104.753 16.0932H102.612V19.9319Z" fill="#282534"/>
<path d="M113.021 13.0665H122.766C122.913 14.1 122.913 15.0597 122.766 16.0932H116.639V27.9047C115.457 28.1262 114.202 28.1262 113.021 27.9047V13.0665Z" fill="#282534"/>
<path d="M138.564 27.8309C137.383 28.0524 136.128 28.0524 134.946 27.8309V19.1937L128.007 27.9047C127.048 28.0524 126.088 28.0524 125.128 27.9047V13.0665C126.309 12.845 127.564 12.845 128.745 13.0665V21.7775L135.685 13.0665C136.644 12.9188 137.604 12.9188 138.564 13.0665V27.8309Z" fill="#282534"/>
<path d="M153.107 13.0665V27.9047C151.926 28.1262 150.671 28.1262 149.489 27.9047V22.8848H148.087L144.839 27.9047C144.322 27.9785 143.658 28.0524 142.845 28.0524C142.033 28.0524 141.443 27.9785 140.852 27.9047L144.47 22.3681C142.698 21.556 141.664 20.0058 141.664 18.0126C141.664 16.5361 142.181 15.355 143.141 14.4691C144.174 13.5833 145.503 13.0665 147.127 13.0665H153.107ZM149.416 16.0932H147.127C146.02 16.0932 145.282 16.7576 145.282 17.9387C145.282 19.1199 146.094 19.7843 147.127 19.7843H149.416V16.0932Z" fill="#282534"/>
<path d="M0 0.0738525V27.9786H27.9047V0.0738525H0ZM24.3613 24.4351H3.46963V3.54349H24.3613V24.4351ZM17.3482 23.254L8.0466 14.0262L17.3482 4.72464V9.67071L12.9927 14.0262L17.3482 18.3817V23.254Z" fill="#282534"/>
</svg>
