<svg width="91" height="92" viewBox="0 0 91 92" fill="none" xmlns="http://www.w3.org/2000/svg">
<path d="M43.5305 2.1867C43.7985 0.861696 44.6025 0.0506964 45.6845 0.00269637C46.0035 -0.0113036 46.3115 0.025696 46.6145 0.139696C46.9015 0.247696 47.1605 0.394696 47.3895 0.594696C47.6305 0.804696 47.8465 1.0417 47.9615 1.3417C48.0675 1.6197 48.1315 1.9137 48.2225 2.2307C51.6945 2.4447 55.1135 3.0417 58.4815 4.0747C58.7805 3.3607 59.2685 2.8567 60.0115 2.6537C60.5225 2.5137 61.0345 2.5327 61.5305 2.7407C62.6965 3.2307 63.1645 4.2607 62.8455 5.6707C64.4385 6.3537 65.9905 7.1307 67.4955 8.0007C68.9875 8.8627 70.4215 9.8147 71.7985 10.8347C73.0965 9.6447 74.2785 9.9497 75.0625 10.5677C75.8205 11.1637 76.3525 12.3847 75.4035 13.8507C77.9455 16.2287 80.2035 18.8647 82.1365 21.8007C82.7965 21.5307 83.4475 21.4497 84.1055 21.7507C84.5925 21.9737 84.9745 22.3037 85.2315 22.7767C85.7035 23.6467 85.6925 24.8277 84.4995 25.8227C86.1265 28.9767 87.3475 32.2897 88.1755 35.7607C88.8435 35.8247 89.4495 36.0237 89.9195 36.5137C90.2665 36.8757 90.4905 37.3077 90.5495 37.8087C90.6715 38.8397 90.1365 39.8427 89.0125 40.3227C89.0425 40.6657 89.0705 41.0197 89.1065 41.3727C89.1495 41.8007 89.2145 42.2267 89.2415 42.6557C89.3425 44.2647 89.3885 45.8767 89.3225 47.4877C89.2835 48.4477 89.1755 49.4047 89.1005 50.3637C89.0835 50.5767 89.0775 50.7917 89.0665 51.0067C90.1555 51.5177 90.7325 52.3457 90.5485 53.5327C90.3525 54.7917 89.4955 55.4137 88.2625 55.5527C87.4455 59.0967 86.2285 62.4727 84.5795 65.7007C85.3485 66.5917 85.5705 67.5697 84.9295 68.5947C84.3325 69.5497 83.4265 69.8787 82.3005 69.6337C80.3065 72.6997 77.9545 75.4637 75.2825 77.9407C75.8405 79.1917 75.6295 80.2387 74.6995 80.9787C73.8025 81.6927 72.6215 81.6357 71.7435 80.8857C68.8775 83.0047 65.7995 84.7757 62.4775 86.1627C62.6245 86.8287 62.4975 87.4297 62.1225 87.9727C61.8385 88.3847 61.4675 88.6977 60.9885 88.8657C60.4385 89.0587 59.8905 89.0497 59.3505 88.8217C58.8155 88.5957 58.4155 88.2177 58.1335 87.7087C54.7285 88.7157 51.2775 89.3047 47.7185 89.4617C47.6855 89.6077 47.6495 89.7577 47.6165 89.9077C47.3645 91.0677 46.3215 91.8427 45.1925 91.7387C44.0625 91.6337 43.2285 90.8607 43.0455 89.6627C43.0355 89.5947 43.0315 89.5257 43.0235 89.4407C39.5415 89.2177 36.1485 88.6177 32.8145 87.5897C32.7545 87.7017 32.7055 87.8007 32.6505 87.8967C32.1155 88.8157 31.3355 89.3027 30.2575 89.1627C29.3955 89.0507 28.7815 88.5547 28.4365 87.7547C28.1935 87.1907 28.1845 86.6117 28.4405 85.9957C26.8555 85.2857 25.2985 84.5287 23.8015 83.6547C22.3115 82.7847 20.8745 81.8357 19.4755 80.7937C19.0075 81.3587 18.4235 81.7047 17.6925 81.7267C17.1135 81.7447 16.5925 81.5517 16.1485 81.1707C15.2805 80.4257 14.9185 79.1097 15.9175 77.8197C14.6725 76.6177 13.4465 75.3887 12.3305 74.0557C11.2225 72.7327 10.1765 71.3627 9.21448 69.8947C8.50248 70.2047 7.78148 70.3177 7.05648 69.9717C6.56148 69.7357 6.17548 69.3777 5.93748 68.8767C5.43248 67.8127 5.75948 66.6217 6.84048 65.8607C5.22948 62.7347 4.01648 59.4507 3.18248 56.0057C2.98548 55.9747 2.79148 55.9417 2.59648 55.9127C1.75048 55.7907 0.869475 55.0837 0.703475 54.0387C0.517475 52.8617 1.14148 51.9807 1.91348 51.5797C2.04048 51.5137 2.17248 51.4577 2.33848 51.3807C2.13748 49.6397 2.00348 47.8837 1.99148 46.1187C1.98048 44.3497 2.09348 42.5877 2.27448 40.8107C1.06248 40.2437 0.388475 39.3447 0.719475 37.9897C1.00248 36.8337 1.86348 36.2857 3.05648 36.2007C3.46648 34.4357 3.96947 32.7057 4.58047 31.0067C5.19347 29.3037 5.91248 27.6467 6.74248 26.0127C5.94048 25.1667 5.69548 24.1917 6.29448 23.1527C6.89648 22.1087 7.85448 21.7717 9.03848 22.0497C11.0125 19.0127 13.3325 16.2777 15.9675 13.8227C15.2775 12.5437 15.7475 11.3717 16.5135 10.7677C17.2555 10.1827 18.3915 9.9827 19.5005 10.8687C22.3615 8.7297 25.4425 6.9617 28.7245 5.5717C28.5905 4.3107 29.1475 3.3327 30.1595 2.9197C31.0485 2.5567 32.3165 2.7717 33.0735 3.9757C34.2025 3.6937 35.3305 3.3767 36.4755 3.1357C37.6385 2.8907 38.8125 2.6867 39.9905 2.5297C41.1535 2.3747 42.3285 2.2997 43.5305 2.1867ZM58.8605 44.4177C57.6555 43.0337 56.6325 41.5777 55.7245 40.0387C54.8105 38.4907 54.0395 36.8747 53.4075 35.1787C52.1955 35.2157 51.3645 34.6707 50.9035 33.5557C49.1415 33.8377 47.3855 33.9797 45.6165 33.9607C43.8355 33.9417 42.0715 33.7547 40.3155 33.4487C39.8525 34.7157 38.9415 35.2567 37.6205 35.1567C36.3195 38.4927 34.4795 41.4877 32.1675 44.1667C33.0685 45.2247 33.0785 46.2897 32.3275 47.3757C34.6865 50.1417 36.4495 53.2287 37.7245 56.6047C38.3065 56.5297 38.8135 56.6337 39.2895 56.9197C39.7755 57.2107 40.0815 57.6487 40.3115 58.1307C43.8765 57.5337 47.4025 57.5887 50.9225 58.2307C51.4085 57.0247 52.2945 56.4877 53.5855 56.5987C54.8195 53.2047 56.6195 50.1537 58.9105 47.3987C58.1695 46.4117 58.1725 45.4267 58.8605 44.4177ZM73.7335 55.6037C72.4565 59.2347 70.5785 62.4817 68.0875 65.3587C68.8635 66.4697 68.7455 67.5047 67.9175 68.4917C70.0505 71.0497 71.8155 73.8187 73.2075 76.7697C73.5195 76.8467 73.7925 76.8877 74.0435 76.9837C74.3065 77.0847 74.5495 77.2397 74.8055 77.3737C76.7615 75.7637 80.5705 71.2557 81.6155 69.3097C80.3775 68.2107 80.4845 66.9687 81.0425 66.1167C81.3095 65.7087 81.6735 65.4207 82.1285 65.2347C82.7485 64.9817 83.3555 65.0297 83.9615 65.2907C84.7865 63.7177 85.4595 62.1027 86.0705 60.4587C86.7175 58.7167 87.5255 55.8727 87.4915 55.3747C87.1425 55.2437 86.8145 55.0527 86.5825 54.7537C86.3485 54.4527 86.1615 54.1167 85.9465 53.7857C84.3775 53.9417 82.7865 54.0267 81.1895 54.0047C79.5955 53.9827 78.0115 53.8297 76.4135 53.6347C76.2325 54.2437 75.9935 54.7937 75.4735 55.1617C74.9625 55.5217 74.3965 55.6827 73.7335 55.6037ZM14.8125 38.0377C15.0065 37.3957 15.2745 36.8907 15.7975 36.5247C16.3215 36.1577 16.8975 36.0977 17.5105 36.1237C18.7825 32.5207 20.6475 29.2807 23.1415 26.4037C22.3035 25.3267 22.4885 24.1217 23.3215 23.2057C21.2115 20.6747 19.4475 17.9207 18.0295 14.9447C17.4125 14.9767 16.9205 14.6917 16.4315 14.3927C13.8515 16.8197 11.5885 19.4677 9.68248 22.4177C10.6055 23.0847 10.8795 24.2367 10.4315 25.2517C10.2045 25.7667 9.79247 26.1707 9.27948 26.4077C8.66747 26.6907 8.01948 26.7057 7.35748 26.4207C5.78848 29.6027 4.55648 32.8747 3.79448 36.3627C4.46048 36.6617 4.96347 37.1407 5.21247 37.8457C5.39447 37.8457 5.55848 37.8757 5.70748 37.8407C6.23848 37.7137 6.78548 37.7187 7.31948 37.6997C8.64248 37.6527 9.96748 37.6837 11.2925 37.6837C11.3785 37.6837 11.4685 37.6727 11.5515 37.6907C12.1255 37.8107 12.7145 37.7707 13.2915 37.8547C13.4175 37.8727 13.5435 37.8917 13.6695 37.9067C14.0485 37.9517 14.4285 37.9947 14.8125 38.0377ZM17.9535 77.0777C19.3445 73.9417 21.1125 71.0487 23.2455 68.3897C22.7895 67.9397 22.5975 67.4257 22.5545 66.8327C22.5105 66.2337 22.7485 65.7357 23.0405 65.2907C22.5855 64.6997 22.1545 64.1327 21.7165 63.5737C20.8285 62.4417 20.0835 61.2167 19.4085 59.9517C18.9075 59.0137 18.4325 58.0597 18.0495 57.0637C17.9085 56.6977 17.7505 56.3377 17.6065 55.9897C16.3145 56.0447 15.1225 55.4847 14.8325 53.5747C14.7685 53.5747 14.6965 53.5617 14.6305 53.5767C14.0625 53.7057 13.4895 53.7897 12.9085 53.8317C12.5825 53.8547 12.2495 53.8587 11.9325 53.9297C11.4275 54.0427 10.9115 54.0517 10.4065 54.0687C9.02547 54.1137 7.64248 54.0847 6.26048 54.0827C6.14648 54.0827 6.02548 54.0897 5.92148 54.0537C5.70948 53.9807 5.50548 54.0007 5.29747 54.0217C5.10247 54.8517 4.63447 55.4487 3.89647 55.8237C4.10147 56.5757 4.28048 57.3017 4.49848 58.0167C4.74948 58.8407 5.01848 59.6607 5.30748 60.4727C5.76447 61.7537 6.27248 63.0147 6.88548 64.2317C7.00047 64.4607 7.11448 64.6907 7.22648 64.9207C7.33648 65.1447 7.44348 65.3697 7.55048 65.5907C8.26447 65.3137 9.37748 65.7837 9.89348 66.4587C10.1855 66.8407 10.3385 67.2837 10.3645 67.7587C10.3995 68.3917 10.1725 68.9477 9.78848 69.4237C11.7145 72.3397 13.9555 74.9577 16.4975 77.3497C16.9365 77.0577 17.4345 77.0507 17.9535 77.0777ZM67.9635 23.3207C68.0175 23.3947 68.0335 23.4187 68.0515 23.4407C68.0795 23.4737 68.1145 23.5007 68.1395 23.5357C68.7145 24.3067 68.8665 25.1267 68.4215 26.0137C68.3405 26.1757 68.2565 26.3367 68.1755 26.4947C70.5785 29.2647 72.3515 32.3807 73.6195 35.7797C75.0315 35.7227 75.9115 36.3647 76.3015 37.6537C77.9255 37.3557 79.5355 37.1487 81.1555 37.0987C82.8035 37.0487 84.4555 37.0067 86.0585 37.1667C86.2885 36.8897 86.4685 36.6277 86.6955 36.4157C86.9185 36.2067 87.1895 36.0487 87.4345 35.8727C86.6535 32.4897 85.4195 29.2777 83.8405 26.1487C83.6085 26.1797 83.3655 26.2597 83.1355 26.2347C82.5135 26.1677 81.9685 25.9317 81.5085 25.4737C80.8695 24.8377 80.6835 23.7017 81.0885 22.9337C81.2135 22.6967 81.3645 22.4737 81.5225 22.2137C79.6215 19.3137 77.3715 16.7037 74.8585 14.3387C74.5755 14.4547 74.3335 14.5907 74.0745 14.6487C73.8135 14.7067 73.5355 14.6847 73.2425 14.6997C71.8545 17.7997 70.1065 20.6747 67.9635 23.3207ZM32.9805 86.8797C33.1825 86.9307 33.3605 86.9737 33.5375 87.0217C34.1485 87.1907 34.7565 87.3737 35.3715 87.5297C35.9865 87.6857 36.6055 87.8257 37.2265 87.9537C37.7245 88.0567 38.2265 88.1427 38.7295 88.2197C39.2055 88.2927 39.6875 88.3297 40.1625 88.4067C40.6675 88.4877 41.1715 88.5697 41.6845 88.5717C41.7565 88.5717 41.8345 88.5577 41.8995 88.5807C42.3195 88.7267 42.7455 88.6337 43.1685 88.6507C43.4915 87.7627 44.1235 87.2227 45.0135 87.1167C46.2665 86.9677 47.1275 87.5837 47.6245 88.7397C47.7385 88.7397 47.8435 88.7617 47.9355 88.7357C48.3295 88.6277 48.7305 88.6647 49.1295 88.6537C49.1585 88.6527 49.1875 88.6547 49.2155 88.6517C49.6505 88.5967 50.0855 88.5367 50.5215 88.4867C50.8605 88.4487 51.2015 88.4277 51.5405 88.3917C51.7655 88.3677 51.9915 88.3387 52.2145 88.2997C52.6595 88.2217 53.1025 88.1387 53.5455 88.0507C54.0575 87.9487 54.5695 87.8467 55.0785 87.7307C55.7105 87.5857 56.3405 87.4307 56.9695 87.2717C57.2805 87.1927 57.5865 87.0937 57.9155 86.9977C57.7795 86.1147 58.1655 85.4507 58.6955 84.8497C56.8245 82.2197 55.2945 79.4357 54.1075 76.4137C53.6975 76.6627 53.2685 76.6457 52.8405 76.6397C52.3765 76.6327 52.0165 76.4117 51.6395 76.1587C51.2595 75.9037 51.1235 75.4937 50.8705 75.1867C50.4405 75.2417 50.0275 75.2627 49.6315 75.3567C49.3605 75.4207 49.0855 75.3797 48.8275 75.4417C48.3525 75.5567 47.8655 75.5637 47.3905 75.5827C46.2115 75.6307 45.0295 75.5987 43.8495 75.5977C43.7485 75.5977 43.6415 75.6147 43.5485 75.5867C43.0925 75.4487 42.6145 75.5397 42.1545 75.4337C41.8115 75.3547 41.4565 75.3277 41.1055 75.2807C40.7565 75.2337 40.4075 75.1897 40.0715 75.1467C39.8085 75.6277 39.5205 76.0227 39.0765 76.2887C38.6135 76.5657 38.1025 76.5687 37.5905 76.5557C37.4945 76.7797 37.4005 76.9697 37.3315 77.1687C36.9515 78.2667 36.4705 79.3227 35.9695 80.3687C35.6445 81.0467 35.2905 81.7127 34.9245 82.3697C34.5935 82.9637 34.2385 83.5437 33.8775 84.1197C33.5615 84.6237 33.2235 85.1127 32.8955 85.6087C32.7995 85.7527 32.7065 85.8997 32.7555 86.0847C32.8235 86.3397 32.8995 86.5957 32.9805 86.8797ZM51.1375 16.6127C51.6415 15.5997 52.4495 15.1337 53.5035 15.1047C54.1275 13.4087 54.8205 11.7867 55.6475 10.2237C56.4755 8.6597 57.3715 7.1387 58.4165 5.7187C58.3725 5.4127 58.3315 5.1207 58.2865 4.8027C57.9765 4.7097 57.6715 4.6057 57.3595 4.5257C56.4055 4.2807 55.4555 4.0137 54.4925 3.8127C53.4855 3.6027 52.4685 3.4397 51.4505 3.2907C50.8055 3.1967 50.1515 3.1667 49.5005 3.1077C49.4575 3.1037 49.4105 3.1167 49.3715 3.1027C48.9525 2.9477 48.5215 3.0557 48.1045 3.0177C47.7445 4.0417 46.7425 4.7377 45.7445 4.6667C44.8155 4.6007 43.9935 4.0787 43.5905 2.9627C40.1095 3.1367 36.6955 3.6997 33.3285 4.7127C33.4575 5.3957 33.1785 5.9757 32.8935 6.5347C34.8065 9.2147 36.2895 12.0817 37.4715 15.1287C38.8155 14.8697 39.7745 15.4047 40.3695 16.5787C40.7995 16.5227 41.1975 16.5027 41.5785 16.4097C41.8345 16.3467 42.0935 16.3817 42.3385 16.3237C42.8545 16.2017 43.3865 16.1857 43.9025 16.1817C45.2775 16.1717 46.6565 16.0707 48.0315 16.2447C48.4685 16.2997 48.9125 16.2957 49.3515 16.3427C49.6305 16.3727 49.9025 16.4557 50.1805 16.4987C50.4885 16.5467 50.7985 16.5737 51.1375 16.6127ZM71.4005 11.4567C68.5985 9.3717 65.6515 7.6777 62.4795 6.3177C62.0215 6.9307 61.3715 7.1987 60.4975 7.2177C59.9335 7.1787 59.3495 6.9017 58.8735 6.3857C56.9445 9.2027 55.3635 12.1517 54.2425 15.3637C55.2745 15.8937 55.7365 16.7227 55.6335 17.8587C55.7595 17.9067 55.8645 17.9447 55.9675 17.9877C56.6975 18.2907 57.4385 18.5677 58.1525 18.9037C59.3055 19.4467 60.4305 20.0427 61.5065 20.7357C62.3885 21.3047 63.2475 21.8987 64.0645 22.5557C64.3375 22.7757 64.6235 22.9787 64.9045 23.1907C65.2505 22.8537 65.6765 22.7687 66.0835 22.6687C66.5075 22.5637 66.9045 22.7887 67.3005 22.8777C68.7065 21.4977 72.1115 15.9197 72.4665 14.4097C71.3495 13.7137 71.0885 12.6827 71.4005 11.4567ZM19.8605 80.1617C22.6525 82.2497 25.6285 83.9977 28.8395 85.3467C28.8845 85.3037 28.9275 85.2657 28.9675 85.2247C29.6535 84.5167 30.4695 84.3527 31.3755 84.6947C31.6865 84.8117 31.9625 85.0227 32.2635 85.1967C34.1745 82.4427 35.7195 79.5067 36.8335 76.3337C35.9335 75.7557 35.4665 74.9817 35.6195 73.9177C35.4965 73.8647 35.4075 73.8237 35.3165 73.7857C34.5735 73.4787 33.8195 73.1967 33.0895 72.8617C31.5305 72.1457 30.0475 71.2887 28.6445 70.3007C27.9725 69.8277 27.3395 69.2997 26.6855 68.8007C26.5655 68.7097 26.4285 68.6407 26.3065 68.5657C25.5345 69.1627 24.7255 69.1317 23.8585 68.8577C23.8005 68.9267 23.7315 69.0007 23.6715 69.0817C23.1825 69.7407 22.6825 70.3937 22.2085 71.0637C21.4485 72.1387 20.7535 73.2557 20.1305 74.4147C19.6745 75.2647 19.2605 76.1367 18.8325 77.0027C18.7785 77.1107 18.7605 77.2367 18.7285 77.3447C19.6265 77.8737 20.1875 78.8097 19.8605 80.1617ZM36.8025 15.5307C35.6625 12.4827 34.1495 9.6537 32.3045 7.0247C32.0855 7.1267 31.8885 7.2397 31.6775 7.3117C31.4925 7.3747 31.2935 7.4117 31.0985 7.4207C30.9485 7.4277 30.7955 7.3627 30.6425 7.3467C30.1395 7.2947 29.7345 7.0607 29.3895 6.7027C29.2515 6.5597 29.1075 6.4227 28.9575 6.2747C25.7245 7.6247 22.7495 9.3637 19.9615 11.4247C20.5175 12.5707 20.2825 14.0627 18.8425 14.7517C19.0775 15.9147 22.5205 21.3167 23.9515 22.7757C24.2605 22.7027 24.5545 22.5987 24.8565 22.5677C25.3565 22.5167 25.8035 22.7107 26.2075 22.9847C26.3445 23.0777 26.4595 23.0987 26.5605 23.0617C29.3685 20.7247 32.4545 18.9667 35.8605 17.7837C35.6715 17.0787 36.1005 15.9827 36.8025 15.5307ZM85.8665 37.9197C85.6075 37.8927 85.3405 37.8417 85.0725 37.8397C83.7765 37.8307 82.4805 37.8247 81.1855 37.8387C80.6695 37.8447 80.1545 37.8967 79.6405 37.9427C79.2565 37.9777 78.8745 38.0337 78.4925 38.0867C77.9555 38.1617 77.4195 38.2427 76.8835 38.3227C76.6905 38.3517 76.4985 38.3867 76.3175 38.4177C76.1135 39.3117 75.6295 39.9297 74.8375 40.2897C75.5005 43.9007 75.5205 47.5017 74.9025 51.1147C75.7195 51.4407 76.2135 52.0297 76.4025 52.8837C79.5845 53.3557 82.7575 53.3587 85.9125 53.0547C85.9475 52.9847 85.9695 52.9607 85.9715 52.9347C86.0515 51.9887 86.9235 50.9487 88.0745 50.8937C88.1525 50.8897 88.2285 50.8337 88.3275 50.7927C88.3575 50.3997 88.3855 50.0167 88.4175 49.6337C88.4415 49.3497 88.4695 49.0667 88.4955 48.7827C88.5215 48.4987 88.5695 48.2157 88.5715 47.9317C88.5795 46.5347 88.5755 45.1387 88.5745 43.7417C88.5745 43.6557 88.5775 43.5687 88.5695 43.4827C88.5175 42.9297 88.4615 42.3777 88.4095 41.8247C88.3685 41.3987 88.3315 40.9727 88.2895 40.5467C88.2875 40.5227 88.2565 40.5017 88.2395 40.4797C86.7085 40.2637 86.0065 39.3967 85.8665 37.9197ZM71.2195 80.3037C70.6635 79.0407 70.9375 77.8047 72.4225 76.9397C71.0575 74.0607 69.3555 71.3987 67.3175 68.9627C66.8645 69.0737 66.4595 69.2487 65.9975 69.1667C65.5385 69.0847 65.1445 68.8607 64.7515 68.6437C61.9335 71.0007 58.8235 72.7747 55.3585 73.9857C55.5295 74.7737 55.2015 75.3987 54.7545 75.9697C55.9415 79.0267 57.4755 81.8597 59.3785 84.4727C59.4865 84.4507 59.5575 84.4397 59.6265 84.4217C60.5545 84.1787 61.3135 84.4727 61.9505 85.1527C62.0475 85.2567 62.1385 85.3667 62.2205 85.4617C65.9355 83.9197 69.4375 81.7367 71.2195 80.3037ZM5.30748 53.2107C5.63548 53.2487 5.93148 53.3097 6.22748 53.3117C7.63848 53.3217 9.04948 53.3167 10.4595 53.3157C10.5455 53.3157 10.6375 53.3317 10.7175 53.3087C11.2015 53.1687 11.7075 53.2477 12.1985 53.1547C12.5605 53.0857 12.9365 53.1017 13.3025 53.0497C13.8755 52.9677 14.4445 52.8587 15.0765 52.7517C15.3695 52.2117 15.7705 51.7037 16.4005 51.4587C16.3225 50.9497 16.2385 50.4487 16.1695 49.9467C16.1275 49.6377 16.1175 49.3237 16.0735 49.0147C15.9865 48.3947 15.8955 47.7747 15.9105 47.1477C15.9385 45.9867 15.8265 44.8247 15.9865 43.6647C16.0505 43.1997 16.0415 42.7257 16.0885 42.2577C16.1165 41.9777 16.1945 41.7037 16.2385 41.4257C16.2795 41.1647 16.3055 40.9017 16.3365 40.6527C15.5145 40.2757 15.0025 39.6857 14.8145 38.8177C14.4985 38.7787 14.2045 38.7397 13.9105 38.7067C13.5995 38.6727 13.2825 38.6727 12.9785 38.6067C12.4315 38.4887 11.8725 38.4737 11.3255 38.4657C9.66148 38.4417 7.99448 38.3657 6.33248 38.5327C5.98348 38.5677 5.63348 38.5997 5.29248 38.6317C5.23648 39.2637 4.98348 39.7727 4.58948 40.1927C4.18048 40.6277 3.65348 40.8707 3.00848 40.8877C2.98248 41.1467 2.95748 41.3847 2.93548 41.6217C2.92748 41.7077 2.95548 41.8047 2.92448 41.8787C2.81348 42.1417 2.86848 42.4157 2.84648 42.6847C2.82448 42.9527 2.77248 43.2207 2.76848 43.4887C2.75647 44.4677 2.75948 45.4467 2.75848 46.4257C2.75848 46.9297 2.75148 47.4337 2.76648 47.9377C2.78248 48.4507 2.82148 48.9627 2.85048 49.4757C2.85248 49.5187 2.84548 49.5647 2.85648 49.6047C2.98048 50.0607 2.93748 50.5367 3.02248 50.9967C3.04048 51.0907 3.05348 51.1857 3.06748 51.2697C4.09548 51.4837 4.78347 51.7677 5.30748 53.2107ZM67.5295 64.8707C69.8115 62.3317 72.5755 57.5217 73.0055 55.3427C72.0185 54.7187 71.6165 53.8287 71.8705 52.6407C70.1175 52.1207 68.4235 51.4597 66.7985 50.6297C65.1565 49.7907 63.6185 48.7887 62.1805 47.6297C61.7195 48.0407 61.1815 48.2077 60.5905 48.2247C59.9665 52.1137 58.1775 55.3347 55.2365 57.8877C55.4685 58.4137 55.5335 58.9167 55.4005 59.4727C58.8745 60.7497 61.9385 62.6867 64.6805 65.1377C65.5855 64.4157 66.5225 64.3217 67.5295 64.8707ZM23.7245 26.9097C21.2645 29.7457 19.4435 32.9027 18.2235 36.4187C18.7405 36.6637 19.0595 37.0567 19.2715 37.5417C19.4835 38.0267 19.4815 38.5317 19.3885 39.0657C21.1265 39.6187 22.8155 40.2807 24.4385 41.1217C26.0645 41.9637 27.5685 42.9827 29.0185 44.1017C29.4855 43.7257 29.9915 43.5287 30.5575 43.5417C31.1975 39.6247 32.9905 36.3797 35.9675 33.8057C35.6845 33.2897 35.7245 32.7677 35.7925 32.2657C35.7315 32.2137 35.7035 32.1787 35.6665 32.1597C35.5905 32.1207 35.5125 32.0847 35.4325 32.0557C33.9645 31.5287 32.5805 30.8237 31.2475 30.0267C29.6905 29.0957 28.2165 28.0407 26.8705 26.8157C26.7805 26.7337 26.6685 26.6747 26.5575 26.5997C25.6935 27.3647 24.7585 27.4057 23.7245 26.9097ZM26.4545 64.9967C29.1995 62.4757 32.2935 60.5657 35.7805 59.2897C35.7805 59.0387 35.7615 58.8217 35.7855 58.6097C35.8115 58.3867 35.8785 58.1687 35.9315 57.9287C32.9645 55.3647 31.1845 52.1117 30.5485 48.2287C29.8105 48.1267 29.3315 47.9427 28.8015 47.4247C27.3965 48.5597 25.8835 49.5437 24.2865 50.3967C22.6885 51.2497 21.0155 51.9277 19.2855 52.4737C19.5515 53.0517 19.6655 53.6337 19.4805 54.2527C19.2975 54.8677 18.9255 55.3367 18.3605 55.7057C18.9155 57.3007 19.6365 58.8087 20.4585 60.2737C21.2905 61.7547 23.1145 64.2997 23.6785 64.7157C24.7195 64.1547 25.5975 64.3307 26.4545 64.9967ZM62.1935 44.1117C63.6025 42.9307 65.0995 41.9017 66.6985 41.0207C68.3065 40.1357 69.9865 39.4157 71.7735 38.8037C71.5925 38.2627 71.6325 37.7587 71.8315 37.2677C72.0385 36.7577 72.3865 36.3677 72.8435 36.0887C72.7615 34.5497 69.0865 28.2427 67.5465 27.0087C67.1145 27.2457 66.6365 27.3567 66.1215 27.3167C65.5975 27.2757 65.1605 27.0527 64.7435 26.7087C63.3815 27.9567 61.9175 29.0657 60.3485 30.0297C58.7865 30.9887 57.1325 31.7667 55.4355 32.3847C55.4355 32.6797 55.4615 32.9257 55.4285 33.1627C55.3955 33.3977 55.3025 33.6237 55.2345 33.8607C58.2055 36.4357 59.9755 39.6817 60.6005 43.5457C61.1755 43.5727 61.4665 43.6497 62.1935 44.1117ZM38.9695 61.1317C39.6295 64.8087 39.5455 68.4637 38.8055 72.1177C39.8075 72.5387 40.2115 73.3537 40.2725 74.3827C41.1035 74.5047 41.9005 74.6347 42.7015 74.7357C43.1395 74.7917 43.5835 74.8127 44.0255 74.8267C44.5285 74.8437 45.0335 74.8377 45.5365 74.8377C46.5115 74.8377 47.4875 74.8437 48.4595 74.7427C48.5025 74.7387 48.5455 74.7407 48.5885 74.7347C48.9825 74.6807 49.3775 74.6377 49.7685 74.5677C50.0845 74.5117 50.4185 74.5247 50.7135 74.3687C50.8355 73.1137 51.4815 72.3037 52.7435 71.9857C52.3485 70.1867 52.0725 68.4057 52.0275 66.5967C51.9825 64.7657 52.0335 62.9387 52.3685 61.1867C51.9795 60.8887 51.6295 60.6217 51.2605 60.3387C47.5045 61.8297 43.7035 61.8247 39.9535 60.3667C39.6025 60.6407 39.2995 60.8757 38.9695 61.1317ZM50.9845 17.3847C50.6605 17.3437 50.3655 17.3107 50.0725 17.2687C49.5115 17.1887 48.9525 17.0807 48.3895 17.0277C47.7635 16.9697 47.1335 16.9447 46.5045 16.9347C45.3135 16.9157 44.1225 16.9097 42.9345 17.0207C42.6085 17.0517 42.2825 17.0797 41.9575 17.1227C41.6205 17.1667 41.2845 17.2217 40.9495 17.2807C40.8015 17.3067 40.6575 17.3517 40.5275 17.3837C40.4245 17.9197 40.3135 18.3917 40.0155 18.8187C39.7045 19.2647 39.2215 19.4467 38.8005 19.7177C39.5715 23.3667 39.6215 27.0037 38.9545 30.6497C39.1395 30.7627 39.3125 30.8407 39.4475 30.9607C39.5965 31.0937 39.7095 31.2667 39.8225 31.4017C39.9945 31.3697 40.0935 31.3617 40.1855 31.3317C40.7095 31.1607 41.2255 30.9577 41.7575 30.8137C42.8575 30.5157 43.9755 30.3177 45.1225 30.3337C45.4825 30.3387 45.8425 30.3467 46.2025 30.3317C46.8785 30.3047 47.5445 30.4077 48.1995 30.5307C49.1575 30.7107 50.1085 30.9437 51.0085 31.3427C51.0935 31.3807 51.2005 31.3697 51.2495 31.3757C51.5545 31.1317 51.8215 30.9187 52.1245 30.6767C52.0965 30.5047 52.0575 30.2977 52.0305 30.0897C51.9665 29.5967 51.9025 29.1027 51.8495 28.6087C51.7885 28.0427 51.7305 27.4767 51.6885 26.9097C51.6665 26.6237 51.6795 26.3337 51.6795 26.0467C51.6805 24.9417 51.6565 23.8367 51.7735 22.7347C51.7795 22.6777 51.7745 22.6187 51.7835 22.5627C51.8645 22.0157 51.9435 21.4687 52.0295 20.9227C52.0985 20.4917 52.1775 20.0617 52.2545 19.6137C51.9175 19.3457 51.5495 19.0947 51.3185 18.7017C51.0855 18.3087 50.9705 17.8897 50.9845 17.3847ZM64.3735 23.7797C61.6985 21.5137 58.7155 19.7767 55.3785 18.5787C55.1285 19.0037 54.8005 19.3707 54.3605 19.5877C53.9345 19.7987 53.4715 19.9267 52.9645 19.8257C52.8715 20.4797 52.8055 21.1297 52.6765 21.7667C52.6265 22.0107 52.6425 22.2487 52.6055 22.4867C52.5015 23.1487 52.4285 23.8137 52.4415 24.4847C52.4635 25.5727 52.3685 26.6627 52.5185 27.7497C52.6045 28.3687 52.6315 28.9947 52.7085 29.6157C52.7455 29.9187 52.8345 30.2147 52.9015 30.5187C53.9105 30.4437 54.5865 30.9627 55.1885 31.6757C58.5845 30.4417 61.5885 28.6047 64.2465 26.1397C63.9755 25.3367 63.8905 24.5497 64.3735 23.7797ZM36.0455 60.0157C34.3345 60.6147 32.7315 61.3997 31.2055 62.3357C29.6785 63.2727 28.2565 64.3567 26.9355 65.6037C27.3455 66.3997 27.3045 67.1887 26.8835 67.9587C28.8285 69.7097 32.1305 71.8547 35.8265 73.1717C36.3275 72.3197 37.0845 71.8977 38.0985 71.8787C38.1925 71.2417 38.2865 70.6137 38.3755 69.9847C38.4115 69.7317 38.4225 69.4747 38.4705 69.2247C38.5695 68.7067 38.6025 68.1817 38.6245 67.6577C38.6495 67.0827 38.6465 66.5057 38.6325 65.9307C38.6165 65.2877 38.6425 64.6467 38.5675 64.0007C38.4955 63.3807 38.4445 62.7557 38.3675 62.1357C38.3315 61.8457 38.2555 61.5597 38.1975 61.2687C37.2705 61.2117 36.5705 60.8167 36.0455 60.0157ZM62.6575 47.0807C64.5025 48.5787 66.5155 49.7817 68.6875 50.7197C69.8295 51.2127 70.9935 51.6417 72.2015 51.9667C72.6915 51.2807 73.3515 50.9877 74.1705 50.9647C74.7685 47.4447 74.7465 43.9477 74.1055 40.4357C73.2505 40.4607 72.6065 40.1067 72.1005 39.4727C68.6125 40.6167 65.4495 42.3117 62.6555 44.6797C63.0985 45.4957 63.0925 46.2777 62.6575 47.0807ZM36.0575 18.5347C34.9455 18.8997 33.8715 19.3607 32.8185 19.8737C31.7715 20.3837 30.7675 20.9727 29.7905 21.6047C28.8025 22.2447 27.8725 22.9637 26.9725 23.7177C27.3585 24.4677 27.3945 25.2157 27.0335 25.9497C29.2965 27.9977 31.7815 29.6337 34.5265 30.8687C35.0505 31.1047 35.5785 31.3477 36.1275 31.4797C37.0335 30.5687 37.3015 30.5877 38.1875 30.4737C38.8655 26.9127 38.7935 23.3587 38.0345 19.8287C36.6005 19.4027 36.5235 19.1387 36.0575 18.5347ZM53.1115 61.2647C52.5285 64.8987 52.6855 68.4737 53.5225 71.9667C53.8765 72.1627 54.1965 72.2977 54.4655 72.5007C54.7345 72.7037 54.9525 72.9747 55.2045 73.2277C58.5285 72.0697 61.5555 70.3327 64.2685 68.0457C64.0925 67.6477 63.9595 67.2747 63.9475 66.8627C63.9365 66.4537 64.0925 66.0857 64.2065 65.7197C61.6045 63.3477 57.0075 60.5587 55.0865 60.1897C54.6335 60.8457 53.9855 61.1927 53.1115 61.2647ZM18.7455 51.8587C22.2705 50.7707 25.5115 49.1417 28.3615 46.8017C28.1645 45.5217 28.2495 45.4057 28.5335 44.7017C25.7155 42.3837 22.5145 40.7927 19.0135 39.7457C18.8225 40.1247 18.5305 40.3507 18.1935 40.5177C17.8615 40.6837 17.5085 40.7897 17.0975 40.7867C16.8575 42.0337 16.7165 43.2757 16.6765 44.5247C16.6045 46.7967 16.6835 49.0617 17.1645 51.3167C17.7735 51.2917 18.2715 51.5207 18.7455 51.8587ZM50.7945 58.9487C47.3215 58.3267 43.8905 58.3037 40.4545 58.8437C40.4315 59.0087 40.4155 59.1347 40.3955 59.2607C40.3745 59.3967 40.3485 59.5327 40.3215 59.6857C43.8745 61.0357 47.3775 61.0227 50.9225 59.6527C50.8805 59.4147 50.8405 59.1957 50.7945 58.9487ZM50.8935 32.1277C50.0215 31.7467 49.1125 31.4807 48.1765 31.3117C46.3555 30.9837 44.5325 30.9967 42.7175 31.3637C41.8975 31.5297 41.1005 31.7737 40.3355 32.0947C40.3465 32.3437 40.3275 32.5637 40.5045 32.7377C43.9295 33.3387 47.3575 33.3837 50.7835 32.8287C50.8225 32.5817 50.8545 32.3747 50.8935 32.1277ZM54.1145 34.9807C55.3675 38.5827 58.0755 42.6547 59.4575 43.9067C59.5165 43.8747 59.5785 43.8427 59.6405 43.8077C59.7145 43.7667 59.7885 43.7247 59.8635 43.6827C59.2745 39.9897 57.5935 36.9247 54.7995 34.4797C54.5545 34.6587 54.3465 34.8107 54.1145 34.9807ZM36.9915 56.8017C35.6185 52.9957 33.3335 49.5957 31.7515 47.8747C31.6175 47.9477 31.4825 48.0207 31.3585 48.0887C31.6765 51.4857 34.0045 55.5047 36.4435 57.2527C36.6205 57.1067 36.7975 56.9617 36.9915 56.8017ZM59.4595 47.8677C57.1975 50.5727 55.4615 53.5577 54.2545 56.8637C54.4565 57.0097 54.6385 57.1407 54.8205 57.2717C57.6125 54.7987 59.2865 51.7477 59.8675 48.0797C59.7285 48.0077 59.6055 47.9437 59.4595 47.8677ZM36.4095 34.4737C36.2655 34.5897 36.1355 34.6807 36.0205 34.7877C34.9415 35.7927 34.0145 36.9227 33.2575 38.1907C32.3255 39.7527 31.7245 41.4377 31.3815 43.2177C31.3505 43.3787 31.3095 43.5537 31.4165 43.7427C31.4995 43.7057 31.5925 43.6917 31.6405 43.6377C33.9145 41.0297 35.6815 38.1167 36.9315 34.8937C36.7455 34.7437 36.5895 34.6187 36.4095 34.4737Z" fill="#9DB1CD"/>
</svg>
