<svg width="91" height="92" viewBox="0 0 91 92" fill="none" xmlns="http://www.w3.org/2000/svg">
<path d="M43.5307 2.18676C43.7987 0.861757 44.6027 0.0507574 45.6847 0.00275741C46.0037 -0.0112426 46.3117 0.025757 46.6147 0.139757C46.9017 0.247757 47.1607 0.394757 47.3897 0.594757C47.6307 0.804757 47.8467 1.04176 47.9617 1.34176C48.0677 1.61976 48.1317 1.91376 48.2227 2.23076C51.6947 2.44476 55.1137 3.04176 58.4817 4.07476C58.7807 3.36076 59.2687 2.85676 60.0117 2.65376C60.5227 2.51376 61.0347 2.53276 61.5307 2.74076C62.6967 3.23076 63.1647 4.26076 62.8457 5.67076C64.4387 6.35376 65.9907 7.13076 67.4957 8.00076C68.9877 8.86276 70.4217 9.81476 71.7987 10.8348C73.0967 9.64476 74.2787 9.94976 75.0627 10.5678C75.8207 11.1638 76.3527 12.3848 75.4037 13.8508C77.9457 16.2288 80.2037 18.8648 82.1367 21.8008C82.7967 21.5308 83.4477 21.4498 84.1057 21.7508C84.5927 21.9738 84.9747 22.3038 85.2317 22.7768C85.7037 23.6468 85.6927 24.8278 84.4997 25.8228C86.1267 28.9768 87.3477 32.2898 88.1757 35.7608C88.8437 35.8248 89.4497 36.0238 89.9197 36.5138C90.2667 36.8758 90.4907 37.3078 90.5497 37.8088C90.6717 38.8398 90.1367 39.8428 89.0127 40.3228C89.0427 40.6658 89.0707 41.0198 89.1067 41.3728C89.1497 41.8008 89.2147 42.2268 89.2417 42.6558C89.3427 44.2648 89.3887 45.8768 89.3227 47.4878C89.2837 48.4478 89.1757 49.4048 89.1007 50.3638C89.0837 50.5768 89.0777 50.7918 89.0667 51.0068C90.1557 51.5178 90.7327 52.3458 90.5487 53.5328C90.3527 54.7918 89.4957 55.4138 88.2627 55.5528C87.4457 59.0968 86.2287 62.4728 84.5797 65.7008C85.3487 66.5918 85.5707 67.5698 84.9297 68.5948C84.3327 69.5498 83.4267 69.8788 82.3007 69.6338C80.3067 72.6998 77.9547 75.4638 75.2827 77.9408C75.8407 79.1918 75.6297 80.2388 74.6997 80.9788C73.8027 81.6928 72.6217 81.6358 71.7437 80.8858C68.8777 83.0048 65.7997 84.7758 62.4777 86.1628C62.6247 86.8288 62.4977 87.4298 62.1227 87.9728C61.8387 88.3848 61.4677 88.6978 60.9887 88.8658C60.4387 89.0588 59.8907 89.0498 59.3507 88.8218C58.8157 88.5958 58.4157 88.2178 58.1337 87.7088C54.7287 88.7158 51.2777 89.3048 47.7187 89.4618C47.6857 89.6078 47.6497 89.7578 47.6167 89.9078C47.3647 91.0678 46.3217 91.8428 45.1927 91.7388C44.0627 91.6338 43.2287 90.8608 43.0457 89.6628C43.0357 89.5948 43.0317 89.5258 43.0237 89.4408C39.5417 89.2178 36.1487 88.6178 32.8147 87.5898C32.7547 87.7018 32.7057 87.8008 32.6507 87.8968C32.1157 88.8158 31.3357 89.3028 30.2577 89.1628C29.3957 89.0508 28.7817 88.5548 28.4367 87.7548C28.1937 87.1908 28.1847 86.6118 28.4407 85.9958C26.8557 85.2858 25.2987 84.5288 23.8017 83.6548C22.3117 82.7848 20.8747 81.8358 19.4757 80.7938C19.0077 81.3588 18.4237 81.7048 17.6927 81.7268C17.1137 81.7448 16.5927 81.5518 16.1487 81.1708C15.2807 80.4258 14.9187 79.1098 15.9177 77.8198C14.6727 76.6178 13.4467 75.3888 12.3307 74.0558C11.2227 72.7328 10.1767 71.3628 9.21472 69.8948C8.50272 70.2048 7.78172 70.3178 7.05672 69.9718C6.56172 69.7358 6.17572 69.3778 5.93772 68.8768C5.43272 67.8128 5.75972 66.6218 6.84072 65.8608C5.22972 62.7348 4.01672 59.4508 3.18272 56.0058C2.98572 55.9748 2.79172 55.9418 2.59672 55.9128C1.75072 55.7908 0.86972 55.0838 0.70372 54.0388C0.51772 52.8618 1.14172 51.9808 1.91372 51.5798C2.04072 51.5138 2.17272 51.4578 2.33872 51.3808C2.13772 49.6398 2.00372 47.8838 1.99172 46.1188C1.98072 44.3498 2.09372 42.5878 2.27472 40.8108C1.06272 40.2438 0.388719 39.3448 0.719719 37.9898C1.00272 36.8338 1.86372 36.2858 3.05672 36.2008C3.46672 34.4358 3.96972 32.7058 4.58072 31.0068C5.19372 29.3038 5.91272 27.6468 6.74272 26.0128C5.94072 25.1668 5.69572 24.1918 6.29472 23.1528C6.89672 22.1088 7.85472 21.7718 9.03872 22.0498C11.0127 19.0128 13.3327 16.2778 15.9677 13.8228C15.2777 12.5438 15.7477 11.3718 16.5137 10.7678C17.2557 10.1828 18.3917 9.98276 19.5007 10.8688C22.3617 8.72976 25.4427 6.96176 28.7247 5.57176C28.5907 4.31076 29.1477 3.33276 30.1597 2.91976C31.0487 2.55676 32.3167 2.77176 33.0737 3.97576C34.2027 3.69376 35.3307 3.37676 36.4757 3.13576C37.6387 2.89076 38.8127 2.68676 39.9907 2.52976C41.1537 2.37476 42.3287 2.29976 43.5307 2.18676ZM58.8607 44.4178C57.6557 43.0338 56.6327 41.5778 55.7247 40.0388C54.8107 38.4908 54.0397 36.8748 53.4077 35.1788C52.1957 35.2158 51.3647 34.6708 50.9037 33.5558C49.1417 33.8378 47.3857 33.9798 45.6167 33.9608C43.8357 33.9418 42.0717 33.7548 40.3157 33.4488C39.8527 34.7158 38.9417 35.2568 37.6207 35.1568C36.3197 38.4928 34.4797 41.4878 32.1677 44.1668C33.0687 45.2248 33.0787 46.2898 32.3277 47.3758C34.6867 50.1418 36.4497 53.2288 37.7247 56.6048C38.3067 56.5298 38.8137 56.6338 39.2897 56.9198C39.7757 57.2108 40.0817 57.6488 40.3117 58.1308C43.8767 57.5338 47.4027 57.5888 50.9227 58.2308C51.4087 57.0248 52.2947 56.4878 53.5857 56.5988C54.8197 53.2048 56.6197 50.1538 58.9107 47.3988C58.1697 46.4118 58.1727 45.4268 58.8607 44.4178ZM73.7337 55.6038C72.4567 59.2348 70.5787 62.4818 68.0877 65.3588C68.8637 66.4698 68.7457 67.5048 67.9177 68.4918C70.0507 71.0498 71.8157 73.8188 73.2077 76.7698C73.5197 76.8468 73.7927 76.8878 74.0437 76.9838C74.3067 77.0848 74.5497 77.2398 74.8057 77.3738C76.7617 75.7638 80.5707 71.2558 81.6157 69.3098C80.3777 68.2108 80.4847 66.9688 81.0427 66.1168C81.3097 65.7088 81.6737 65.4208 82.1287 65.2348C82.7487 64.9818 83.3557 65.0298 83.9617 65.2908C84.7867 63.7178 85.4597 62.1028 86.0707 60.4588C86.7177 58.7168 87.5257 55.8728 87.4917 55.3748C87.1427 55.2438 86.8147 55.0528 86.5827 54.7538C86.3487 54.4528 86.1617 54.1168 85.9467 53.7858C84.3777 53.9418 82.7867 54.0268 81.1897 54.0048C79.5957 53.9828 78.0117 53.8298 76.4137 53.6348C76.2327 54.2438 75.9937 54.7938 75.4737 55.1618C74.9627 55.5218 74.3967 55.6828 73.7337 55.6038ZM14.8127 38.0378C15.0067 37.3958 15.2747 36.8908 15.7977 36.5248C16.3217 36.1578 16.8977 36.0978 17.5107 36.1238C18.7827 32.5208 20.6477 29.2808 23.1417 26.4038C22.3037 25.3268 22.4887 24.1218 23.3217 23.2058C21.2117 20.6748 19.4477 17.9208 18.0297 14.9448C17.4127 14.9768 16.9207 14.6918 16.4317 14.3928C13.8517 16.8198 11.5887 19.4678 9.68272 22.4178C10.6057 23.0848 10.8797 24.2368 10.4317 25.2518C10.2047 25.7668 9.79272 26.1708 9.27972 26.4078C8.66772 26.6908 8.01972 26.7058 7.35772 26.4208C5.78872 29.6028 4.55672 32.8748 3.79472 36.3628C4.46072 36.6618 4.96372 37.1408 5.21272 37.8458C5.39472 37.8458 5.55872 37.8758 5.70772 37.8408C6.23872 37.7138 6.78572 37.7188 7.31972 37.6998C8.64272 37.6528 9.96772 37.6838 11.2927 37.6838C11.3787 37.6838 11.4687 37.6728 11.5517 37.6908C12.1257 37.8108 12.7147 37.7708 13.2917 37.8548C13.4177 37.8728 13.5437 37.8918 13.6697 37.9068C14.0487 37.9518 14.4287 37.9948 14.8127 38.0378ZM17.9537 77.0778C19.3447 73.9418 21.1127 71.0488 23.2457 68.3898C22.7897 67.9398 22.5977 67.4258 22.5547 66.8328C22.5107 66.2338 22.7487 65.7358 23.0407 65.2908C22.5857 64.6998 22.1547 64.1328 21.7167 63.5738C20.8287 62.4418 20.0837 61.2168 19.4087 59.9518C18.9077 59.0138 18.4327 58.0598 18.0497 57.0638C17.9087 56.6978 17.7507 56.3378 17.6067 55.9898C16.3147 56.0448 15.1227 55.4848 14.8327 53.5748C14.7687 53.5748 14.6967 53.5618 14.6307 53.5768C14.0627 53.7058 13.4897 53.7898 12.9087 53.8318C12.5827 53.8548 12.2497 53.8588 11.9327 53.9298C11.4277 54.0428 10.9117 54.0518 10.4067 54.0688C9.02572 54.1138 7.64272 54.0848 6.26072 54.0828C6.14672 54.0828 6.02572 54.0898 5.92172 54.0538C5.70972 53.9808 5.50572 54.0008 5.29772 54.0218C5.10272 54.8518 4.63472 55.4488 3.89672 55.8238C4.10172 56.5758 4.28072 57.3018 4.49872 58.0168C4.74972 58.8408 5.01872 59.6608 5.30772 60.4728C5.76472 61.7538 6.27272 63.0148 6.88572 64.2318C7.00072 64.4608 7.11472 64.6908 7.22672 64.9208C7.33672 65.1448 7.44372 65.3698 7.55072 65.5908C8.26472 65.3138 9.37772 65.7838 9.89372 66.4588C10.1857 66.8408 10.3387 67.2838 10.3647 67.7588C10.3997 68.3918 10.1727 68.9478 9.78872 69.4238C11.7147 72.3398 13.9557 74.9578 16.4977 77.3498C16.9367 77.0578 17.4347 77.0508 17.9537 77.0778ZM67.9637 23.3208C68.0177 23.3948 68.0337 23.4188 68.0517 23.4408C68.0797 23.4738 68.1147 23.5008 68.1397 23.5358C68.7147 24.3068 68.8667 25.1268 68.4217 26.0138C68.3407 26.1758 68.2567 26.3368 68.1757 26.4948C70.5787 29.2648 72.3517 32.3808 73.6197 35.7798C75.0317 35.7228 75.9117 36.3648 76.3017 37.6538C77.9257 37.3558 79.5357 37.1488 81.1557 37.0988C82.8037 37.0488 84.4557 37.0068 86.0587 37.1668C86.2887 36.8898 86.4687 36.6278 86.6957 36.4158C86.9187 36.2068 87.1897 36.0488 87.4347 35.8728C86.6537 32.4898 85.4197 29.2778 83.8407 26.1488C83.6087 26.1798 83.3657 26.2598 83.1357 26.2348C82.5137 26.1678 81.9687 25.9318 81.5087 25.4738C80.8697 24.8378 80.6837 23.7018 81.0887 22.9338C81.2137 22.6968 81.3647 22.4738 81.5227 22.2138C79.6217 19.3138 77.3717 16.7038 74.8587 14.3388C74.5757 14.4548 74.3337 14.5908 74.0747 14.6488C73.8137 14.7068 73.5357 14.6848 73.2427 14.6998C71.8547 17.7998 70.1067 20.6748 67.9637 23.3208ZM32.9807 86.8798C33.1827 86.9308 33.3607 86.9738 33.5377 87.0218C34.1487 87.1908 34.7567 87.3738 35.3717 87.5298C35.9867 87.6858 36.6057 87.8258 37.2267 87.9538C37.7247 88.0568 38.2267 88.1428 38.7297 88.2198C39.2057 88.2928 39.6877 88.3298 40.1627 88.4068C40.6677 88.4878 41.1717 88.5698 41.6847 88.5718C41.7567 88.5718 41.8347 88.5578 41.8997 88.5808C42.3197 88.7268 42.7457 88.6338 43.1687 88.6508C43.4917 87.7628 44.1237 87.2228 45.0137 87.1168C46.2667 86.9678 47.1277 87.5838 47.6247 88.7398C47.7387 88.7398 47.8437 88.7618 47.9357 88.7358C48.3297 88.6278 48.7307 88.6648 49.1297 88.6538C49.1587 88.6528 49.1877 88.6548 49.2157 88.6518C49.6507 88.5968 50.0857 88.5368 50.5217 88.4868C50.8607 88.4488 51.2017 88.4278 51.5407 88.3918C51.7657 88.3678 51.9917 88.3388 52.2147 88.2998C52.6597 88.2218 53.1027 88.1388 53.5457 88.0508C54.0577 87.9488 54.5697 87.8468 55.0787 87.7308C55.7107 87.5858 56.3407 87.4308 56.9697 87.2718C57.2807 87.1928 57.5867 87.0938 57.9157 86.9978C57.7797 86.1148 58.1657 85.4508 58.6957 84.8498C56.8247 82.2198 55.2947 79.4358 54.1077 76.4138C53.6977 76.6628 53.2687 76.6458 52.8407 76.6398C52.3767 76.6328 52.0167 76.4118 51.6397 76.1588C51.2597 75.9038 51.1237 75.4938 50.8707 75.1868C50.4407 75.2418 50.0277 75.2628 49.6317 75.3568C49.3607 75.4208 49.0857 75.3798 48.8277 75.4418C48.3527 75.5568 47.8657 75.5638 47.3907 75.5828C46.2117 75.6308 45.0297 75.5988 43.8497 75.5978C43.7487 75.5978 43.6417 75.6148 43.5487 75.5868C43.0927 75.4488 42.6147 75.5398 42.1547 75.4338C41.8117 75.3548 41.4567 75.3278 41.1057 75.2808C40.7567 75.2338 40.4077 75.1898 40.0717 75.1468C39.8087 75.6278 39.5207 76.0228 39.0767 76.2888C38.6137 76.5658 38.1027 76.5688 37.5907 76.5558C37.4947 76.7798 37.4007 76.9698 37.3317 77.1688C36.9517 78.2668 36.4707 79.3228 35.9697 80.3688C35.6447 81.0468 35.2907 81.7128 34.9247 82.3698C34.5937 82.9638 34.2387 83.5438 33.8777 84.1198C33.5617 84.6238 33.2237 85.1128 32.8957 85.6088C32.7997 85.7528 32.7067 85.8998 32.7557 86.0848C32.8237 86.3398 32.8997 86.5958 32.9807 86.8798ZM51.1377 16.6128C51.6417 15.5998 52.4497 15.1338 53.5037 15.1048C54.1277 13.4088 54.8207 11.7868 55.6477 10.2238C56.4757 8.65976 57.3717 7.13876 58.4167 5.71876C58.3727 5.41276 58.3317 5.12076 58.2867 4.80276C57.9767 4.70976 57.6717 4.60576 57.3597 4.52576C56.4057 4.28076 55.4557 4.01376 54.4927 3.81276C53.4857 3.60276 52.4687 3.43976 51.4507 3.29076C50.8057 3.19676 50.1517 3.16676 49.5007 3.10776C49.4577 3.10376 49.4107 3.11676 49.3717 3.10276C48.9527 2.94776 48.5217 3.05576 48.1047 3.01776C47.7447 4.04176 46.7427 4.73776 45.7447 4.66676C44.8157 4.60076 43.9937 4.07876 43.5907 2.96276C40.1097 3.13676 36.6957 3.69976 33.3287 4.71276C33.4577 5.39576 33.1787 5.97576 32.8937 6.53476C34.8067 9.21476 36.2897 12.0818 37.4717 15.1288C38.8157 14.8698 39.7747 15.4048 40.3697 16.5788C40.7997 16.5228 41.1977 16.5028 41.5787 16.4098C41.8347 16.3468 42.0937 16.3818 42.3387 16.3238C42.8547 16.2018 43.3867 16.1858 43.9027 16.1818C45.2777 16.1718 46.6567 16.0708 48.0317 16.2448C48.4687 16.2998 48.9127 16.2958 49.3517 16.3428C49.6307 16.3728 49.9027 16.4558 50.1807 16.4988C50.4887 16.5468 50.7987 16.5738 51.1377 16.6128ZM71.4007 11.4568C68.5987 9.37176 65.6517 7.67776 62.4797 6.31776C62.0217 6.93076 61.3717 7.19876 60.4977 7.21776C59.9337 7.17876 59.3497 6.90176 58.8737 6.38576C56.9447 9.20276 55.3637 12.1518 54.2427 15.3638C55.2747 15.8938 55.7367 16.7228 55.6337 17.8588C55.7597 17.9068 55.8647 17.9448 55.9677 17.9878C56.6977 18.2908 57.4387 18.5678 58.1527 18.9038C59.3057 19.4468 60.4307 20.0428 61.5067 20.7358C62.3887 21.3048 63.2477 21.8988 64.0647 22.5558C64.3377 22.7758 64.6237 22.9788 64.9047 23.1908C65.2507 22.8538 65.6767 22.7688 66.0837 22.6688C66.5077 22.5638 66.9047 22.7888 67.3007 22.8778C68.7067 21.4978 72.1117 15.9198 72.4667 14.4098C71.3497 13.7138 71.0887 12.6828 71.4007 11.4568ZM19.8607 80.1618C22.6527 82.2498 25.6287 83.9978 28.8397 85.3468C28.8847 85.3038 28.9277 85.2658 28.9677 85.2248C29.6537 84.5168 30.4697 84.3528 31.3757 84.6948C31.6867 84.8118 31.9627 85.0228 32.2637 85.1968C34.1747 82.4428 35.7197 79.5068 36.8337 76.3338C35.9337 75.7558 35.4667 74.9818 35.6197 73.9178C35.4967 73.8648 35.4077 73.8238 35.3167 73.7858C34.5737 73.4788 33.8197 73.1968 33.0897 72.8618C31.5307 72.1458 30.0477 71.2888 28.6447 70.3008C27.9727 69.8278 27.3397 69.2998 26.6857 68.8008C26.5657 68.7098 26.4287 68.6408 26.3067 68.5658C25.5347 69.1628 24.7257 69.1318 23.8587 68.8578C23.8007 68.9268 23.7317 69.0008 23.6717 69.0818C23.1827 69.7408 22.6827 70.3938 22.2087 71.0638C21.4487 72.1388 20.7537 73.2558 20.1307 74.4148C19.6747 75.2648 19.2607 76.1368 18.8327 77.0028C18.7787 77.1108 18.7607 77.2368 18.7287 77.3448C19.6267 77.8738 20.1877 78.8098 19.8607 80.1618ZM36.8027 15.5308C35.6627 12.4828 34.1497 9.65376 32.3047 7.02476C32.0857 7.12676 31.8887 7.23976 31.6777 7.31176C31.4927 7.37476 31.2937 7.41176 31.0987 7.42076C30.9487 7.42776 30.7957 7.36276 30.6427 7.34676C30.1397 7.29476 29.7347 7.06076 29.3897 6.70276C29.2517 6.55976 29.1077 6.42276 28.9577 6.27476C25.7247 7.62476 22.7497 9.36376 19.9617 11.4248C20.5177 12.5708 20.2827 14.0628 18.8427 14.7518C19.0777 15.9148 22.5207 21.3168 23.9517 22.7758C24.2607 22.7028 24.5547 22.5988 24.8567 22.5678C25.3567 22.5168 25.8037 22.7108 26.2077 22.9848C26.3447 23.0778 26.4597 23.0988 26.5607 23.0618C29.3687 20.7248 32.4547 18.9668 35.8607 17.7838C35.6717 17.0788 36.1007 15.9828 36.8027 15.5308ZM85.8667 37.9198C85.6077 37.8928 85.3407 37.8418 85.0727 37.8398C83.7767 37.8308 82.4807 37.8248 81.1857 37.8388C80.6697 37.8448 80.1547 37.8968 79.6407 37.9428C79.2567 37.9778 78.8747 38.0338 78.4927 38.0868C77.9557 38.1618 77.4197 38.2428 76.8837 38.3228C76.6907 38.3518 76.4987 38.3868 76.3177 38.4178C76.1137 39.3118 75.6297 39.9298 74.8377 40.2898C75.5007 43.9008 75.5207 47.5018 74.9027 51.1148C75.7197 51.4408 76.2137 52.0298 76.4027 52.8838C79.5847 53.3558 82.7577 53.3588 85.9127 53.0548C85.9477 52.9848 85.9697 52.9608 85.9717 52.9348C86.0517 51.9888 86.9237 50.9488 88.0747 50.8938C88.1527 50.8898 88.2287 50.8338 88.3277 50.7928C88.3577 50.3998 88.3857 50.0168 88.4177 49.6338C88.4417 49.3498 88.4697 49.0668 88.4957 48.7828C88.5217 48.4988 88.5697 48.2158 88.5717 47.9318C88.5797 46.5348 88.5757 45.1388 88.5747 43.7418C88.5747 43.6558 88.5777 43.5688 88.5697 43.4828C88.5177 42.9298 88.4617 42.3778 88.4097 41.8248C88.3687 41.3988 88.3317 40.9728 88.2897 40.5468C88.2877 40.5228 88.2567 40.5018 88.2397 40.4798C86.7087 40.2638 86.0067 39.3968 85.8667 37.9198ZM71.2197 80.3038C70.6637 79.0408 70.9377 77.8048 72.4227 76.9398C71.0577 74.0608 69.3557 71.3988 67.3177 68.9628C66.8647 69.0738 66.4597 69.2488 65.9977 69.1668C65.5387 69.0848 65.1447 68.8608 64.7517 68.6438C61.9337 71.0008 58.8237 72.7748 55.3587 73.9858C55.5297 74.7738 55.2017 75.3988 54.7547 75.9698C55.9417 79.0268 57.4757 81.8598 59.3787 84.4728C59.4867 84.4508 59.5577 84.4398 59.6267 84.4218C60.5547 84.1788 61.3137 84.4728 61.9507 85.1528C62.0477 85.2568 62.1387 85.3668 62.2207 85.4618C65.9357 83.9198 69.4377 81.7368 71.2197 80.3038ZM5.30772 53.2108C5.63572 53.2488 5.93172 53.3098 6.22772 53.3118C7.63872 53.3218 9.04972 53.3168 10.4597 53.3158C10.5457 53.3158 10.6377 53.3318 10.7177 53.3088C11.2017 53.1688 11.7077 53.2478 12.1987 53.1548C12.5607 53.0858 12.9367 53.1018 13.3027 53.0498C13.8757 52.9678 14.4447 52.8588 15.0767 52.7518C15.3697 52.2118 15.7707 51.7038 16.4007 51.4588C16.3227 50.9498 16.2387 50.4488 16.1697 49.9468C16.1277 49.6378 16.1177 49.3238 16.0737 49.0148C15.9867 48.3948 15.8957 47.7748 15.9107 47.1478C15.9387 45.9868 15.8267 44.8248 15.9867 43.6648C16.0507 43.1998 16.0417 42.7258 16.0887 42.2578C16.1167 41.9778 16.1947 41.7038 16.2387 41.4258C16.2797 41.1648 16.3057 40.9018 16.3367 40.6528C15.5147 40.2758 15.0027 39.6858 14.8147 38.8178C14.4987 38.7788 14.2047 38.7398 13.9107 38.7068C13.5997 38.6728 13.2827 38.6728 12.9787 38.6068C12.4317 38.4888 11.8727 38.4738 11.3257 38.4658C9.66172 38.4418 7.99472 38.3658 6.33272 38.5328C5.98372 38.5678 5.63372 38.5998 5.29272 38.6318C5.23672 39.2638 4.98372 39.7728 4.58972 40.1928C4.18072 40.6278 3.65372 40.8708 3.00872 40.8878C2.98272 41.1468 2.95772 41.3848 2.93572 41.6218C2.92772 41.7078 2.95572 41.8048 2.92472 41.8788C2.81372 42.1418 2.86872 42.4158 2.84672 42.6848C2.82472 42.9528 2.77272 43.2208 2.76872 43.4888C2.75672 44.4678 2.75972 45.4468 2.75872 46.4258C2.75872 46.9298 2.75172 47.4338 2.76672 47.9378C2.78272 48.4508 2.82172 48.9628 2.85072 49.4758C2.85272 49.5188 2.84572 49.5648 2.85672 49.6048C2.98072 50.0608 2.93772 50.5368 3.02272 50.9968C3.04072 51.0908 3.05372 51.1858 3.06772 51.2698C4.09572 51.4838 4.78372 51.7678 5.30772 53.2108ZM67.5297 64.8708C69.8117 62.3318 72.5757 57.5218 73.0057 55.3428C72.0187 54.7188 71.6167 53.8288 71.8707 52.6408C70.1177 52.1208 68.4237 51.4598 66.7987 50.6298C65.1567 49.7908 63.6187 48.7888 62.1807 47.6298C61.7197 48.0408 61.1817 48.2078 60.5907 48.2248C59.9667 52.1138 58.1777 55.3348 55.2367 57.8878C55.4687 58.4138 55.5337 58.9168 55.4007 59.4728C58.8747 60.7498 61.9387 62.6868 64.6807 65.1378C65.5857 64.4158 66.5227 64.3218 67.5297 64.8708ZM23.7247 26.9098C21.2647 29.7458 19.4437 32.9028 18.2237 36.4188C18.7407 36.6638 19.0597 37.0568 19.2717 37.5418C19.4837 38.0268 19.4817 38.5318 19.3887 39.0658C21.1267 39.6188 22.8157 40.2808 24.4387 41.1218C26.0647 41.9638 27.5687 42.9828 29.0187 44.1018C29.4857 43.7258 29.9917 43.5288 30.5577 43.5418C31.1977 39.6248 32.9907 36.3798 35.9677 33.8058C35.6847 33.2898 35.7247 32.7678 35.7927 32.2658C35.7317 32.2138 35.7037 32.1788 35.6667 32.1598C35.5907 32.1208 35.5127 32.0848 35.4327 32.0558C33.9647 31.5288 32.5807 30.8238 31.2477 30.0268C29.6907 29.0958 28.2167 28.0408 26.8707 26.8158C26.7807 26.7338 26.6687 26.6748 26.5577 26.5998C25.6937 27.3648 24.7587 27.4058 23.7247 26.9098ZM26.4547 64.9968C29.1997 62.4758 32.2937 60.5658 35.7807 59.2898C35.7807 59.0388 35.7617 58.8218 35.7857 58.6098C35.8117 58.3868 35.8787 58.1688 35.9317 57.9288C32.9647 55.3648 31.1847 52.1118 30.5487 48.2288C29.8107 48.1268 29.3317 47.9428 28.8017 47.4248C27.3967 48.5598 25.8837 49.5438 24.2867 50.3968C22.6887 51.2498 21.0157 51.9278 19.2857 52.4738C19.5517 53.0518 19.6657 53.6338 19.4807 54.2528C19.2977 54.8678 18.9257 55.3368 18.3607 55.7058C18.9157 57.3008 19.6367 58.8088 20.4587 60.2738C21.2907 61.7548 23.1147 64.2998 23.6787 64.7158C24.7197 64.1548 25.5977 64.3308 26.4547 64.9968ZM62.1937 44.1118C63.6027 42.9308 65.0997 41.9018 66.6987 41.0208C68.3067 40.1358 69.9867 39.4158 71.7737 38.8038C71.5927 38.2628 71.6327 37.7588 71.8317 37.2678C72.0387 36.7578 72.3867 36.3678 72.8437 36.0888C72.7617 34.5498 69.0867 28.2428 67.5467 27.0088C67.1147 27.2458 66.6367 27.3568 66.1217 27.3168C65.5977 27.2758 65.1607 27.0528 64.7437 26.7088C63.3817 27.9568 61.9177 29.0658 60.3487 30.0298C58.7867 30.9888 57.1327 31.7668 55.4357 32.3848C55.4357 32.6798 55.4617 32.9258 55.4287 33.1628C55.3957 33.3978 55.3027 33.6238 55.2347 33.8608C58.2057 36.4358 59.9757 39.6818 60.6007 43.5458C61.1757 43.5728 61.4667 43.6498 62.1937 44.1118ZM38.9697 61.1318C39.6297 64.8088 39.5457 68.4638 38.8057 72.1178C39.8077 72.5388 40.2117 73.3538 40.2727 74.3828C41.1037 74.5048 41.9007 74.6348 42.7017 74.7358C43.1397 74.7918 43.5837 74.8128 44.0257 74.8268C44.5287 74.8438 45.0337 74.8378 45.5367 74.8378C46.5117 74.8378 47.4877 74.8438 48.4597 74.7428C48.5027 74.7388 48.5457 74.7408 48.5887 74.7348C48.9827 74.6808 49.3777 74.6378 49.7687 74.5678C50.0847 74.5118 50.4187 74.5248 50.7137 74.3688C50.8357 73.1138 51.4817 72.3038 52.7437 71.9858C52.3487 70.1868 52.0727 68.4058 52.0277 66.5968C51.9827 64.7658 52.0337 62.9388 52.3687 61.1868C51.9797 60.8888 51.6297 60.6218 51.2607 60.3388C47.5047 61.8298 43.7037 61.8248 39.9537 60.3668C39.6027 60.6408 39.2997 60.8758 38.9697 61.1318ZM50.9847 17.3848C50.6607 17.3438 50.3657 17.3108 50.0727 17.2688C49.5117 17.1888 48.9527 17.0808 48.3897 17.0278C47.7637 16.9698 47.1337 16.9448 46.5047 16.9348C45.3137 16.9158 44.1227 16.9098 42.9347 17.0208C42.6087 17.0518 42.2827 17.0798 41.9577 17.1228C41.6207 17.1668 41.2847 17.2218 40.9497 17.2808C40.8017 17.3068 40.6577 17.3518 40.5277 17.3838C40.4247 17.9198 40.3137 18.3918 40.0157 18.8188C39.7047 19.2648 39.2217 19.4468 38.8007 19.7178C39.5717 23.3668 39.6217 27.0038 38.9547 30.6498C39.1397 30.7628 39.3127 30.8408 39.4477 30.9608C39.5967 31.0938 39.7097 31.2668 39.8227 31.4018C39.9947 31.3698 40.0937 31.3618 40.1857 31.3318C40.7097 31.1608 41.2257 30.9578 41.7577 30.8138C42.8577 30.5158 43.9757 30.3178 45.1227 30.3338C45.4827 30.3388 45.8427 30.3468 46.2027 30.3318C46.8787 30.3048 47.5447 30.4078 48.1997 30.5308C49.1577 30.7108 50.1087 30.9438 51.0087 31.3428C51.0937 31.3808 51.2007 31.3698 51.2497 31.3758C51.5547 31.1318 51.8217 30.9188 52.1247 30.6768C52.0967 30.5048 52.0577 30.2978 52.0307 30.0898C51.9667 29.5968 51.9027 29.1028 51.8497 28.6088C51.7887 28.0428 51.7307 27.4768 51.6887 26.9098C51.6667 26.6238 51.6797 26.3338 51.6797 26.0468C51.6807 24.9418 51.6567 23.8368 51.7737 22.7348C51.7797 22.6778 51.7747 22.6188 51.7837 22.5628C51.8647 22.0158 51.9437 21.4688 52.0297 20.9228C52.0987 20.4918 52.1777 20.0618 52.2547 19.6138C51.9177 19.3458 51.5497 19.0948 51.3187 18.7018C51.0857 18.3088 50.9707 17.8898 50.9847 17.3848ZM64.3737 23.7798C61.6987 21.5138 58.7157 19.7768 55.3787 18.5788C55.1287 19.0038 54.8007 19.3708 54.3607 19.5878C53.9347 19.7988 53.4717 19.9268 52.9647 19.8258C52.8717 20.4798 52.8057 21.1298 52.6767 21.7668C52.6267 22.0108 52.6427 22.2488 52.6057 22.4868C52.5017 23.1488 52.4287 23.8138 52.4417 24.4848C52.4637 25.5728 52.3687 26.6628 52.5187 27.7498C52.6047 28.3688 52.6317 28.9948 52.7087 29.6158C52.7457 29.9188 52.8347 30.2148 52.9017 30.5188C53.9107 30.4438 54.5867 30.9628 55.1887 31.6758C58.5847 30.4418 61.5887 28.6048 64.2467 26.1398C63.9757 25.3368 63.8907 24.5498 64.3737 23.7798ZM36.0457 60.0158C34.3347 60.6148 32.7317 61.3998 31.2057 62.3358C29.6787 63.2728 28.2567 64.3568 26.9357 65.6038C27.3457 66.3998 27.3047 67.1888 26.8837 67.9588C28.8287 69.7098 32.1307 71.8548 35.8267 73.1718C36.3277 72.3198 37.0847 71.8978 38.0987 71.8788C38.1927 71.2418 38.2867 70.6138 38.3757 69.9848C38.4117 69.7318 38.4227 69.4748 38.4707 69.2248C38.5697 68.7068 38.6027 68.1818 38.6247 67.6578C38.6497 67.0828 38.6467 66.5058 38.6327 65.9308C38.6167 65.2878 38.6427 64.6468 38.5677 64.0008C38.4957 63.3808 38.4447 62.7558 38.3677 62.1358C38.3317 61.8458 38.2557 61.5598 38.1977 61.2688C37.2707 61.2118 36.5707 60.8168 36.0457 60.0158ZM62.6577 47.0808C64.5027 48.5788 66.5157 49.7818 68.6877 50.7198C69.8297 51.2128 70.9937 51.6418 72.2017 51.9668C72.6917 51.2808 73.3517 50.9878 74.1707 50.9648C74.7687 47.4448 74.7467 43.9478 74.1057 40.4358C73.2507 40.4608 72.6067 40.1068 72.1007 39.4728C68.6127 40.6168 65.4497 42.3118 62.6557 44.6798C63.0987 45.4958 63.0927 46.2778 62.6577 47.0808ZM36.0577 18.5348C34.9457 18.8998 33.8717 19.3608 32.8187 19.8738C31.7717 20.3838 30.7677 20.9728 29.7907 21.6048C28.8027 22.2448 27.8727 22.9638 26.9727 23.7178C27.3587 24.4678 27.3947 25.2158 27.0337 25.9498C29.2967 27.9978 31.7817 29.6338 34.5267 30.8688C35.0507 31.1048 35.5787 31.3478 36.1277 31.4798C37.0337 30.5688 37.3017 30.5878 38.1877 30.4738C38.8657 26.9128 38.7937 23.3588 38.0347 19.8288C36.6007 19.4028 36.5237 19.1388 36.0577 18.5348ZM53.1117 61.2648C52.5287 64.8988 52.6857 68.4738 53.5227 71.9668C53.8767 72.1628 54.1967 72.2978 54.4657 72.5008C54.7347 72.7038 54.9527 72.9748 55.2047 73.2278C58.5287 72.0698 61.5557 70.3328 64.2687 68.0458C64.0927 67.6478 63.9597 67.2748 63.9477 66.8628C63.9367 66.4538 64.0927 66.0858 64.2067 65.7198C61.6047 63.3478 57.0077 60.5588 55.0867 60.1898C54.6337 60.8458 53.9857 61.1928 53.1117 61.2648ZM18.7457 51.8588C22.2707 50.7708 25.5117 49.1418 28.3617 46.8018C28.1647 45.5218 28.2497 45.4058 28.5337 44.7018C25.7157 42.3838 22.5147 40.7928 19.0137 39.7458C18.8227 40.1248 18.5307 40.3508 18.1937 40.5178C17.8617 40.6838 17.5087 40.7898 17.0977 40.7868C16.8577 42.0338 16.7167 43.2758 16.6767 44.5248C16.6047 46.7968 16.6837 49.0618 17.1647 51.3168C17.7737 51.2918 18.2717 51.5208 18.7457 51.8588ZM50.7947 58.9488C47.3217 58.3268 43.8907 58.3038 40.4547 58.8438C40.4317 59.0088 40.4157 59.1348 40.3957 59.2608C40.3747 59.3968 40.3487 59.5328 40.3217 59.6858C43.8747 61.0358 47.3777 61.0228 50.9227 59.6528C50.8807 59.4148 50.8407 59.1958 50.7947 58.9488ZM50.8937 32.1278C50.0217 31.7468 49.1127 31.4808 48.1767 31.3118C46.3557 30.9838 44.5327 30.9968 42.7177 31.3638C41.8977 31.5298 41.1007 31.7738 40.3357 32.0948C40.3467 32.3438 40.3277 32.5638 40.5047 32.7378C43.9297 33.3388 47.3577 33.3838 50.7837 32.8288C50.8227 32.5818 50.8547 32.3748 50.8937 32.1278ZM54.1147 34.9808C55.3677 38.5828 58.0757 42.6548 59.4577 43.9068C59.5167 43.8748 59.5787 43.8428 59.6407 43.8078C59.7147 43.7668 59.7887 43.7248 59.8637 43.6828C59.2747 39.9898 57.5937 36.9248 54.7997 34.4798C54.5547 34.6588 54.3467 34.8108 54.1147 34.9808ZM36.9917 56.8018C35.6187 52.9958 33.3337 49.5958 31.7517 47.8748C31.6177 47.9478 31.4827 48.0208 31.3587 48.0888C31.6767 51.4858 34.0047 55.5048 36.4437 57.2528C36.6207 57.1068 36.7977 56.9618 36.9917 56.8018ZM59.4597 47.8678C57.1977 50.5728 55.4617 53.5578 54.2547 56.8638C54.4567 57.0098 54.6387 57.1408 54.8207 57.2718C57.6127 54.7988 59.2867 51.7478 59.8677 48.0798C59.7287 48.0078 59.6057 47.9438 59.4597 47.8678ZM36.4097 34.4738C36.2657 34.5898 36.1357 34.6808 36.0207 34.7878C34.9417 35.7928 34.0147 36.9228 33.2577 38.1908C32.3257 39.7528 31.7247 41.4378 31.3817 43.2178C31.3507 43.3788 31.3097 43.5538 31.4167 43.7428C31.4997 43.7058 31.5927 43.6918 31.6407 43.6378C33.9147 41.0298 35.6817 38.1168 36.9317 34.8938C36.7457 34.7438 36.5897 34.6188 36.4097 34.4738Z" fill="#2B79E6"/>
</svg>
