<svg width="156" height="155" viewBox="8 8 140 140" fill="none" xmlns="http://www.w3.org/2000/svg">
<path d="M26.0488 56.2531L26.0807 56.1885L26.103 56.12L36.4955 24.1696L70.022 21.9782L70.0939 21.9735L70.1644 21.9585L103.03 14.9835L121.692 42.9226L121.732 42.9825L121.78 43.0361L144.253 68.0114L129.388 98.1419L129.356 98.2066L129.334 98.2751L118.941 130.225L85.4147 132.417L85.3428 132.422L85.2723 132.437L52.4063 139.412L33.7452 111.472L33.7052 111.413L33.657 111.359L11.1834 86.3836L26.0488 56.2531Z" stroke="#9DB1CD" stroke-width="2"/>
<path d="M100.529 23.183L100.529 23.1831L100.54 23.1876L132.101 35.6824L136.36 69.5188L136.36 69.5188L136.361 69.5307L141.43 103.255L114.436 123.835L114.435 123.834L114.426 123.842L87.9358 145.069L56.6848 131.814L56.6849 131.814L56.6736 131.809L25.1129 119.314L20.8537 85.4781L20.8538 85.4781L20.852 85.4663L15.7836 51.7416L42.7779 31.1624L42.778 31.1625L42.7874 31.155L69.2777 9.92824L100.529 23.183Z" stroke="#9DB1CD"/>
<path d="M58.2977 51.9294L58.3576 51.8894L58.4112 51.8412L72.7559 38.9334L90.0615 47.4714L90.1261 47.5033L90.1946 47.5256L108.545 53.4945L109.804 72.7507L109.809 72.8226L109.824 72.893L113.83 91.7698L97.783 102.488L97.723 102.528L97.6695 102.576L83.3248 115.484L66.0192 106.946L65.9546 106.914L65.886 106.892L47.5352 100.923L46.2766 81.6666L46.2719 81.5947L46.2569 81.5243L42.2508 62.6475L58.2977 51.9294Z" stroke="#9DB1CD" stroke-width="2"/>
<path d="M74.7975 65.3831L74.8682 65.3695L74.9363 65.3459L81.8625 62.9446L86.6602 68.4873L86.7073 68.5418L86.7618 68.5889L92.3045 73.3866L89.9032 80.3128L89.8796 80.3809L89.866 80.4517L88.4825 87.6506L81.2835 89.0341L81.2128 89.0477L81.1447 89.0713L74.2185 91.4726L69.4208 85.9299L69.3737 85.8754L69.3192 85.8283L63.7765 81.0306L66.1778 74.1044L66.2014 74.0363L66.215 73.9656L67.5985 66.7667L74.7975 65.3831Z" stroke="#9DB1CD" stroke-width="2"/>
<path d="M105.125 56.7204L105.125 56.7205L105.132 56.7299L117.343 72.1356L109.681 90.3398L109.681 90.3398L109.677 90.3509L102.453 108.733L82.9552 111.238L82.9552 111.238L82.9432 111.24L63.5118 114.215L51.6769 98.519L51.677 98.5189L51.6695 98.5095L39.4585 83.1038L47.1204 64.8995L47.1205 64.8996L47.1249 64.8884L54.3486 46.5059L73.8465 44.0012L73.8465 44.0013L73.8584 43.9995L93.2899 41.0242L105.125 56.7204Z" stroke="#9DB1CD"/>
</svg>
