<svg width="129" height="130" viewBox="0 0 129 130" fill="none" xmlns="http://www.w3.org/2000/svg">
<path d="M61.6778 3.09855C62.0592 1.22113 63.2033 0.0720058 64.743 0.00399351C65.197 -0.0158434 65.6353 0.0365822 66.0665 0.198111C66.4749 0.351139 66.8435 0.559427 67.1694 0.842812C67.5123 1.14037 67.8197 1.47618 67.9834 1.90125C68.1342 2.29516 68.2253 2.71173 68.3548 3.1609C73.2957 3.46412 78.1611 4.31002 82.954 5.7737C83.3795 4.76202 84.0739 4.04789 85.1313 3.76025C85.8585 3.56189 86.5871 3.58881 87.2929 3.88353C88.9522 4.57782 89.6182 6.03725 89.1642 8.03511C91.4312 9.00287 93.6398 10.1038 95.7815 11.3365C97.9047 12.5579 99.9454 13.9068 101.905 15.3521C103.752 13.666 105.434 14.0981 106.55 14.9738C107.628 15.8183 108.386 17.5483 107.035 19.6255C110.652 22.995 113.866 26.73 116.617 30.8901C117.556 30.5075 118.482 30.3927 119.419 30.8192C120.112 31.1352 120.655 31.6028 121.021 32.273C121.693 33.5057 121.677 35.1791 119.979 36.5889C122.295 41.0579 124.032 45.7522 125.21 50.6703C126.161 50.761 127.023 51.0429 127.692 51.7372C128.186 52.2502 128.505 52.8623 128.589 53.5722C128.762 55.033 128.001 56.4542 126.402 57.1343C126.444 57.6203 126.484 58.1219 126.535 58.6221C126.596 59.2285 126.689 59.8321 126.727 60.44C126.871 62.7198 126.937 65.0039 126.843 67.2865C126.787 68.6468 126.633 70.0028 126.527 71.3616C126.503 71.6634 126.494 71.9681 126.478 72.2727C128.028 72.9967 128.849 74.17 128.587 75.8518C128.308 77.6357 127.089 78.5171 125.334 78.714C124.172 83.7356 122.44 88.5191 120.093 93.093C121.187 94.3554 121.503 95.7412 120.591 97.1935C119.742 98.5467 118.452 99.0129 116.85 98.6657C114.012 103.01 110.665 106.926 106.863 110.436C107.657 112.209 107.357 113.692 106.033 114.741C104.757 115.752 103.076 115.672 101.827 114.609C97.7482 117.611 93.368 120.121 88.6406 122.086C88.8497 123.03 88.669 123.881 88.1354 124.651C87.7312 125.234 87.2033 125.678 86.5216 125.916C85.7389 126.189 84.9591 126.177 84.1906 125.854C83.4293 125.533 82.8601 124.998 82.4588 124.277C77.6132 125.703 72.7022 126.538 67.6376 126.76C67.5906 126.967 67.5394 127.18 67.4924 127.392C67.1338 129.036 65.6495 130.134 64.0429 129.987C62.4348 129.838 61.248 128.743 60.9876 127.045C60.9734 126.949 60.9677 126.851 60.9563 126.731C56.0012 126.415 51.1727 125.565 46.4282 124.108C46.3428 124.267 46.2731 124.407 46.1948 124.543C45.4335 125.845 44.3235 126.535 42.7895 126.337C41.5628 126.178 40.689 125.475 40.198 124.342C39.8522 123.543 39.8394 122.722 40.2037 121.849C37.9482 120.843 35.7325 119.771 33.6022 118.532C31.4818 117.3 29.4368 115.955 27.446 114.479C26.78 115.279 25.9489 115.769 24.9087 115.801C24.0847 115.826 23.3433 115.553 22.7114 115.013C21.4762 113.957 20.9611 112.092 22.3827 110.265C20.611 108.561 18.8663 106.82 17.2782 104.931C15.7014 103.057 14.2129 101.116 12.8439 99.0355C11.8307 99.4748 10.8047 99.6349 9.77296 99.1446C9.06854 98.8102 8.51924 98.303 8.18055 97.5931C7.4619 96.0855 7.92724 94.3979 9.46557 93.3197C7.17302 88.8904 5.44684 84.2372 4.26001 79.3559C3.97966 79.312 3.70359 79.2652 3.42609 79.2241C2.22218 79.0513 0.968463 78.0495 0.732234 76.5688C0.467544 74.9011 1.35554 73.6528 2.45414 73.0846C2.63487 72.9911 2.82271 72.9117 3.05894 72.8026C2.77291 70.3358 2.58222 67.8476 2.56514 65.3468C2.54949 62.8402 2.71029 60.3436 2.96787 57.8258C1.24311 57.0224 0.283969 55.7486 0.755003 53.8286C1.15773 52.1907 2.38299 51.4142 4.0807 51.2937C4.66416 48.7929 5.37996 46.3416 6.24945 43.9342C7.12179 41.5212 8.14497 39.1734 9.32611 36.8581C8.18482 35.6594 7.83617 34.2779 8.68858 32.8057C9.54527 31.3265 10.9086 30.849 12.5935 31.2429C15.4026 26.9397 18.7041 23.0644 22.4539 19.5859C21.472 17.7736 22.1408 16.113 23.2309 15.2572C24.2868 14.4283 25.9034 14.1449 27.4816 15.4003C31.5529 12.3695 35.9374 9.86436 40.6079 7.89483C40.4172 6.10809 41.2098 4.72234 42.65 4.13716C43.9151 3.62281 45.7195 3.92745 46.7968 5.63343C48.4034 5.23385 50.0087 4.78469 51.6381 4.44321C53.2931 4.09607 54.9638 3.80701 56.6401 3.58456C58.2951 3.36493 59.9672 3.25866 61.6778 3.09855ZM83.4933 62.9366C81.7785 60.9756 80.3227 58.9125 79.0306 56.7319C77.7299 54.5385 76.6327 52.2488 75.7334 49.8457C74.0086 49.8981 72.826 49.1259 72.17 47.546C69.6626 47.9456 67.1637 48.1468 64.6463 48.1198C62.1118 48.0929 59.6015 47.828 57.1026 47.3944C56.4437 49.1896 55.1473 49.9562 53.2675 49.8145C51.4161 54.5413 48.7976 58.785 45.5075 62.5809C46.7897 64.0801 46.8039 65.5891 45.7352 67.1279C49.0922 71.0471 51.6011 75.4211 53.4155 80.2046C54.2437 80.0984 54.9652 80.2457 55.6426 80.651C56.3342 81.0633 56.7696 81.6839 57.0969 82.3669C62.1701 81.521 67.1879 81.5989 72.1971 82.5085C72.8887 80.7997 74.1495 80.0388 75.9867 80.1961C77.7427 75.3871 80.3043 71.0641 83.5645 67.1604C82.51 65.7619 82.5143 64.3663 83.4933 62.9366ZM104.659 78.7863C102.841 83.9311 100.169 88.5319 96.6239 92.6084C97.7282 94.1826 97.5603 95.6491 96.382 97.0476C99.4174 100.672 101.929 104.596 103.91 108.777C104.354 108.886 104.743 108.944 105.1 109.08C105.474 109.223 105.82 109.443 106.184 109.633C108.968 107.351 114.388 100.964 115.875 98.2066C114.113 96.6494 114.266 94.8896 115.06 93.6824C115.44 93.1043 115.958 92.6962 116.605 92.4327C117.487 92.0742 118.351 92.1422 119.214 92.512C120.388 90.2832 121.345 87.9949 122.215 85.6655C123.136 83.1972 124.285 79.1674 124.237 78.4618C123.74 78.2762 123.274 78.0056 122.943 77.5819C122.61 77.1554 122.344 76.6793 122.038 76.2103C119.806 76.4314 117.542 76.5518 115.269 76.5206C113.001 76.4895 110.746 76.2727 108.472 75.9964C108.215 76.8593 107.875 77.6386 107.135 78.16C106.407 78.6701 105.602 78.8982 104.659 78.7863ZM20.8102 53.8966C21.0863 52.987 21.4677 52.2714 22.212 51.7528C22.9576 51.2328 23.7773 51.1478 24.6497 51.1846C26.4598 46.0795 29.1138 41.4886 32.6629 37.4122C31.4704 35.8861 31.7337 34.1787 32.9191 32.8808C29.9164 29.2946 27.4061 25.3924 25.3882 21.1756C24.5102 21.221 23.8101 20.8172 23.1142 20.3935C19.4427 23.8324 16.2223 27.5844 13.5099 31.7643C14.8234 32.7094 15.2133 34.3417 14.5758 35.7799C14.2528 36.5096 13.6665 37.082 12.9364 37.4178C12.0655 37.8188 11.1434 37.8401 10.2013 37.4362C7.96851 41.9449 6.2153 46.5811 5.13092 51.5233C6.07868 51.9469 6.79448 52.6257 7.14883 53.6246C7.40782 53.6246 7.64121 53.6671 7.85324 53.6175C8.60889 53.4375 9.38731 53.4446 10.1472 53.4177C12.0299 53.3511 13.9155 53.395 15.8011 53.395C15.9234 53.395 16.0515 53.3795 16.1696 53.405C16.9865 53.575 17.8246 53.5183 18.6458 53.6373C18.8251 53.6628 19.0044 53.6898 19.1837 53.711C19.723 53.7748 20.2638 53.8357 20.8102 53.8966ZM25.2801 109.213C27.2596 104.77 29.7755 100.671 32.8109 96.9031C32.162 96.2654 31.8888 95.5371 31.8276 94.6969C31.765 93.8482 32.1037 93.1425 32.5192 92.512C31.8717 91.6746 31.2584 90.8712 30.6351 90.0792C29.3714 88.4752 28.3112 86.7395 27.3506 84.9471C26.6377 83.618 25.9617 82.2663 25.4167 80.855C25.216 80.3364 24.9912 79.8263 24.7863 79.3332C22.9477 79.4112 21.2514 78.6177 20.8387 75.9114C20.7476 75.9114 20.6452 75.8929 20.5512 75.9142C19.7429 76.097 18.9275 76.216 18.1007 76.2755C17.6368 76.3081 17.1629 76.3138 16.7118 76.4144C15.9932 76.5745 15.2589 76.5872 14.5402 76.6113C12.575 76.6751 10.6069 76.634 8.6402 76.6311C8.47797 76.6311 8.30578 76.6411 8.15778 76.5901C7.85609 76.4866 7.56578 76.515 7.26979 76.5447C6.99229 77.7208 6.3263 78.5667 5.27607 79.098C5.5678 80.1635 5.82253 81.1922 6.13276 82.2053C6.48995 83.3729 6.87275 84.5347 7.28402 85.6853C7.93436 87.5004 8.65727 89.2871 9.52961 91.0115C9.69326 91.336 9.85549 91.6619 10.0149 91.9878C10.1714 92.3051 10.3237 92.624 10.4759 92.9371C11.492 92.5446 13.0759 93.2106 13.8102 94.167C14.2257 94.7082 14.4434 95.3359 14.4804 96.009C14.5303 96.9059 14.2072 97.6937 13.6608 98.3682C16.4016 102.5 19.5907 106.209 23.2081 109.599C23.8328 109.185 24.5415 109.175 25.2801 109.213ZM96.4475 33.0438C96.5243 33.1486 96.5471 33.1826 96.5727 33.2138C96.6126 33.2606 96.6624 33.2988 96.6979 33.3484C97.5162 34.4409 97.7325 35.6027 97.0992 36.8596C96.984 37.0891 96.8644 37.3172 96.7492 37.5411C100.169 41.466 102.692 45.8811 104.496 50.6972C106.506 50.6165 107.758 51.5261 108.313 53.3525C110.624 52.9303 112.915 52.637 115.221 52.5661C117.566 52.4953 119.917 52.4358 122.198 52.6625C122.525 52.27 122.781 51.8988 123.104 51.5984C123.422 51.3022 123.807 51.0784 124.156 50.829C123.045 46.0355 121.288 41.4844 119.041 37.0508C118.711 37.0948 118.366 37.2081 118.038 37.1727C117.153 37.0778 116.377 36.7434 115.723 36.0944C114.814 35.1933 114.549 33.5836 115.125 32.4954C115.303 32.1596 115.518 31.8437 115.743 31.4753C113.038 27.3662 109.836 23.668 106.259 20.317C105.857 20.4814 105.512 20.6741 105.144 20.7562C104.772 20.8384 104.377 20.8072 103.96 20.8285C101.985 25.221 99.4971 29.2946 96.4475 33.0438ZM46.6645 123.102C46.9519 123.174 47.2052 123.235 47.4571 123.303C48.3266 123.543 49.1918 123.802 50.067 124.023C50.9422 124.244 51.8231 124.442 52.7068 124.624C53.4155 124.77 54.1298 124.892 54.8456 125.001C55.523 125.104 56.2089 125.156 56.8849 125.266C57.6035 125.38 58.3208 125.497 59.0508 125.499C59.1533 125.499 59.2643 125.48 59.3568 125.512C59.9544 125.719 60.5607 125.587 61.1626 125.611C61.6223 124.353 62.5216 123.588 63.7882 123.438C65.5713 123.227 66.7965 124.099 67.5038 125.737C67.666 125.737 67.8154 125.769 67.9464 125.732C68.507 125.579 69.0777 125.631 69.6455 125.616C69.6868 125.614 69.728 125.617 69.7679 125.613C70.3869 125.535 71.006 125.45 71.6264 125.379C72.1088 125.325 72.5941 125.295 73.0765 125.244C73.3967 125.21 73.7183 125.169 74.0357 125.114C74.6689 125.003 75.2993 124.886 75.9297 124.761C76.6584 124.617 77.387 124.472 78.1113 124.308C79.0107 124.102 79.9072 123.883 80.8023 123.657C81.2449 123.545 81.6803 123.405 82.1485 123.269C81.955 122.018 82.5043 121.077 83.2585 120.226C80.596 116.499 78.4187 112.554 76.7295 108.272C76.1461 108.625 75.5356 108.601 74.9265 108.593C74.2662 108.583 73.7539 108.27 73.2174 107.911C72.6766 107.55 72.4831 106.969 72.1231 106.534C71.5111 106.612 70.9234 106.642 70.3599 106.775C69.9742 106.865 69.5829 106.807 69.2157 106.895C68.5398 107.058 67.8467 107.068 67.1708 107.095C65.493 107.163 63.8109 107.118 62.1317 107.116C61.988 107.116 61.8357 107.14 61.7034 107.101C61.0545 106.905 60.3742 107.034 59.7196 106.884C59.2315 106.772 58.7263 106.734 58.2268 106.667C57.7302 106.6 57.2335 106.538 56.7554 106.477C56.3811 107.159 55.9713 107.718 55.3394 108.095C54.6806 108.488 53.9534 108.492 53.2248 108.474C53.0882 108.791 52.9544 109.06 52.8562 109.342C52.3154 110.898 51.6309 112.394 50.918 113.876C50.4555 114.837 49.9517 115.781 49.4309 116.712C48.9599 117.553 48.4547 118.375 47.9409 119.191C47.4913 119.905 47.0103 120.598 46.5435 121.301C46.4069 121.505 46.2745 121.713 46.3443 121.975C46.441 122.337 46.5492 122.7 46.6645 123.102ZM72.503 23.5391C73.2202 22.1037 74.3701 21.4434 75.87 21.4024C76.758 18.9993 77.7442 16.701 78.921 14.4864C80.0993 12.2703 81.3744 10.1152 82.8615 8.10312C82.7989 7.66954 82.7405 7.2558 82.6765 6.80522C82.2353 6.67345 81.8013 6.52609 81.3573 6.41273C79.9997 6.06559 78.6478 5.68727 77.2774 5.40247C75.8444 5.10491 74.3971 4.87395 72.9484 4.66283C72.0306 4.52964 71.0999 4.48714 70.1735 4.40354C70.1123 4.39787 70.0454 4.41629 69.9899 4.39645C69.3936 4.17683 68.7803 4.32986 68.1869 4.27601C67.6746 5.72694 66.2486 6.71312 64.8284 6.61252C63.5064 6.519 62.3367 5.77937 61.7632 4.19808C56.8095 4.44463 51.9511 5.24235 47.1597 6.6777C47.3433 7.64546 46.9462 8.46727 46.5406 9.25933C49.263 13.0567 51.3734 17.119 53.0554 21.4364C54.968 21.0694 56.3327 21.8274 57.1795 23.4909C57.7914 23.4115 58.3578 23.3832 58.9 23.2514C59.2643 23.1622 59.6328 23.2118 59.9815 23.1296C60.7158 22.9567 61.4728 22.934 62.2071 22.9284C64.1639 22.9142 66.1263 22.7711 68.083 23.0176C68.7049 23.0956 69.3367 23.0899 69.9614 23.1565C70.3585 23.199 70.7455 23.3166 71.1411 23.3775C71.5794 23.4456 72.0206 23.4838 72.503 23.5391ZM101.339 16.2334C97.3511 13.2791 93.1574 10.8789 88.6434 8.95186C87.9916 9.82043 87.0666 10.2002 85.8229 10.2271C85.0203 10.1718 84.1892 9.77934 83.5118 9.04821C80.7667 13.0397 78.5169 17.2182 76.9216 21.7693C78.3902 22.5203 79.0477 23.6949 78.9011 25.3046C79.0804 25.3726 79.2298 25.4264 79.3764 25.4873C80.4152 25.9167 81.4697 26.3092 82.4858 26.7852C84.1266 27.5546 85.7275 28.3991 87.2588 29.381C88.5139 30.1873 89.7363 31.0289 90.899 31.9598C91.2875 32.2716 91.6944 32.5592 92.0943 32.8596C92.5867 32.3821 93.1929 32.2616 93.7721 32.12C94.3755 31.9712 94.9405 32.29 95.504 32.4161C97.5048 30.4607 102.35 22.5571 102.856 20.4176C101.266 19.4314 100.895 17.9706 101.339 16.2334ZM27.9939 113.583C31.9671 116.542 36.2021 119.018 40.7715 120.93C40.8356 120.869 40.8968 120.815 40.9537 120.757C41.9299 119.754 43.0911 119.521 44.3804 120.006C44.823 120.172 45.2158 120.471 45.6441 120.717C48.3636 116.815 50.5622 112.655 52.1475 108.159C50.8668 107.34 50.2022 106.243 50.4199 104.736C50.2449 104.661 50.1182 104.603 49.9887 104.549C48.9314 104.114 47.8584 103.714 46.8196 103.24C44.601 102.225 42.4906 101.011 40.494 99.6108C39.5377 98.9406 38.6369 98.1925 37.7063 97.4854C37.5355 97.3565 37.3405 97.2587 37.1669 97.1524C36.0683 97.9983 34.9171 97.9544 33.6833 97.5662C33.6007 97.6639 33.5025 97.7688 33.4172 97.8836C32.7213 98.8173 32.0097 99.7426 31.3352 100.692C30.2537 102.215 29.2647 103.798 28.3781 105.44C27.7292 106.644 27.14 107.88 26.531 109.107C26.4541 109.26 26.4285 109.439 26.383 109.592C27.6609 110.341 28.4592 111.667 27.9939 113.583ZM52.1034 22.006C50.4811 17.6872 48.328 13.6787 45.7025 9.95362C45.3908 10.0981 45.1105 10.2583 44.8102 10.3603C44.5469 10.4495 44.2637 10.502 43.9862 10.5147C43.7728 10.5246 43.5551 10.4325 43.3373 10.4099C42.6215 10.3362 42.0452 10.0046 41.5542 9.49737C41.3578 9.29475 41.1529 9.10063 40.9395 8.89093C36.3387 10.8038 32.1051 13.2678 28.1376 16.1881C28.9288 17.8119 28.5944 19.9259 26.5452 20.9022C26.8796 22.5501 31.7792 30.2043 33.8156 32.2716C34.2553 32.1681 34.6737 32.0208 35.1035 31.9768C35.815 31.9046 36.4511 32.1795 37.026 32.5677C37.221 32.6995 37.3847 32.7292 37.5284 32.6768C41.5243 29.3655 45.9159 26.8745 50.7629 25.1983C50.4939 24.1994 51.1044 22.6464 52.1034 22.006ZM121.925 53.7294C121.556 53.6912 121.176 53.6189 120.795 53.6161C118.95 53.6033 117.106 53.5948 115.263 53.6147C114.529 53.6232 113.796 53.6968 113.065 53.762C112.518 53.8116 111.975 53.891 111.431 53.9661C110.667 54.0723 109.904 54.1871 109.141 54.3005C108.867 54.3415 108.593 54.3911 108.336 54.4351C108.045 55.7018 107.357 56.5774 106.23 57.0875C107.173 62.204 107.202 67.3064 106.322 72.4257C107.485 72.8876 108.188 73.7222 108.457 74.9323C112.985 75.601 117.5 75.6053 121.99 75.1746C122.04 75.0754 122.071 75.0414 122.074 75.0045C122.188 73.6641 123.429 72.1905 125.067 72.1126C125.178 72.1069 125.286 72.0276 125.427 71.9695C125.469 71.4126 125.509 70.8699 125.555 70.3273C125.589 69.9249 125.629 69.5239 125.666 69.1215C125.703 68.7191 125.771 68.3181 125.774 67.9157C125.785 65.9362 125.78 63.9582 125.778 61.9788C125.778 61.8569 125.783 61.7336 125.771 61.6118C125.697 60.8282 125.617 60.0461 125.543 59.2625C125.485 58.6589 125.432 58.0553 125.373 57.4517C125.37 57.4177 125.326 57.3879 125.302 57.3568C123.123 57.0507 122.124 55.8222 121.925 53.7294ZM101.081 113.784C100.29 111.995 100.68 110.243 102.793 109.018C100.85 104.938 98.4284 101.167 95.5282 97.715C94.8835 97.8722 94.3072 98.1202 93.6497 98.004C92.9966 97.8878 92.4359 97.5704 91.8766 97.263C87.8664 100.603 83.4407 103.116 78.5098 104.832C78.7531 105.949 78.2863 106.834 77.6502 107.643C79.3394 111.975 81.5224 115.989 84.2305 119.691C84.3842 119.66 84.4852 119.645 84.5834 119.619C85.904 119.275 86.9841 119.691 87.8906 120.655C88.0286 120.802 88.1581 120.958 88.2748 121.093C93.5615 118.908 98.5451 115.815 101.081 113.784ZM7.28402 75.3956C7.75078 75.4494 8.17201 75.5359 8.59324 75.5387C10.6012 75.5529 12.6091 75.5458 14.6156 75.5444C14.738 75.5444 14.8689 75.567 14.9828 75.5345C15.6716 75.3361 16.3916 75.448 17.0903 75.3162C17.6055 75.2185 18.1406 75.2411 18.6614 75.1675C19.4768 75.0513 20.2865 74.8968 21.1859 74.7452C21.6029 73.9801 22.1735 73.2603 23.0701 72.9131C22.9591 72.1919 22.8395 71.4821 22.7413 70.7708C22.6816 70.3329 22.6673 69.888 22.6047 69.4502C22.4809 68.5717 22.3514 67.6932 22.3728 66.8048C22.4126 65.1597 22.2532 63.5133 22.4809 61.8697C22.572 61.2108 22.5592 60.5392 22.6261 59.876C22.6659 59.4793 22.7769 59.0911 22.8395 58.6972C22.8979 58.3273 22.9349 57.9547 22.979 57.6019C21.8092 57.0677 21.0806 56.2317 20.8131 55.0018C20.3634 54.9466 19.945 54.8913 19.5266 54.8446C19.0841 54.7964 18.6329 54.7964 18.2003 54.7029C17.4219 54.5357 16.6264 54.5144 15.848 54.5031C13.48 54.4691 11.1078 54.3614 8.74266 54.598C8.24601 54.6476 7.74794 54.6929 7.26267 54.7383C7.18298 55.6338 6.82295 56.355 6.26226 56.9501C5.68023 57.5665 4.93027 57.9108 4.0124 57.9349C3.9754 58.3018 3.93982 58.6391 3.90851 58.9749C3.89713 59.0967 3.93697 59.2342 3.89286 59.339C3.7349 59.7117 3.81317 60.0999 3.78186 60.4811C3.75055 60.8608 3.67655 61.2405 3.67086 61.6203C3.65378 63.0074 3.65805 64.3946 3.65663 65.7818C3.65663 66.4959 3.64667 67.21 3.66801 67.9242C3.69078 68.651 3.74628 69.3765 3.78755 70.1034C3.7904 70.1643 3.78044 70.2295 3.79609 70.2862C3.97255 70.9323 3.91136 71.6068 4.03232 72.2585C4.05793 72.3917 4.07643 72.5263 4.09636 72.6453C5.55927 72.9486 6.53833 73.351 7.28402 75.3956ZM95.8299 91.9169C99.0773 88.3193 103.011 81.504 103.623 78.4165C102.218 77.5323 101.646 76.2712 102.007 74.5879C99.5128 73.8512 97.1021 72.9146 94.7896 71.7385C92.4529 70.5497 90.2643 69.13 88.2179 67.4878C87.5619 68.0701 86.7963 68.3067 85.9552 68.3308C85.0672 73.8412 82.5214 78.4051 78.3362 82.0225C78.6663 82.7678 78.7588 83.4806 78.5695 84.2684C83.5133 86.0778 87.8735 88.8223 91.7756 92.2952C93.0634 91.2722 94.3968 91.139 95.8299 91.9169ZM33.4926 38.1291C29.9918 42.1475 27.4004 46.6207 25.6643 51.6026C26.4 51.9498 26.854 52.5066 27.1557 53.1938C27.4574 53.881 27.4545 54.5966 27.3222 55.3532C29.7955 56.1368 32.199 57.0748 34.5086 58.2664C36.8225 59.4595 38.9628 60.9033 41.0263 62.4888C41.6908 61.9561 42.4109 61.677 43.2164 61.6954C44.1271 56.1453 46.6787 51.5474 50.9151 47.9002C50.5124 47.1691 50.5693 46.4295 50.6661 45.7182C50.5793 45.6445 50.5395 45.5949 50.4868 45.568C50.3786 45.5127 50.2677 45.4617 50.1538 45.4206C48.0647 44.6739 46.0952 43.675 44.1983 42.5457C41.9826 41.2265 39.885 39.7317 37.9695 37.9959C37.8415 37.8797 37.6821 37.7961 37.5241 37.6899C36.2946 38.7738 34.964 38.8319 33.4926 38.1291ZM37.3775 92.0954C41.2838 88.5234 45.6868 85.8171 50.649 84.0091C50.649 83.6534 50.622 83.3459 50.6561 83.0456C50.6931 82.7296 50.7885 82.4207 50.8639 82.0806C46.6417 78.4476 44.1086 73.8384 43.2036 68.3365C42.1533 68.192 41.4717 67.9312 40.7175 67.1973C38.7181 68.8055 36.565 70.1997 34.2923 71.4084C32.0183 72.617 29.6375 73.5777 27.1756 74.3513C27.5541 75.1703 27.7164 75.995 27.4531 76.872C27.1927 77.7434 26.6633 78.408 25.8593 78.9308C26.6491 81.1908 27.6751 83.3275 28.8449 85.4033C30.0288 87.5018 32.6245 91.1078 33.4271 91.6973C34.9085 90.9024 36.158 91.1518 37.3775 92.0954ZM88.2364 62.503C90.2415 60.8296 92.3718 59.3716 94.6473 58.1233C96.9356 56.8693 99.3263 55.8492 101.869 54.982C101.612 54.2154 101.669 53.5013 101.952 52.8056C102.246 52.083 102.742 51.5304 103.392 51.1351C103.275 48.9544 98.0456 40.0179 95.8541 38.2694C95.2393 38.6052 94.5591 38.7625 93.8262 38.7058C93.0805 38.6477 92.4586 38.3317 91.8652 37.8443C89.927 39.6126 87.8436 41.184 85.6108 42.5499C83.388 43.9087 81.0343 45.0111 78.6193 45.8868C78.6193 46.3048 78.6563 46.6533 78.6094 46.9891C78.5624 47.3221 78.4301 47.6423 78.3333 47.9781C82.5612 51.6267 85.08 56.2261 85.9695 61.701C86.7877 61.7393 87.2018 61.8484 88.2364 62.503ZM55.1872 86.619C56.1264 91.8291 56.0069 97.0079 54.9538 102.185C56.3797 102.782 56.9546 103.937 57.0414 105.395C58.224 105.568 59.3582 105.752 60.4981 105.895C61.1214 105.974 61.7532 106.004 62.3822 106.024C63.098 106.048 63.8166 106.039 64.5324 106.039C65.9199 106.039 67.3088 106.048 68.6921 105.905C68.7532 105.899 68.8144 105.902 68.8756 105.893C69.4363 105.817 69.9984 105.756 70.5548 105.657C71.0045 105.577 71.4798 105.596 71.8996 105.375C72.0732 103.597 72.9925 102.449 74.7885 101.998C74.2263 99.4493 73.8336 96.9257 73.7695 94.3625C73.7055 91.7681 73.7781 89.1794 74.2548 86.697C73.7012 86.2747 73.2032 85.8964 72.678 85.4954C67.333 87.608 61.924 87.601 56.5875 85.5351C56.088 85.9233 55.6568 86.2563 55.1872 86.619ZM72.2853 24.6329C71.8242 24.5748 71.4044 24.5281 70.9874 24.4686C70.1891 24.3552 69.3936 24.2022 68.5924 24.1271C67.7016 24.0449 66.8051 24.0095 65.91 23.9953C64.2151 23.9684 62.5202 23.9599 60.8296 24.1172C60.3657 24.1611 59.9018 24.2008 59.4393 24.2617C58.9597 24.324 58.4816 24.402 58.0048 24.4856C57.7942 24.5224 57.5893 24.5862 57.4043 24.6315C57.2577 25.391 57.0998 26.0598 56.6757 26.6648C56.2331 27.2967 55.5458 27.5546 54.9467 27.9386C56.0439 33.109 56.115 38.2623 55.1658 43.4284C55.4291 43.5885 55.6753 43.699 55.8674 43.8691C56.0794 44.0575 56.2402 44.3027 56.4011 44.4939C56.6458 44.4486 56.7867 44.4373 56.9176 44.3948C57.6633 44.1525 58.3976 43.8648 59.1547 43.6608C60.7201 43.2385 62.311 42.958 63.9433 42.9807C64.4556 42.9877 64.9679 42.9991 65.4802 42.9778C66.4422 42.9396 67.3899 43.0855 68.3221 43.2598C69.6853 43.5148 71.0387 43.845 72.3194 44.4103C72.4404 44.4642 72.5927 44.4486 72.6624 44.4571C73.0964 44.1114 73.4764 43.8096 73.9076 43.4667C73.8677 43.223 73.8122 42.9297 73.7738 42.6349C73.6827 41.9364 73.5917 41.2364 73.5162 40.5365C73.4294 39.7345 73.3469 38.9325 73.2871 38.1291C73.2558 37.7239 73.2743 37.313 73.2743 36.9063C73.2757 35.3406 73.2416 33.7749 73.4081 32.2135C73.4166 32.1327 73.4095 32.0491 73.4223 31.9698C73.5376 31.1947 73.65 30.4196 73.7724 29.646C73.8706 29.0353 73.983 28.426 74.0926 27.7913C73.613 27.4115 73.0893 27.0559 72.7606 26.499C72.429 25.9422 72.2654 25.3485 72.2853 24.6329ZM91.3387 33.6942C87.532 30.4834 83.287 28.0222 78.5382 26.3247C78.1825 26.9269 77.7157 27.4469 77.0895 27.7544C76.4833 28.0534 75.8244 28.2348 75.103 28.0916C74.9706 29.0183 74.8767 29.9393 74.6931 30.8419C74.622 31.1876 74.6447 31.5248 74.5921 31.8621C74.4441 32.8001 74.3402 33.7423 74.3587 34.6931C74.39 36.2347 74.2548 37.7791 74.4683 39.3193C74.5906 40.1964 74.6291 41.0834 74.7386 41.9633C74.7913 42.3926 74.918 42.812 75.0133 43.2428C76.4492 43.1365 77.4112 43.8719 78.2678 44.8822C83.1006 43.1337 87.3755 40.5308 91.158 37.0381C90.7723 35.9003 90.6513 34.7852 91.3387 33.6942ZM51.0261 85.0378C48.5913 85.8865 46.3101 86.9988 44.1385 88.325C41.9655 89.6527 39.9419 91.1886 38.062 92.9555C38.6455 94.0834 38.5871 95.2013 37.988 96.2924C40.7559 98.7734 45.4548 101.813 50.7145 103.679C51.4274 102.472 52.5047 101.874 53.9477 101.847C54.0815 100.944 54.2152 100.054 54.3419 99.163C54.3931 98.8046 54.4088 98.4404 54.4771 98.0862C54.618 97.3522 54.6649 96.6083 54.6962 95.8659C54.7318 95.0511 54.7275 94.2336 54.7076 93.4188C54.6848 92.5078 54.7218 91.5995 54.6151 90.6842C54.5126 89.8057 54.4401 88.9201 54.3305 88.0416C54.2793 87.6307 54.1711 87.2255 54.0886 86.8131C52.7694 86.7324 51.7732 86.1727 51.0261 85.0378ZM88.8967 66.7099C91.5223 68.8324 94.3869 70.537 97.4778 71.866C99.1029 72.5646 100.759 73.1724 102.478 73.6329C103.176 72.6609 104.115 72.2458 105.28 72.2132C106.131 67.2256 106.1 62.2706 105.188 57.2944C103.971 57.3298 103.055 56.8282 102.335 55.9299C97.371 57.5509 92.8699 59.9526 88.8939 63.3078C89.5243 64.464 89.5157 65.5721 88.8967 66.7099ZM51.0432 26.2624C49.4608 26.7796 47.9324 27.4328 46.4339 28.1597C44.944 28.8823 43.5152 29.7169 42.1249 30.6124C40.7189 31.5192 39.3954 32.5379 38.1147 33.6063C38.664 34.669 38.7152 35.7289 38.2015 36.7689C41.4219 39.6707 44.9582 41.9888 48.8645 43.7387C49.6102 44.0731 50.3616 44.4174 51.1428 44.6045C52.4321 43.3136 52.8135 43.3406 54.0743 43.179C55.0392 38.1334 54.9367 33.0976 53.8566 28.0959C51.8159 27.4923 51.7064 27.1182 51.0432 26.2624ZM75.3121 86.8075C74.4825 91.9566 74.7059 97.0221 75.897 101.971C76.4008 102.249 76.8562 102.44 77.239 102.728C77.6218 103.016 77.932 103.4 78.2906 103.758C83.0209 102.117 87.3285 99.6561 91.1893 96.4156C90.9388 95.8517 90.7495 95.3232 90.7325 94.7394C90.7168 94.1599 90.9388 93.6385 91.101 93.1199C87.3982 89.7589 80.8564 85.8071 78.1227 85.2843C77.478 86.2138 76.5559 86.7055 75.3121 86.8075ZM26.4071 73.4799C31.4234 71.9383 36.0356 69.6301 40.0913 66.3145C39.811 64.5009 39.9319 64.3365 40.3361 63.339C36.3259 60.0546 31.7707 57.8003 26.7885 56.3167C26.5167 56.8538 26.1012 57.174 25.6216 57.4106C25.1492 57.6458 24.6468 57.796 24.0619 57.7917C23.7204 59.5587 23.5197 61.3185 23.4628 63.0882C23.3604 66.3075 23.4728 69.5168 24.1573 72.7119C25.0239 72.6765 25.7326 73.001 26.4071 73.4799ZM72.0149 83.5259C67.0726 82.6446 62.1901 82.612 57.3004 83.3771C57.2677 83.6109 57.2449 83.7894 57.2165 83.968C57.1866 84.1607 57.1496 84.3534 57.1112 84.5702C62.1673 86.483 67.1523 86.4646 72.1971 84.5234C72.1373 84.1862 72.0804 83.8759 72.0149 83.5259ZM72.1558 45.5226C70.9149 44.9828 69.6213 44.6059 68.2893 44.3664C65.6979 43.9017 63.1037 43.9201 60.5208 44.4401C59.3539 44.6753 58.2197 45.021 57.1311 45.4759C57.1467 45.8287 57.1197 46.1404 57.3716 46.3869C62.2456 47.2385 67.1238 47.3023 71.9992 46.5159C72.0547 46.1659 72.1003 45.8726 72.1558 45.5226ZM76.7395 49.5651C78.5226 54.6689 82.3762 60.4386 84.3429 62.2126C84.4269 62.1672 84.5151 62.1219 84.6033 62.0723C84.7086 62.0142 84.8139 61.9547 84.9207 61.8952C84.0825 56.6625 81.6903 52.3196 77.7143 48.8552C77.3656 49.1089 77.0696 49.3242 76.7395 49.5651ZM52.3724 80.4838C50.4185 75.091 47.1668 70.2734 44.9155 67.8349C44.7248 67.9383 44.5327 68.0418 44.3562 68.1381C44.8088 72.9514 48.1217 78.646 51.5925 81.1228C51.8444 80.9159 52.0963 80.7105 52.3724 80.4838ZM84.3457 67.825C81.1268 71.6578 78.6563 75.8873 76.9387 80.5716C77.2262 80.7785 77.4852 80.9641 77.7442 81.1497C81.7174 77.6457 84.0996 73.3226 84.9264 68.1254C84.7286 68.0234 84.5535 67.9327 84.3457 67.825ZM51.5441 48.8467C51.3392 49.0111 51.1542 49.14 50.9906 49.2916C49.4551 50.7156 48.1359 52.3168 47.0586 54.1134C45.7323 56.3267 44.8771 58.7142 44.389 61.2363C44.3449 61.4644 44.2865 61.7124 44.4388 61.9802C44.5569 61.9277 44.6892 61.9079 44.7575 61.8314C47.9936 58.1361 50.5081 54.0086 52.287 49.4418C52.0223 49.2293 51.8003 49.0522 51.5441 48.8467Z" fill="#9DB1CD"/>
</svg>
