<svg width="136" height="139" viewBox="0 0 136 139" fill="none" xmlns="http://www.w3.org/2000/svg">
<path d="M16.4129 48.2531L16.4448 48.1885L16.4671 48.12L26.8595 16.1696L60.3861 13.9782L60.458 13.9735L60.5284 13.9585L93.3945 6.98348L112.056 34.9226L112.096 34.9825L112.144 35.0361L134.617 60.0114L119.752 90.1419L119.72 90.2066L119.698 90.2751L109.305 122.225L75.7788 124.417L75.7069 124.422L75.6364 124.437L42.7703 131.412L24.1093 103.472L24.0692 103.413L24.021 103.359L1.54744 78.3836L16.4129 48.2531Z" stroke="#2B79E6" stroke-width="2"/>
<path d="M90.8932 15.183L90.8932 15.1831L90.9044 15.1876L122.465 27.6824L126.724 61.5188L126.724 61.5188L126.726 61.5307L131.794 95.2553L104.8 115.835L104.8 115.834L104.791 115.842L78.3003 137.069L47.0494 123.814L47.0494 123.814L47.0382 123.809L15.4775 111.314L11.2182 77.4781L11.2184 77.4781L11.2166 77.4663L6.14812 43.7416L33.1425 23.1624L33.1425 23.1625L33.152 23.155L59.6423 1.92824L90.8932 15.183Z" stroke="#2B79E6"/>
<path d="M48.6617 43.9294L48.7217 43.8894L48.7752 43.8412L63.1199 30.9334L80.4255 39.4714L80.4901 39.5033L80.5587 39.5256L98.9095 45.4945L100.168 64.7507L100.173 64.8226L100.188 64.893L104.194 83.7698L88.147 94.4879L88.0871 94.5279L88.0335 94.5761L73.6888 107.484L56.3832 98.9459L56.3186 98.914L56.2501 98.8917L37.8992 92.9227L36.6406 73.6666L36.6359 73.5947L36.6209 73.5243L32.6148 54.6475L48.6617 43.9294Z" stroke="#2B79E6" stroke-width="2"/>
<path d="M65.1617 57.3831L65.2324 57.3695L65.3005 57.3459L72.2267 54.9446L77.0244 60.4873L77.0715 60.5418L77.126 60.5889L82.6687 65.3866L80.2674 72.3128L80.2438 72.3809L80.2302 72.4517L78.8467 79.6506L71.6477 81.0341L71.577 81.0477L71.5089 81.0713L64.5827 83.4726L59.785 77.9299L59.7379 77.8754L59.6834 77.8283L54.1407 73.0306L56.542 66.1044L56.5656 66.0363L56.5792 65.9656L57.9627 58.7667L65.1617 57.3831Z" stroke="#2B79E6" stroke-width="2"/>
<path d="M95.4897 48.7204L95.4896 48.7205L95.4971 48.7299L107.708 64.1356L100.046 82.3398L100.046 82.3398L100.042 82.3509L92.818 100.733L73.3201 103.238L73.3201 103.238L73.3082 103.24L53.8767 106.215L42.0418 90.519L42.0419 90.5189L42.0344 90.5095L29.8234 75.1038L37.4853 56.8995L37.4855 56.8996L37.4898 56.8884L44.7135 38.5059L64.2114 36.0012L64.2114 36.0013L64.2233 35.9995L83.6548 33.0242L95.4897 48.7204Z" stroke="#2B79E6"/>
</svg>
