<svg width="159" height="87" viewBox="0 0 159 87" fill="none" xmlns="http://www.w3.org/2000/svg">
<path d="M0.635746 43.5C0.635745 59.6571 13.5953 72.6184 29.7504 72.7959C34.8987 81.3184 44.1301 87 54.7818 87C65.256 87 74.4874 81.4959 79.6357 73.151C84.7841 81.4959 94.0155 87 104.49 87C115.141 87 124.373 81.3184 129.521 72.7959C145.499 72.6184 158.636 59.6571 158.636 43.5C158.636 27.3429 145.676 14.3816 129.521 14.2041C124.373 5.68165 115.141 1.14564e-05 104.49 1.05252e-05C94.0155 9.60951e-06 84.7841 5.50409 79.6357 13.849C74.4874 5.50409 65.256 7.09527e-06 54.7818 6.17959e-06C44.1301 5.24839e-06 34.8987 5.68164 29.7504 14.2041C13.5953 14.2041 0.635747 27.3429 0.635746 43.5ZM30.638 15.9796C40.047 16.1571 48.2133 21.1286 52.829 28.4082C43.2425 28.9408 35.0762 34.0898 30.1054 41.5469C28.1526 37.8184 27.0874 33.5571 27.0874 29.1184C27.265 24.502 28.5077 19.8857 30.638 15.9796ZM132.007 29.2959C132.007 33.7347 130.941 37.9959 128.989 41.7245C124.018 34.0898 115.851 28.9408 106.265 28.4082C111.058 21.1286 119.225 16.1571 128.456 15.9796C130.764 19.8857 132.007 24.502 132.007 29.2959ZM128.633 70.8429C119.225 70.6653 111.058 65.6939 106.442 58.4143C116.029 57.8816 124.195 52.7327 129.166 45.2755C131.119 49.0041 132.184 53.2653 132.184 57.7041C132.007 62.498 130.764 66.9367 128.633 70.8429ZM100.051 43.5C100.051 48.2939 101.294 52.7327 103.247 56.8163C93.838 56.4612 85.4942 51.1347 80.8785 43.5C85.4942 35.8653 93.6605 30.7163 103.247 30.1837C101.294 34.0898 100.051 38.7061 100.051 43.5ZM79.6357 45.9857C81.411 49.5367 82.2987 53.4429 82.2987 57.7041C82.2987 61.9653 81.411 65.8714 79.6357 69.4224C77.8605 65.8714 76.9728 61.9653 76.9728 57.7041C76.9728 53.4429 77.8605 49.5367 79.6357 45.9857ZM79.6357 41.0143C77.8605 37.4633 76.9728 33.5571 76.9728 29.2959C76.9728 25.0347 77.8605 21.1286 79.6357 17.5776C81.411 21.1286 82.2987 25.0347 82.2987 29.2959C82.2987 33.5571 81.411 37.4633 79.6357 41.0143ZM59.22 43.5C59.22 38.7061 57.9773 34.2673 56.0245 30.1837C65.4335 30.5388 73.7773 35.8653 78.3931 43.5C73.7773 51.1347 65.611 56.2837 56.0245 56.8163C57.9773 52.7326 59.22 48.2939 59.22 43.5ZM76.6178 48.649C75.7301 51.4898 75.1976 54.5082 75.1976 57.5265C75.1976 62.3204 76.4402 66.7592 78.3931 70.8429C69.3391 70.4877 61.3504 65.5163 56.5571 58.4143C64.5459 57.8816 71.647 54.3306 76.6178 48.649ZM84.0739 57.7041C84.0739 54.5082 83.5414 51.6673 82.6537 48.8265C87.6245 54.3306 94.7256 58.0592 102.714 58.5918C98.0987 65.8714 90.1099 70.6653 80.8784 71.0204C82.8313 66.9367 84.0739 62.498 84.0739 57.7041ZM105.732 56.6388C107.685 52.7327 108.928 48.1163 108.928 43.3225C108.928 38.5286 107.685 34.0898 105.732 30.0061C115.141 30.3612 123.485 35.6878 128.101 43.3225C123.308 51.1347 115.141 56.2837 105.732 56.6388ZM82.6537 38.1735C83.5414 35.3327 84.0739 32.3143 84.0739 29.2959C84.0739 24.502 82.8313 20.0633 80.8785 15.9796C89.9324 16.3347 97.9211 21.3061 102.714 28.4082C94.7256 28.9408 87.6245 32.6694 82.6537 38.1735ZM75.1976 29.2959C75.1976 32.4918 75.7301 35.3327 76.6178 38.1735C71.647 32.6694 64.5459 28.9408 56.5571 28.4082C61.1728 21.1286 69.1616 16.3347 78.3931 15.9796C76.4402 19.8857 75.1976 24.502 75.1976 29.2959ZM53.5391 30.1837C51.5863 34.0898 50.3436 38.7061 50.3436 43.5C50.3436 48.2939 51.5863 52.7326 53.5391 56.8163C44.1301 56.4612 35.7863 51.1347 31.1706 43.5C35.9638 35.8653 44.1301 30.5388 53.5391 30.1837ZM53.0065 58.4143C48.2133 65.6939 40.047 70.6653 30.8155 70.8428C28.6852 66.9367 27.4425 62.3204 27.4425 57.5265C27.4425 53.0878 28.5077 48.8265 30.4605 45.098C35.2537 52.7327 43.42 57.8816 53.0065 58.4143ZM54.7818 85.2245C45.1953 85.2245 36.674 80.2531 31.7032 72.6184C41.4672 72.0857 49.811 66.5816 54.7818 58.7694C59.5751 66.5816 68.0964 71.9082 77.8605 72.6184C72.8897 80.2531 64.3683 85.2245 54.7818 85.2245ZM104.49 85.2245C94.9032 85.2245 86.3818 80.2531 81.411 72.6184C91.1751 72.0857 99.5189 66.5816 104.49 58.7694C109.283 66.5816 117.804 71.9082 127.568 72.6184C122.598 80.2531 114.076 85.2245 104.49 85.2245ZM156.86 43.5C156.86 58.2367 145.144 70.3102 130.586 71.0204C132.539 67.1143 133.782 62.498 133.782 57.7041C133.782 52.5551 132.362 47.7612 130.054 43.5C132.362 39.2388 133.782 34.4449 133.782 29.2959C133.782 24.5021 132.539 20.0633 130.586 15.9796C145.144 16.6898 156.86 28.7633 156.86 43.5ZM104.49 1.77552C114.076 1.77552 122.598 6.74695 127.568 14.3816C117.804 14.9143 109.46 20.4184 104.49 28.2306C99.6964 20.4184 91.1751 15.0918 81.411 14.3816C86.3818 6.74694 94.9032 1.77552 104.49 1.77552ZM54.7818 1.77552C64.3683 1.77552 72.8897 6.74694 77.8605 14.3816C68.0964 14.9143 59.7526 20.4184 54.7818 28.2306C49.9886 20.4184 41.4672 15.0918 31.7032 14.3816C36.674 6.74694 45.1953 1.77552 54.7818 1.77552ZM28.6852 15.9796C26.7324 19.8857 25.4897 24.502 25.4897 29.2959C25.4897 34.4449 26.9099 39.2388 29.2178 43.5C26.9099 47.7612 25.4897 52.5551 25.4897 57.7041C25.4897 62.498 26.7324 66.9367 28.6852 71.0204C14.1279 70.3102 2.41103 58.2367 2.41103 43.5C2.41103 28.7633 14.1279 16.6898 28.6852 15.9796Z" fill="#2B79E6"/>
</svg>
