<svg width="193" height="193" viewBox="5 5 183 183" fill="none" xmlns="http://www.w3.org/2000/svg">
<path d="M107.762 96.5003C107.762 123.189 85.9782 144.831 59.0994 144.831C32.2206 144.831 10.4368 123.189 10.4368 96.5003C10.4368 69.8114 32.2206 48.1699 59.0994 48.1699C85.9782 48.1699 107.762 69.8114 107.762 96.5003Z" stroke="#9DB1CD"/>
<circle cx="69.9688" cy="69.8333" r="48.026" transform="rotate(45 69.9688 69.8333)" stroke="#9DB1CD" stroke-width="2"/>
<path d="M96.6355 107.626C69.9466 107.626 48.3051 85.8427 48.3051 58.9639C48.3051 32.0851 69.9466 10.3013 96.6355 10.3013C123.324 10.3013 144.966 32.0851 144.966 58.9639C144.966 85.8427 123.324 107.626 96.6355 107.626Z" stroke="#9DB1CD"/>
<circle cx="123.302" cy="69.8335" r="48.026" transform="rotate(135 123.302 69.8335)" stroke="#9DB1CD" stroke-width="2"/>
<path d="M182.835 96.5003C182.835 123.189 161.051 144.831 134.172 144.831C107.293 144.831 85.5095 123.189 85.5095 96.5003C85.5095 69.8114 107.293 48.1699 134.172 48.1699C161.051 48.1699 182.835 69.8114 182.835 96.5003Z" stroke="#9DB1CD"/>
<circle cx="123.302" cy="123.167" r="48.026" transform="rotate(45 123.302 123.167)" stroke="#9DB1CD" stroke-width="2"/>
<path d="M96.6355 182.699C69.9466 182.699 48.3051 160.915 48.3051 134.036C48.3051 107.157 69.9466 85.3735 96.6355 85.3735C123.324 85.3735 144.966 107.157 144.966 134.036C144.966 160.915 123.324 182.699 96.6355 182.699Z" stroke="#9DB1CD"/>
<circle cx="69.9691" cy="123.166" r="48.026" transform="rotate(135 69.9691 123.166)" stroke="#9DB1CD" stroke-width="2"/>
</svg>
