<svg width="163" height="162" viewBox="0 0 163 162" fill="none" xmlns="http://www.w3.org/2000/svg">
<path d="M162.635 51.0542L158.977 48.9903L160.065 44.9187L117.736 2.55177L113.664 3.64003L111.563 0H51.7085L49.607 3.64003L45.5354 2.55177L3.20603 44.8812L4.29429 48.9903L0.635498 51.0542V110.908L4.29429 113.01L3.20603 117.1L45.5354 159.429L49.607 158.341L51.7085 162H111.563L113.664 158.341L117.736 159.429L160.065 117.1L158.977 113.028L162.635 110.908V51.0542ZM117.173 4.65323L157.982 45.4441L157.307 47.9771L130.251 32.3662L114.64 5.3287L117.173 4.65323ZM116.741 75.2585L112.388 79.6115L104.32 71.5059V60.2481H110.474L114.602 67.3968L116.741 75.2585ZM114.602 94.6407L110.474 101.789H104.32V90.3815L112.388 82.3134L116.741 86.6664L114.602 94.6407ZM60.8273 103.666H72.2352L80.3033 111.734L75.9503 116.106L67.976 113.967L60.8273 109.839V103.666ZM46.5299 86.6664L50.8829 82.3134L58.951 90.3815V101.789H52.7967L48.7439 94.6407L46.5299 86.6664ZM48.7439 67.3218L52.7967 60.2481H58.951V71.5059L50.8829 79.574L46.5299 75.2585L48.7439 67.3218ZM102.444 58.3718H91.0358L82.9677 50.3037L87.3207 45.9507L95.295 48.0896L102.444 52.2175V58.3718ZM92.9121 60.2481H102.444V69.6296L92.9121 60.2481ZM102.444 72.4441V89.6873L90.2477 101.883H73.0233L60.8273 89.6873V72.369L73.0233 60.173H90.2665L102.444 72.4441ZM88.3714 58.3718H74.8996L81.6355 51.6359L88.3714 58.3718ZM72.2352 58.3718H60.8273V52.1425L67.976 48.0146L75.9503 45.8756L80.3033 50.2286L72.2352 58.3718ZM70.3589 60.2481L60.8273 69.6296V60.2481H70.3589ZM58.951 74.3204V87.811L52.2151 81.0751L58.951 74.3204ZM60.8273 92.3329L70.3589 101.864H60.8273V92.2578V92.3329ZM74.8996 103.741H88.3902L81.6543 110.477L74.8996 103.741ZM91.0358 103.741H102.444V109.895L95.295 114.023L87.3207 116.162L82.9677 111.809L91.0358 103.741ZM92.9121 101.864L102.444 92.3329V101.864H92.9121ZM104.32 87.7922V74.2453L111.056 80.9812L104.32 87.7922ZM111.563 58.3718H104.32V51.0542L102.294 49.8909L110.531 52.1049L112.726 60.2481L111.563 58.3718ZM96.0267 46.2696L83.5118 39.0459L103.888 27.2814L109.968 50.0035L96.0267 46.2696ZM89.0281 44.3933L86.7766 43.7929L81.6355 48.9903L76.5132 43.7741L74.2429 44.3746L81.6167 40.1154L89.0281 44.3933ZM67.263 46.2696L53.3221 50.0222L59.4013 27.3002L79.7592 39.0459L67.263 46.2696ZM60.9774 49.8909L58.951 51.0542V58.3718H51.7085L50.6202 60.2481L52.8342 52.0111L60.9774 49.8909ZM46.8676 66.6088L39.6438 79.1237L27.9357 58.747L50.6202 52.7429L46.8676 66.6088ZM44.9913 73.6074L44.3909 75.8589L49.5132 80.9812L44.4284 86.1035L44.9913 88.3926L40.7321 81.0188L44.9913 73.6074ZM46.8676 95.3725L50.6202 109.313L27.9357 103.234L39.7001 82.8575L46.8676 95.3725ZM50.6202 101.639L51.7835 103.666H59.026V110.908L61.0525 112.072L52.8155 109.858L50.6202 101.639ZM67.3381 115.712L79.853 122.935L59.3825 134.7L53.3033 111.978L67.3381 115.712ZM74.3367 117.588L76.5882 118.188L81.7106 113.066L86.8329 118.188L89.0844 117.588L81.7106 121.847L74.3367 117.588ZM96.1018 115.712L110.061 111.959L103.888 134.7L83.5118 122.935L96.1018 115.712ZM102.387 112.09L104.32 110.908V103.666H111.563L112.726 101.639L110.512 109.876L102.387 112.09ZM116.291 95.3725L123.515 82.8575L135.279 103.234L112.538 109.313L116.291 95.3725ZM118.167 88.3926L118.768 86.1223L113.645 81L118.768 75.8777L118.167 73.6074L122.426 80.9812L118.167 88.3926ZM116.291 66.6275L112.538 52.7429L135.335 58.747L123.571 79.1049L116.291 66.6275ZM111.994 50.5851L105.558 26.3058L110.774 23.2849L128.862 33.7359L139.313 51.8235L136.311 57.0584L111.994 50.5851ZM110.793 21.1272L105.033 24.4295L103.344 18.05L85.2568 13.2092L112.763 5.8353L127.005 30.4899L110.793 21.1272ZM101.825 19.5698L103.382 25.4051L81.6355 37.9576L59.8891 25.4051L61.4465 19.5698L81.6355 14.1661L101.825 19.5698ZM60.0017 18.05L58.1254 24.4295L52.4965 21.1272L36.2853 30.5087L50.5076 5.8353L78.0142 13.1904L60.0017 18.05ZM52.4965 23.3037L57.7314 26.3245L51.2019 50.5664L26.96 57.0584L23.9392 51.8235L34.3902 33.7359L52.4965 23.3037ZM21.7814 51.8423L25.0837 57.565L18.7231 59.2724L13.8447 77.36L6.4708 49.8534L31.1254 35.6122L21.7814 51.8423ZM20.2241 60.811L26.0594 59.2537L38.6119 80.9812L26.0594 102.728L20.2241 101.17L14.8203 80.9812L20.2241 60.811ZM18.7231 102.69L25.1213 104.397L21.819 110.12L31.2005 126.331L6.4708 112.109L13.8447 84.64L18.7231 102.69ZM23.9767 110.195L26.9976 104.96L51.2394 111.452L57.7314 135.694L52.4965 138.678L34.409 128.227L23.9767 110.195ZM52.4965 140.929L58.1254 137.533L60.0017 143.931L78.0893 148.772L50.5076 156.146L36.2665 131.548L52.4965 140.929ZM61.4652 142.486L59.9079 136.651L81.6355 124.042L103.382 136.595L101.825 142.43L81.6355 147.796L61.4652 142.486ZM103.344 143.931L105.033 137.533L110.793 140.929L127.005 131.548L112.763 156.146L85.2568 148.772L103.344 143.931ZM110.85 138.678L105.615 135.657L112.107 111.415L136.311 104.904L139.332 110.139L128.881 128.227L110.85 138.678ZM141.49 110.139L138.187 104.416L144.585 102.709L149.426 84.64L156.8 112.147L132.127 126.35L141.49 110.139ZM143.047 101.17L137.212 102.728L124.659 80.9812L137.212 59.2349L143.047 60.7922L148.451 80.9812L143.047 101.17ZM144.585 59.2724L138.187 57.565L141.49 51.8423L132.108 35.631L156.763 49.8721L149.426 77.36L144.585 59.2724ZM52.7967 1.8763H110.474L111.788 4.14663L81.6355 12.2335L51.4646 4.14663L52.7967 1.8763ZM5.28873 45.4441L46.0796 4.65323L48.6126 5.3287L33.0205 32.3662L5.9642 47.9771L5.28873 45.4441ZM2.5118 109.839V52.1425L4.80089 50.8666L12.8878 81.0188L4.80089 111.152L2.5118 109.839ZM46.0796 157.328L5.28873 116.537L5.9642 114.004L33.0205 129.671L48.6313 156.709L46.0796 157.328ZM110.474 160.105H52.7967L51.4646 157.816L81.6355 149.748L111.788 157.816L110.474 160.105ZM157.982 116.537L117.173 157.328L114.64 156.653L130.251 129.671L157.288 114.06L157.982 116.537ZM160.759 109.839L158.489 111.152L150.402 80.9812L158.47 50.8666L160.74 52.18V109.839H160.759Z" fill="#9DB1CD"/>
</svg>
