<svg width="91" height="91" viewBox="0 0 91 91" fill="none" xmlns="http://www.w3.org/2000/svg">
<path d="M51.371 5.87109H39.629V8.80658H51.371V5.87109Z" fill="#050B37"/>
<path d="M57.2419 5.87109H54.3064V8.80658H57.2419V5.87109Z" fill="#050B37"/>
<path d="M36.6935 5.87109H33.7581V8.80658H36.6935V5.87109Z" fill="#050B37"/>
<path d="M68.9838 48.4351C67.362 48.4351 66.0483 49.7488 66.0483 51.3706V46.9674C66.0483 45.3455 64.7347 44.0319 63.1128 44.0319C61.491 44.0319 60.1774 45.3455 60.1774 46.9674V45.4997C60.1774 43.8778 58.8637 42.5642 57.2419 42.5642C55.62 42.5642 54.3064 43.8778 54.3064 45.4997V32.29C54.3064 30.6681 52.9928 29.3545 51.3709 29.3545C49.7491 29.3545 48.4354 30.6681 48.4354 32.29V49.9029C45.1932 49.9029 42.5645 52.5316 42.5645 55.7738V66.048L49.9032 73.3867V77.79H67.5161V73.3867L71.9193 68.9835V51.3706C71.9193 49.7488 70.6057 48.4351 68.9838 48.4351Z" fill="#9AC4FF"/>
<path d="M66.0484 82.1934H63.1129V85.1288H66.0484V82.1934Z" fill="#050B37"/>
<path d="M76.3226 0H14.6775C10.6309 0 7.33875 3.29215 7.33875 7.33871V83.6613C7.33875 87.7079 10.6309 91 14.6775 91H45.5H71.9194H76.3226C80.3692 91 83.6613 87.7079 83.6613 83.6613V7.33871C83.6613 3.29215 80.3692 0 76.3226 0ZM48.4355 88.0645V85.129H60.1775V82.1936H48.4355V79.2581H68.9839V88.0645H48.4355ZM46.9678 54.3065V57.2419H49.9033V54.3065V48.4355V32.2903C49.9033 31.4801 50.5623 30.8226 51.371 30.8226C52.1797 30.8226 52.8387 31.4801 52.8387 32.2903V41.0968V45.5V57.2419H55.7742V45.5C55.7742 44.6898 56.4332 44.0323 57.242 44.0323C58.0507 44.0323 58.7097 44.6898 58.7097 45.5V46.9677V57.2419H61.6452V46.9677C61.6452 46.1576 62.3042 45.5 63.1129 45.5C63.9217 45.5 64.5807 46.1576 64.5807 46.9677V51.371V57.2419H67.5162V51.371C67.5162 50.5608 68.1752 49.9032 68.9839 49.9032C69.7926 49.9032 70.4516 50.5608 70.4516 51.371V68.3762L66.0484 72.7794V76.3226H51.371V72.7794L44.0323 65.4407V55.7742C44.0323 53.8603 45.2593 52.2281 46.9678 51.622V54.3065ZM80.7258 83.6613C80.7258 86.0889 78.7503 88.0645 76.3226 88.0645H71.9194V76.3226H68.9839V73.9947L73.3871 69.5915V51.371C73.3871 48.9433 71.4115 46.9677 68.9839 46.9677C68.4687 46.9677 67.9756 47.0573 67.5162 47.2187V46.9677C67.5162 44.5401 65.5406 42.5645 63.1129 42.5645C62.3277 42.5645 61.5909 42.7715 60.9524 43.1325C60.1701 41.9099 58.7992 41.0968 57.242 41.0968C56.7268 41.0968 56.2336 41.1863 55.7742 41.3478V41.0968V32.2903C55.7742 29.8627 53.7986 27.8871 51.371 27.8871C48.9434 27.8871 46.9678 29.8627 46.9678 32.2903V48.5837C43.6228 49.2662 41.0968 52.2296 41.0968 55.7742V66.656L48.4355 73.9947V76.3226H45.5V88.0645H14.6775C12.2498 88.0645 10.2742 86.0889 10.2742 83.6613V7.33871C10.2742 4.91106 12.2498 2.93548 14.6775 2.93548H76.3226C78.7503 2.93548 80.7258 4.91106 80.7258 7.33871V83.6613Z" fill="#050B37"/>
<path d="M14.6775 79.2583H42.5646V76.3228H17.613V14.6777H73.3872V46.968H76.3227V11.7422H14.6775V79.2583Z" fill="#050B37"/>
<path d="M35.2258 73.3873V52.8389H20.5483V73.3873H35.2258ZM23.4838 55.7744H32.2903V70.4518H23.4838V55.7744Z" fill="#050B37"/>
<path d="M38.1613 38.1617H44.0322V35.2262H41.0967V20.5488H49.9032V24.952H52.8387V17.6133H38.1613V38.1617Z" fill="#050B37"/>
<path d="M35.2258 17.6133H20.5483V20.5488H35.2258V17.6133Z" fill="#A5F9FE"/>
<path d="M35.2258 23.4844H26.4193V26.4199H35.2258V23.4844Z" fill="#A5F9FE"/>
<path d="M23.4838 23.4844H20.5483V26.4199H23.4838V23.4844Z" fill="#A5F9FE"/>
<path d="M35.2258 29.3555H20.5483V32.291H35.2258V29.3555Z" fill="#A5F9FE"/>
<path d="M70.4516 17.6133H55.7742V20.5488H70.4516V17.6133Z" fill="#A5F9FE"/>
<path d="M70.4516 23.4844H61.6451V26.4199H70.4516V23.4844Z" fill="#A5F9FE"/>
<path d="M58.7096 23.4844H55.7742V26.4199H58.7096V23.4844Z" fill="#A5F9FE"/>
<path d="M70.4516 29.3555H58.7096V32.291H70.4516V29.3555Z" fill="#A5F9FE"/>
<path d="M70.4516 35.2266H58.7096V38.162H70.4516V35.2266Z" fill="#A5F9FE"/>
<path d="M35.2258 35.2266H20.5483V38.162H35.2258V35.2266Z" fill="#A5F9FE"/>
<path d="M35.2258 41.0967H32.2903V44.0322H35.2258V41.0967Z" fill="#A5F9FE"/>
<path d="M29.3548 41.0967H20.5483V44.0322H29.3548V41.0967Z" fill="#A5F9FE"/>
<path d="M35.2258 46.9678H20.5483V49.9033H35.2258V46.9678Z" fill="#A5F9FE"/>
</svg>
