<svg width="91" height="91" viewBox="0 0 91 91" fill="none" xmlns="http://www.w3.org/2000/svg">
<path d="M68.9839 80.8417L71.9108 80.6328L70.4435 60.0765L67.5166 60.2854L68.9839 80.8417Z" fill="#A5F9FE"/>
<path d="M60.1553 80.8283L63.0835 80.627L61.8723 63.0131L58.944 63.2145L60.1553 80.8283Z" fill="#A5F9FE"/>
<path d="M30.6696 80.8249L31.8756 63.208L28.9467 63.0075L27.7407 80.6244L30.6696 80.8249Z" fill="#A5F9FE"/>
<path d="M22.0097 80.8299L23.479 60.2734L20.5521 60.0642L19.0828 80.6207L22.0097 80.8299Z" fill="#A5F9FE"/>
<path d="M63.1129 26.4194C56.6652 26.4194 50.6151 23.3063 46.8665 18.0591L45.5 16.1452L44.1336 18.0591C40.385 23.3063 34.3349 26.4194 27.8871 26.4194H24.9517V22.0162C24.9517 10.6676 34.1515 1.46777 45.5 1.46777C56.8486 1.46777 66.0484 10.6676 66.0484 22.0162V26.4194H63.1129Z" fill="#9AC4FF"/>
<path d="M76.3226 60.0746V51.3709C76.3226 47.3244 73.0305 44.0322 68.9839 44.0322H64.5807V46.9677H68.9839C71.4115 46.9677 73.3871 48.9433 73.3871 51.3709H64.5807V54.3064H73.3871V58.9929L58.7097 54.6763V52.8387H55.7742V55.1665L45.5 65.4407L35.2258 55.1665V52.8387H32.2904V54.6763L17.6129 58.9929V54.3064H26.4194V51.3709H17.6129C17.6129 48.9433 19.5885 46.9677 22.0162 46.9677H26.4194V44.0322H22.0162C17.9696 44.0322 14.6775 47.3244 14.6775 51.3709V60.0746C10.2669 62.2792 7.33875 66.8585 7.33875 71.8988V91H38.1613H39.6291H51.371H52.8387H83.6613V71.8988C83.6613 66.8585 80.7332 62.2792 76.3226 60.0746ZM56.6872 58.4044L54.9097 67.2871C53.5506 66.1276 51.9331 65.3159 50.1895 64.9006L56.6872 58.4044ZM40.8091 64.9006C39.0669 65.3159 37.448 66.1291 36.0889 67.2871L34.3114 58.4044L40.8091 64.9006ZM10.2742 88.0645V82.1935H29.3549C32.8995 82.1935 35.8643 84.7195 36.5453 88.0645H10.2742ZM29.3549 79.258H10.2742V71.8988C10.2742 67.3737 13.3066 63.3198 17.6482 62.0429L31.2468 58.0433L34.4817 74.2163L36.447 71.2676C38.0072 68.9281 40.6139 67.5293 43.4261 67.519L44.0323 68.1237V88.0645H39.5116C38.7954 83.0932 34.5199 79.258 29.3549 79.258ZM80.7258 88.0645H54.4547C55.1372 84.7195 58.1006 82.1935 61.6452 82.1935H80.7258V88.0645ZM80.7258 79.258H61.6452C56.4802 79.258 52.2047 83.0932 51.4884 88.0645H46.9678V68.1237L47.5739 67.5176C50.3861 67.5264 52.9929 68.9251 54.5531 71.2662L56.5184 74.2149L59.7533 58.0418L73.3519 62.0414C77.6935 63.3198 80.7258 67.3723 80.7258 71.8988V79.258Z" fill="#050B37"/>
<path d="M27.0682 39.5468C27.8167 42.1227 29.1993 44.4843 31.1485 46.4335L36.8712 52.1577C38.2568 53.5432 40.1003 54.3065 42.0612 54.3065H48.939C50.8999 54.3065 52.7434 53.5432 54.1289 52.1577L59.8517 46.4335C61.8008 44.4843 63.182 42.1213 63.932 39.5468C67.5896 39.1329 70.4517 36.0565 70.4517 32.2903C70.4517 29.8818 69.2687 27.7579 67.4707 26.4194H67.5162V22.0161C67.5162 9.87644 57.6398 0 45.5001 0C33.3604 0 23.4839 9.87644 23.4839 22.0161V26.4194H23.5294C21.7315 27.7579 20.5485 29.8818 20.5485 32.2903C20.5485 36.0565 23.4106 39.1329 27.0682 39.5468ZM60.1775 33.7581H51.371C50.5609 33.7581 49.9033 33.099 49.9033 32.2903V27.8871H61.6452V32.2903C61.6452 33.099 60.9877 33.7581 60.1775 33.7581ZM48.4356 24.9516H46.9678H44.0323H42.5646H38.631C41.2304 23.4428 43.5362 21.4188 45.3269 18.9119L45.5001 18.6697L45.6733 18.9119C47.4639 21.4188 49.7697 23.4428 52.3691 24.9516H48.4356ZM29.3549 27.8871H41.0968V32.2903C41.0968 33.099 40.4393 33.7581 39.6291 33.7581H30.8227C30.0125 33.7581 29.3549 33.099 29.3549 32.2903V27.8871ZM57.7763 44.3581L52.0535 50.0823C51.2213 50.913 50.1161 51.371 48.939 51.371H42.0612C40.884 51.371 39.7773 50.913 38.9466 50.0823L33.2239 44.3581C31.0707 42.2035 29.7571 39.4353 29.4371 36.4484C29.8745 36.5952 30.3354 36.6936 30.8227 36.6936H39.6291C42.0568 36.6936 44.0323 34.718 44.0323 32.2903V27.8871H46.9678V32.2903C46.9678 34.718 48.9434 36.6936 51.371 36.6936H60.1775C60.6648 36.6936 61.1257 36.5952 61.563 36.4484C61.2431 39.4353 59.9294 42.2035 57.7763 44.3581ZM64.5117 36.444C64.5528 35.9729 64.5807 35.4973 64.5807 35.0174V32.2903V28.1572C66.2848 28.7648 67.5162 30.3793 67.5162 32.2903C67.5162 34.2263 66.251 35.8569 64.5117 36.444ZM26.4194 22.0161C26.4194 11.4954 34.9793 2.93548 45.5001 2.93548C56.0209 2.93548 64.5807 11.4954 64.5807 22.0161V24.9516H63.113C57.151 24.9516 51.5252 22.0558 48.0613 17.2049L45.5001 13.6206L42.9389 17.2049C39.475 22.0558 33.8491 24.9516 27.8872 24.9516H26.4194V22.0161ZM26.4194 28.1572V32.2903V35.0174C26.4194 35.4973 26.4473 35.9729 26.4884 36.4455C24.7491 35.8569 23.4839 34.2263 23.4839 32.2903C23.4839 30.3793 24.7154 28.7648 26.4194 28.1572Z" fill="#050B37"/>
<path d="M52.8388 71.9189H49.9033V74.8544H52.8388V71.9189Z" fill="#050B37"/>
</svg>
