<svg width="91" height="91" viewBox="0 0 91 91" fill="none" xmlns="http://www.w3.org/2000/svg">
<path d="M45.5007 76.9301L26.8501 58.2795L28.9255 56.2041L45.5007 72.7793L62.0759 56.2041L64.1513 58.2795L45.5007 76.9301Z" fill="#A5F9FE"/>
<path d="M45.5007 85.7366L20.9791 61.215L23.0545 59.1396L45.5007 81.5858L67.9469 59.1396L70.0223 61.215L45.5007 85.7366Z" fill="#A5F9FE"/>
<path d="M48.4362 1.46777H42.5652L14.6781 10.2742V13.2097L24.9523 20.5484V26.4194C24.9523 26.4194 33.7587 23.4839 45.5007 23.4839C57.2426 23.4839 66.0491 26.4194 66.0491 26.4194V20.5484L76.3233 13.2097V10.2742L48.4362 1.46777Z" fill="#9AC4FF"/>
<path d="M82.1604 71.5878C81.1741 65.6743 77.0277 60.8219 71.3402 58.9256L58.7103 54.7161V52.8389H55.7748V55.0067C54.2146 56.0444 49.7894 58.7098 45.5007 58.7098C41.2119 58.7098 36.7867 56.0444 35.2265 55.0067V52.8389H32.291V54.7161L19.6625 58.9256C13.975 60.8219 9.82865 65.6743 8.84233 71.5878L5.60596 91.0002H85.3939L82.1604 71.5878ZM71.7806 88.0647L70.4449 74.7082L67.5241 75.0003L68.8304 88.0632H46.9684V84.2676L45.5007 85.7354L44.0329 84.2676V88.0647H22.1709L23.4772 75.0018L20.5564 74.7097L19.2207 88.0661H9.07276L11.7367 72.0722C12.544 67.2345 15.9359 63.2642 20.5901 61.7114L33.5209 57.4021C35.2676 58.5792 40.3078 61.6453 45.5007 61.6453C50.6935 61.6453 55.7337 58.5792 57.4789 57.4006L70.4097 61.7099C75.0639 63.2628 78.4559 67.233 79.2631 72.0707L81.9285 88.0647H71.7806Z" fill="#050B37"/>
<path d="M19.0814 32.2903C19.0814 30.3793 17.8499 28.7648 16.1459 28.1572V16.0615L23.4846 21.3028V26.456C21.713 27.7976 20.5491 29.9023 20.5491 32.2889C20.5491 36.0551 23.4112 39.1315 27.0688 39.5454C27.8174 42.1213 29.2 44.4829 31.1491 46.432L36.8719 52.1547C38.2574 53.5403 40.1009 54.305 42.0618 54.305H48.9396C50.9005 54.305 52.744 53.5403 54.1296 52.1547L59.8523 46.432C61.8015 44.4829 63.1826 42.1198 63.9326 39.5454C67.5902 39.1329 70.4523 36.0565 70.4523 32.2903C70.4523 29.9023 69.2884 27.7976 67.5168 26.4575V21.3043L77.791 13.9656V9.19834L48.878 0.0675161L42.5652 0L13.2104 9.19834V13.2097V13.9656V28.1586C11.5063 28.7648 10.2749 30.3793 10.2749 32.2903V38.1613H19.0814V32.2903ZM26.4201 24.4629V21.6404C29.0136 20.9051 36.3714 19.0806 45.5007 19.0806C54.6066 19.0806 61.982 20.9065 64.5814 21.6404V24.4614C61.32 23.5881 54.2396 22.0161 45.5007 22.0161C36.7618 22.0161 29.6814 23.5881 26.4201 24.4629ZM23.4846 32.2903C23.4846 30.3793 24.716 28.7648 26.4201 28.1572V35.0174C26.4201 35.4973 26.448 35.9729 26.489 36.4455C24.7498 35.8569 23.4846 34.2263 23.4846 32.2903ZM57.7769 44.3581L52.0542 50.0808C51.222 50.913 50.1168 51.371 48.9396 51.371H42.0618C40.8847 51.371 39.778 50.913 38.9472 50.0808L33.2245 44.3581C30.7308 41.8629 29.3555 38.5458 29.3555 35.0174V26.7716C32.9574 25.9526 38.733 24.9516 45.5007 24.9516C52.2553 24.9516 58.0382 25.9541 61.6459 26.7731V35.0174C61.6459 38.5458 60.2706 41.8629 57.7769 44.3581ZM64.5124 36.444C64.5535 35.9729 64.5814 35.4973 64.5814 35.0174V28.1572C66.2854 28.7648 67.5168 30.3793 67.5168 32.2903C67.5168 34.2263 66.2516 35.8569 64.5124 36.444ZM16.1459 11.35L42.7913 2.93548H48.2087L74.8555 11.35V12.4538L65.7878 18.9309C63.4424 18.2338 55.5841 16.1452 45.5007 16.1452C35.4173 16.1452 27.559 18.2338 25.2136 18.9309L16.1459 12.4538V11.35ZM16.1459 35.2258H13.2104V32.2903C13.2104 31.4816 13.8679 30.8226 14.6781 30.8226C15.4883 30.8226 16.1459 31.4816 16.1459 32.2903V35.2258Z" fill="#050B37"/>
<path d="M19.0814 41.0967H16.1459V49.9031H19.0814V41.0967Z" fill="#050B37"/>
<path d="M13.2104 41.0967H10.2749V49.9031H13.2104V41.0967Z" fill="#050B37"/>
</svg>
