<svg width="422" height="78" viewBox="0 0 422 78" fill="none" xmlns="http://www.w3.org/2000/svg">
<g id="&#208;&#168;&#208;&#145;_&#209;&#128;&#209;&#131;&#209;&#129;">
<g id="Canvas">
<g id="Group">
<g id="Group_2">
<g id="Vector">
<path id="Vector_2" d="M48.9581 64.5953V50.829L36.9126 38.7835L48.9581 26.738V12.9717L23.2787 38.7835L48.9581 64.5953Z" fill="#FF2929"/>
</g>
<g id="Vector_3">
<path id="Vector_4" d="M0.776123 77.5678H78.4763V0H0.776123V77.5678ZM10.439 9.66289H68.6811V67.905H10.439V9.66289Z" fill="#FF2929"/>
</g>
<g id="Vector_5">
<path id="Vector_6" d="M120.966 8.47149C124.54 8.47149 128.511 9.79517 132.615 12.3102C132.88 11.7807 133.144 10.457 133.012 7.94201C133.012 5.55938 132.88 3.97096 132.615 3.30912C129.306 1.3236 125.202 0.264648 120.437 0.264648C113.554 0.264648 108.127 2.25017 104.023 6.35359C99.9198 10.3246 97.9343 15.3546 97.9343 21.3112C97.9343 27.2678 99.9198 32.1654 104.023 36.2688C108.127 40.2399 113.686 42.3578 120.437 42.3578C125.202 42.3578 129.306 41.2988 132.615 39.3133C132.88 38.6515 133.012 37.063 133.012 34.6804C133.012 32.2978 132.88 30.8417 132.615 30.3123C128.511 32.8273 124.673 34.1509 120.966 34.1509C117.26 34.1509 114.083 32.9596 111.568 30.7094C109.053 28.3267 107.862 25.2823 107.862 21.4436C107.862 17.6049 109.053 14.4281 111.568 12.1778C114.083 9.6628 117.26 8.47149 120.966 8.47149Z" fill="white"/>
</g>
<g id="Vector_7">
<path id="Vector_8" d="M177.885 41.1663V1.19105C175.238 0.793945 172.723 0.793945 170.208 1.19105L151.544 24.6202V1.19105C148.234 0.661577 144.925 0.661577 141.748 1.19105V41.1663C144.396 41.5634 146.911 41.5634 149.426 41.1663L168.09 17.7371V41.1663C171.399 41.8281 174.708 41.8281 177.885 41.1663Z" fill="white"/>
</g>
<g id="Vector_9">
<path id="Vector_10" d="M223.685 41.1663V1.19105C220.375 0.661577 217.066 0.661577 213.889 1.19105V16.9429H197.343V1.19105C194.034 0.661577 190.725 0.661577 187.548 1.19105V41.1663C190.857 41.6958 194.166 41.6958 197.343 41.1663V25.1497H213.889V41.2987C217.066 41.8281 220.375 41.8281 223.685 41.1663Z" fill="white"/>
</g>
<g id="Vector_11">
<path id="Vector_12" d="M261.145 9.39824C261.674 6.75088 261.674 3.97114 261.145 1.19141H233.215V41.1666H261.145C261.674 38.3869 261.674 35.7395 261.145 32.9598H243.01V25.0177H258.894C259.424 22.3703 259.424 19.5906 258.894 16.8109H243.01V9.26587H261.145V9.39824Z" fill="white"/>
</g>
<g id="Vector_13">
<path id="Vector_14" d="M295.957 4.89772C293.178 2.38272 289.604 1.19141 285.103 1.19141H269.351V41.1666C272.661 41.6961 275.97 41.6961 279.147 41.1666V28.0622H284.971C289.471 28.0622 293.045 26.8709 295.825 24.3559C298.605 21.8409 300.061 18.664 300.061 14.693C300.193 10.5896 298.737 7.41272 295.957 4.89772ZM285.103 19.8553H279.279V9.39824H285.103C288.015 9.39824 290.133 11.119 290.133 14.693C290.133 18.1346 288.015 19.8553 285.103 19.8553Z" fill="white"/>
</g>
<g id="Vector_15">
<path id="Vector_16" d="M307.474 41.1666C310.783 41.6961 314.092 41.6961 317.269 41.1666V9.39824H333.815C334.344 6.75087 334.344 3.97114 333.815 1.19141H307.474V41.1666Z" fill="white"/>
</g>
<g id="Vector_17">
<path id="Vector_18" d="M340.963 1.19105V41.1663C343.61 41.5634 346.125 41.5634 348.64 41.1663L367.304 17.7371V41.1663C370.613 41.6958 373.922 41.6958 377.099 41.1663V1.19105C374.452 0.793945 371.937 0.793945 369.422 1.19105L350.758 24.6202V1.19105C347.581 0.661577 344.272 0.661577 340.963 1.19105Z" fill="white"/>
</g>
<g id="Vector_19">
<path id="Vector_20" d="M386.1 14.4282C386.1 19.723 389.013 24.0911 393.778 26.209L384.115 41.1666C385.571 41.4314 387.292 41.5637 389.41 41.5637C391.528 41.5637 393.381 41.4314 394.837 41.1666L402.779 28.9888L403.705 27.6651H407.544V41.1666C410.853 41.6961 414.163 41.6961 417.339 41.1666V13.2369V1.19141H401.19C396.69 1.19141 393.116 2.38272 390.336 4.89772C387.424 7.28035 386.1 10.4572 386.1 14.4282ZM401.19 9.39824H407.279V10.9867V19.4582H402.514H401.058C398.146 19.4582 396.028 17.7374 396.028 14.4282C396.028 11.2514 398.278 9.39824 401.19 9.39824Z" fill="white"/>
</g>
<g id="Vector_21">
<path id="Vector_22" d="M125.202 53.0804V72.0091H118.584V53.0804C116.598 52.8157 114.613 52.8157 112.76 53.0804V72.0091H106.141V53.0804C104.156 52.8157 102.17 52.8157 100.317 53.0804V76.9067H131.159V53.0804C129.173 52.8157 127.188 52.8157 125.202 53.0804Z" fill="white"/>
</g>
<g id="Vector_23">
<path id="Vector_24" d="M157.632 53.0802C156.838 52.9478 155.647 52.8154 154.191 52.8154C152.735 52.8154 151.544 52.9478 150.749 53.0802L142.807 63.9344V53.0802C140.822 52.8154 138.836 52.8154 136.983 53.0802V76.9065C138.969 77.1712 140.954 77.1712 142.807 76.9065V65.3904L151.014 76.9065C151.808 77.0388 153 77.1712 154.456 77.1712C155.912 77.1712 157.103 77.0388 157.897 76.9065L149.029 64.5962L157.632 53.0802Z" fill="white"/>
</g>
<g id="Vector_25">
<path id="Vector_26" d="M172.193 52.5508C168.487 52.5508 165.442 53.7421 163.06 56.1247C160.677 58.5074 159.486 61.4195 159.486 64.9934C159.486 68.435 160.677 71.4795 163.06 73.8621C165.442 76.2447 168.487 77.436 172.193 77.436C175.899 77.436 178.944 76.2447 181.326 73.8621C183.709 71.4795 184.9 68.435 184.9 64.9934C184.9 61.5518 183.709 58.5074 181.326 56.1247C178.944 53.7421 175.899 52.5508 172.193 52.5508ZM176.958 70.5529C175.635 71.8766 174.046 72.6708 172.193 72.6708C170.34 72.6708 168.751 72.0089 167.428 70.5529C166.104 69.0968 165.442 67.376 165.442 64.9934C165.442 62.7431 166.104 60.89 167.428 59.4339C168.751 57.9779 170.34 57.316 172.193 57.316C174.046 57.316 175.635 57.9779 176.958 59.4339C178.282 60.7576 178.944 62.6108 178.944 64.9934C178.944 67.376 178.282 69.2292 176.958 70.5529Z" fill="white"/>
</g>
<g id="Vector_27">
<path id="Vector_28" d="M191.386 69.6251C191.254 71.3459 190.328 72.2725 189.004 72.2725C188.607 72.2725 188.342 72.2725 187.945 72.1401C187.68 73.7286 187.68 75.4493 187.945 77.0378C188.739 77.3025 189.666 77.4349 190.725 77.4349C194.563 77.4349 196.814 75.0522 197.343 70.1546L198.534 57.9767H204.623V76.9054C206.609 77.1701 208.594 77.1701 210.448 76.9054V53.0791H193.107L191.386 69.6251Z" fill="white"/>
</g>
<g id="Vector_29">
<path id="Vector_30" d="M224.346 53.0804L214.683 76.9067C216.669 77.1714 218.787 77.1714 220.772 76.9067L222.493 72.4062H231.23L232.95 76.9067C234.936 77.1714 236.921 77.1714 239.039 76.9067L229.376 53.0804C227.656 52.8157 226.067 52.8157 224.346 53.0804ZM224.346 67.5085L226.861 60.6254L229.376 67.5085H224.346Z" fill="white"/>
</g>
<g id="Vector_31">
<path id="Vector_32" d="M269.219 63.8009C267.631 62.3449 265.38 61.683 262.733 61.683H259.291V57.9767H269.484C269.748 56.3883 269.748 54.7999 269.484 53.0791H253.467V76.9054H262.865C265.513 76.9054 267.631 76.1112 269.351 74.7875C271.072 73.3314 271.866 71.4783 271.866 69.228C271.734 66.9778 270.807 65.1246 269.219 63.8009ZM262.733 72.1401H259.291V66.4483H262.733C264.454 66.4483 265.777 67.5072 265.777 69.228C265.645 71.0812 264.454 72.1401 262.733 72.1401Z" fill="white"/>
</g>
<g id="Vector_33">
<path id="Vector_34" d="M293.045 53.0804L281.926 67.1114V53.0804C279.941 52.8157 277.955 52.8157 276.102 53.0804V76.9067C277.691 77.1714 279.147 77.1714 280.735 76.9067L291.854 62.8756V76.9067C293.84 77.1714 295.825 77.1714 297.678 76.9067V53.0804C296.09 52.8157 294.634 52.8157 293.045 53.0804Z" fill="white"/>
</g>
<g id="Vector_35">
<path id="Vector_36" d="M316.078 64.7281C318.063 63.6692 319.387 61.5513 319.387 59.1687C319.387 55.1976 316.078 52.6826 310.783 52.6826C307.871 52.6826 305.488 53.3445 303.503 54.5358C303.37 54.9329 303.238 55.8595 303.238 57.3155C303.238 58.7716 303.37 59.5658 303.503 59.8305C306.018 58.3745 308.268 57.5802 310.386 57.5802C312.239 57.5802 313.43 58.5068 313.43 60.2276C313.43 61.816 312.504 62.875 310.915 62.875H307.474C307.209 64.4634 307.209 65.9195 307.474 67.5079H311.048C312.901 67.5079 313.827 68.3021 313.827 70.0229C313.827 71.876 312.106 72.8026 310.253 72.8026C308.003 72.8026 305.62 72.0084 303.238 70.5523C303.105 70.8171 302.973 71.7437 302.973 73.0673C302.973 74.5234 303.105 75.45 303.238 75.8471C305.223 77.0384 307.738 77.7002 310.65 77.7002C313.43 77.7002 315.548 77.0384 317.269 75.8471C318.99 74.6558 319.916 72.935 319.916 70.6847C319.784 67.905 318.328 65.7871 316.078 64.7281Z" fill="white"/>
</g>
<g id="Vector_37">
<path id="Vector_38" d="M346.125 76.9067V53.0804C344.14 52.8157 342.154 52.8157 340.301 53.0804V62.4785H330.373V53.0804C328.388 52.8157 326.402 52.8157 324.549 53.0804V76.9067C326.535 77.1714 328.52 77.1714 330.373 76.9067V67.2438H340.301V76.9067C342.154 77.3038 344.14 77.3038 346.125 76.9067Z" fill="white"/>
</g>
<g id="Vector_39">
<path id="Vector_40" d="M368.495 57.9767C368.76 56.3883 368.76 54.7999 368.495 53.0791H351.817V76.9054H368.495C368.76 75.317 368.76 73.5962 368.495 72.0078H357.773V67.2425H367.304C367.569 65.6541 367.569 64.0657 367.304 62.3449H357.773V57.9767H368.495Z" fill="white"/>
</g>
<g id="Vector_41">
<path id="Vector_42" d="M385.835 57.4484C387.953 57.4484 390.336 58.2426 392.719 59.6987C392.851 59.4339 392.983 58.5074 392.983 57.1837C392.983 55.7276 392.851 54.801 392.719 54.4039C390.733 53.2126 388.35 52.5508 385.438 52.5508C381.335 52.5508 378.158 53.7421 375.643 56.1247C373.128 58.5074 371.937 61.4195 371.937 64.9934C371.937 68.5673 373.128 71.4795 375.643 73.8621C378.158 76.2447 381.335 77.436 385.438 77.436C388.35 77.436 390.733 76.7742 392.719 75.5829C392.851 75.1858 392.983 74.2592 392.983 72.8031C392.983 71.3471 392.851 70.5529 392.719 70.2881C390.204 71.7442 387.953 72.5384 385.835 72.5384C383.585 72.5384 381.732 71.8766 380.276 70.4205C378.82 68.9645 378.026 67.2437 378.026 64.861C378.026 62.6108 378.82 60.7576 380.276 59.3016C381.732 58.1102 383.585 57.4484 385.835 57.4484Z" fill="white"/>
</g>
<g id="Vector_43">
<path id="Vector_44" d="M406.618 53.0804L396.955 76.9067C398.94 77.1714 401.058 77.1714 403.044 76.9067L404.764 72.4062H413.501L415.221 76.9067C417.207 77.1714 419.192 77.1714 421.31 76.9067L411.647 53.0804C409.927 52.8157 408.206 52.8157 406.618 53.0804ZM411.647 67.5085H406.618L409.132 60.6254L411.647 67.5085Z" fill="white"/>
</g>
</g>
</g>
</g>
</g>
</svg>
