<svg width="127" height="16" viewBox="0 0 127 16" fill="none" xmlns="http://www.w3.org/2000/svg">
<path d="M32.7717 11.0191C32.8938 11.2023 32.9549 11.63 32.8938 12.4853C32.8938 13.2796 32.8327 13.8294 32.7717 14.0127C31.6719 14.6848 30.2668 15.0513 28.6783 15.0513C26.3567 15.0513 24.5238 14.3793 23.1798 13.0352C21.8357 11.6911 21.1025 10.0415 21.1025 8.02542C21.1025 6.00929 21.7746 4.35973 23.1798 3.01564C24.5849 1.67155 26.4178 0.999512 28.6783 0.999512C30.2668 0.999512 31.6719 1.36608 32.7717 2.03812C32.8327 2.2825 32.8938 2.77126 32.8938 3.56549C32.8938 4.35973 32.8327 4.84849 32.7717 5.03177C31.3665 4.17644 30.0835 3.74878 28.8616 3.74878C27.5786 3.74878 26.54 4.11535 25.6846 4.90958C24.8293 5.70381 24.4017 6.68133 24.4017 8.02542C24.4017 9.30841 24.8293 10.347 25.6846 11.1413C26.54 11.9355 27.5786 12.3021 28.8616 12.3021C30.0835 12.3021 31.3665 11.8744 32.7717 11.0191Z" fill="#333333"/>
<path d="M47.8626 14.7457C46.7629 14.929 45.6632 14.929 44.5635 14.7457V6.8645L38.2707 14.7457C37.4154 14.8679 36.5601 14.8679 35.7047 14.7457V1.30488C36.8044 1.12159 37.9041 1.12159 39.0039 1.30488V9.18611L45.2966 1.30488C46.152 1.18269 47.0073 1.18269 47.8626 1.30488V14.7457Z" fill="#333333"/>
<path d="M59.5926 6.62012V1.30488C60.6923 1.12159 61.792 1.12159 62.8917 1.30488V14.7457C61.792 14.929 60.6923 14.929 59.5926 14.7457V9.3083H54.0329V14.7457C52.9332 14.929 51.8335 14.929 50.7338 14.7457V1.30488C51.8335 1.12159 52.9332 1.12159 54.0329 1.30488V6.55903H59.5926V6.62012Z" fill="#333333"/>
<path d="M69.1235 11.9965H75.1719C75.3552 12.913 75.3552 13.8294 75.1719 14.7458H65.8244V1.30494H75.233C75.4163 2.22136 75.4163 3.13778 75.233 4.0542H69.1846V6.55909H74.5609C74.7442 7.47551 74.7442 8.39193 74.5609 9.30836H69.1846V11.9965H69.1235Z" fill="#333333"/>
<path d="M77.4932 1.30494H82.7474C84.2748 1.30494 85.4967 1.7326 86.4131 2.52683C87.3295 3.38216 87.8183 4.48187 87.8183 5.82595C87.8183 7.17004 87.3295 8.26974 86.4131 9.12507C85.4967 9.9804 84.2748 10.347 82.7474 10.347H80.7924V14.8069C79.6926 14.9902 78.5929 14.9902 77.4932 14.8069V1.30494ZM80.7924 7.5977H82.7474C83.7249 7.5977 84.458 6.98675 84.458 5.82595C84.458 4.66515 83.7249 4.0542 82.7474 4.0542H80.7924V7.5977Z" fill="#333333"/>
<path d="M90.2008 1.30494H99.0596C99.2429 2.22136 99.2429 3.13778 99.0596 4.0542H93.5V14.7458C92.4003 14.9291 91.3005 14.9291 90.2008 14.7458V1.30494Z" fill="#333333"/>
<path d="M113.417 14.7457C112.318 14.929 111.218 14.929 110.118 14.7457V6.8645L103.825 14.7457C102.97 14.8679 102.115 14.8679 101.259 14.7457V1.30488C102.359 1.12159 103.459 1.12159 104.558 1.30488V9.18611L110.851 1.30488C111.707 1.18269 112.562 1.18269 113.417 1.30488V14.7457Z" fill="#333333"/>
<path d="M126.675 14.7457C125.575 14.929 124.475 14.929 123.376 14.7457V10.1636H122.031L119.099 14.7457C118.61 14.8068 117.999 14.8679 117.266 14.8679C116.533 14.8679 115.983 14.8068 115.494 14.7457L118.793 9.67487C117.205 8.94173 116.227 7.53655 116.227 5.7037C116.227 4.35962 116.655 3.321 117.572 2.46568C118.488 1.61035 119.71 1.24378 121.237 1.24378H126.675V14.7457ZM123.314 4.05414H121.237C120.26 4.05414 119.527 4.66509 119.527 5.7648C119.527 6.8645 120.26 7.47545 121.237 7.47545H123.314V4.05414Z" fill="#333333"/>
<path d="M0 0.446777V15.5422H15.0954V0.446777H0ZM2.34817 13.2611V2.79495H12.7472V13.2611H2.34817Z" fill="#ED1C24"/>
<path d="M9.12421 12.8594V9.57196L7.58113 8.02887L9.12421 6.48579V3.19834L4.29368 8.02887L9.12421 12.8594Z" fill="#ED1C24"/>
</svg>
