<svg width="553" height="553" viewBox="0 0 553 553" fill="none" xmlns="http://www.w3.org/2000/svg">
<ellipse cx="168.724" cy="276.991" rx="141.341" ry="140.386" stroke="#9DB1CD" stroke-width="2" stroke-linecap="round" stroke-linejoin="round" stroke-dasharray="1 5"/>
<circle cx="199.974" cy="200.327" r="139.948" transform="rotate(45 199.974 200.327)" stroke="#9DB1CD" stroke-width="2"/>
<path d="M276.64 309.917C199.386 309.917 136.754 246.864 136.754 169.077C136.754 91.2896 199.386 28.2363 276.64 28.2363C353.893 28.2363 416.525 91.2896 416.525 169.077C416.525 246.864 353.893 309.917 276.64 309.917Z" stroke="#9DB1CD"/>
<circle cx="353.305" cy="200.327" r="139.948" transform="rotate(135 353.305 200.327)" stroke="#9DB1CD" stroke-width="2"/>
<ellipse cx="384.554" cy="276.991" rx="141.341" ry="140.386" stroke="#9DB1CD" stroke-width="2" stroke-linecap="round" stroke-linejoin="round" stroke-dasharray="1 5"/>
<circle cx="353.304" cy="353.658" r="139.948" transform="rotate(45 353.304 353.658)" stroke="#9DB1CD" stroke-width="2"/>
<ellipse cx="276.64" cy="384.907" rx="141.341" ry="140.386" transform="rotate(90 276.64 384.907)" stroke="#9DB1CD" stroke-width="2" stroke-linecap="round" stroke-linejoin="round" stroke-dasharray="1 5"/>
<circle cx="199.976" cy="353.658" r="139.948" transform="rotate(135 199.976 353.658)" stroke="#9DB1CD" stroke-width="2"/>
</svg>
