<svg width="33" height="33" viewBox="0 0 33 33" fill="none" xmlns="http://www.w3.org/2000/svg">
<g clip-path="url(#clip0)">
<path d="M17.0393 0.050615C10.5407 -0.168389 5.20398 5.03432 5.20398 11.4834C5.20398 18.8024 12.2277 24.114 16.1645 31.7528C16.3644 32.1406 16.9227 32.1411 17.1232 31.7534C20.6846 24.88 26.7715 20.271 27.8996 13.6493C29.0675 6.79707 23.9862 0.284822 17.0393 0.050615ZM16.6433 17.4754C13.3341 17.4754 10.6513 14.7926 10.6513 11.4834C10.6513 8.17421 13.3341 5.49139 16.6433 5.49139C19.9525 5.49139 22.6354 8.17421 22.6354 11.4834C22.6354 14.7926 19.9525 17.4754 16.6433 17.4754Z" fill="#9DB1CD"/>
</g>
<defs>
<clipPath id="clip0">
<rect x="0.635498" y="0.0439453" width="32" height="32" fill="white"/>
</clipPath>
</defs>
</svg>
