<svg width="170" height="170" viewBox="0 0 170 170" fill="none" xmlns="http://www.w3.org/2000/svg">
<path d="M170 68.2787C170 49.5176 155.082 34.215 136.49 33.5099C135.785 14.9182 120.482 0 101.721 0C95.6642 0 89.9671 1.5598 85 4.28976C80.0329 1.5598 74.3358 0 68.2787 0C49.5176 0 34.215 14.9182 33.5099 33.5099C14.9182 34.215 0 49.5176 0 68.2787C0 74.3358 1.5598 80.0329 4.28976 85C1.5598 89.9671 0 95.6642 0 101.721C0 120.482 14.9182 135.785 33.5099 136.49C34.215 155.082 49.5176 170 68.2787 170C74.3358 170 80.0329 168.44 85 165.71C89.9671 168.44 95.6642 170 101.721 170C120.482 170 135.785 155.082 136.49 136.49C155.082 135.785 170 120.482 170 101.721C170 95.6642 168.44 89.9671 165.71 85C168.44 80.0329 170 74.3358 170 68.2787ZM167.213 68.2787C167.213 73.2678 166.034 77.9755 163.992 82.19C157.954 73.3062 147.914 67.3858 136.49 66.9525C136.279 61.3937 134.796 56.1574 132.268 51.5574C134.775 46.9946 136.253 41.8051 136.483 36.2964C153.541 36.996 167.213 51.052 167.213 68.2787ZM136.483 100.261C136.253 94.7523 134.775 89.5628 132.268 85C134.775 80.4372 136.253 75.2477 136.483 69.739C147.47 70.1896 157.027 76.178 162.453 85C157.027 93.822 147.47 99.8104 136.483 100.261ZM118.443 129.01C109.66 123.609 103.687 114.113 103.189 103.189C114.113 103.687 123.609 109.66 129.01 118.443C126.365 122.743 122.743 126.365 118.443 129.01ZM130.549 121.253C132.389 125.049 133.493 129.252 133.696 133.696C129.252 133.493 125.049 132.389 121.253 130.549C124.907 128.066 128.066 124.907 130.549 121.253ZM40.9895 118.443C46.3912 109.66 55.8867 103.687 66.8109 103.189C66.3126 114.113 60.3395 123.609 51.5574 129.01C47.2566 126.365 43.6348 122.743 40.9895 118.443ZM48.7474 130.549C44.9515 132.389 40.7483 133.493 36.3039 133.696C36.5067 129.252 37.6112 125.049 39.4507 121.253C41.9345 124.907 45.0931 128.066 48.7474 130.549ZM7.54691 85C12.973 76.178 22.5302 70.1896 33.5166 69.739C33.7465 75.2477 35.2246 80.4372 37.7324 85C35.2246 89.5628 33.7465 94.7523 33.5166 100.261C22.5302 99.8104 12.973 93.822 7.54691 85ZM51.5574 40.9895C60.3395 46.3912 66.3126 55.8867 66.8109 66.8109C55.8867 66.3126 46.3912 60.3395 40.9895 51.5574C43.6348 47.2566 47.2566 43.6348 51.5574 40.9895ZM39.4507 48.7474C37.6112 44.9515 36.5067 40.7483 36.3039 36.3039C40.7483 36.5067 44.9515 37.6112 48.7474 39.4507C45.0931 41.9345 41.9345 45.0931 39.4507 48.7474ZM129.01 51.5574C123.609 60.3395 114.113 66.3126 103.189 66.8109C103.687 55.8867 109.66 46.3912 118.443 40.9895C122.743 43.6348 126.365 47.2566 129.01 51.5574ZM121.253 39.4507C125.049 37.6112 129.252 36.5067 133.696 36.3039C133.493 40.7483 132.389 44.9515 130.549 48.7474C128.066 45.0931 124.907 41.9345 121.253 39.4507ZM100.328 133.7C95.856 133.506 91.6271 132.399 87.81 130.549C93.3096 126.811 97.6868 121.543 100.328 115.361V133.7ZM69.6721 36.3002C74.144 36.4938 78.3729 37.6008 82.19 39.4507C76.6904 43.1887 72.3132 48.4567 69.6721 54.6385V36.3002ZM69.6721 69.6721H100.328V100.328H69.6721V69.6721ZM100.328 54.6385C97.6868 48.4567 93.3096 43.1887 87.81 39.4507C91.6271 37.6008 95.856 36.4938 100.328 36.3002V54.6385ZM100.257 66.8852H69.7428C70.2172 55.93 76.1979 46.4035 85 40.9895C93.8021 46.4035 99.7828 55.93 100.257 66.8852ZM66.8852 69.7428V100.257C55.93 99.7828 46.4035 93.8021 40.9895 85C46.4035 76.1979 55.93 70.2172 66.8852 69.7428ZM39.4507 82.19C37.6008 78.3729 36.4938 74.144 36.3002 69.6721H54.6385C48.4567 72.3132 43.1887 76.6904 39.4507 82.19ZM54.6385 100.328H36.3002C36.4938 95.856 37.6008 91.6271 39.4507 87.81C43.1887 93.3096 48.4567 97.6868 54.6385 100.328ZM69.6721 115.361C72.3132 121.543 76.6904 126.811 82.19 130.549C78.3729 132.399 74.144 133.506 69.6721 133.7V115.361ZM69.7428 103.115H100.257C99.7828 114.07 93.8021 123.596 85 129.01C76.1979 123.596 70.2172 114.07 69.7428 103.115ZM103.115 100.257V69.7428C114.07 70.2172 123.596 76.1979 129.01 85C123.596 93.8021 114.07 99.7828 103.115 100.257ZM130.549 87.81C132.399 91.6271 133.506 95.856 133.7 100.328H115.361C121.543 97.6868 126.811 93.3096 130.549 87.81ZM115.361 69.6721H133.7C133.506 74.144 132.399 78.3729 130.549 82.19C126.811 76.6904 121.543 72.3132 115.361 69.6721ZM115.361 66.8852C121.543 64.2442 126.811 59.867 130.549 54.3674C132.399 58.1845 133.506 62.4134 133.7 66.8852H115.361ZM103.115 54.6385V36.3002C107.587 36.4938 111.815 37.6008 115.633 39.4507C110.133 43.1887 105.756 48.4567 103.115 54.6385ZM85 37.7324C80.4372 35.2246 75.2477 33.7465 69.739 33.5166C70.1896 22.5302 76.178 12.973 85 7.54691C93.822 12.973 99.8104 22.5302 100.261 33.5166C94.7523 33.7465 89.5628 35.2246 85 37.7324ZM66.8852 54.6385C64.2442 48.4567 59.867 43.1887 54.3674 39.4507C58.1845 37.6008 62.4134 36.4938 66.8852 36.3002V54.6385ZM54.6385 66.8852H36.3002C36.4938 62.4134 37.6008 58.1845 39.4507 54.3674C43.1887 59.867 48.4567 64.2442 54.6385 66.8852ZM54.6385 103.115C48.4567 105.756 43.1887 110.133 39.4507 115.633C37.6008 111.815 36.4938 107.587 36.3002 103.115H54.6385ZM66.8852 115.361V133.7C62.4134 133.506 58.1845 132.399 54.3674 130.549C59.867 126.811 64.2442 121.543 66.8852 115.361ZM85 132.268C89.5628 134.775 94.7523 136.253 100.261 136.483C99.8104 147.47 93.822 157.027 85 162.453C76.178 157.027 70.1896 147.47 69.739 136.483C75.2477 136.253 80.4372 134.775 85 132.268ZM103.115 115.361C105.756 121.543 110.133 126.811 115.633 130.549C111.815 132.399 107.587 133.506 103.115 133.7V115.361ZM115.361 103.115H133.7C133.506 107.587 132.399 111.815 130.549 115.633C126.811 110.133 121.543 105.756 115.361 103.115ZM101.721 2.78689C118.948 2.78689 133.004 16.4586 133.704 33.5166C128.195 33.7465 123.005 35.2246 118.443 37.7324C113.843 35.2042 108.606 33.7207 103.048 33.5099C102.614 22.0864 96.6938 12.0462 87.81 6.00809C92.0245 3.96566 96.7322 2.78689 101.721 2.78689ZM68.2787 2.78689C73.2678 2.78689 77.9755 3.96566 82.19 6.00809C73.3062 12.0462 67.3858 22.0864 66.9525 33.5099C61.3937 33.7207 56.1574 35.2042 51.5574 37.7324C46.9946 35.2246 41.8051 33.7465 36.2964 33.5166C36.996 16.4586 51.052 2.78689 68.2787 2.78689ZM2.78689 68.2787C2.78689 51.052 16.4586 36.996 33.5166 36.2964C33.7465 41.8051 35.2246 46.9946 37.7324 51.5574C35.2042 56.1574 33.7207 61.3937 33.5099 66.9525C22.0864 67.3858 12.0462 73.3062 6.00809 82.19C3.96566 77.9755 2.78689 73.2678 2.78689 68.2787ZM2.78689 101.721C2.78689 96.7322 3.96566 92.0245 6.00809 87.81C12.0462 96.6938 22.0864 102.614 33.5099 103.048C33.7207 108.606 35.2042 113.843 37.7324 118.443C35.2246 123.005 33.7465 128.195 33.5166 133.704C16.4586 133.004 2.78689 118.948 2.78689 101.721ZM68.2787 167.213C51.052 167.213 36.996 153.541 36.2964 136.483C41.8051 136.253 46.9946 134.775 51.5574 132.268C56.1574 134.796 61.3937 136.279 66.9525 136.49C67.3858 147.914 73.3062 157.954 82.19 163.992C77.9755 166.034 73.2678 167.213 68.2787 167.213ZM101.721 167.213C96.7322 167.213 92.0245 166.034 87.81 163.992C96.6938 157.954 102.614 147.914 103.048 136.49C108.606 136.279 113.843 134.796 118.443 132.268C123.005 134.775 128.195 136.253 133.704 136.483C133.004 153.541 118.948 167.213 101.721 167.213ZM167.213 101.721C167.213 118.948 153.541 133.004 136.483 133.704C136.253 128.195 134.775 123.005 132.268 118.443C134.796 113.843 136.279 108.606 136.49 103.048C147.914 102.614 157.954 96.6938 163.992 87.81C166.034 92.0245 167.213 96.7322 167.213 101.721Z" fill="#2B79E6"/>
</svg>
