<svg width="154" height="153" viewBox="0 0 154 153" fill="none" xmlns="http://www.w3.org/2000/svg">
<path d="M153.635 76.4996L128.322 25.8728L128.134 25.4996L127.761 25.313L77.1351 0L26.5083 25.313L26.1351 25.4996L25.9485 25.8728L0.635498 76.4996L25.9485 127.126L26.1351 127.499L26.5086 127.686L26.5083 127.686L77.1351 153L127.761 127.686L128.134 127.499L128.321 127.125L128.322 127.126L153.635 76.4996ZM124.18 27.6843L81.704 70.1608L102.941 27.6843H124.18ZM102.941 125.315L81.7039 82.8383L124.18 125.315H102.941ZM30.0898 125.315L72.5661 82.8385L51.3283 125.315H30.0898ZM51.3279 27.6843L72.566 70.1606L30.0898 27.6843H51.3279ZM75.8834 27.6843V71.1971L54.127 27.6843H75.8834ZM55.1232 25.181L75.8834 4.42079V25.181H55.1232ZM125.95 77.7513V99.5089L82.4374 77.7513H125.95ZM82.4375 75.2479L125.95 53.4911V75.2479H82.4375ZM128.454 77.7513H149.214L128.454 98.5115V77.7513ZM128.454 75.2479V54.4886L149.214 75.2479H128.454ZM83.474 71.9306L125.95 29.4543V50.6928L83.474 71.9306ZM70.7961 71.9305L28.3198 50.6924V29.4543L70.7961 71.9305ZM25.8165 75.2479H5.05629L25.8165 54.4877V75.2479ZM28.3198 53.4915L71.8326 75.2479H28.3198V53.4915ZM71.8328 77.7513L28.3198 99.5085V77.7513H71.8328ZM75.8834 81.802V125.315H54.1266L75.8834 81.802ZM75.8834 127.818V148.578L55.1241 127.818H75.8834ZM78.3868 127.818H99.1469L78.3868 148.578V127.818ZM78.3868 125.315V81.8019L100.144 125.315H78.3868ZM83.4738 81.0684L125.95 102.306V123.545L83.4738 81.0684ZM128.454 102.051L147.666 82.8392L128.454 121.265V102.051ZM128.454 50.947V31.7352L147.665 70.1595L128.454 50.947ZM78.3868 71.1973V27.6843H100.144L78.3868 71.1973ZM78.3868 25.181V4.42069L99.1478 25.181H78.3868ZM51.5833 25.181H32.3705L70.7968 5.96756L51.5833 25.181ZM25.8165 50.9478L6.60305 70.1613L25.8165 31.735V50.9478ZM25.8165 77.7513V98.5123L5.05618 77.7513H25.8165ZM70.7962 81.0685L28.3198 123.545V102.306L70.7962 81.0685ZM51.5825 127.818L70.795 147.03L32.3707 127.818H51.5825ZM102.687 127.818H121.9L83.4747 147.03L102.687 127.818ZM102.686 25.181L83.473 5.96725L121.9 25.181H102.686ZM25.8165 102.051V121.265L6.60275 82.8375L25.8165 102.051Z" fill="#9DB1CD"/>
</svg>
