<svg width="152" height="163" viewBox="0 0 152 163" fill="none" xmlns="http://www.w3.org/2000/svg">
<path d="M0.692611 123.058C0.488635 123.058 0.896589 122.868 0.896589 122.868L76.1641 163L151.432 123.058C151.635 122.868 150.82 123.439 151.432 123.058C151.635 123.058 151.635 122.488 151.635 122.107V42.0338V40.8927L144.496 36.8985L76.1641 0L0.896589 40.5123C0.896589 40.5123 0.896588 40.5123 0.692611 40.7025V123.058ZM86.3629 63.9067L77.5919 68.6616L77.3879 43.175H86.3629V63.9067ZM65.9652 99.8541L74.7362 95.2894L74.9402 121.156H65.9652V99.8541ZM73.3084 81.7853L65.9652 85.7795V77.7911L73.3084 81.7853ZM75.1442 80.2637L67.3931 76.0793L75.1442 71.895V80.2637ZM39.2442 63.1459L63.1095 76.0793L54.1346 80.8343L34.5528 70.3734L39.2442 63.1459ZM63.9254 77.7911V86.3501L55.9703 82.1657L63.9254 77.7911ZM62.9056 87.6815L39.2442 100.425L34.9607 93.5776L54.3385 83.1167L62.9056 87.6815ZM74.9402 83.6873V92.056L67.1891 87.8717L74.9402 83.6873ZM77.1839 83.4971L84.9351 87.6815L77.1839 91.8658V83.4971ZM78.8158 81.7853L86.3629 77.7911V85.7795L78.8158 81.7853ZM77.3879 80.0735V72.0852L84.7311 76.0793L77.3879 80.0735ZM65.9652 74.5578V66.189L73.7163 70.3734L65.9652 74.5578ZM63.9254 74.3676L40.2641 61.4341L44.5476 54.5869L64.1294 65.238V74.3676H63.9254ZM33.7369 72.0852L52.2988 82.1657L33.9408 92.056L27.6176 81.9755L33.7369 72.0852ZM40.2641 102.327L63.9254 89.3932V98.713L44.5476 109.174L40.2641 102.327ZM65.9652 89.5834L73.3084 93.5776L65.9652 97.5718V89.5834ZM86.3629 89.203V97.9522L78.2038 93.5776L86.3629 89.203ZM88.4027 89.3932L112.064 102.327L107.78 109.554L88.4027 99.0934V89.3932ZM112.88 100.425L89.0146 87.4912L97.5816 82.9265L117.163 93.5776L112.88 100.425ZM88.4027 85.9697V77.7911L95.9498 81.7853L88.4027 85.9697ZM89.0146 76.2696L112.88 63.3361L117.163 70.1832L97.5816 80.8343L89.0146 76.2696ZM112.064 61.4341L88.4027 74.1774V65.0478L107.78 54.5869L112.064 61.4341ZM86.3629 74.5578L78.6118 70.3734L86.3629 66.189V74.5578ZM74.9402 68.8518L65.9652 63.9067V43.175H75.1442L74.9402 68.8518ZM63.9254 62.7655L45.5675 52.8751L51.6868 43.175H63.9254V62.7655ZM43.5278 52.4948C43.5278 52.685 43.5278 52.685 43.5278 52.4948L38.6323 60.4831L6.40396 43.175H49.4431L43.5278 52.4948ZM37.4084 62.1949L26.3937 79.8833L4.56817 44.5064L37.4084 62.1949ZM25.5778 81.7853L2.73238 119.254V114.69V44.5064L25.5778 81.7853ZM26.5977 83.6873L37.6124 101.376L4.97613 118.874L26.5977 83.6873ZM38.6323 103.278L43.7317 111.456C43.7317 111.646 43.3238 110.886 43.7317 111.456L49.851 121.347H5.1801L38.6323 103.278ZM45.5675 110.886L63.9254 100.995V121.156H52.2988L45.5675 110.886ZM65.3533 123.058H74.9402V157.865L53.3186 123.058H65.3533ZM77.3879 95.2894L86.3629 100.235V121.156H77.1839L77.3879 95.2894ZM88.4027 101.186L106.557 111.076L100.029 121.156H88.4027V101.186ZM108.596 111.456C108.596 111.266 108.596 111.266 108.596 111.456L113.696 103.278L146.944 121.156H102.477L108.596 111.456ZM114.716 101.376L125.73 83.6873L147.76 119.254L114.716 101.376ZM118.387 91.8658L99.8254 81.7853L118.591 71.7048L124.711 81.7853L118.387 91.8658ZM114.92 62.3851L147.556 44.8868L125.73 79.8833L114.92 62.3851ZM113.696 60.4831L108.8 52.685C108.8 52.4948 108.596 52.4948 108.392 52.4948L102.681 43.175H145.924L113.696 60.4831ZM106.761 52.8751L88.4027 62.7655V43.175H100.437L106.761 52.8751ZM86.9748 41.273H77.3879V5.89615L99.2134 41.273H86.9748ZM65.3533 41.273H52.9107L75.3481 5.13536V41.273H65.3533ZM50.6669 41.273H4.3642L73.5124 4.18436L50.6669 41.273ZM51.0749 123.058L74.1243 160.337L4.97613 123.058H51.0749ZM77.1839 123.058H87.1788H99.0095L76.98 158.435L77.1839 123.058ZM101.253 123.058H146.944L78.4078 159.767L101.253 123.058ZM126.954 81.7853L150.004 44.6966V118.874L126.954 81.7853ZM101.661 41.273L78.4078 3.80397L148.168 41.273H101.661Z" fill="#9DB1CD"/>
</svg>
