<svg width="151" height="170" viewBox="0 0 151 170" fill="none" xmlns="http://www.w3.org/2000/svg">
<path d="M0.0571134 128.343C-0.146863 128.343 0.261091 128.145 0.261091 128.145L75.5286 170L150.796 128.343C151 128.145 150.184 128.74 150.796 128.343C151 128.343 151 127.748 151 127.351V43.839V42.6488L143.861 38.4831L75.5286 0L0.261091 42.252C0.261091 42.252 0.26109 42.252 0.0571134 42.4504V128.343ZM85.7274 66.6511L76.9564 71.6103L76.7524 45.0292H85.7274V66.6511ZM65.3297 104.142L74.1007 99.3816L74.3047 126.359H65.3297V104.142ZM72.6729 85.2976L65.3297 89.4632V81.1319L72.6729 85.2976ZM74.5087 83.7106L66.7576 79.3466L74.5087 74.9825V83.7106ZM38.6087 65.8577L62.474 79.3466L53.4991 84.3057L33.9173 73.3956L38.6087 65.8577ZM63.2899 81.1319V90.0583L55.3348 85.6943L63.2899 81.1319ZM62.2701 91.4469L38.6087 104.737L34.3252 97.5963L53.703 86.6861L62.2701 91.4469ZM74.3047 87.2812V96.0093L66.5536 91.6453L74.3047 87.2812ZM76.5484 87.0829L84.2996 91.4469L76.5484 95.811V87.0829ZM78.1803 85.2976L85.7274 81.1319V89.4632L78.1803 85.2976ZM76.7524 83.5123V75.1809L84.0956 79.3466L76.7524 83.5123ZM65.3297 77.7596V69.0315L73.0808 73.3956L65.3297 77.7596ZM63.2899 77.5613L39.6286 64.0723L43.9121 56.9312L63.4939 68.0397V77.5613H63.2899ZM33.1014 75.1809L51.6633 85.6943L33.3053 96.0093L26.9821 85.4959L33.1014 75.1809ZM39.6286 106.721L63.2899 93.2322V102.952L43.9121 113.862L39.6286 106.721ZM65.3297 93.4306L72.6729 97.5963L65.3297 101.762V93.4306ZM85.7274 93.0338V102.159L77.5683 97.5963L85.7274 93.0338ZM87.7672 93.2322L111.428 106.721L107.145 114.259L87.7672 103.349V93.2322ZM112.244 104.737L88.3791 91.2485L96.9461 86.4878L116.528 97.5963L112.244 104.737ZM87.7672 89.6616V81.1319L95.3143 85.2976L87.7672 89.6616ZM88.3791 79.5449L112.244 66.056L116.528 73.1972L96.9461 84.3057L88.3791 79.5449ZM111.428 64.0723L87.7672 77.3629V67.8413L107.145 56.9312L111.428 64.0723ZM85.7274 77.7596L77.9763 73.3956L85.7274 69.0315V77.7596ZM74.3047 71.8086L65.3297 66.6511V45.0292H74.5087L74.3047 71.8086ZM63.2899 65.4609L44.932 55.1459L51.0513 45.0292H63.2899V65.4609ZM42.8923 54.7491C42.8923 54.9475 42.8923 54.9475 42.8923 54.7491L37.9968 63.0805L5.76846 45.0292H48.8076L42.8923 54.7491ZM36.7729 64.8658L25.7582 83.3139L3.93267 46.4177L36.7729 64.8658ZM24.9423 85.2976L2.09688 124.376V119.615V46.4177L24.9423 85.2976ZM25.9622 87.2812L36.9769 105.729L4.34063 123.979L25.9622 87.2812ZM37.9968 107.713L43.0962 116.243C43.0962 116.441 42.6883 115.648 43.0962 116.243L49.2155 126.558H4.54461L37.9968 107.713ZM44.932 115.648L63.2899 105.333V126.359H51.6633L44.932 115.648ZM64.7178 128.343H74.3047V164.644L52.6831 128.343H64.7178ZM76.7524 99.3816L85.7274 104.539V126.359H76.5484L76.7524 99.3816ZM87.7672 105.531L105.921 115.846L99.3939 126.359H87.7672V105.531ZM107.961 116.243C107.961 116.044 107.961 116.044 107.961 116.243L113.06 107.713L146.309 126.359H101.842L107.961 116.243ZM114.08 105.729L125.095 87.2812L147.124 124.376L114.08 105.729ZM117.752 95.811L99.1899 85.2976L117.956 74.7841L124.075 85.2976L117.752 95.811ZM114.284 65.0642L146.92 46.8145L125.095 83.3139L114.284 65.0642ZM113.06 63.0805L108.165 54.9475C108.165 54.7491 107.961 54.7491 107.757 54.7491L102.046 45.0292H145.289L113.06 63.0805ZM106.125 55.1459L87.7672 65.4609V45.0292H99.8018L106.125 55.1459ZM86.3393 43.0455H76.7524V6.14936L98.5779 43.0455H86.3393ZM64.7178 43.0455H52.2752L74.7126 5.35589V43.0455H64.7178ZM50.0314 43.0455H3.7287L72.8769 4.36406L50.0314 43.0455ZM50.4394 128.343L73.4888 167.223L4.34063 128.343H50.4394ZM76.5484 128.343H86.5433H98.374L76.3445 165.239L76.5484 128.343ZM100.618 128.343H146.309L77.7723 166.628L100.618 128.343ZM126.319 85.2976L149.368 46.6161V123.979L126.319 85.2976ZM101.026 43.0455L77.7723 3.96733L147.532 43.0455H101.026Z" fill="#2B79E6"/>
</svg>
