<svg width="161" height="162" viewBox="0 0 161 162" fill="none" xmlns="http://www.w3.org/2000/svg">
<path d="M76.9386 3.86127C77.4153 1.52172 78.8455 0.0897303 80.7702 0.00497653C81.3376 -0.0197433 81.8855 0.045587 82.4245 0.246877C82.935 0.437573 83.3957 0.697132 83.8031 1.05027C84.2318 1.42107 84.616 1.83954 84.8206 2.36925C85.0091 2.86012 85.123 3.37923 85.2849 3.93896C91.4609 4.31682 97.5428 5.37095 103.534 7.19492C104.066 5.93421 104.934 5.04429 106.255 4.68586C107.164 4.43866 108.075 4.47221 108.958 4.83947C111.032 5.70467 111.864 7.52334 111.297 10.013C114.13 11.219 116.891 12.5909 119.568 14.1271C122.222 15.6491 124.773 17.3301 127.223 19.1311C129.531 17.0299 131.634 17.5684 133.029 18.6596C134.377 19.712 135.323 21.8679 133.635 24.4564C138.157 28.6553 142.174 33.3097 145.612 38.4938C146.786 38.017 147.944 37.874 149.115 38.4055C149.981 38.7992 150.66 39.3819 151.118 40.2171C151.957 41.7533 151.938 43.8386 149.815 45.5954C152.71 51.1645 154.882 57.0142 156.354 63.143C157.543 63.256 158.621 63.6074 159.457 64.4726C160.074 65.1117 160.472 65.8745 160.577 66.7592C160.794 68.5796 159.843 70.3506 157.843 71.1981C157.897 71.8038 157.946 72.4288 158.01 73.0521C158.087 73.8078 158.203 74.56 158.251 75.3175C158.43 78.1585 158.512 81.0048 158.395 83.8494C158.325 85.5445 158.133 87.2342 158 88.9276C157.97 89.3036 157.959 89.6833 157.939 90.0629C159.876 90.9652 160.903 92.4272 160.576 94.5231C160.227 96.7461 158.702 97.8444 156.509 98.0898C155.056 104.347 152.891 110.308 149.958 116.008C151.326 117.581 151.721 119.308 150.58 121.118C149.518 122.804 147.907 123.385 145.904 122.953C142.357 128.366 138.173 133.247 133.42 137.62C134.413 139.829 134.037 141.678 132.383 142.985C130.787 144.245 128.687 144.145 127.125 142.82C122.027 146.562 116.551 149.689 110.642 152.138C110.904 153.314 110.678 154.375 110.011 155.334C109.505 156.061 108.845 156.614 107.993 156.911C107.015 157.251 106.04 157.236 105.08 156.833C104.128 156.434 103.416 155.766 102.915 154.868C96.8579 156.646 90.7192 157.686 84.3883 157.963C84.3296 158.221 84.2656 158.486 84.2069 158.751C83.7586 160.799 81.9033 162.167 79.895 161.984C77.8849 161.798 76.4014 160.433 76.0759 158.318C76.0581 158.198 76.0509 158.076 76.0367 157.926C69.8428 157.532 63.8073 156.473 57.8766 154.658C57.7699 154.855 57.6828 155.03 57.5849 155.2C56.6332 156.822 55.2458 157.682 53.3282 157.435C51.7948 157.237 50.7026 156.362 50.0889 154.949C49.6567 153.953 49.6407 152.931 50.0961 151.843C47.2766 150.589 44.507 149.253 41.8441 147.71C39.1936 146.173 36.6374 144.498 34.1488 142.658C33.3164 143.656 32.2775 144.266 30.9772 144.305C29.9472 144.337 29.0205 143.996 28.2307 143.324C26.6867 142.008 26.0427 139.684 27.8198 137.407C25.6051 135.284 23.4243 133.114 21.4391 130.761C19.4682 128.425 17.6075 126.006 15.8963 123.414C14.6298 123.961 13.3472 124.16 12.0576 123.549C11.177 123.133 10.4904 122.501 10.0671 121.616C9.16875 119.737 9.75042 117.634 11.6733 116.291C8.80764 110.771 6.64992 104.972 5.16638 98.8896C4.81595 98.8349 4.47086 98.7766 4.12399 98.7254C2.6191 98.51 1.05195 97.2617 0.756662 95.4165C0.4258 93.3383 1.53579 91.7827 2.90905 91.0747C3.13496 90.9581 3.36976 90.8592 3.66505 90.7233C3.3075 87.6492 3.06914 84.5486 3.04779 81.4321C3.02823 78.3086 3.22923 75.1974 3.5512 72.0598C1.39526 71.0586 0.196331 69.4713 0.785123 67.0787C1.28853 65.0376 2.8201 64.07 4.94225 63.9199C5.67157 60.8034 6.56632 57.7488 7.65318 54.7488C8.7436 51.7418 10.0226 48.8161 11.499 45.9309C10.0724 44.4371 9.63658 42.7156 10.7021 40.881C11.773 39.0376 13.4771 38.4426 15.5832 38.9334C19.0946 33.571 23.2215 28.7418 27.9087 24.407C26.6813 22.1487 27.5174 20.0793 28.88 19.0128C30.1998 17.9798 32.2206 17.6267 34.1933 19.1911C39.2825 15.4143 44.7631 12.2925 50.6012 9.83818C50.3629 7.61163 51.3537 5.88477 53.1539 5.15553C54.7352 4.51458 56.9908 4.89421 58.3374 7.02012C60.3457 6.52219 62.3522 5.96246 64.3889 5.53692C66.4577 5.10433 68.5461 4.74412 70.6415 4.46691C72.7103 4.19322 74.8004 4.0608 76.9386 3.86127ZM104.208 78.4287C102.065 75.9849 100.245 73.4141 98.6296 70.6967C97.0038 67.9634 95.6323 65.11 94.5081 62.1154C92.3521 62.1807 90.8739 61.2184 90.0539 59.2496C86.9196 59.7475 83.796 59.9983 80.6492 59.9647C77.4811 59.9312 74.3433 59.601 71.2196 59.0607C70.396 61.2978 68.7755 62.2531 66.4257 62.0765C64.1114 67.9669 60.8384 73.2552 56.7257 77.9855C58.3285 79.8536 58.3463 81.7341 57.0104 83.6516C61.2066 88.5356 64.3427 93.9863 66.6107 99.9473C67.646 99.8149 68.5478 99.9985 69.3946 100.504C70.2591 101.017 70.8034 101.791 71.2125 102.642C77.5541 101.588 83.8262 101.685 90.0877 102.818C90.9522 100.689 92.5282 99.7407 94.8247 99.9367C97.0198 93.9439 100.222 88.5568 104.297 83.6922C102.979 81.9495 102.984 80.2103 104.208 78.4287ZM130.665 98.1798C128.393 104.591 125.052 110.324 120.621 115.404C122.002 117.366 121.792 119.193 120.319 120.936C124.113 125.453 127.253 130.342 129.729 135.553C130.284 135.689 130.77 135.761 131.216 135.931C131.684 136.109 132.116 136.383 132.571 136.619C136.051 133.776 142.826 125.817 144.685 122.381C142.483 120.44 142.673 118.247 143.666 116.743C144.141 116.022 144.788 115.514 145.598 115.185C146.701 114.739 147.78 114.823 148.858 115.284C150.326 112.507 151.523 109.655 152.61 106.752C153.761 103.676 155.198 98.6548 155.138 97.7755C154.517 97.5442 153.933 97.2069 153.521 96.679C153.104 96.1475 152.772 95.5542 152.389 94.9698C149.598 95.2452 146.768 95.3953 143.928 95.3565C141.092 95.3176 138.274 95.0475 135.432 94.7032C135.11 95.7785 134.685 96.7496 133.76 97.3994C132.851 98.035 131.844 98.3193 130.665 98.1798ZM25.8542 67.1635C26.1993 66.0299 26.676 65.1382 27.6063 64.492C28.5384 63.844 29.563 63.738 30.6534 63.7839C32.9161 57.4221 36.2336 51.7012 40.67 46.6213C39.1794 44.7196 39.5085 42.592 40.9902 40.9746C37.2369 36.5056 34.099 31.6428 31.5767 26.3881C30.4791 26.4446 29.6039 25.9414 28.7341 25.4134C24.1447 29.6988 20.1192 34.3744 16.7288 39.5832C18.3706 40.7609 18.858 42.795 18.0611 44.5872C17.6573 45.4966 16.9244 46.2099 16.0119 46.6284C14.9233 47.1281 13.7706 47.1545 12.593 46.6513C9.80201 52.2698 7.61049 58.0472 6.25502 64.2059C7.43972 64.7339 8.33447 65.5797 8.7774 66.8245C9.10115 66.8245 9.39288 66.8774 9.65792 66.8157C10.6025 66.5914 11.5755 66.6002 12.5254 66.5667C14.8788 66.4837 17.2357 66.5384 19.5927 66.5384C19.7457 66.5384 19.9058 66.519 20.0534 66.5508C21.0744 66.7627 22.1222 66.6921 23.1486 66.8404C23.3727 66.8722 23.5968 66.9057 23.821 66.9322C24.4951 67.0117 25.1711 67.0876 25.8542 67.1635ZM31.4415 136.097C33.9158 130.559 37.0608 125.451 40.855 120.756C40.0439 119.962 39.7024 119.054 39.6259 118.007C39.5476 116.949 39.971 116.07 40.4904 115.284C39.681 114.241 38.9143 113.24 38.1352 112.252C36.5556 110.254 35.2304 108.091 34.0297 105.857C33.1385 104.201 32.2935 102.516 31.6122 100.758C31.3614 100.112 31.0804 99.4759 30.8242 98.8614C28.526 98.9585 26.4056 97.9697 25.8897 94.5972C25.7759 94.5972 25.6478 94.5743 25.5304 94.6008C24.52 94.8285 23.5008 94.9769 22.4673 95.051C21.8874 95.0916 21.295 95.0987 20.7311 95.2241C19.8328 95.4236 18.9149 95.4395 18.0166 95.4695C15.5601 95.5489 13.1 95.4977 10.6416 95.4942C10.4388 95.4942 10.2236 95.5066 10.0386 95.443C9.66148 95.3141 9.2986 95.3494 8.9286 95.3865C8.58173 96.852 7.74924 97.9062 6.43646 98.5683C6.80112 99.8961 7.11953 101.178 7.50732 102.44C7.9538 103.895 8.43231 105.343 8.94639 106.777C9.75932 109.039 10.663 111.265 11.7534 113.414C11.9579 113.819 12.1607 114.225 12.36 114.631C12.5556 115.026 12.746 115.424 12.9363 115.814C14.2064 115.325 16.1862 116.155 17.1041 117.347C17.6235 118.021 17.8957 118.803 17.9419 119.642C18.0042 120.76 17.6004 121.741 16.9173 122.582C20.3433 127.731 24.3297 132.353 28.8515 136.577C29.6324 136.061 30.5183 136.049 31.4415 136.097ZM120.401 41.1776C120.497 41.3083 120.525 41.3507 120.557 41.3895C120.607 41.4478 120.669 41.4955 120.714 41.5573C121.737 42.9186 122.007 44.3665 121.215 45.9327C121.071 46.2187 120.922 46.503 120.778 46.782C125.052 51.673 128.206 57.1749 130.462 63.1765C132.973 63.0759 134.539 64.2095 135.233 66.4855C138.121 65.9593 140.985 65.5938 143.867 65.5055C146.799 65.4172 149.737 65.3431 152.589 65.6256C152.998 65.1365 153.318 64.6739 153.722 64.2995C154.118 63.9305 154.6 63.6515 155.036 63.3407C153.647 57.3674 151.452 51.6959 148.643 46.1711C148.23 46.2258 147.798 46.367 147.389 46.3229C146.283 46.2046 145.313 45.7879 144.495 44.9792C143.358 43.8562 143.027 41.8504 143.748 40.4943C143.97 40.0758 144.239 39.6821 144.52 39.223C141.138 34.1025 137.136 29.494 132.666 25.3181C132.162 25.5229 131.732 25.7631 131.271 25.8655C130.807 25.9679 130.312 25.929 129.791 25.9555C127.322 31.4292 124.213 36.5056 120.401 41.1776ZM58.1719 153.404C58.5313 153.494 58.8479 153.57 59.1627 153.655C60.2496 153.953 61.3311 154.276 62.4251 154.552C63.5191 154.827 64.6202 155.074 65.7248 155.3C66.6107 155.482 67.5037 155.634 68.3984 155.77C69.2451 155.899 70.1025 155.964 70.9475 156.1C71.8458 156.243 72.7423 156.388 73.6549 156.392C73.7829 156.392 73.9217 156.367 74.0373 156.407C74.7844 156.665 75.5422 156.501 76.2946 156.531C76.8692 154.963 77.9934 154.01 79.5766 153.822C81.8055 153.559 83.337 154.647 84.2211 156.688C84.4239 156.688 84.6107 156.727 84.7743 156.681C85.4752 156.49 86.1885 156.556 86.8982 156.536C86.9498 156.535 87.0014 156.538 87.0512 156.533C87.825 156.436 88.5988 156.33 89.3744 156.241C89.9774 156.174 90.584 156.137 91.187 156.074C91.5872 156.031 91.9893 155.98 92.3859 155.911C93.1775 155.774 93.9655 155.627 94.7536 155.472C95.6643 155.292 96.5751 155.111 97.4805 154.907C98.6047 154.651 99.7254 154.377 100.844 154.096C101.397 153.957 101.942 153.782 102.527 153.612C102.285 152.053 102.972 150.881 103.915 149.82C100.586 145.176 97.8647 140.26 95.7533 134.924C95.0239 135.364 94.2608 135.334 93.4995 135.323C92.6741 135.311 92.0337 134.921 91.3631 134.474C90.6872 134.024 90.4452 133.3 89.9952 132.758C89.2303 132.855 88.4956 132.892 87.7912 133.058C87.3092 133.171 86.82 133.098 86.361 133.208C85.5161 133.411 84.6498 133.423 83.8049 133.457C81.7076 133.542 79.605 133.485 77.506 133.483C77.3264 133.483 77.136 133.513 76.9706 133.464C76.1595 133.22 75.3092 133.381 74.4909 133.194C73.8808 133.054 73.2493 133.007 72.6249 132.924C72.0041 132.841 71.3833 132.763 70.7856 132.687C70.3178 133.536 69.8055 134.234 69.0157 134.703C68.1921 135.193 67.2831 135.198 66.3723 135.175C66.2016 135.57 66.0344 135.906 65.9116 136.257C65.2357 138.196 64.38 140.061 63.4889 141.907C62.9107 143.105 62.281 144.281 61.63 145.441C61.0412 146.489 60.4097 147.514 59.7675 148.531C59.2054 149.421 58.6042 150.284 58.0207 151.16C57.85 151.414 57.6845 151.674 57.7717 152C57.8927 152.45 58.0279 152.903 58.1719 153.404ZM90.4701 29.3333C91.3667 27.5446 92.804 26.7218 94.6788 26.6706C95.7888 23.676 97.0216 20.812 98.4927 18.0522C99.9655 15.2907 101.559 12.605 103.418 10.0977C103.34 9.55743 103.267 9.04185 103.187 8.48035C102.636 8.31614 102.093 8.13251 101.538 7.99125C99.841 7.55866 98.1511 7.08721 96.4381 6.73231C94.6468 6.36151 92.8378 6.0737 91.0269 5.81061C89.8796 5.64463 88.7162 5.59166 87.5582 5.48748C87.4817 5.48042 87.3981 5.50338 87.3287 5.47866C86.5834 5.20497 85.8167 5.39567 85.075 5.32857C84.4346 7.13665 82.6522 8.36558 80.8769 8.24022C79.2244 8.12368 77.7622 7.20198 77.0453 5.23146C70.8532 5.53869 64.7803 6.53278 58.791 8.32144C59.0204 9.52741 58.5241 10.5515 58.0172 11.5386C61.4201 16.2706 64.0581 21.3329 66.1607 26.713C68.5514 26.2557 70.2573 27.2003 71.3157 29.2733C72.0806 29.1744 72.7886 29.1391 73.4663 28.9749C73.9217 28.8636 74.3824 28.9254 74.8182 28.823C75.7361 28.6076 76.6824 28.5794 77.6003 28.5723C80.0462 28.5546 82.4992 28.3763 84.9451 28.6835C85.7224 28.7806 86.5122 28.7736 87.2931 28.8566C87.7894 28.9095 88.2733 29.0561 88.7678 29.132C89.3157 29.2168 89.8671 29.2644 90.4701 29.3333ZM126.515 20.2293C121.53 16.5478 116.288 13.5567 110.646 11.1554C109.831 12.2378 108.675 12.711 107.12 12.7445C106.117 12.6757 105.078 12.1866 104.231 11.2755C100.8 16.2494 97.9875 21.4565 95.9934 27.1279C97.8291 28.0638 98.651 29.5275 98.4678 31.5334C98.6919 31.6181 98.8787 31.6852 99.0619 31.7611C100.36 32.2962 101.679 32.7853 102.949 33.3785C105 34.3373 107.001 35.3897 108.915 36.6133C110.484 37.618 112.012 38.6668 113.465 39.8269C113.951 40.2153 114.459 40.5738 114.959 40.9481C115.575 40.3531 116.333 40.203 117.057 40.0264C117.811 39.841 118.517 40.2383 119.221 40.3954C121.722 37.9588 127.779 28.1097 128.411 25.4435C126.424 24.2145 125.96 22.3941 126.515 20.2293ZM34.8337 141.542C39.8002 145.229 45.094 148.315 50.8058 150.697C50.8858 150.621 50.9623 150.554 51.0335 150.482C52.2538 149.232 53.7053 148.942 55.3169 149.546C55.8701 149.753 56.3611 150.125 56.8965 150.432C60.2959 145.57 63.0441 140.385 65.0258 134.783C63.4248 133.762 62.5941 132.396 62.8663 130.517C62.6475 130.423 62.4892 130.351 62.3273 130.284C61.0056 129.742 59.6644 129.244 58.3658 128.652C55.5926 127.388 52.9546 125.875 50.4589 124.13C49.2636 123.295 48.1376 122.363 46.9742 121.482C46.7607 121.321 46.517 121.199 46.3 121.067C44.9268 122.121 43.4877 122.066 41.9454 121.582C41.8423 121.704 41.7195 121.835 41.6128 121.978C40.743 123.142 39.8535 124.295 39.0104 125.478C37.6585 127.376 36.4222 129.348 35.314 131.394C34.5028 132.895 33.7664 134.435 33.0051 135.964C32.909 136.155 32.877 136.377 32.8201 136.568C34.4174 137.502 35.4154 139.155 34.8337 141.542ZM64.9706 27.4228C62.9428 22.041 60.2514 17.0458 56.9694 12.4037C56.5799 12.5838 56.2295 12.7834 55.8541 12.9105C55.525 13.0217 55.1711 13.0871 54.8242 13.103C54.5574 13.1153 54.2852 13.0006 54.013 12.9723C53.1183 12.8805 52.3979 12.4673 51.7842 11.8352C51.5387 11.5827 51.2825 11.3408 51.0157 11.0795C45.2647 13.4632 39.9727 16.5337 35.0134 20.1728C36.0024 22.1963 35.5844 24.8308 33.0228 26.0473C33.4409 28.1008 39.5654 37.6392 42.1109 40.2153C42.6605 40.0864 43.1835 39.9028 43.7207 39.8481C44.6101 39.758 45.4053 40.1006 46.1239 40.5844C46.3676 40.7486 46.5722 40.7857 46.7518 40.7203C51.7468 36.5939 57.2363 33.4898 63.295 31.4009C62.9588 30.1561 63.7219 28.2209 64.9706 27.4228ZM152.247 66.9551C151.786 66.9075 151.311 66.8174 150.835 66.8139C148.529 66.798 146.224 66.7874 143.92 66.8121C143.003 66.8227 142.086 66.9145 141.172 66.9958C140.489 67.0576 139.81 67.1564 139.13 67.25C138.175 67.3824 137.221 67.5255 136.268 67.6667C135.925 67.7179 135.583 67.7797 135.261 67.8345C134.898 69.413 134.037 70.5042 132.628 71.1399C133.808 77.5158 133.843 83.8741 132.744 90.2536C134.197 90.8292 135.076 91.8692 135.412 93.3771C141.072 94.2105 146.717 94.2158 152.329 93.6791C152.391 93.5555 152.43 93.5131 152.434 93.4672C152.576 91.7968 154.127 89.9605 156.175 89.8634C156.314 89.8563 156.449 89.7574 156.625 89.685C156.678 88.9911 156.728 88.3148 156.785 87.6386C156.828 87.1371 156.877 86.6374 156.924 86.136C156.97 85.6345 157.055 85.1348 157.059 84.6334C157.073 82.1667 157.066 79.7018 157.064 77.2351C157.064 77.0832 157.07 76.9296 157.055 76.7778C156.963 75.8013 156.863 74.8266 156.771 73.8502C156.698 73.098 156.632 72.3458 156.557 71.5936C156.554 71.5513 156.499 71.5142 156.468 71.4753C153.745 71.0939 152.496 69.5631 152.247 66.9551ZM126.193 141.793C125.204 139.563 125.691 137.38 128.333 135.853C125.904 130.769 122.877 126.069 119.252 121.768C118.446 121.964 117.725 122.273 116.904 122.128C116.087 121.983 115.386 121.588 114.687 121.205C109.674 125.366 104.142 128.499 97.9786 130.637C98.2828 132.028 97.6993 133.132 96.9042 134.14C99.0156 139.538 101.744 144.54 105.129 149.154C105.322 149.115 105.448 149.096 105.571 149.064C107.221 148.635 108.572 149.154 109.705 150.355C109.877 150.538 110.039 150.732 110.185 150.9C116.793 148.177 123.023 144.323 126.193 141.793ZM8.94639 93.9545C9.52985 94.0216 10.0564 94.1293 10.5829 94.1328C13.0928 94.1505 15.6028 94.1417 18.1109 94.1399C18.2639 94.1399 18.4276 94.1682 18.5699 94.1276C19.4308 93.8804 20.3309 94.0198 21.2043 93.8556C21.8482 93.7338 22.5171 93.762 23.1681 93.6702C24.1874 93.5254 25.1996 93.333 26.3238 93.1441C26.845 92.1906 27.5583 91.2936 28.6789 90.861C28.5402 89.9623 28.3908 89.0776 28.268 88.1913C28.1933 87.6457 28.1755 87.0912 28.0973 86.5456C27.9425 85.4509 27.7806 84.3561 27.8073 83.249C27.8571 81.1991 27.6579 79.1473 27.9425 77.0991C28.0564 76.2781 28.0403 75.4411 28.124 74.6148C28.1738 74.1204 28.3125 73.6366 28.3908 73.1457C28.4637 72.6848 28.51 72.2205 28.5651 71.7808C27.1029 71.1151 26.1921 70.0734 25.8577 68.5407C25.2956 68.4719 24.7726 68.403 24.2497 68.3447C23.6964 68.2847 23.1326 68.2847 22.5918 68.1682C21.6188 67.9598 20.6244 67.9333 19.6514 67.9192C16.6914 67.8768 13.7261 67.7426 10.7697 68.0375C10.1489 68.0993 9.52629 68.1558 8.91971 68.2123C8.8201 69.3282 8.37005 70.227 7.66919 70.9686C6.94165 71.7367 6.00421 72.1657 4.85686 72.1957C4.81061 72.6531 4.76614 73.0733 4.72701 73.4918C4.71278 73.6436 4.76259 73.8149 4.70744 73.9456C4.50999 74.4099 4.60783 74.8937 4.56869 75.3687C4.52956 75.8419 4.43706 76.3151 4.42994 76.7883C4.4086 78.517 4.41393 80.2456 4.41216 81.9742C4.41216 82.8641 4.3997 83.754 4.42639 84.644C4.45485 85.5498 4.52422 86.4538 4.57581 87.3596C4.57937 87.4355 4.56691 87.5168 4.58648 87.5874C4.80706 88.3925 4.73057 89.233 4.88177 90.0452C4.91379 90.2112 4.93691 90.379 4.96181 90.5273C6.79045 90.9051 8.01429 91.4066 8.94639 93.9545ZM119.629 114.543C123.688 110.059 128.605 101.566 129.37 97.719C127.614 96.6172 126.899 95.0457 127.351 92.9481C124.232 92.0299 121.219 90.8628 118.328 89.3972C115.408 87.9158 112.672 86.1466 110.114 84.1001C109.294 84.8258 108.337 85.1207 107.285 85.1507C106.175 92.0175 102.993 97.7049 97.7616 102.213C98.1742 103.141 98.2899 104.03 98.0533 105.011C104.233 107.266 109.683 110.686 114.561 115.014C116.171 113.739 117.837 113.573 119.629 114.543ZM41.7071 47.5148C37.3312 52.5223 34.0919 58.0966 31.9217 64.3048C32.8414 64.7374 33.4089 65.4313 33.786 66.2877C34.1631 67.1441 34.1595 68.0358 33.9941 68.9786C37.0857 69.9551 40.0901 71.124 42.9772 72.6089C45.8695 74.0956 48.5449 75.8949 51.1242 77.8707C51.9549 77.2068 52.855 76.859 53.8618 76.8819C55.0003 69.9657 58.1897 64.236 63.4853 59.691C62.9819 58.7799 63.053 57.8582 63.174 56.9719C63.0655 56.88 63.0157 56.8182 62.9499 56.7847C62.8147 56.7158 62.6759 56.6523 62.5336 56.6011C59.9223 55.6705 57.4604 54.4257 55.0892 53.0184C52.3196 51.3746 49.6976 49.5118 47.3033 47.3488C47.1432 47.204 46.944 47.0998 46.7465 46.9674C45.2096 48.3181 43.5464 48.3905 41.7071 47.5148ZM46.5633 114.765C51.4462 110.314 56.9499 106.941 63.1527 104.688C63.1527 104.245 63.1189 103.862 63.1616 103.488C63.2078 103.094 63.327 102.709 63.4213 102.285C58.1435 97.7578 54.9772 92.014 53.8458 85.1578C52.533 84.9777 51.681 84.6528 50.7382 83.7382C48.239 85.7422 45.5476 87.4797 42.7068 88.9858C39.8642 90.492 36.8882 91.6891 33.8109 92.6532C34.284 93.6738 34.4868 94.7014 34.1577 95.7944C33.8322 96.8803 33.1705 97.7084 32.1654 98.3599C33.1527 101.176 34.4352 103.839 35.8974 106.426C37.3774 109.041 40.622 113.534 41.6253 114.269C43.477 113.278 45.0388 113.589 46.5633 114.765ZM110.137 77.8884C112.643 75.8031 115.306 73.9862 118.151 72.4306C121.011 70.8679 123.999 69.5966 127.178 68.516C126.856 67.5608 126.927 66.6709 127.281 65.8039C127.649 64.9034 128.268 64.2148 129.081 63.7221C128.936 61.0047 122.398 49.8684 119.659 47.6896C118.89 48.108 118.04 48.304 117.124 48.2334C116.192 48.161 115.415 47.7672 114.673 47.1598C112.25 49.3634 109.646 51.3216 106.855 53.0237C104.076 54.7171 101.134 56.0908 98.1155 57.182C98.1155 57.7029 98.1618 58.1372 98.1031 58.5557C98.0444 58.9706 97.879 59.3697 97.758 59.7882C103.043 64.3348 106.191 70.0663 107.303 76.889C108.326 76.9367 108.844 77.0726 110.137 77.8884ZM68.8253 107.941C69.9994 114.433 69.85 120.887 68.5336 127.339C70.316 128.082 71.0346 129.521 71.1432 131.338C72.6214 131.553 74.0391 131.783 75.4639 131.961C76.2431 132.06 77.0329 132.097 77.8191 132.122C78.7139 132.152 79.6122 132.141 80.5069 132.141C82.2413 132.141 83.9774 132.152 85.7064 131.974C85.7829 131.967 85.8594 131.97 85.9359 131.96C86.6368 131.864 87.3394 131.788 88.0349 131.665C88.597 131.566 89.1912 131.589 89.7159 131.313C89.9329 129.097 91.0821 127.667 93.3269 127.106C92.6243 123.929 92.1333 120.784 92.0533 117.59C91.9732 114.357 92.064 111.131 92.6599 108.038C91.9679 107.512 91.3453 107.04 90.6889 106.54C84.0076 109.173 77.2463 109.164 70.5757 106.59C69.9513 107.074 69.4124 107.489 68.8253 107.941ZM90.198 30.6964C89.6216 30.624 89.0969 30.5658 88.5757 30.4916C87.5778 30.3504 86.5834 30.1597 85.5819 30.0661C84.4684 29.9637 83.3477 29.9195 82.2288 29.9019C80.1102 29.8683 77.9916 29.8577 75.8784 30.0537C75.2985 30.1084 74.7186 30.1579 74.1405 30.2338C73.541 30.3115 72.9433 30.4086 72.3474 30.5128C72.0842 30.5587 71.828 30.6382 71.5968 30.6947C71.4135 31.6411 71.2161 32.4745 70.686 33.2284C70.1328 34.0159 69.2736 34.3373 68.5247 34.8158C69.8962 41.2589 69.9851 47.6807 68.7987 54.1185C69.1277 54.318 69.4355 54.4557 69.6756 54.6676C69.9407 54.9025 70.1417 55.2079 70.3427 55.4463C70.6486 55.3898 70.8247 55.3757 70.9884 55.3227C71.9205 55.0208 72.8384 54.6623 73.7847 54.4081C75.7414 53.8819 77.7302 53.5323 79.7705 53.5605C80.4109 53.5693 81.0512 53.5835 81.6916 53.557C82.8941 53.5093 84.0788 53.6912 85.2439 53.9084C86.9481 54.2262 88.6397 54.6376 90.2407 55.3421C90.3919 55.4092 90.5822 55.3898 90.6694 55.4004C91.2119 54.9695 91.6869 54.5935 92.2258 54.1662C92.176 53.8625 92.1067 53.497 92.0586 53.1297C91.9448 52.2592 91.8309 51.3869 91.7367 50.5147C91.6282 49.5153 91.525 48.5159 91.4503 47.5148C91.4111 47.0098 91.4343 46.4977 91.4343 45.9909C91.436 44.0398 91.3933 42.0887 91.6015 40.1429C91.6121 40.0423 91.6032 39.9381 91.6193 39.8392C91.7633 38.8734 91.9039 37.9076 92.0569 36.9435C92.1796 36.1825 92.3201 35.4232 92.4571 34.6322C91.8576 34.159 91.203 33.7158 90.7921 33.0219C90.3776 32.3279 90.1731 31.5881 90.198 30.6964ZM114.015 41.9881C109.256 37.987 103.95 34.92 98.0142 32.8047C97.5694 33.5551 96.986 34.2031 96.2033 34.5863C95.4455 34.9588 94.6219 35.1848 93.7201 35.0065C93.5546 36.1613 93.4372 37.309 93.2078 38.4337C93.1188 38.8646 93.1473 39.2848 93.0815 39.705C92.8965 40.8739 92.7666 42.0481 92.7897 43.2329C92.8289 45.154 92.6599 47.0786 92.9267 48.9979C93.0797 50.0909 93.1277 51.1962 93.2647 52.2927C93.3305 52.8278 93.4888 53.3504 93.608 53.8872C95.4028 53.7547 96.6053 54.6711 97.6762 55.9301C103.717 53.7512 109.061 50.5076 113.789 46.1552C113.307 44.7373 113.156 43.3477 114.015 41.9881ZM63.624 105.97C60.5805 107.028 57.729 108.414 55.0145 110.067C52.2982 111.721 49.7687 113.635 47.4189 115.837C48.1482 117.242 48.0753 118.636 47.3264 119.995C50.7862 123.087 56.6599 126.874 63.2345 129.2C64.1257 127.695 65.4723 126.95 67.276 126.917C67.4432 125.792 67.6104 124.683 67.7687 123.572C67.8328 123.126 67.8523 122.672 67.9377 122.23C68.1138 121.316 68.1725 120.389 68.2116 119.464C68.2561 118.448 68.2508 117.43 68.2259 116.414C68.1974 115.279 68.2437 114.147 68.1103 113.006C67.9822 111.912 67.8914 110.808 67.7545 109.713C67.6904 109.201 67.5553 108.696 67.4521 108.183C65.8031 108.082 64.5579 107.384 63.624 105.97ZM110.962 83.1308C114.244 85.7758 117.825 87.8999 121.689 89.5561C123.72 90.4266 125.791 91.1841 127.939 91.758C128.811 90.5467 129.985 90.0294 131.442 89.9887C132.506 83.7735 132.467 77.5988 131.326 71.3977C129.805 71.4418 128.66 70.8167 127.76 69.6973C121.555 71.7172 115.929 74.7101 110.959 78.8913C111.747 80.3321 111.736 81.7129 110.962 83.1308ZM63.6454 32.727C61.6673 33.3715 59.7569 34.1855 57.8838 35.0913C56.0213 35.9918 54.2354 37.0318 52.4975 38.1477C50.74 39.2777 49.0857 40.5473 47.4847 41.8786C48.1714 43.2029 48.2354 44.5237 47.5932 45.8197C51.6187 49.4358 56.0391 52.3245 60.922 54.5052C61.8541 54.9219 62.7933 55.3509 63.7699 55.584C65.3815 53.9755 65.8583 54.009 67.4343 53.8077C68.6403 47.52 68.5123 41.2447 67.1621 35.0118C64.6113 34.2596 64.4743 33.7935 63.6454 32.727ZM93.9815 108.175C92.9445 114.592 93.2238 120.904 94.7126 127.072C95.3423 127.418 95.9116 127.656 96.3901 128.015C96.8686 128.373 97.2564 128.852 97.7046 129.299C103.617 127.254 109.002 124.187 113.828 120.149C113.515 119.446 113.278 118.787 113.257 118.06C113.237 117.338 113.515 116.688 113.718 116.042C109.089 111.853 100.912 106.929 97.4947 106.277C96.6889 107.436 95.5362 108.048 93.9815 108.175ZM32.8503 91.5673C39.1207 89.6462 44.8859 86.7699 49.9555 82.6381C49.6051 80.378 49.7563 80.1732 50.2615 78.9301C45.2487 74.8372 39.5547 72.028 33.327 70.1793C32.9873 70.8485 32.4679 71.2476 31.8684 71.5424C31.2778 71.8355 30.6499 72.0227 29.9188 72.0174C29.4919 74.2192 29.2411 76.4123 29.1699 78.6176C29.0418 82.6293 29.1824 86.6286 30.038 90.6103C31.1213 90.5661 32.0071 90.9705 32.8503 91.5673ZM89.86 104.086C83.6821 102.988 77.579 102.947 71.4669 103.901C71.426 104.192 71.3975 104.415 71.3619 104.637C71.3246 104.877 71.2784 105.117 71.2303 105.387C77.5505 107.771 83.7817 107.748 90.0877 105.329C90.013 104.909 89.9418 104.522 89.86 104.086ZM90.0361 56.7282C88.485 56.0555 86.868 55.5858 85.203 55.2874C81.9638 54.7082 78.721 54.7312 75.4924 55.3792C74.0338 55.6723 72.616 56.1031 71.2552 56.6699C71.2748 57.1096 71.241 57.498 71.5558 57.8053C77.6483 58.8665 83.7462 58.9459 89.8404 57.966C89.9098 57.5298 89.9667 57.1643 90.0361 56.7282ZM95.7657 61.7657C97.9946 68.1258 102.812 75.3158 105.27 77.5264C105.375 77.4699 105.485 77.4134 105.596 77.3516C105.727 77.2792 105.859 77.205 105.992 77.1309C104.944 70.6101 101.954 65.1983 96.9842 60.8811C96.5484 61.1972 96.1784 61.4656 95.7657 61.7657ZM65.3068 100.295C62.8645 93.5749 58.7999 87.5715 55.9858 84.5327C55.7474 84.6616 55.5072 84.7905 55.2867 84.9106C55.8523 90.9087 59.9935 98.005 64.332 101.091C64.6469 100.834 64.9617 100.578 65.3068 100.295ZM105.274 84.5204C101.25 89.2966 98.1618 94.5672 96.0147 100.405C96.3741 100.662 96.6978 100.894 97.0216 101.125C101.988 96.7584 104.966 91.3713 105.999 84.8947C105.752 84.7676 105.533 84.6545 105.274 84.5204ZM64.2715 60.8705C64.0154 61.0753 63.7841 61.236 63.5796 61.425C61.6602 63.1995 60.0112 65.1947 58.6647 67.4337C57.0068 70.1917 55.9377 73.1669 55.3276 76.3098C55.2724 76.5941 55.1995 76.9031 55.3898 77.2368C55.5375 77.1715 55.7029 77.1468 55.7883 77.0514C59.8334 72.4465 62.9766 67.303 65.2001 61.6121C64.8692 61.3473 64.5917 61.1266 64.2715 60.8705Z" fill="#2B79E6"/>
</svg>
