<svg width="175" height="175" viewBox="0 0 175 175" fill="none" xmlns="http://www.w3.org/2000/svg">
<path d="M97.5969 87.5005C97.5969 111.802 77.762 131.507 53.2872 131.507C28.8125 131.507 8.97754 111.802 8.97754 87.5005C8.97754 63.1994 28.8125 43.4937 53.2872 43.4937C77.762 43.4937 97.5969 63.1994 97.5969 87.5005Z" stroke="#2B79E6"/>
<circle cx="63.1943" cy="63.1944" r="43.6852" transform="rotate(45 63.1943 63.1944)" stroke="#2B79E6" stroke-width="2"/>
<path d="M87.4999 97.5969C63.1988 97.5969 43.493 77.762 43.493 53.2872C43.493 28.8124 63.1988 8.97754 87.4999 8.97754C111.801 8.97754 131.507 28.8125 131.507 53.2872C131.507 77.762 111.801 97.5969 87.4999 97.5969Z" stroke="#2B79E6"/>
<circle cx="111.806" cy="63.1948" r="43.6852" transform="rotate(135 111.806 63.1948)" stroke="#2B79E6" stroke-width="2"/>
<path d="M166.023 87.5005C166.023 111.802 146.188 131.507 121.713 131.507C97.2382 131.507 77.4033 111.802 77.4033 87.5005C77.4033 63.1994 97.2382 43.4937 121.713 43.4937C146.188 43.4937 166.023 63.1994 166.023 87.5005Z" stroke="#2B79E6"/>
<circle cx="111.806" cy="111.806" r="43.6852" transform="rotate(45 111.806 111.806)" stroke="#2B79E6" stroke-width="2"/>
<path d="M87.4999 166.022C63.1988 166.022 43.493 146.187 43.493 121.712C43.493 97.2377 63.1988 77.4028 87.4999 77.4028C111.801 77.4028 131.507 97.2377 131.507 121.712C131.507 146.187 111.801 166.022 87.4999 166.022Z" stroke="#2B79E6"/>
<circle cx="63.1943" cy="111.805" r="43.6852" transform="rotate(135 63.1943 111.805)" stroke="#2B79E6" stroke-width="2"/>
</svg>
