<svg width="191" height="191" viewBox="10 10 170 170" fill="none" xmlns="http://www.w3.org/2000/svg">
<path d="M31.605 68.9014L31.6368 68.8368L31.6591 68.7683L44.4543 29.4312L85.7319 26.7332L85.8038 26.7285L85.8743 26.7135L126.339 18.1259L149.314 52.5243L149.354 52.5842L149.402 52.6378L177.072 83.3873L158.769 120.484L158.738 120.548L158.715 120.617L145.92 159.954L104.642 162.652L104.571 162.657L104.5 162.672L64.0356 171.259L41.0603 136.861L41.0202 136.801L40.972 136.747L13.3027 105.998L31.605 68.9014Z" stroke="#9DB1CD" stroke-width="2"/>
<path d="M31.6048 68.9014L31.6367 68.8368L31.659 68.7683L44.4541 29.4312L85.7318 26.7332L85.8037 26.7285L85.8741 26.7135L126.339 18.1259L149.314 52.5243L149.354 52.5842L149.402 52.6378L177.072 83.3873L158.769 120.484L158.737 120.548L158.715 120.617L145.92 159.954L104.642 162.652L104.57 162.657L104.5 162.672L64.0355 171.259L41.0601 136.861L41.0201 136.801L40.9719 136.747L13.3026 105.998L31.6048 68.9014Z" stroke="#9DB1CD" stroke-width="2"/>
<path d="M49.0035 94.7646L49.0087 94.6927L49.0035 94.6209L47.0043 66.8745L72.033 54.7326L72.0978 54.7011L72.1575 54.6607L95.187 39.0562L118.217 54.6607L118.276 54.7011L118.341 54.7326L143.37 66.8744L141.371 94.6209L141.365 94.6927L141.371 94.7646L143.37 122.511L118.341 134.653L118.276 134.684L118.217 134.725L95.187 150.329L72.1575 134.725L72.0979 134.684L72.033 134.653L47.0044 122.511L49.0035 94.7646Z" stroke="#9DB1CD" stroke-width="2"/>
<path d="M83.377 82.7875L83.4319 82.7408L83.4795 82.6867L90.1217 75.1405L99.5924 78.5122L99.6603 78.5364L99.7309 78.5506L109.587 80.5298L111.403 90.4176L111.416 90.4884L111.439 90.5567L114.653 100.082L106.997 106.598L106.942 106.645L106.895 106.699L100.253 114.245L90.7819 110.873L90.714 110.849L90.6434 110.835L80.7871 108.856L78.9718 98.968L78.9588 98.8971L78.9357 98.8289L75.7217 89.3035L83.377 82.7875Z" stroke="#9DB1CD" stroke-width="2"/>
<path d="M123.211 28.3328L123.211 28.3329L123.222 28.3374L161.998 43.6885L167.23 85.2595L167.232 85.2713L173.459 126.705L140.294 151.989L140.294 151.988L140.285 151.996L107.738 178.076L69.3427 161.791L69.3428 161.79L69.3315 161.786L30.5561 146.435L25.3233 104.864L25.3234 104.864L25.3216 104.852L19.0945 63.4183L52.2597 38.1347L52.2598 38.1348L52.2692 38.1273L84.8157 12.0478L123.211 28.3328Z" stroke="#9DB1CD"/>
<path d="M114.072 50.9656L114.072 50.9658L114.084 50.9702L139.704 61.1135L143.162 88.5821L143.162 88.5821L143.164 88.5939L147.278 115.972L125.364 132.678L125.364 132.678L125.355 132.685L103.851 149.917L78.4816 139.157L78.4816 139.157L78.4704 139.152L52.8495 129.009L49.3918 101.54L49.392 101.54L49.3902 101.529L45.2756 74.1508L67.1895 57.4446L67.1896 57.4447L67.199 57.4372L88.7034 40.2057L114.072 50.9656Z" stroke="#9DB1CD"/>
</svg>
