<svg width="175" height="174" viewBox="0 0 175 174" fill="none" xmlns="http://www.w3.org/2000/svg">
<path d="M174.636 86.9999C174.636 69.1781 160.364 54.8814 142.573 54.6856C136.903 45.2851 126.737 39.0181 115.006 39.0181C103.471 39.0181 93.3052 45.0892 87.6355 54.2939C81.9658 45.0892 71.7995 39.0181 60.2647 39.0181C48.5344 39.0181 38.3681 45.2851 32.6984 54.6856C15.1029 54.8814 0.635498 69.1781 0.635498 86.9999C0.635498 104.822 14.9074 119.118 32.6984 119.314C38.3681 128.715 48.5344 134.982 60.2647 134.982C71.7995 134.982 81.9658 128.911 87.6355 119.706C93.3052 128.911 103.471 134.982 115.006 134.982C126.737 134.982 136.903 128.715 142.573 119.314C160.364 119.314 174.636 104.822 174.636 86.9999ZM141.595 117.356C131.233 117.16 122.24 111.676 117.157 103.647C127.714 103.059 136.707 97.3796 142.182 89.1542C144.332 93.2669 145.505 97.9672 145.505 102.863C145.31 107.955 143.941 113.047 141.595 117.356ZM29.9613 102.667C29.9613 97.7713 31.1344 93.0711 33.2849 88.9583C38.7591 97.3796 47.7523 103.059 58.3097 103.647C53.031 111.676 44.0377 117.16 33.8715 117.356C31.3299 113.047 29.9613 107.955 29.9613 102.667ZM33.6759 56.8399C44.0377 57.0357 53.031 62.5194 58.1142 70.549C47.5569 71.1365 38.5636 76.816 33.0894 85.0414C30.9389 80.9287 29.7658 76.2285 29.7658 71.3324C29.9613 66.0446 31.3299 61.1485 33.6759 56.8399ZM65.1524 86.9999C65.1524 81.7121 63.7838 76.816 61.6333 72.3116C71.9951 72.7033 81.1838 78.5786 86.267 86.9999C81.1838 95.4212 72.1906 101.101 61.6333 101.688C63.7838 97.3796 65.1524 92.2877 65.1524 86.9999ZM87.6355 84.2581C85.6804 80.3412 84.7029 76.0326 84.7029 71.3324C84.7029 66.6321 85.6804 62.3235 87.6355 58.4066C89.5906 62.3235 90.5681 66.6321 90.5681 71.3324C90.5681 76.0326 89.5906 80.3412 87.6355 84.2581ZM87.6355 89.7417C89.5906 93.6586 90.5681 97.9672 90.5681 102.667C90.5681 107.368 89.5906 111.676 87.6355 115.593C85.6804 111.676 84.7029 107.368 84.7029 102.667C84.7029 97.9672 85.6804 93.6586 87.6355 89.7417ZM110.119 86.9999C110.119 92.2877 111.487 97.1838 113.638 101.688C103.276 101.297 94.0872 95.4212 89.004 86.9999C94.0872 78.5786 103.08 72.8991 113.638 72.3116C111.487 76.816 110.119 81.7121 110.119 86.9999ZM90.9591 81.3204C91.9366 78.1869 92.5231 74.8575 92.5231 71.5282C92.5231 66.2404 91.1546 61.3443 89.004 56.8399C98.9748 57.2316 107.773 62.7152 113.051 70.549C104.253 71.1365 96.4333 75.0534 90.9591 81.3204ZM82.7479 71.3324C82.7479 74.8575 83.3344 77.9911 84.3119 81.1246C78.8377 75.0534 71.0175 70.9407 62.2198 70.3531C67.3029 62.3235 76.1007 57.0357 86.267 56.644C84.1164 61.1485 82.7479 66.0446 82.7479 71.3324ZM58.8962 72.5074C56.7456 76.816 55.3771 81.9079 55.3771 87.1957C55.3771 92.4835 56.7456 97.3796 58.8962 101.884C48.5344 101.492 39.3456 95.617 34.2625 87.1957C39.5411 78.5786 48.5344 72.8991 58.8962 72.5074ZM84.3119 92.8752C83.3344 96.0087 82.7479 99.3381 82.7479 102.667C82.7479 107.955 84.1164 112.851 86.267 117.356C76.2962 116.964 67.4984 111.48 62.2198 103.647C71.0175 103.059 78.8377 98.9464 84.3119 92.8752ZM92.5231 102.667C92.5231 99.1422 91.9366 96.0087 90.9591 92.8752C96.4333 98.9464 104.253 103.059 113.051 103.647C107.968 111.676 99.1703 116.964 89.004 117.356C91.1546 113.047 92.5231 107.955 92.5231 102.667ZM116.375 101.688C118.525 97.3796 119.894 92.2877 119.894 86.9999C119.894 81.7121 118.525 76.816 116.375 72.3116C126.737 72.7033 135.925 78.5786 141.009 86.9999C135.73 95.4212 126.737 101.297 116.375 101.688ZM116.961 70.549C122.24 62.5194 131.233 57.0357 141.4 56.8399C143.746 61.1485 145.114 66.2404 145.114 71.5282C145.114 76.4243 143.941 81.1246 141.791 85.2373C136.512 76.816 127.519 71.1365 116.961 70.549ZM115.006 40.9765C125.564 40.9765 134.948 46.4601 140.422 54.8814C129.669 55.469 120.48 61.5401 115.006 70.1573C109.728 61.5401 100.343 55.6648 89.5906 54.8814C95.0647 46.4601 104.449 40.9765 115.006 40.9765ZM60.2647 40.9765C70.822 40.9765 80.2063 46.4601 85.6805 54.8814C74.9276 55.469 65.7389 61.5401 60.2647 70.1573C54.9861 61.5401 45.6018 55.6648 34.849 54.8814C40.3231 46.4601 49.7074 40.9765 60.2647 40.9765ZM2.59055 86.9999C2.59055 70.7448 15.4939 57.4274 31.5254 56.644C29.3748 60.9526 28.0063 66.0446 28.0063 71.3324C28.0063 77.0118 29.5703 82.2996 32.1119 86.9999C29.5703 91.7001 28.0063 96.9879 28.0063 102.667C28.0063 107.955 29.3748 112.851 31.5254 117.356C15.4939 116.572 2.59055 103.255 2.59055 86.9999ZM60.2647 133.023C49.7074 133.023 40.3231 127.54 34.849 119.118C45.6018 118.531 54.7906 112.46 60.2647 103.842C65.5434 112.46 74.9276 118.335 85.6805 119.118C80.2063 127.54 70.822 133.023 60.2647 133.023ZM115.006 133.023C104.449 133.023 95.0647 127.54 89.5906 119.118C100.343 118.531 109.532 112.46 115.006 103.842C120.285 112.46 129.669 118.335 140.422 119.118C134.948 127.54 125.564 133.023 115.006 133.023ZM143.746 117.356C145.896 113.047 147.265 107.955 147.265 102.667C147.265 96.9879 145.701 91.7001 143.159 86.9999C145.701 82.2996 147.265 77.0118 147.265 71.3324C147.265 66.0446 145.896 61.1485 143.746 56.644C159.777 57.4274 172.68 70.7448 172.68 86.9999C172.68 103.255 159.777 116.572 143.746 117.356Z" fill="#9DB1CD"/>
<path d="M87.6355 174C105.457 174 119.754 159.728 119.95 141.937C129.35 136.267 135.617 126.101 135.617 114.371C135.617 102.836 129.546 92.6697 120.341 87C129.546 81.3303 135.617 71.164 135.617 59.6292C135.617 47.8989 129.35 37.7326 119.95 32.0629C119.754 14.4674 105.457 -1.31834e-06 87.6355 -2.09735e-06C69.8137 -2.87637e-06 55.5171 14.2719 55.3212 32.0629C45.9207 37.7326 39.6537 47.8989 39.6537 59.6292C39.6537 71.164 45.7248 81.3303 54.9295 87C45.7248 92.6697 39.6537 102.836 39.6537 114.371C39.6537 126.101 45.9207 136.267 55.3212 141.937C55.3212 159.728 69.8137 174 87.6355 174ZM57.2796 140.96C57.4755 130.598 62.9591 121.604 70.9887 116.521C71.5763 127.079 77.2557 136.072 85.4812 141.546C81.3685 143.697 76.6682 144.87 71.7721 144.87C66.6802 144.674 61.5882 143.306 57.2796 140.96ZM71.968 29.3258C76.8641 29.3258 81.5643 30.4989 85.6771 32.6494C77.2558 38.1236 71.5763 47.1168 70.9887 57.6742C62.9591 52.3955 57.4755 43.4022 57.2796 33.236C61.5882 30.6944 66.6802 29.3258 71.968 29.3258ZM117.795 33.0405C117.6 43.4022 112.116 52.3955 104.086 57.4787C103.499 46.9214 97.8194 37.9281 89.5939 32.4539C93.7067 30.3034 98.4069 29.1303 103.303 29.1303C108.591 29.3258 113.487 30.6944 117.795 33.0405ZM87.6355 64.5169C92.9233 64.5169 97.8194 63.1483 102.324 60.9978C101.932 71.3596 96.0568 80.5483 87.6355 85.6315C79.2142 80.5483 73.5347 71.5551 72.9472 60.9978C77.2557 63.1483 82.3477 64.5169 87.6355 64.5169ZM90.3773 87C94.2942 85.0449 98.6028 84.0674 103.303 84.0674C108.003 84.0674 112.312 85.0449 116.229 87C112.312 88.9551 108.003 89.9326 103.303 89.9326C98.6028 89.9326 94.2942 88.9551 90.3773 87ZM84.8937 87C80.9768 88.9551 76.6682 89.9326 71.968 89.9326C67.2677 89.9326 62.9591 88.9551 59.0422 87C62.9591 85.0449 67.2677 84.0674 71.968 84.0674C76.6682 84.0674 80.9768 85.0449 84.8937 87ZM87.6355 109.483C82.3477 109.483 77.4516 110.852 72.9472 113.002C73.3389 102.64 79.2142 93.4517 87.6355 88.3685C96.0568 93.4517 101.736 102.445 102.324 113.002C97.8194 110.852 92.9233 109.483 87.6355 109.483ZM93.315 90.3236C96.4485 91.3011 99.7778 91.8876 103.107 91.8876C108.395 91.8876 113.291 90.5191 117.795 88.3685C117.404 98.3393 111.92 107.137 104.086 112.416C103.499 103.618 99.582 95.7978 93.315 90.3236ZM103.303 82.1124C99.7778 82.1124 96.6443 82.6989 93.5108 83.6764C99.582 78.2022 103.695 70.382 104.282 61.5843C112.312 66.6674 117.6 75.4652 117.991 85.6315C113.487 83.4809 108.591 82.1124 103.303 82.1124ZM102.128 58.2607C97.8194 56.1101 92.7274 54.7416 87.4396 54.7416C82.1519 54.7416 77.2558 56.1101 72.7513 58.2607C73.143 47.8989 79.0184 38.7101 87.4397 33.627C96.0568 38.9056 101.736 47.8989 102.128 58.2607ZM81.7602 83.6764C78.6267 82.6989 75.2973 82.1124 71.968 82.1124C66.6802 82.1124 61.7841 83.4809 57.2796 85.6315C57.6713 75.6607 63.155 66.8629 70.9887 61.5843C71.5763 70.382 75.689 78.2022 81.7602 83.6764ZM71.968 91.8876C75.4932 91.8876 78.6267 91.3011 81.7602 90.3236C75.689 95.7977 71.5763 103.618 70.9887 112.416C62.9591 107.333 57.6713 98.5348 57.2796 88.3685C61.5882 90.5191 66.6802 91.8876 71.968 91.8876ZM72.9472 115.739C77.2557 117.89 82.3477 119.258 87.6355 119.258C92.9233 119.258 97.8194 117.89 102.324 115.739C101.932 126.101 96.0568 135.29 87.6355 140.373C79.2142 135.094 73.3389 126.101 72.9472 115.739ZM104.086 116.326C112.116 121.604 117.6 130.598 117.795 140.764C113.487 143.11 108.395 144.479 103.107 144.479C98.2111 144.479 93.5108 143.306 89.3981 141.155C97.8194 135.876 103.499 126.883 104.086 116.326ZM133.659 114.371C133.659 124.928 128.175 134.312 119.754 139.787C119.166 129.034 113.095 119.845 104.478 114.371C113.095 109.092 118.971 99.7079 119.754 88.9551C128.175 94.4292 133.659 103.813 133.659 114.371ZM133.659 59.6292C133.659 70.1865 128.175 79.5708 119.754 85.045C119.166 74.2921 113.095 65.1034 104.478 59.6292C113.095 54.3506 118.971 44.9663 119.754 34.2135C128.175 39.6876 133.659 49.0719 133.659 59.6292ZM87.6355 1.95505C103.891 1.95505 117.208 14.8584 117.991 30.8899C113.683 28.7393 108.591 27.3708 103.303 27.3708C97.6235 27.3708 92.3357 28.9348 87.6355 31.4764C82.9352 28.9348 77.6474 27.3708 71.968 27.3708C66.6802 27.3708 61.7841 28.7393 57.2796 30.8899C58.063 14.8584 71.3804 1.95505 87.6355 1.95505ZM41.6121 59.6292C41.6121 49.0719 47.0957 39.6876 55.517 34.2135C56.1046 44.9663 62.1757 54.1551 70.7929 59.6292C62.1757 64.9079 56.3004 74.2921 55.517 85.0449C47.0957 79.5708 41.6121 70.1865 41.6121 59.6292ZM41.6121 114.371C41.6121 103.813 47.0957 94.4292 55.517 88.9551C56.1046 99.7079 62.1757 108.897 70.7929 114.371C62.1757 119.649 56.3004 129.034 55.517 139.787C47.0957 134.312 41.6121 124.928 41.6121 114.371ZM57.2796 143.11C61.5882 145.261 66.6802 146.629 71.968 146.629C77.6474 146.629 82.9352 145.065 87.6355 142.524C92.3357 145.065 97.6235 146.629 103.303 146.629C108.591 146.629 113.487 145.261 117.991 143.11C117.208 159.142 103.891 172.045 87.6355 172.045C71.3804 172.045 58.063 159.142 57.2796 143.11Z" fill="#9DB1CD"/>
</svg>
