<svg width="174" height="174" viewBox="0 0 174 174" fill="none" xmlns="http://www.w3.org/2000/svg">
<path d="M174 86.9999C174 69.1781 159.728 54.8814 141.937 54.6856C136.267 45.2851 126.101 39.0181 114.371 39.0181C102.836 39.0181 92.6697 45.0892 87 54.2939C81.3303 45.0892 71.164 39.0181 59.6292 39.0181C47.8989 39.0181 37.7326 45.2851 32.0629 54.6856C14.4674 54.8814 0 69.1781 0 86.9999C0 104.822 14.2719 119.118 32.0629 119.314C37.7326 128.715 47.8989 134.982 59.6292 134.982C71.164 134.982 81.3303 128.911 87 119.706C92.6697 128.911 102.836 134.982 114.371 134.982C126.101 134.982 136.267 128.715 141.937 119.314C159.728 119.314 174 104.822 174 86.9999ZM140.96 117.356C130.598 117.16 121.604 111.676 116.521 103.647C127.079 103.059 136.072 97.3796 141.546 89.1542C143.697 93.2669 144.87 97.9672 144.87 102.863C144.674 107.955 143.306 113.047 140.96 117.356ZM29.3258 102.667C29.3258 97.7713 30.4989 93.0711 32.6494 88.9583C38.1236 97.3796 47.1169 103.059 57.6742 103.647C52.3955 111.676 43.4022 117.16 33.236 117.356C30.6944 113.047 29.3258 107.955 29.3258 102.667ZM33.0405 56.8399C43.4022 57.0357 52.3955 62.5194 57.4787 70.549C46.9214 71.1365 37.9281 76.816 32.4539 85.0414C30.3034 80.9287 29.1303 76.2285 29.1303 71.3324C29.3258 66.0446 30.6944 61.1485 33.0405 56.8399ZM64.5169 86.9999C64.5169 81.7121 63.1483 76.816 60.9978 72.3116C71.3596 72.7033 80.5483 78.5786 85.6315 86.9999C80.5483 95.4212 71.5551 101.101 60.9978 101.688C63.1483 97.3796 64.5169 92.2877 64.5169 86.9999ZM87 84.2581C85.0449 80.3412 84.0674 76.0326 84.0674 71.3324C84.0674 66.6321 85.0449 62.3235 87 58.4066C88.9551 62.3235 89.9326 66.6321 89.9326 71.3324C89.9326 76.0326 88.9551 80.3412 87 84.2581ZM87 89.7417C88.9551 93.6586 89.9326 97.9672 89.9326 102.667C89.9326 107.368 88.9551 111.676 87 115.593C85.0449 111.676 84.0674 107.368 84.0674 102.667C84.0674 97.9672 85.0449 93.6586 87 89.7417ZM109.483 86.9999C109.483 92.2877 110.852 97.1838 113.002 101.688C102.64 101.297 93.4517 95.4212 88.3685 86.9999C93.4517 78.5786 102.445 72.8991 113.002 72.3116C110.852 76.816 109.483 81.7121 109.483 86.9999ZM90.3236 81.3204C91.3011 78.1869 91.8876 74.8575 91.8876 71.5282C91.8876 66.2404 90.5191 61.3443 88.3685 56.8399C98.3393 57.2316 107.137 62.7152 112.416 70.549C103.618 71.1365 95.7978 75.0534 90.3236 81.3204ZM82.1124 71.3324C82.1124 74.8575 82.6989 77.9911 83.6764 81.1246C78.2022 75.0534 70.382 70.9407 61.5843 70.3531C66.6674 62.3235 75.4652 57.0357 85.6315 56.644C83.4809 61.1485 82.1124 66.0446 82.1124 71.3324ZM58.2607 72.5074C56.1101 76.816 54.7416 81.9079 54.7416 87.1957C54.7416 92.4835 56.1101 97.3796 58.2607 101.884C47.8989 101.492 38.7101 95.617 33.627 87.1957C38.9056 78.5786 47.8989 72.8991 58.2607 72.5074ZM83.6764 92.8752C82.6989 96.0087 82.1124 99.3381 82.1124 102.667C82.1124 107.955 83.4809 112.851 85.6315 117.356C75.6607 116.964 66.8629 111.48 61.5843 103.647C70.382 103.059 78.2022 98.9464 83.6764 92.8752ZM91.8876 102.667C91.8876 99.1422 91.3011 96.0087 90.3236 92.8752C95.7978 98.9464 103.618 103.059 112.416 103.647C107.333 111.676 98.5348 116.964 88.3685 117.356C90.5191 113.047 91.8876 107.955 91.8876 102.667ZM115.739 101.688C117.89 97.3796 119.258 92.2877 119.258 86.9999C119.258 81.7121 117.89 76.816 115.739 72.3116C126.101 72.7033 135.29 78.5786 140.373 86.9999C135.094 95.4212 126.101 101.297 115.739 101.688ZM116.326 70.549C121.604 62.5194 130.598 57.0357 140.764 56.8399C143.11 61.1485 144.479 66.2404 144.479 71.5282C144.479 76.4243 143.306 81.1246 141.155 85.2373C135.876 76.816 126.883 71.1365 116.326 70.549ZM114.371 40.9765C124.928 40.9765 134.312 46.4601 139.787 54.8814C129.034 55.469 119.845 61.5401 114.371 70.1573C109.092 61.5401 99.7079 55.6648 88.9551 54.8814C94.4292 46.4601 103.813 40.9765 114.371 40.9765ZM59.6292 40.9765C70.1865 40.9765 79.5708 46.4601 85.045 54.8814C74.2921 55.469 65.1034 61.5401 59.6292 70.1573C54.3506 61.5401 44.9663 55.6648 34.2135 54.8814C39.6876 46.4601 49.0719 40.9765 59.6292 40.9765ZM1.95506 86.9999C1.95506 70.7448 14.8584 57.4274 30.8899 56.644C28.7393 60.9526 27.3708 66.0446 27.3708 71.3324C27.3708 77.0118 28.9348 82.2996 31.4764 86.9999C28.9348 91.7001 27.3708 96.9879 27.3708 102.667C27.3708 107.955 28.7393 112.851 30.8899 117.356C14.8584 116.572 1.95506 103.255 1.95506 86.9999ZM59.6292 133.023C49.0719 133.023 39.6876 127.54 34.2135 119.118C44.9663 118.531 54.1551 112.46 59.6292 103.842C64.9079 112.46 74.2921 118.335 85.045 119.118C79.5708 127.54 70.1865 133.023 59.6292 133.023ZM114.371 133.023C103.813 133.023 94.4292 127.54 88.9551 119.118C99.7079 118.531 108.897 112.46 114.371 103.842C119.649 112.46 129.034 118.335 139.787 119.118C134.312 127.54 124.928 133.023 114.371 133.023ZM143.11 117.356C145.261 113.047 146.629 107.955 146.629 102.667C146.629 96.9879 145.065 91.7001 142.524 86.9999C145.065 82.2996 146.629 77.0118 146.629 71.3324C146.629 66.0446 145.261 61.1485 143.11 56.644C159.142 57.4274 172.045 70.7448 172.045 86.9999C172.045 103.255 159.142 116.572 143.11 117.356Z" fill="#2B79E6"/>
<path d="M86.9996 174C104.821 174 119.118 159.728 119.314 141.937C128.714 136.267 134.981 126.101 134.981 114.371C134.981 102.836 128.91 92.6697 119.706 87C128.91 81.3303 134.981 71.164 134.981 59.6292C134.981 47.8989 128.714 37.7326 119.314 32.0629C119.118 14.4674 104.821 -1.31834e-06 86.9996 -2.09735e-06C69.1778 -2.87637e-06 54.8812 14.2719 54.6853 32.0629C45.2848 37.7326 39.0178 47.8989 39.0178 59.6292C39.0178 71.164 45.089 81.3303 54.2937 87C45.089 92.6697 39.0178 102.836 39.0178 114.371C39.0178 126.101 45.2848 136.267 54.6853 141.937C54.6853 159.728 69.1778 174 86.9996 174ZM56.6438 140.96C56.8396 130.598 62.3233 121.604 70.3529 116.521C70.9404 127.079 76.6199 136.072 84.8453 141.546C80.7326 143.697 76.0323 144.87 71.1362 144.87C66.0443 144.674 60.9523 143.306 56.6438 140.96ZM71.3321 29.3258C76.2282 29.3258 80.9285 30.4989 85.0412 32.6494C76.6199 38.1236 70.9404 47.1168 70.3529 57.6742C62.3233 52.3955 56.8396 43.4022 56.6438 33.236C60.9524 30.6944 66.0443 29.3258 71.3321 29.3258ZM117.16 33.0405C116.964 43.4022 111.48 52.3955 103.451 57.4787C102.863 46.9214 97.1835 37.9281 88.9581 32.4539C93.0708 30.3034 97.7711 29.1303 102.667 29.1303C107.955 29.3258 112.851 30.6944 117.16 33.0405ZM86.9996 64.5169C92.2874 64.5169 97.1835 63.1483 101.688 60.9978C101.296 71.3596 95.4209 80.5483 86.9996 85.6315C78.5783 80.5483 72.8988 71.5551 72.3113 60.9978C76.6199 63.1483 81.7118 64.5169 86.9996 64.5169ZM89.7414 87C93.6583 85.0449 97.9669 84.0674 102.667 84.0674C107.367 84.0674 111.676 85.0449 115.593 87C111.676 88.9551 107.367 89.9326 102.667 89.9326C97.9669 89.9326 93.6583 88.9551 89.7414 87ZM84.2578 87C80.3409 88.9551 76.0324 89.9326 71.3321 89.9326C66.6318 89.9326 62.3233 88.9551 58.4064 87C62.3233 85.0449 66.6318 84.0674 71.3321 84.0674C76.0324 84.0674 80.3409 85.0449 84.2578 87ZM86.9996 109.483C81.7118 109.483 76.8157 110.852 72.3113 113.002C72.703 102.64 78.5783 93.4517 86.9996 88.3685C95.4209 93.4517 101.1 102.445 101.688 113.002C97.1835 110.852 92.2874 109.483 86.9996 109.483ZM92.6791 90.3236C95.8126 91.3011 99.142 91.8876 102.471 91.8876C107.759 91.8876 112.655 90.5191 117.16 88.3685C116.768 98.3393 111.284 107.137 103.451 112.416C102.863 103.618 98.9461 95.7978 92.6791 90.3236ZM102.667 82.1124C99.142 82.1124 96.0085 82.6989 92.875 83.6764C98.9461 78.2022 103.059 70.382 103.646 61.5843C111.676 66.6674 116.964 75.4652 117.355 85.6315C112.851 83.4809 107.955 82.1124 102.667 82.1124ZM101.492 58.2607C97.1835 56.1101 92.0916 54.7416 86.8038 54.7416C81.516 54.7416 76.6199 56.1101 72.1155 58.2607C72.5072 47.8989 78.3825 38.7101 86.8038 33.627C95.4209 38.9056 101.1 47.8989 101.492 58.2607ZM81.1243 83.6764C77.9908 82.6989 74.6614 82.1124 71.3321 82.1124C66.0443 82.1124 61.1482 83.4809 56.6438 85.6315C57.0355 75.6607 62.5191 66.8629 70.3529 61.5843C70.9404 70.382 75.0531 78.2022 81.1243 83.6764ZM71.3321 91.8876C74.8573 91.8876 77.9908 91.3011 81.1243 90.3236C75.0531 95.7977 70.9404 103.618 70.3529 112.416C62.3233 107.333 57.0355 98.5348 56.6438 88.3685C60.9524 90.5191 66.0443 91.8876 71.3321 91.8876ZM72.3113 115.739C76.6199 117.89 81.7118 119.258 86.9996 119.258C92.2874 119.258 97.1835 117.89 101.688 115.739C101.296 126.101 95.4209 135.29 86.9996 140.373C78.5783 135.094 72.703 126.101 72.3113 115.739ZM103.451 116.326C111.48 121.604 116.964 130.598 117.16 140.764C112.851 143.11 107.759 144.479 102.471 144.479C97.5752 144.479 92.8749 143.306 88.7622 141.155C97.1835 135.876 102.863 126.883 103.451 116.326ZM133.023 114.371C133.023 124.928 127.539 134.312 119.118 139.787C118.531 129.034 112.459 119.845 103.842 114.371C112.459 109.092 118.335 99.7079 119.118 88.9551C127.539 94.4292 133.023 103.813 133.023 114.371ZM133.023 59.6292C133.023 70.1865 127.539 79.5708 119.118 85.045C118.531 74.2921 112.459 65.1034 103.842 59.6292C112.459 54.3506 118.335 44.9663 119.118 34.2135C127.539 39.6876 133.023 49.0719 133.023 59.6292ZM86.9996 1.95505C103.255 1.95505 116.572 14.8584 117.355 30.8899C113.047 28.7393 107.955 27.3708 102.667 27.3708C96.9877 27.3708 91.6999 28.9348 86.9996 31.4764C82.2994 28.9348 77.0116 27.3708 71.3321 27.3708C66.0443 27.3708 61.1482 28.7393 56.6438 30.8899C57.4272 14.8584 70.7446 1.95505 86.9996 1.95505ZM40.9763 59.6292C40.9763 49.0719 46.4599 39.6876 54.8812 34.2135C55.4687 44.9663 61.5399 54.1551 70.157 59.6292C61.5399 64.9079 55.6646 74.2921 54.8812 85.0449C46.4599 79.5708 40.9763 70.1865 40.9763 59.6292ZM40.9763 114.371C40.9763 103.813 46.4599 94.4292 54.8812 88.9551C55.4687 99.7079 61.5399 108.897 70.157 114.371C61.5399 119.649 55.6646 129.034 54.8812 139.787C46.4599 134.312 40.9763 124.928 40.9763 114.371ZM56.6438 143.11C60.9523 145.261 66.0443 146.629 71.3321 146.629C77.0116 146.629 82.2994 145.065 86.9996 142.524C91.6999 145.065 96.9877 146.629 102.667 146.629C107.955 146.629 112.851 145.261 117.355 143.11C116.572 159.142 103.255 172.045 86.9996 172.045C70.7446 172.045 57.4271 159.142 56.6438 143.11Z" fill="#2B79E6"/>
</svg>
