<svg width="33" height="33" viewBox="0 0 33 33" fill="none" xmlns="http://www.w3.org/2000/svg">
<g clip-path="url(#clip0)">
<path d="M17.0394 0.050615C10.5408 -0.168389 5.2041 5.03432 5.2041 11.4834C5.2041 18.8024 12.2278 24.114 16.1646 31.7528C16.3645 32.1406 16.9228 32.1411 17.1234 31.7534C20.6848 24.88 26.7716 20.271 27.8997 13.6493C29.0677 6.79707 23.9863 0.284822 17.0394 0.050615ZM16.6434 17.4754C13.3342 17.4754 10.6514 14.7926 10.6514 11.4834C10.6514 8.17421 13.3342 5.49139 16.6434 5.49139C19.9527 5.49139 22.6355 8.17421 22.6355 11.4834C22.6355 14.7926 19.9527 17.4754 16.6434 17.4754Z" fill="#2B79E6"/>
</g>
<defs>
<clipPath id="clip0">
<rect x="0.635742" y="0.0439453" width="32" height="32" fill="white"/>
</clipPath>
</defs>
</svg>
