<svg width="251" height="29" viewBox="0 0 251 29" fill="none" xmlns="http://www.w3.org/2000/svg">
<path d="M160.957 0.289642H159.943V27.5873H160.957V0.289642Z" fill="black"/>
<path d="M41.1965 4.27236L43.2963 0.362345C43.6583 0.289937 44.0203 0.289937 44.5272 0.289937C45.0341 0.289937 45.3961 0.289937 45.7581 0.362345L40.5448 9.55812C40.1827 9.63053 39.8207 9.63053 39.3138 9.63053C38.807 9.63053 38.445 9.63053 38.0829 9.55812L39.9655 6.22737L36.6348 0.289937C36.9968 0.217529 37.3588 0.217529 37.8657 0.217529C38.3725 0.217529 38.7346 0.217529 39.0966 0.289937L41.1965 4.27236Z" fill="black"/>
<path d="M54.7347 3.98243V0.362049C55.4588 0.217234 56.2553 0.217234 57.0518 0.362049V9.63023C56.3277 9.77505 55.5312 9.77505 54.7347 9.63023V5.86503H50.8971V9.63023C50.173 9.77505 49.3766 9.77505 48.5801 9.63023V0.289642C49.3042 0.144826 50.1006 0.144826 50.8971 0.289642V3.91003H54.7347V3.98243Z" fill="black"/>
<path d="M68.7822 9.55782C68.0582 9.70264 67.2617 9.70264 66.4652 9.55782V4.12725L62.1207 9.55782C61.5415 9.63023 60.9622 9.63023 60.3105 9.55782V0.289642C61.0346 0.144826 61.8311 0.144826 62.6276 0.289642V5.79262L66.9721 0.362049C67.5513 0.289642 68.1306 0.289642 68.7822 0.362049V9.55782Z" fill="black"/>
<path d="M72.1115 0.289612H76.0939C76.9628 0.289612 77.6869 0.506835 78.2661 0.941281C78.8454 1.37573 79.135 1.95499 79.135 2.67906C79.135 3.62036 78.7006 4.27203 77.8317 4.70648C78.7006 5.14093 79.2798 5.865 79.2798 6.87871C79.2798 8.54409 78.0489 9.48539 76.0939 9.48539H72.0391V0.289612H72.1115ZM74.4285 2.24462V4.12722H75.8767C76.4559 4.12722 76.8904 3.76518 76.8904 3.18592C76.8904 2.53425 76.5283 2.24462 75.8767 2.24462H74.4285ZM74.4285 5.72019V7.67519H76.0215C76.6732 7.67519 77.0352 7.31316 77.0352 6.66149C77.0352 6.00982 76.6732 5.72019 75.9491 5.72019H74.4285Z" fill="black"/>
<path d="M84.5689 7.67519H88.7685C88.9133 8.32686 88.9133 8.90612 88.7685 9.55779H82.3242V0.289612H88.7685C88.9133 0.941281 88.9133 1.59295 88.7685 2.17221H84.5689V3.91H88.2616C88.4065 4.56166 88.4065 5.21333 88.2616 5.79259H84.5689V7.67519Z" fill="black"/>
<path d="M91.7365 0.289612H95.3569C96.3706 0.289612 97.2395 0.579243 97.8911 1.1585C98.5428 1.73777 98.8324 2.46184 98.8324 3.40314C98.8324 4.34444 98.4704 5.06852 97.8911 5.64778C97.2395 6.22704 96.443 6.51667 95.3569 6.51667H93.9811V9.55779C93.257 9.70261 92.4605 9.70261 91.6641 9.55779V0.289612H91.7365ZM93.9811 4.63407H95.3569C96.0085 4.63407 96.5154 4.19963 96.5154 3.40314C96.5154 2.60666 96.0085 2.17221 95.3569 2.17221H93.9811V4.63407Z" fill="black"/>
<path d="M109.621 7.02357C109.694 7.16838 109.766 7.45801 109.694 8.03727C109.694 8.61654 109.621 8.97857 109.621 9.12339C108.825 9.55783 107.884 9.84747 106.797 9.84747C105.205 9.84747 103.974 9.41302 102.96 8.47172C102.019 7.53042 101.512 6.3719 101.512 4.99615C101.512 3.6204 102.019 2.46188 102.96 1.52058C103.901 0.579282 105.205 0.144836 106.797 0.144836C107.884 0.144836 108.825 0.362059 109.621 0.868913C109.694 1.01373 109.694 1.37577 109.694 1.95503C109.694 2.53429 109.694 2.82392 109.621 2.96874C108.68 2.38947 107.739 2.09984 106.942 2.09984C106.073 2.09984 105.349 2.38947 104.77 2.89633C104.191 3.40318 103.901 4.12726 103.901 5.06856C103.901 5.93745 104.191 6.66153 104.77 7.24079C105.349 7.74764 106.073 8.03727 106.942 8.03727C107.811 7.89246 108.68 7.60283 109.621 7.02357Z" fill="black"/>
<path d="M121.425 9.55782C120.701 9.70264 119.904 9.70264 119.108 9.55782V4.12725L114.763 9.55782C114.184 9.63023 113.605 9.63023 112.953 9.55782V0.289642C113.677 0.144826 114.474 0.144826 115.27 0.289642V5.79262L119.615 0.362049C120.194 0.289642 120.773 0.289642 121.425 0.362049V9.55782Z" fill="black"/>
<path d="M131.707 0.289612C131.852 0.941281 131.852 1.59295 131.707 2.17221H129.173V9.55779C128.449 9.70261 127.652 9.70261 126.856 9.55779V2.24462H124.321C124.177 1.59295 124.177 0.941281 124.321 0.362019H131.707V0.289612Z" fill="black"/>
<path d="M136.918 7.67519H141.118C141.263 8.32686 141.263 8.90612 141.118 9.55779H134.674V0.289612H141.118C141.263 0.941281 141.263 1.59295 141.118 2.17221H136.918V3.91H140.611C140.756 4.56166 140.756 5.21333 140.611 5.79259H136.918V7.67519Z" fill="black"/>
<path d="M150.967 0.289612C151.112 0.941281 151.112 1.59295 150.967 2.17221H148.433V9.55779C147.709 9.70261 146.912 9.70261 146.116 9.55779V2.24462H143.581C143.436 1.59295 143.436 0.941281 143.581 0.362019H150.967V0.289612Z" fill="black"/>
<path d="M48.8001 23.6773C48.9449 23.8222 48.9449 24.4014 48.9449 25.2703C48.9449 26.1392 48.8725 26.7185 48.8001 26.9357C47.5692 27.6598 46.121 28.0218 44.3832 28.0218C41.9214 28.0218 39.894 27.2977 38.4458 25.8496C36.9252 24.4014 36.2012 22.5912 36.2012 20.419C36.2012 18.2468 36.9252 16.4366 38.4458 14.9884C39.9664 13.5403 41.9214 12.8162 44.3832 12.8162C46.121 12.8162 47.5692 13.1782 48.8001 13.9023C48.8725 14.1195 48.9449 14.6988 48.9449 15.5677C48.9449 16.4366 48.8725 16.9434 48.8001 17.1607C47.2795 16.2194 45.9038 15.7849 44.6005 15.7849C43.2247 15.7849 42.1386 16.2194 41.1973 17.0882C40.256 17.8847 39.8216 19.0433 39.8216 20.419C39.8216 21.7947 40.256 22.9533 41.1973 23.8222C42.1386 24.6186 43.2247 25.0531 44.6005 25.0531C45.9038 25.0531 47.352 24.5462 48.8001 23.6773Z" fill="black"/>
<path d="M65.0923 27.6598C63.9337 27.8771 62.7028 27.8771 61.5443 27.6598V19.1881L54.738 27.7322C53.7967 27.8771 52.8554 27.8771 51.9141 27.7322V13.1783C53.0726 12.9611 54.3035 12.9611 55.462 13.1783V21.7224L62.2684 13.1783C63.2097 13.0335 64.151 13.0335 65.0923 13.1783V27.6598Z" fill="black"/>
<path d="M77.7668 18.8261V13.1058C78.9253 12.8886 80.1563 12.8886 81.3148 13.1058V27.6598C80.1563 27.877 78.9253 27.877 77.7668 27.6598V21.7948H71.757V27.6598C70.5984 27.877 69.3675 27.877 68.209 27.6598V13.1783C69.3675 12.961 70.5984 12.961 71.757 13.1783V18.8261H77.7668Z" fill="black"/>
<path d="M88.0462 24.6911H94.5629C94.7077 25.7048 94.7077 26.6461 94.5629 27.6598H84.4258V13.1783H94.5629C94.7077 14.192 94.7077 15.1333 94.5629 16.147H88.0462V18.8261H93.8388C93.9836 19.8398 93.9836 20.7811 93.8388 21.7948H88.0462V24.6911Z" fill="black"/>
<path d="M97.0996 13.1783H102.82C104.485 13.1783 105.789 13.6127 106.802 14.554C107.816 15.4229 108.323 16.6539 108.323 18.102C108.323 19.5502 107.816 20.7087 106.802 21.65C105.789 22.5189 104.485 23.0257 102.82 23.0257H100.648V27.8046C99.4891 28.0219 98.2581 28.0219 97.0996 27.8046V13.1783ZM100.648 19.9122H102.747C103.834 19.9122 104.558 19.2605 104.558 18.0296C104.558 16.7987 103.761 16.147 102.747 16.147H100.648V19.9122Z" fill="black"/>
<path d="M110.857 13.1783H120.415C120.56 14.192 120.56 15.1333 120.415 16.147H114.405V27.7322C113.247 27.9494 112.016 27.9494 110.857 27.7322V13.1783Z" fill="black"/>
<path d="M135.907 27.6598C134.748 27.8771 133.517 27.8771 132.359 27.6598V19.1881L125.552 27.7322C124.611 27.8771 123.67 27.8771 122.729 27.7322V13.1783C123.887 12.9611 125.118 12.9611 126.276 13.1783V21.7224L133.083 13.1783C134.024 13.0335 134.965 13.0335 135.907 13.1783V27.6598Z" fill="black"/>
<path d="M150.172 13.1783V27.7322C149.013 27.9494 147.783 27.9494 146.624 27.7322V22.8085H145.248L142.062 27.7322C141.556 27.8046 140.904 27.877 140.107 27.877C139.311 27.877 138.732 27.8046 138.152 27.7322L141.7 22.3016C139.963 21.5052 138.949 19.9846 138.949 18.0296C138.949 16.5814 139.456 15.4229 140.397 14.554C141.411 13.6851 142.714 13.1783 144.307 13.1783H150.172ZM146.552 16.147H144.307C143.221 16.147 142.497 16.7987 142.497 17.9572C142.497 19.1157 143.293 19.7674 144.307 19.7674H146.552V16.147Z" fill="black"/>
<path d="M183.478 10.2815V0.289215C184.057 0.144399 184.709 0.144399 185.288 0.289215V11.8744H170.734V0.289215C171.386 0.144399 171.965 0.144399 172.545 0.289215V10.3539H177.106V0.289215C177.686 0.144399 178.265 0.144399 178.916 0.289215V10.3539H183.478V10.2815Z" fill="black"/>
<path d="M192.021 5.86502L197.596 11.8025C197.379 11.8749 196.945 11.8749 196.51 11.8749C196.076 11.8749 195.641 11.8749 195.424 11.8025L190.138 6.15465V11.8025C189.559 11.9473 188.98 11.9473 188.328 11.8025V0.217224C188.98 0.0724082 189.559 0.0724082 190.138 0.217224V5.50298L195.207 0.217224C195.496 0.144816 195.859 0.144816 196.293 0.144816C196.8 0.144816 197.162 0.144816 197.379 0.217224L192.021 5.86502Z" fill="black"/>
<path d="M204.621 0C206.432 0 207.88 0.579261 208.966 1.73778C210.197 2.89631 210.704 4.34446 210.704 6.08224C210.704 7.74762 210.124 9.19578 208.966 10.3543C207.807 11.5128 206.359 12.0921 204.621 12.0921C202.811 12.0921 201.363 11.5128 200.277 10.3543C199.118 9.19578 198.539 7.74762 198.539 6.08224C198.539 4.41687 199.118 2.96871 200.277 1.81019C201.435 0.579261 202.884 0 204.621 0ZM204.621 1.52056C203.39 1.52056 202.377 1.95501 201.58 2.8239C200.784 3.69279 200.349 4.77891 200.349 6.08224C200.349 7.38558 200.784 8.4717 201.58 9.34059C202.377 10.2095 203.39 10.5715 204.621 10.5715C205.852 10.5715 206.866 10.1371 207.662 9.34059C208.459 8.4717 208.893 7.38558 208.893 6.08224C208.893 4.77891 208.459 3.69279 207.662 2.8239C206.866 1.95501 205.852 1.52056 204.621 1.52056Z" fill="black"/>
<path d="M222.726 0.289642V11.8749C222.074 12.0197 221.495 12.0197 220.916 11.8749V1.8102H216.644L215.92 8.61652C215.702 10.9336 214.761 12.0921 212.878 12.0921C212.516 12.0921 212.227 12.0921 211.937 11.9473C211.865 11.4404 211.865 10.9336 211.937 10.4267C212.082 10.4267 212.227 10.4991 212.372 10.4991C213.385 10.4991 213.965 9.91986 214.109 8.47171L214.978 0.289642H222.726Z" fill="black"/>
<path d="M235.901 11.8024C235.249 11.9472 234.67 11.9472 234.018 11.8024L232.86 8.90607H227.791L226.633 11.8024C225.981 11.9472 225.402 11.9472 224.75 11.8024L229.529 0.217148C230.036 0.14474 230.543 0.14474 231.049 0.217148L235.901 11.8024ZM228.37 7.38551H232.28L230.325 2.6066L228.37 7.38551Z" fill="black"/>
<path d="M172.545 20.3465H175.006C176.31 20.3465 177.323 20.7086 178.12 21.3602C178.916 22.0843 179.278 22.8808 179.278 23.9669C179.278 24.9806 178.916 25.8495 178.12 26.5736C177.323 27.2977 176.31 27.5873 175.006 27.5873H170.734V16.0021H178.192C178.265 16.5089 178.265 17.0158 178.192 17.5226H172.545V20.3465ZM172.545 26.0667H175.006C176.527 26.0667 177.396 25.1978 177.396 23.9669C177.396 22.736 176.527 21.8671 175.006 21.8671H172.545V26.0667Z" fill="black"/>
<path d="M191.59 27.5874C191.011 27.7322 190.431 27.7322 189.78 27.5874V19.1157L183.118 27.6598C182.611 27.7322 182.104 27.7322 181.67 27.6598V16.0746C182.322 15.9297 182.901 15.9297 183.48 16.0746V24.6187L190.214 16.0746C190.721 16.0021 191.155 16.0021 191.662 16.0746V27.5874H191.59Z" fill="black"/>
<path d="M202.448 24.5463C202.448 25.56 202.086 26.4289 201.289 27.0082C200.493 27.5874 199.479 27.9495 198.176 27.9495C196.727 27.9495 195.424 27.5874 194.41 26.9358C194.338 26.7909 194.338 26.5013 194.338 26.0669C194.338 25.6324 194.338 25.3428 194.41 25.198C195.496 25.9945 196.727 26.3565 198.103 26.3565C199.551 26.3565 200.637 25.56 200.637 24.3291C200.637 23.243 199.913 22.4465 198.465 22.4465H196.51C196.365 21.9396 196.365 21.5052 196.51 20.9983H198.393C199.551 20.9983 200.275 20.2018 200.275 19.1881C200.275 18.102 199.479 17.3055 198.103 17.3055C196.872 17.3055 195.714 17.6676 194.555 18.4641C194.483 18.3916 194.483 18.102 194.483 17.6676C194.483 17.2331 194.555 16.9435 194.555 16.7987C195.569 16.147 196.727 15.785 198.176 15.785C199.334 15.785 200.348 16.0746 200.999 16.6539C201.723 17.2331 202.086 17.9572 202.086 18.8985C202.086 20.1294 201.434 21.1431 200.348 21.65C201.723 22.0844 202.448 23.1706 202.448 24.5463Z" fill="black"/>
<path d="M212.803 20.9258V16.0021C213.382 15.8573 213.962 15.8573 214.613 16.0021V27.5873C213.962 27.7321 213.382 27.7321 212.803 27.5873V22.4464H206.431V27.5873C205.852 27.7321 205.273 27.7321 204.621 27.5873V16.0021C205.273 15.8573 205.852 15.8573 206.431 16.0021V20.9258H212.803Z" fill="black"/>
<path d="M219.394 26.0667H225.476C225.621 26.5736 225.621 27.0804 225.476 27.5873H217.584V16.0021H225.476C225.621 16.5089 225.621 17.0158 225.476 17.5226H219.394V20.9258H224.897C224.97 21.4327 224.97 21.9395 224.897 22.4464H219.394V26.0667Z" fill="black"/>
<path d="M237.348 25.1979C237.42 25.2703 237.42 25.5599 237.42 25.9943C237.42 26.4288 237.42 26.7184 237.348 26.8632C236.334 27.5149 235.103 27.8769 233.583 27.8769C231.7 27.8769 230.18 27.2977 229.021 26.1392C227.862 24.9806 227.283 23.5325 227.283 21.8671C227.283 20.2017 227.862 18.7536 229.021 17.5951C230.18 16.4365 231.7 15.8573 233.583 15.8573C235.031 15.8573 236.334 16.2193 237.348 16.871C237.42 17.0158 237.42 17.3054 237.42 17.7399C237.42 18.1743 237.42 18.4639 237.348 18.5364C236.189 17.7399 234.958 17.3778 233.727 17.3778C232.424 17.3778 231.338 17.8123 230.469 18.6812C229.6 19.5501 229.166 20.6362 229.166 21.9395C229.166 23.2429 229.6 24.329 230.469 25.1979C231.338 26.0668 232.424 26.4288 233.727 26.4288C234.958 26.3564 236.189 25.9219 237.348 25.1979Z" fill="black"/>
<path d="M250.602 27.5873C249.95 27.7321 249.371 27.7321 248.719 27.5873L247.561 24.691H242.492L241.334 27.5873C240.682 27.7321 240.103 27.7321 239.451 27.5873L244.23 16.0021C244.737 15.9297 245.244 15.9297 245.751 16.0021L250.602 27.5873ZM243.072 23.1704H246.982L245.027 18.3915L243.072 23.1704Z" fill="black"/>
<path d="M0 0.216858V27.587H27.3701V0.216858H0ZM23.8945 24.1838H3.40316V3.69243H23.8945V24.1838ZM17.0158 23.0253L7.89244 13.9019L17.0158 4.85095V9.70226L12.7437 13.9743L17.0158 18.2464V23.0253Z" fill="black"/>
</svg>
