<svg width="91" height="91" viewBox="0 0 91 91" fill="none" xmlns="http://www.w3.org/2000/svg">
<path d="M71.9194 38.4873H19.0806V47.2938H71.9194V38.4873Z" fill="#9AC4FF"/>
<path d="M38.1613 72.2447C32.4973 72.2447 27.8871 67.6345 27.8871 61.9705C27.8871 56.3065 32.4973 51.6963 38.1613 51.6963V54.6318C34.1147 54.6318 30.8226 57.9239 30.8226 61.9705C30.8226 66.017 34.1147 69.3092 38.1613 69.3092V72.2447Z" fill="#A5F9FE"/>
<path d="M51.371 72.2447C45.7069 72.2447 41.0968 67.6345 41.0968 61.9705C41.0968 56.3065 45.7069 51.6963 51.371 51.6963V54.6318C47.3244 54.6318 44.0323 57.9239 44.0323 61.9705C44.0323 66.017 47.3244 69.3092 51.371 69.3092V72.2447Z" fill="#A5F9FE"/>
<path d="M41.0968 90.7651L33.7581 87.0957L26.4194 90.7651V70.7773H29.3548V86.0154L33.7581 83.8138L38.1613 86.0154V75.1806H41.0968V90.7651Z" fill="#A5F9FE"/>
<path d="M58.7097 90.7651L51.371 87.0957L44.0323 90.7651V70.7773H46.9677V86.0154L51.371 83.8138L55.7742 86.0154V75.1806H58.7097V90.7651Z" fill="#A5F9FE"/>
<path d="M17.6129 25.2773V48.7612H73.3871V25.2773H70.4516V37.0193H20.5484V25.2773H17.6129ZM70.4516 39.9548V45.8257H20.5484V39.9548H70.4516Z" fill="#050B37"/>
<path d="M80.7258 51.6973H10.2742C4.61018 51.6973 0 56.3074 0 61.9715C0 67.6355 4.61018 72.2457 10.2742 72.2457H80.7258C86.3898 72.2457 91 67.6355 91 61.9715C91 56.3074 86.3898 51.6973 80.7258 51.6973ZM10.2742 69.3102C6.22763 69.3102 2.93548 66.018 2.93548 61.9715C2.93548 57.9249 6.22763 54.6328 10.2742 54.6328H73.55C71.6405 56.4997 70.4516 59.0976 70.4516 61.9715C70.4516 64.8453 71.6405 67.4432 73.55 69.3102H10.2742ZM80.7258 69.3102C76.6792 69.3102 73.3871 66.018 73.3871 61.9715C73.3871 57.9249 76.6792 54.6328 80.7258 54.6328C84.7724 54.6328 88.0645 57.9249 88.0645 61.9715C88.0645 66.018 84.7724 69.3102 80.7258 69.3102Z" fill="#050B37"/>
<path d="M7.33871 41.1531C7.79958 41.3174 8.28981 41.4231 8.80645 41.4231C9.3231 41.4231 9.81333 41.3174 10.2742 41.1531V48.7618H13.2097V37.0199C13.2097 35.1089 11.9782 33.4944 10.2742 32.8867V20.0278L45.5 32.7077L83.6613 18.9711V13.9719L45.5 0.235352L7.33871 13.9719V16.4715V18.9711V32.8867C5.63466 33.4944 4.40323 35.1089 4.40323 37.0199V48.7618H7.33871V41.1531ZM10.2742 16.0356L45.5 3.35283L80.7258 16.0356V16.9074L45.5 29.5902L10.2742 16.9074V16.4715V16.0356ZM8.80645 35.5522C9.61665 35.5522 10.2742 36.2097 10.2742 37.0199C10.2742 37.8301 9.61665 38.4876 8.80645 38.4876C7.99626 38.4876 7.33871 37.8301 7.33871 37.0199C7.33871 36.2097 7.99626 35.5522 8.80645 35.5522Z" fill="#050B37"/>
</svg>
