<svg width="91" height="91" viewBox="0 0 91 91" fill="none" xmlns="http://www.w3.org/2000/svg">
<g clip-path="url(#clip0)">
<path d="M45.5 58.7083C57.6589 58.7083 67.5157 48.8515 67.5157 36.6925C67.5157 24.5336 57.6589 14.6768 45.5 14.6768C33.341 14.6768 23.4842 24.5336 23.4842 36.6925C23.4842 48.8515 33.341 58.7083 45.5 58.7083Z" fill="#9AC4FF"/>
<path d="M88.0649 44.3016V32.0183C89.7689 31.4106 91.0003 29.7961 91.0003 27.8852C91.0003 25.4576 89.0248 23.482 86.5972 23.482C86.0923 23.482 85.6138 23.5848 85.1617 23.7418L78.5849 15.5197C79.0046 14.8489 79.2586 14.0607 79.2586 13.2095C79.2586 10.7819 77.283 8.80631 74.8554 8.80631C73.6211 8.80631 72.5085 9.32001 71.7072 10.1405L60.1371 4.80091C60.1503 4.66734 60.1782 4.53965 60.1782 4.40315C60.1782 1.97555 58.2027 0 55.7751 0C53.8641 0 52.2496 1.23142 51.642 2.93544H34.957C34.3493 1.23142 32.7348 0 30.8239 0C28.3962 0 26.4207 1.97555 26.4207 4.40315C26.4207 4.58515 26.453 4.75981 26.475 4.93594L19.1951 8.57588C18.4026 7.81413 17.3311 7.33859 16.1467 7.33859C13.7191 7.33859 11.7435 9.31414 11.7435 11.7417C11.7435 12.593 11.9974 13.3812 12.4157 14.0549L5.83889 22.2756C5.38683 22.1185 4.90982 22.0158 4.40493 22.0158C1.97732 22.0158 0.00177002 23.9913 0.00177002 26.4189C0.00177002 28.3299 1.23319 29.9444 2.93721 30.552V39.8999C1.23319 40.5061 0.00177002 42.1206 0.00177002 44.0315C0.00177002 46.4592 1.97732 48.4347 4.40493 48.4347C6.03556 48.4347 7.44457 47.5335 8.20632 46.214L16.2186 47.6715C16.5576 49.763 18.3629 51.3701 20.5498 51.3701C20.61 51.3701 20.6643 51.3555 20.723 51.3525L23.5234 58.3535C22.6076 59.1623 22.0175 60.3291 22.0175 61.6442C22.0175 64.0718 23.9931 66.0473 26.4207 66.0473C27.8972 66.0473 29.1991 65.3105 29.9975 64.1921L42.5935 67.791C42.7065 69.5787 43.8807 71.0699 45.501 71.6481V82.4638C43.797 83.0714 42.5656 84.6859 42.5656 86.5968C42.5656 89.0245 44.5412 91 46.9688 91C49.3964 91 51.3719 89.0245 51.3719 86.5968C51.3719 84.6859 50.1405 83.0714 48.4365 82.4638V71.6481C50.1405 71.0405 51.3719 69.426 51.3719 67.515C51.3719 66.109 50.6968 64.8673 49.6664 64.0615L51.4189 58.8041L64.5887 63.1941C64.6239 65.0684 65.8363 66.6447 67.5154 67.2435V82.4623C65.8113 83.0699 64.5799 84.6844 64.5799 86.5954C64.5799 89.023 66.5555 90.9985 68.9831 90.9985C71.4107 90.9985 73.3862 89.023 73.3862 86.5954C73.3862 84.6844 72.1548 83.0699 70.4508 82.4623V67.245C72.1548 66.6373 73.3862 65.0229 73.3862 63.1119C73.3862 62.5762 73.2761 62.0683 73.1 61.5928L84.3618 52.2082C85.0194 52.5986 85.7782 52.8379 86.5972 52.8379C89.0248 52.8379 91.0003 50.8623 91.0003 48.4347C91.0003 46.5237 89.7689 44.9092 88.0649 44.3016ZM24.9442 46.8848C24.9412 46.7087 24.9148 46.5399 24.8913 46.3696L36.931 40.1274L40.6546 52.1231L24.9442 46.8848ZM21.6682 42.7253L19.634 27.1264L29.6922 26.6229C30.3307 28.1699 31.8263 29.2648 33.5846 29.3353L36.0489 37.2771L23.5484 43.7585C23.0229 43.2698 22.3815 42.9146 21.6682 42.7253ZM8.47344 24.7457C8.38097 24.5212 8.26209 24.3098 8.1344 24.1058L14.7112 15.8851C14.8815 15.9438 15.0488 16.0069 15.2264 16.0451L16.3111 24.3538L8.47344 24.7457ZM18.1354 15.6488C19.5621 14.9194 20.5498 13.4502 20.5498 11.7417C20.5498 11.5597 20.5175 11.3851 20.4955 11.209L27.7754 7.56902C28.568 8.33077 29.6394 8.80631 30.8239 8.80631C31.725 8.80631 32.5631 8.53185 33.2617 8.06511L42.3763 14.9003L35.7774 21.0588C35.1698 20.7447 34.4902 20.5481 33.7593 20.5481C31.772 20.5481 30.1076 21.8793 29.5616 23.6919L19.2524 24.2071L18.1354 15.6488ZM51.7432 6.16001L44.5558 12.8675L35.2255 5.87087H51.642C51.6772 5.96774 51.7022 6.06608 51.7432 6.16001ZM55.8352 27.0178L44.0245 33.1425L37.7207 26.8387C37.9951 26.2633 38.1624 25.6293 38.1624 24.9512C38.1624 24.326 38.0274 23.7345 37.7926 23.1958L44.7613 16.6909L55.9938 25.1156C55.8646 25.5295 55.7751 25.9625 55.7751 26.4189C55.7751 26.6244 55.8088 26.8196 55.8352 27.0178ZM35.227 24.9512C35.227 25.7599 34.5695 26.4189 33.7593 26.4189C32.9491 26.4189 32.2916 25.7599 32.2916 24.9512C32.2916 24.1425 32.9491 23.4835 33.7593 23.4835C34.5695 23.4835 35.227 24.1425 35.227 24.9512ZM41.2916 34.5589L38.6952 35.9048L36.9208 30.188L41.2916 34.5589ZM39.5788 38.7536L43.4683 36.737L50.3445 43.6132C50.0715 44.1871 49.9042 44.8212 49.9042 45.4993C49.9042 46.9068 50.5793 48.147 51.6097 48.9528L49.5637 55.0908L44.0832 53.2635L39.5788 38.7536ZM54.3074 46.967C53.4972 46.967 52.8396 46.308 52.8396 45.4993C52.8396 44.6906 53.4972 44.0315 54.3074 44.0315C55.1175 44.0315 55.7751 44.6906 55.7751 45.4993C55.7751 46.308 55.1175 46.967 54.3074 46.967ZM54.3074 41.0961C53.6293 41.0961 52.9952 41.262 52.4213 41.5379L46.2026 35.3192L57.1811 29.6259C57.9678 30.3627 59.0173 30.8221 60.1782 30.8221C60.9972 30.8221 61.756 30.5828 62.4136 30.191L69.0961 35.7595L57.2325 42.2307C56.4517 41.5335 55.4346 41.0961 54.3074 41.0961ZM72.7683 17.0622C73.3921 17.4027 74.0966 17.6126 74.8554 17.6126C75.3603 17.6126 75.8373 17.5099 76.2894 17.3528L82.8662 25.575C82.4479 26.2487 82.194 27.0354 82.194 27.8866C82.194 28.1229 82.2278 28.3519 82.2645 28.5779L71.8686 34.2492L64.2952 27.938C64.4713 27.4625 64.5814 26.9546 64.5814 26.4189C64.5814 25.8216 64.4596 25.2536 64.2438 24.734L72.7683 17.0622ZM84.3633 44.6612L74.2933 36.2688L83.6735 31.1523C84.0947 31.531 84.5864 31.8245 85.1309 32.0183V44.3016C84.8608 44.3985 84.6055 44.5174 84.3633 44.6612ZM61.6459 26.4189C61.6459 27.2276 60.9884 27.8866 60.1782 27.8866C59.368 27.8866 58.7105 27.2276 58.7105 26.4189C58.7105 25.6102 59.368 24.9512 60.1782 24.9512C60.9884 24.9512 61.6459 25.6102 61.6459 26.4189ZM71.5208 37.782L82.0384 46.5472L59.2506 44.4748L71.5208 37.782ZM88.0649 27.8866C88.0649 28.6954 87.4073 29.3544 86.5972 29.3544C85.787 29.3544 85.1294 28.6954 85.1294 27.8866C85.1294 27.0779 85.787 26.4189 86.5972 26.4189C87.4073 26.4189 88.0649 27.0779 88.0649 27.8866ZM74.8554 11.7417C75.6656 11.7417 76.3231 12.4008 76.3231 13.2095C76.3231 14.0182 75.6656 14.6772 74.8554 14.6772C74.0452 14.6772 73.3877 14.0182 73.3877 13.2095C73.3877 12.4008 74.0452 11.7417 74.8554 11.7417ZM70.4919 12.8117C70.4801 12.9453 70.4523 13.073 70.4523 13.2095C70.4523 13.8068 70.5741 14.3748 70.7898 14.8944L62.2639 22.5662C61.6415 22.2257 60.937 22.0158 60.1782 22.0158C59.277 22.0158 58.439 22.2902 57.7403 22.757L46.9409 14.6566L53.7584 8.29408C54.3646 8.6111 55.0441 8.80631 55.7751 8.80631C57.0094 8.80631 58.1234 8.29261 58.9233 7.47215L70.4919 12.8117ZM55.7751 2.93544C56.5852 2.93544 57.2428 3.59444 57.2428 4.40315C57.2428 5.21187 56.5852 5.87087 55.7751 5.87087C54.9649 5.87087 54.3074 5.21187 54.3074 4.40315C54.3074 3.59444 54.9649 2.93544 55.7751 2.93544ZM30.8239 2.93544C31.634 2.93544 32.2916 3.59444 32.2916 4.40315C32.2916 5.21187 31.634 5.87087 30.8239 5.87087C30.0137 5.87087 29.3561 5.21187 29.3561 4.40315C29.3561 3.59444 30.0137 2.93544 30.8239 2.93544ZM16.1467 10.274C16.9569 10.274 17.6144 10.933 17.6144 11.7417C17.6144 12.5505 16.9569 13.2095 16.1467 13.2095C15.3365 13.2095 14.679 12.5505 14.679 11.7417C14.679 10.933 15.3365 10.274 16.1467 10.274ZM4.40493 24.9512C5.21511 24.9512 5.87264 25.6102 5.87264 26.4189C5.87264 27.2276 5.21511 27.8866 4.40493 27.8866C3.59474 27.8866 2.93721 27.2276 2.93721 26.4189C2.93721 25.6102 3.59474 24.9512 4.40493 24.9512ZM4.40493 45.4993C3.59474 45.4993 2.93721 44.8403 2.93721 44.0315C2.93721 43.2228 3.59474 42.5638 4.40493 42.5638C5.21511 42.5638 5.87264 43.2228 5.87264 44.0315C5.87264 44.8403 5.21511 45.4993 4.40493 45.4993ZM5.87264 39.8985V30.5506C7.18478 30.0824 8.19898 29.0183 8.6026 27.6768L16.6927 27.2717L18.7387 42.9616C17.8962 43.3432 17.2078 43.986 16.7484 44.7816L8.73763 43.327C8.47784 41.7302 7.36238 40.4298 5.87264 39.8985ZM19.0821 46.967C19.0821 46.1583 19.7396 45.4993 20.5498 45.4993C21.36 45.4993 22.0175 46.1583 22.0175 46.967C22.0175 47.7757 21.36 48.4347 20.5498 48.4347C19.7396 48.4347 19.0821 47.7757 19.0821 46.967ZM23.4471 50.2561C23.6511 50.0771 23.8361 49.8789 24.0034 49.6646L41.7261 55.5722L44.343 64.0013C43.979 64.2743 43.6561 64.5957 43.3919 64.9656L30.796 61.3668C30.6507 59.0713 28.7544 57.241 26.4207 57.241C26.362 57.241 26.3062 57.2557 26.249 57.2586L23.4471 50.2561ZM26.4207 63.1119C25.6105 63.1119 24.953 62.4529 24.953 61.6442C24.953 60.8355 25.6105 60.1764 26.4207 60.1764C27.2309 60.1764 27.8884 60.8355 27.8884 61.6442C27.8884 62.4529 27.2309 63.1119 26.4207 63.1119ZM46.9688 88.0631C46.1586 88.0631 45.501 87.4041 45.501 86.5954C45.501 85.7867 46.1586 85.1277 46.9688 85.1277C47.7789 85.1277 48.4365 85.7867 48.4365 86.5954C48.4365 87.4041 47.7789 88.0631 46.9688 88.0631ZM46.9688 68.9828C46.1586 68.9828 45.501 68.3238 45.501 67.515C45.501 66.7063 46.1586 66.0473 46.9688 66.0473C47.7789 66.0473 48.4365 66.7063 48.4365 67.515C48.4365 68.3238 47.7789 68.9828 46.9688 68.9828ZM47.0187 62.7244L45.1532 56.7156L48.6346 57.8765L47.0187 62.7244ZM54.3895 49.8936C56.1244 49.8613 57.6097 48.8222 58.2966 47.3354L82.3466 49.5223C82.3848 49.6691 82.4288 49.8129 82.4802 49.9538L71.2184 59.3384C70.5609 58.948 69.8035 58.7087 68.9845 58.7087C67.5785 58.7087 66.3368 59.3839 65.531 60.4142L52.3479 56.0199L54.3895 49.8936ZM68.9845 88.0631C68.1744 88.0631 67.5168 87.4041 67.5168 86.5954C67.5168 85.7867 68.1744 85.1277 68.9845 85.1277C69.7947 85.1277 70.4523 85.7867 70.4523 86.5954C70.4523 87.4041 69.7947 88.0631 68.9845 88.0631ZM68.9845 64.5796C68.1744 64.5796 67.5168 63.9206 67.5168 63.1119C67.5168 62.3032 68.1744 61.6442 68.9845 61.6442C69.7947 61.6442 70.4523 62.3032 70.4523 63.1119C70.4523 63.9206 69.7947 64.5796 68.9845 64.5796ZM86.5972 49.9024C85.787 49.9024 85.1294 49.2434 85.1294 48.4347C85.1294 47.626 85.787 46.967 86.5972 46.967C87.4073 46.967 88.0649 47.626 88.0649 48.4347C88.0649 49.2434 87.4073 49.9024 86.5972 49.9024Z" fill="#050B37"/>
<path d="M5.8716 0H2.93616V2.93544H5.8716V0Z" fill="#A5F9FE"/>
<path d="M5.8716 5.87109H2.93616V8.80653H5.8716V5.87109Z" fill="#A5F9FE"/>
<path d="M8.80702 2.93555H5.87158V5.87098H8.80702V2.93555Z" fill="#A5F9FE"/>
<path d="M2.93654 2.93555H0.00109863V5.87098H2.93654V2.93555Z" fill="#A5F9FE"/>
<path d="M79.2575 67.5146H76.3221V70.4501H79.2575V67.5146Z" fill="#A5F9FE"/>
<path d="M79.2575 73.3857H76.3221V76.3212H79.2575V73.3857Z" fill="#A5F9FE"/>
<path d="M82.1929 70.4502H79.2575V73.3856H82.1929V70.4502Z" fill="#A5F9FE"/>
<path d="M76.3221 70.4502H73.3867V73.3856H76.3221V70.4502Z" fill="#A5F9FE"/>
<path d="M88.0639 5.87109H85.1284V8.80653H88.0639V5.87109Z" fill="#A5F9FE"/>
<path d="M88.0639 11.7422H85.1284V14.6776H88.0639V11.7422Z" fill="#A5F9FE"/>
<path d="M90.9993 8.80664H88.0638V11.7421H90.9993V8.80664Z" fill="#A5F9FE"/>
<path d="M85.1284 8.80664H82.193V11.7421H85.1284V8.80664Z" fill="#A5F9FE"/>
<path d="M20.5488 70.4502H17.6133V73.3856H20.5488V70.4502Z" fill="#A5F9FE"/>
<path d="M20.5488 76.3213H17.6133V79.2567H20.5488V76.3213Z" fill="#A5F9FE"/>
<path d="M23.4842 73.3857H20.5488V76.3212H23.4842V73.3857Z" fill="#A5F9FE"/>
<path d="M17.6134 73.3857H14.6779V76.3212H17.6134V73.3857Z" fill="#A5F9FE"/>
<path d="M11.7425 54.3057H8.80707V57.2411H11.7425V54.3057Z" fill="#A5F9FE"/>
<path d="M11.7425 60.1768H8.80707V63.1122H11.7425V60.1768Z" fill="#A5F9FE"/>
<path d="M14.6779 57.2412H11.7425V60.1766H14.6779V57.2412Z" fill="#A5F9FE"/>
<path d="M8.80702 57.2412H5.87158V60.1766H8.80702V57.2412Z" fill="#A5F9FE"/>
</g>
<defs>
<clipPath id="clip0">
<rect width="91" height="91" fill="white"/>
</clipPath>
</defs>
</svg>
