<svg width="24" height="25" viewBox="0 0 24 25" fill="none" xmlns="http://www.w3.org/2000/svg">
<g clip-path="url(#clip0)">
<path fill-rule="evenodd" clip-rule="evenodd" d="M22 24.0098H2C1.46957 24.0098 0.960888 23.7991 0.585815 23.424C0.210743 23.0489 0 22.5402 0 22.0098V4.00977C0 3.47933 0.210743 2.97062 0.585815 2.59555C0.960888 2.22048 1.46957 2.00977 2 2.00977H4V4.00977H2V22.0098H22V4.00977H20V2.00977H22C22.5304 2.00977 23.0391 2.22048 23.4142 2.59555C23.7893 2.97062 24 3.47933 24 4.00977V22.0098C24 22.5402 23.7893 23.0489 23.4142 23.424C23.0391 23.7991 22.5304 24.0098 22 24.0098ZM17 17.0098H19C19.2652 17.0098 19.5196 17.1151 19.7072 17.3027C19.8947 17.4902 20 17.7445 20 18.0098C20 18.275 19.8947 18.5293 19.7072 18.7169C19.5196 18.9044 19.2652 19.0098 19 19.0098H17C16.7348 19.0098 16.4804 18.9044 16.2928 18.7169C16.1053 18.5293 16 18.275 16 18.0098C16 17.7445 16.1053 17.4902 16.2928 17.3027C16.4804 17.1151 16.7348 17.0098 17 17.0098ZM17 13.0098H19C19.2652 13.0098 19.5196 13.1151 19.7072 13.3027C19.8947 13.4902 20 13.7445 20 14.0098C20 14.275 19.8947 14.5293 19.7072 14.7169C19.5196 14.9044 19.2652 15.0098 19 15.0098H17C16.7348 15.0098 16.4804 14.9044 16.2928 14.7169C16.1053 14.5293 16 14.275 16 14.0098C16 13.7445 16.1053 13.4902 16.2928 13.3027C16.4804 13.1151 16.7348 13.0098 17 13.0098ZM19 11.0098H17C16.7348 11.0098 16.4804 10.9044 16.2928 10.7169C16.1053 10.5293 16 10.275 16 10.0098C16 9.74455 16.1053 9.49019 16.2928 9.30266C16.4804 9.11512 16.7348 9.00977 17 9.00977H19C19.2652 9.00977 19.5196 9.11512 19.7072 9.30266C19.8947 9.49019 20 9.74455 20 10.0098C20 10.275 19.8947 10.5293 19.7072 10.7169C19.5196 10.9044 19.2652 11.0098 19 11.0098ZM18 6.00977C17.7348 6.00977 17.4804 5.90441 17.2928 5.71687C17.1053 5.52934 17 5.27498 17 5.00977V1.00977C17 0.744549 17.1053 0.490194 17.2928 0.302658C17.4804 0.115122 17.7348 0.00976562 18 0.00976562C18.2652 0.00976562 18.5196 0.115122 18.7072 0.302658C18.8947 0.490194 19 0.744549 19 1.00977V5.00977C19 5.27498 18.8947 5.52934 18.7072 5.71687C18.5196 5.90441 18.2652 6.00977 18 6.00977ZM14 2.00977H16V4.00977H14V2.00977ZM11 17.0098H13C13.2652 17.0098 13.5196 17.1151 13.7072 17.3027C13.8947 17.4902 14 17.7445 14 18.0098C14 18.275 13.8947 18.5293 13.7072 18.7169C13.5196 18.9044 13.2652 19.0098 13 19.0098H11C10.7348 19.0098 10.4804 18.9044 10.2928 18.7169C10.1053 18.5293 10 18.275 10 18.0098C10 17.7445 10.1053 17.4902 10.2928 17.3027C10.4804 17.1151 10.7348 17.0098 11 17.0098ZM11 13.0098H13C13.2652 13.0098 13.5196 13.1151 13.7072 13.3027C13.8947 13.4902 14 13.7445 14 14.0098C14 14.275 13.8947 14.5293 13.7072 14.7169C13.5196 14.9044 13.2652 15.0098 13 15.0098H11C10.7348 15.0098 10.4804 14.9044 10.2928 14.7169C10.1053 14.5293 10 14.275 10 14.0098C10 13.7445 10.1053 13.4902 10.2928 13.3027C10.4804 13.1151 10.7348 13.0098 11 13.0098ZM13 11.0098H11C10.7348 11.0098 10.4804 10.9044 10.2928 10.7169C10.1053 10.5293 10 10.275 10 10.0098C10 9.74455 10.1053 9.49019 10.2928 9.30266C10.4804 9.11512 10.7348 9.00977 11 9.00977H13C13.2652 9.00977 13.5196 9.11512 13.7072 9.30266C13.8947 9.49019 14 9.74455 14 10.0098C14 10.275 13.8947 10.5293 13.7072 10.7169C13.5196 10.9044 13.2652 11.0098 13 11.0098ZM12 6.00977C11.7348 6.00977 11.4804 5.90441 11.2928 5.71687C11.1053 5.52934 11 5.27498 11 5.00977V1.00977C11 0.744549 11.1053 0.490194 11.2928 0.302658C11.4804 0.115122 11.7348 0.00976562 12 0.00976562C12.2652 0.00976562 12.5196 0.115122 12.7072 0.302658C12.8947 0.490194 13 0.744549 13 1.00977V5.00977C13 5.27498 12.8947 5.52934 12.7072 5.71687C12.5196 5.90441 12.2652 6.00977 12 6.00977ZM8 2.00977H10V4.00977H8V2.00977ZM5 17.0098H7C7.26522 17.0098 7.51962 17.1151 7.70715 17.3027C7.89469 17.4902 8 17.7445 8 18.0098C8 18.275 7.89469 18.5293 7.70715 18.7169C7.51962 18.9044 7.26522 19.0098 7 19.0098H5C4.73478 19.0098 4.48038 18.9044 4.29285 18.7169C4.10531 18.5293 4 18.275 4 18.0098C4 17.7445 4.10531 17.4902 4.29285 17.3027C4.48038 17.1151 4.73478 17.0098 5 17.0098ZM5 13.0098H7C7.26522 13.0098 7.51962 13.1151 7.70715 13.3027C7.89469 13.4902 8 13.7445 8 14.0098C8 14.275 7.89469 14.5293 7.70715 14.7169C7.51962 14.9044 7.26522 15.0098 7 15.0098H5C4.73478 15.0098 4.48038 14.9044 4.29285 14.7169C4.10531 14.5293 4 14.275 4 14.0098C4 13.7445 4.10531 13.4902 4.29285 13.3027C4.48038 13.1151 4.73478 13.0098 5 13.0098ZM7 11.0098H5C4.73478 11.0098 4.48038 10.9044 4.29285 10.7169C4.10531 10.5293 4 10.275 4 10.0098C4 9.74455 4.10531 9.49019 4.29285 9.30266C4.48038 9.11512 4.73478 9.00977 5 9.00977H7C7.26522 9.00977 7.51962 9.11512 7.70715 9.30266C7.89469 9.49019 8 9.74455 8 10.0098C8 10.275 7.89469 10.5293 7.70715 10.7169C7.51962 10.9044 7.26522 11.0098 7 11.0098ZM6 6.00977C5.73478 6.00977 5.48038 5.90441 5.29285 5.71687C5.10531 5.52934 5 5.27498 5 5.00977V1.00977C5 0.744549 5.10531 0.490194 5.29285 0.302658C5.48038 0.115122 5.73478 0.00976562 6 0.00976562C6.26522 0.00976562 6.51962 0.115122 6.70715 0.302658C6.89469 0.490194 7 0.744549 7 1.00977V5.00977C7 5.27498 6.89469 5.52934 6.70715 5.71687C6.51962 5.90441 6.26522 6.00977 6 6.00977Z" fill="#9DB1CD"/>
</g>
<defs>
<clipPath id="clip0">
<path d="M0 0.00976562H24V24.0098H0V0.00976562Z" fill="white"/>
</clipPath>
</defs>
</svg>
