<svg width="49" height="49" viewBox="0 0 49 49" fill="none" xmlns="http://www.w3.org/2000/svg">
<path fill-rule="evenodd" clip-rule="evenodd" d="M41.5691 7.11019C37.0032 2.5211 30.9154 0 24.4326 0C11.0835 0 0.209123 10.8744 0.197505 24.2234C0.197505 28.4989 1.31283 32.6581 3.4273 36.341L0 48.9L12.8495 45.5308C16.3929 47.4594 20.3779 48.4817 24.4326 48.4817H24.4442C37.7932 48.4817 48.6676 37.6073 48.6793 24.2467C48.6676 17.7755 46.1465 11.6877 41.5691 7.11019ZM24.4326 44.3806C20.8078 44.3806 17.2643 43.4047 14.1739 41.5691L13.442 41.1276L5.8206 43.1259L7.85374 35.6904L7.3774 34.9236C5.35588 31.717 4.29865 28.0109 4.29865 24.2118C4.29865 13.1283 13.3374 4.08952 24.4442 4.08952C29.8233 4.08952 34.8771 6.19237 38.6878 9.99145C42.4869 13.8021 44.5781 18.8559 44.5781 24.2351C44.5665 35.3535 35.5277 44.3806 24.4326 44.3806ZM35.4813 29.3005C34.8771 28.9984 31.9029 27.5346 31.3453 27.3254C30.7876 27.1279 30.381 27.0234 29.986 27.6275C29.5793 28.2316 28.4175 29.6026 28.069 29.9976C27.7205 30.4042 27.3603 30.4507 26.7562 30.1486C26.152 29.8465 24.2002 29.2076 21.8882 27.1396C20.0875 25.5363 18.8792 23.5496 18.519 22.9455C18.1705 22.3413 18.4842 22.016 18.7862 21.714C19.0535 21.4468 19.3904 21.0053 19.6924 20.6567C19.9945 20.3082 20.0991 20.0526 20.2966 19.646C20.4941 19.2393 20.4011 18.8908 20.2501 18.5887C20.0991 18.2867 18.8908 15.3009 18.3796 14.0926C17.8917 12.9076 17.3921 13.0702 17.0203 13.0586C16.6718 13.0354 16.2651 13.0354 15.8585 13.0354C15.4519 13.0354 14.8013 13.1864 14.2436 13.7905C13.686 14.3947 12.1292 15.8585 12.1292 18.8443C12.1292 21.8301 14.3017 24.6998 14.6038 25.1064C14.9058 25.513 18.8676 31.6241 24.9438 34.2497C26.3844 34.8771 27.5113 35.2489 28.3943 35.5277C29.8465 35.9924 31.1594 35.9227 32.205 35.7717C33.3668 35.5974 35.7833 34.3078 36.2945 32.8904C36.7941 31.4731 36.7941 30.2648 36.643 30.0092C36.492 29.7536 36.0854 29.6026 35.4813 29.3005Z" fill="#25D366"/>
</svg>
