<svg width="159" height="87" viewBox="0 0 159 87" fill="none" xmlns="http://www.w3.org/2000/svg">
<path d="M0.635502 43.5C0.6355 59.6571 13.5951 72.6184 29.7501 72.7959C34.8984 81.3184 44.1299 87 54.7816 87C65.2557 87 74.4872 81.4959 79.6355 73.151C84.7838 81.4959 94.0153 87 104.489 87C115.141 87 124.373 81.3184 129.521 72.7959C145.498 72.6184 158.636 59.6571 158.636 43.5C158.636 27.3429 145.676 14.3816 129.521 14.2041C124.373 5.68165 115.141 1.14564e-05 104.489 1.05252e-05C94.0153 9.60951e-06 84.7838 5.50409 79.6355 13.849C74.4872 5.50409 65.2557 7.09527e-06 54.7816 6.17959e-06C44.1299 5.24839e-06 34.8984 5.68164 29.7501 14.2041C13.5951 14.2041 0.635503 27.3429 0.635502 43.5ZM30.6378 15.9796C40.0468 16.1571 48.213 21.1286 52.8288 28.4082C43.2423 28.9408 35.076 34.0898 30.1052 41.5469C28.1524 37.8184 27.0872 33.5571 27.0872 29.1184C27.2647 24.502 28.5074 19.8857 30.6378 15.9796ZM132.006 29.2959C132.006 33.7347 130.941 37.9959 128.988 41.7245C124.018 34.0898 115.851 28.9408 106.265 28.4082C111.058 21.1286 119.224 16.1571 128.456 15.9796C130.764 19.8857 132.006 24.502 132.006 29.2959ZM128.633 70.8429C119.224 70.6653 111.058 65.6939 106.442 58.4143C116.029 57.8816 124.195 52.7327 129.166 45.2755C131.119 49.0041 132.184 53.2653 132.184 57.7041C132.006 62.498 130.764 66.9367 128.633 70.8429ZM100.051 43.5C100.051 48.2939 101.294 52.7327 103.247 56.8163C93.8377 56.4612 85.4939 51.1347 80.8782 43.5C85.4939 35.8653 93.6602 30.7163 103.247 30.1837C101.294 34.0898 100.051 38.7061 100.051 43.5ZM79.6355 45.9857C81.4108 49.5367 82.2984 53.4429 82.2984 57.7041C82.2984 61.9653 81.4108 65.8714 79.6355 69.4224C77.8602 65.8714 76.9726 61.9653 76.9726 57.7041C76.9726 53.4429 77.8602 49.5367 79.6355 45.9857ZM79.6355 41.0143C77.8602 37.4633 76.9726 33.5571 76.9726 29.2959C76.9726 25.0347 77.8602 21.1286 79.6355 17.5776C81.4108 21.1286 82.2984 25.0347 82.2984 29.2959C82.2984 33.5571 81.4108 37.4633 79.6355 41.0143ZM59.2198 43.5C59.2198 38.7061 57.9771 34.2673 56.0243 30.1837C65.4333 30.5388 73.7771 35.8653 78.3928 43.5C73.7771 51.1347 65.6108 56.2837 56.0243 56.8163C57.9771 52.7326 59.2198 48.2939 59.2198 43.5ZM76.6175 48.649C75.7299 51.4898 75.1973 54.5082 75.1973 57.5265C75.1973 62.3204 76.44 66.7592 78.3928 70.8429C69.3389 70.4877 61.3501 65.5163 56.5569 58.4143C64.5456 57.8816 71.6467 54.3306 76.6175 48.649ZM84.0737 57.7041C84.0737 54.5082 83.5411 51.6673 82.6535 48.8265C87.6243 54.3306 94.7254 58.0592 102.714 58.5918C98.0984 65.8714 90.1097 70.6653 80.8782 71.0204C82.831 66.9367 84.0737 62.498 84.0737 57.7041ZM105.732 56.6388C107.685 52.7327 108.928 48.1163 108.928 43.3225C108.928 38.5286 107.685 34.0898 105.732 30.0061C115.141 30.3612 123.485 35.6878 128.101 43.3225C123.307 51.1347 115.141 56.2837 105.732 56.6388ZM82.6535 38.1735C83.5411 35.3327 84.0737 32.3143 84.0737 29.2959C84.0737 24.502 82.831 20.0633 80.8782 15.9796C89.9321 16.3347 97.9209 21.3061 102.714 28.4082C94.7254 28.9408 87.6243 32.6694 82.6535 38.1735ZM75.1973 29.2959C75.1973 32.4918 75.7299 35.3327 76.6175 38.1735C71.6467 32.6694 64.5456 28.9408 56.5569 28.4082C61.1726 21.1286 69.1614 16.3347 78.3928 15.9796C76.44 19.8857 75.1973 24.502 75.1973 29.2959ZM53.5389 30.1837C51.5861 34.0898 50.3434 38.7061 50.3434 43.5C50.3434 48.2939 51.5861 52.7326 53.5389 56.8163C44.1299 56.4612 35.7861 51.1347 31.1703 43.5C35.9636 35.8653 44.1299 30.5388 53.5389 30.1837ZM53.0063 58.4143C48.213 65.6939 40.0467 70.6653 30.8153 70.8428C28.6849 66.9367 27.4422 62.3204 27.4422 57.5265C27.4422 53.0878 28.5074 48.8265 30.4602 45.098C35.2535 52.7327 43.4198 57.8816 53.0063 58.4143ZM54.7816 85.2245C45.1951 85.2245 36.6737 80.2531 31.7029 72.6184C41.467 72.0857 49.8108 66.5816 54.7816 58.7694C59.5748 66.5816 68.0962 71.9082 77.8602 72.6184C72.8894 80.2531 64.3681 85.2245 54.7816 85.2245ZM104.489 85.2245C94.9029 85.2245 86.3816 80.2531 81.4108 72.6184C91.1748 72.0857 99.5186 66.5816 104.489 58.7694C109.283 66.5816 117.804 71.9082 127.568 72.6184C122.597 80.2531 114.076 85.2245 104.489 85.2245ZM156.86 43.5C156.86 58.2367 145.143 70.3102 130.586 71.0204C132.539 67.1143 133.782 62.498 133.782 57.7041C133.782 52.5551 132.361 47.7612 130.053 43.5C132.361 39.2388 133.782 34.4449 133.782 29.2959C133.782 24.5021 132.539 20.0633 130.586 15.9796C145.143 16.6898 156.86 28.7633 156.86 43.5ZM104.489 1.77552C114.076 1.77552 122.597 6.74695 127.568 14.3816C117.804 14.9143 109.46 20.4184 104.489 28.2306C99.6962 20.4184 91.1748 15.0918 81.4108 14.3816C86.3816 6.74694 94.9029 1.77552 104.489 1.77552ZM54.7816 1.77552C64.3681 1.77552 72.8894 6.74694 77.8602 14.3816C68.0962 14.9143 59.7524 20.4184 54.7816 28.2306C49.9883 20.4184 41.467 15.0918 31.7029 14.3816C36.6737 6.74694 45.1951 1.77552 54.7816 1.77552ZM28.6849 15.9796C26.7321 19.8857 25.4894 24.502 25.4894 29.2959C25.4894 34.4449 26.9097 39.2388 29.2175 43.5C26.9097 47.7612 25.4894 52.5551 25.4894 57.7041C25.4894 62.498 26.7321 66.9367 28.6849 71.0204C14.1276 70.3102 2.41078 58.2367 2.41079 43.5C2.41079 28.7633 14.1276 16.6898 28.6849 15.9796Z" fill="#9DB1CD"/>
</svg>
