<svg width="186" height="22" viewBox="0 0 186 22" fill="none" xmlns="http://www.w3.org/2000/svg">
<path d="M32.9055 9.74956C32.9055 9.51743 32.7895 9.28529 32.5573 9.11119C32.3252 8.93708 32.035 8.76298 31.6868 8.64691C31.3386 8.53084 30.9324 8.41477 30.5261 8.29871C30.0619 8.18264 29.6556 8.00853 29.2494 7.7764C28.8431 7.60229 28.4369 7.31212 28.0887 7.07998C27.7405 6.78981 27.4503 6.44161 27.2182 5.9193C26.986 5.45502 26.87 4.87468 26.87 4.29434C26.87 3.24972 27.3342 2.26313 28.2628 1.45065C29.1913 0.638174 30.352 0.231934 31.8029 0.231934C32.3832 0.231934 32.9636 0.289968 33.4859 0.406037C34.0082 0.522105 34.4725 0.696208 34.7626 0.870311C35.1108 1.04441 35.401 1.21852 35.6331 1.39262C35.8653 1.56672 36.0394 1.74083 36.1555 1.85689L36.3296 2.031L34.2403 4.17827C34.1823 4.12023 34.0662 4.00416 33.9502 3.8881C33.8341 3.77203 33.6019 3.59792 33.1957 3.42382C32.8475 3.24972 32.4413 3.13365 32.035 3.13365C31.6288 3.13365 31.2806 3.24972 31.0484 3.48186C30.8743 3.83006 30.7583 4.12023 30.7583 4.4104C30.7583 4.64254 30.8743 4.87468 31.1065 5.04878C31.3386 5.22289 31.6288 5.39699 31.977 5.51306C32.3252 5.62913 32.7314 5.74519 33.1377 5.86126C33.5439 5.97733 34.0082 6.15143 34.4144 6.38357C34.8787 6.55768 35.2269 6.84785 35.5751 7.07998C35.9233 7.37016 36.2135 7.71836 36.4456 8.18264C36.6778 8.64691 36.7938 9.22725 36.7938 9.8076C36.7938 11.0263 36.3296 12.0129 35.343 12.8834C34.4144 13.6959 33.1377 14.1021 31.5127 14.1021C30.8743 14.1021 30.236 14.0441 29.6556 13.87C29.0753 13.6959 28.553 13.5218 28.2048 13.2897C27.7985 13.0575 27.4503 12.8254 27.1601 12.6513C26.87 12.4191 26.6378 12.245 26.5218 12.0709L26.3477 11.8388L28.3789 9.69153C28.3789 9.74956 28.4369 9.74956 28.4949 9.86563C28.553 9.92367 28.669 10.0397 28.8431 10.2138C29.0172 10.3879 29.2494 10.504 29.4235 10.6201C29.6556 10.7361 29.8877 10.8522 30.1779 10.9683C30.4681 11.0844 30.8163 11.1424 31.1065 11.1424C31.6288 11.1424 32.035 11.0263 32.3252 10.7361C32.7314 10.446 32.9055 10.0978 32.9055 9.74956Z" fill="black"/>
<path d="M45.3248 0.638672H49.1551L44.4543 9.05365V13.7544H40.9142V9.05365L36.2715 0.638672H40.1017L42.7133 5.68766L45.3248 0.638672Z" fill="black"/>
<path d="M58.5565 0.638672H62.1547V13.7544H59.0788L53.4495 6.4421V13.7544H49.9094V0.638672H52.9852L58.5565 7.951V0.638672Z" fill="black"/>
<path d="M67.9582 10.7366H74.6322V13.7544H64.3601V0.638672H74.4581V3.65646H67.9582V5.68766H73.0072V8.53134H67.9582V10.7366Z" fill="black"/>
<path d="M76.1411 13.7544V0.638672H82.2928C83.6856 0.638672 84.7882 1.04491 85.7168 1.91543C86.5873 2.78594 87.0516 3.83056 87.0516 5.10732C87.0516 5.62962 86.9935 6.0939 86.8194 6.55817C86.6453 7.02245 86.4712 7.37065 86.2391 7.66082C86.007 7.951 85.7748 8.18313 85.6007 8.35724C85.3686 8.53134 85.1945 8.70544 85.0784 8.76348L84.8463 8.87955L87.5739 13.6384H83.8597L81.5963 9.51792H79.7392V13.6384H76.1411V13.7544ZM83.1633 6.0939C83.3954 5.86176 83.5695 5.51356 83.5695 5.16535C83.5695 4.81714 83.4534 4.46894 83.1633 4.2368C82.8731 4.00466 82.5829 3.88859 82.1767 3.88859H79.7392V6.50014H82.1767C82.5249 6.4421 82.8731 6.32604 83.1633 6.0939Z" fill="black"/>
<path d="M95.4085 14.1027C93.3773 14.1027 91.6363 13.4063 90.2435 12.0715C88.8506 10.7367 88.0962 9.11174 88.0962 7.19661C88.0962 5.28148 88.7926 3.65652 90.2435 2.32173C91.6363 0.986939 93.3773 0.290527 95.4085 0.290527C96.1049 0.290527 96.8013 0.406596 97.3817 0.580699C98.0201 0.754802 98.5424 0.986939 98.9486 1.21908C99.3548 1.45121 99.703 1.74139 100.051 1.97352C100.341 2.20566 100.574 2.4378 100.69 2.6119L100.922 2.90207L98.7745 5.16541C98.7165 5.10738 98.7165 5.04934 98.6004 4.99131C98.5424 4.93327 98.4263 4.75917 98.1942 4.58507C97.962 4.41096 97.7299 4.23686 97.4977 4.06276C97.2656 3.88866 96.9754 3.77259 96.5692 3.65652C96.163 3.54045 95.8148 3.48242 95.4085 3.48242C94.3639 3.48242 93.4353 3.83062 92.7389 4.52703C92.0425 5.22344 91.6943 6.15199 91.6943 7.19661C91.6943 8.24123 92.0425 9.16978 92.7389 9.86619C93.4353 10.5626 94.3639 10.9108 95.4085 10.9108C95.8728 10.9108 96.279 10.8528 96.6272 10.6787C96.9754 10.5626 97.2656 10.3885 97.4397 10.2724L97.6719 10.0983V8.7055H95.6407V6.44217H101.27V11.4912C101.212 11.5492 101.154 11.6653 101.038 11.7813C100.922 11.8974 100.69 12.1295 100.341 12.4197C99.9932 12.7099 99.587 13 99.1807 13.2322C98.7745 13.4643 98.1942 13.6965 97.5558 13.8706C96.8013 14.0447 96.1049 14.1027 95.4085 14.1027Z" fill="black"/>
<path d="M110.439 0.638672H114.27L109.627 9.05365V13.7544H106.029V9.05365L101.386 0.638672H105.216L107.828 5.68766L110.439 0.638672Z" fill="black"/>
<path d="M112.935 13.4642C112.587 13.116 112.413 12.7678 112.413 12.2455C112.413 11.7812 112.587 11.375 112.935 11.0268C113.283 10.6786 113.689 10.5625 114.212 10.5625C114.734 10.5625 115.14 10.7366 115.488 11.0268C115.837 11.375 116.011 11.7232 116.011 12.2455C116.011 12.7098 115.837 13.116 115.488 13.4642C115.14 13.8124 114.734 13.9285 114.212 13.9285C113.689 13.9285 113.225 13.7544 112.935 13.4642Z" fill="black"/>
<path d="M119.028 11.9547C117.694 10.6779 117.055 9.05295 117.055 7.19585C117.055 5.33875 117.694 3.71379 119.028 2.43703C120.363 1.16028 121.988 0.463867 123.961 0.463867C125.934 0.463867 127.559 1.10224 128.894 2.43703C130.229 3.71379 130.867 5.33875 130.867 7.19585C130.867 9.05295 130.229 10.6779 128.894 11.9547C127.559 13.2314 125.934 13.9278 123.961 13.9278C122.046 13.9278 120.363 13.2895 119.028 11.9547ZM120.537 3.77182C119.609 4.70037 119.144 5.86106 119.144 7.19585C119.144 8.53064 119.609 9.69133 120.537 10.6199C121.466 11.5484 122.626 12.0127 123.961 12.0127C125.296 12.0127 126.457 11.5484 127.385 10.6199C128.314 9.69133 128.778 8.53064 128.778 7.19585C128.778 5.86106 128.314 4.70037 127.385 3.77182C126.515 2.78524 125.354 2.32097 123.961 2.32097C122.626 2.32097 121.466 2.78524 120.537 3.77182Z" fill="black"/>
<path d="M142.184 0.638672H144.273V13.7544H142.474L135.22 4.29483V13.7544H133.131V0.638672H134.93L142.184 10.0983V0.638672Z" fill="black"/>
<path d="M155.648 13.7544H147.233V0.638672H149.322V11.8393H155.648V13.7544Z" fill="black"/>
<path d="M159.362 0.638672H157.331V13.7544H159.362V0.638672Z" fill="black"/>
<path d="M171.433 0.638672H173.465V13.7544H171.724L164.411 4.29483V13.7544H162.38V0.638672H164.121L171.433 10.0983V0.638672Z" fill="black"/>
<path d="M178.514 11.8393H185.942V13.7544H176.482V0.638672H185.768V2.49577H178.514V5.97783H184.259V7.83493H178.514V11.8393Z" fill="black"/>
<path d="M13.0577 17.2362L6.73198 10.9685L13.0577 4.58471V9.16942L11.2587 10.9685L12.9997 12.7095V17.2362H13.0577ZM21.8789 21.8789H0V0H21.8789V21.8789ZM17.8746 4.00437H3.94633V17.9326H17.8746V4.00437Z" fill="black"/>
<path d="M27.3923 16.3657H29.3655C30.1199 16.3657 30.7583 16.5979 31.2806 17.1202C31.8029 17.6425 32.0351 18.2228 32.0351 18.9773C32.0351 19.7317 31.8029 20.3121 31.2806 20.8344C30.7583 21.3567 30.1199 21.5888 29.3655 21.5888H27.3923V16.3657ZM29.3655 17.4103H28.553V20.6603H29.3655C29.7717 20.6603 30.178 20.4862 30.4682 20.196C30.7583 19.9058 30.9324 19.4996 30.9324 19.0353C30.9324 18.571 30.7583 18.2228 30.4682 17.8746C30.178 17.5844 29.7717 17.4103 29.3655 17.4103Z" fill="black"/>
<path d="M39.9276 16.3657H38.825V21.5888H39.9276V16.3657Z" fill="black"/>
<path d="M49.7936 18.8031H51.8828V20.7763C51.8828 20.7763 51.8248 20.8343 51.7668 20.8923C51.7087 20.9504 51.6507 21.0084 51.4766 21.1245C51.3025 21.2405 51.1864 21.3566 51.0123 21.4146C50.8382 21.5307 50.6641 21.5887 50.3739 21.6468C50.0838 21.7048 49.8516 21.7628 49.5615 21.7628C48.749 21.7628 48.1106 21.4727 47.5303 20.9504C47.0079 20.4281 46.7178 19.7897 46.7178 19.0352C46.7178 18.2808 47.0079 17.6424 47.5303 17.1201C48.0526 16.5978 48.749 16.3076 49.5615 16.3076C49.8516 16.3076 50.0838 16.3657 50.3739 16.4237C50.6061 16.4817 50.8382 16.5978 51.0123 16.7139C51.1864 16.8299 51.3025 16.946 51.4186 17.004C51.5346 17.1201 51.6507 17.1781 51.7087 17.2362L51.7668 17.3522L51.0703 18.0486L51.0123 17.9906C51.0123 17.9326 50.9543 17.8745 50.8382 17.8165C50.7221 17.7585 50.6641 17.6424 50.548 17.5844C50.432 17.5263 50.3159 17.4683 50.1418 17.4103C49.9677 17.3522 49.7936 17.3522 49.6195 17.3522C49.1552 17.3522 48.6909 17.5263 48.4008 17.8745C48.0526 18.2227 47.8785 18.629 47.8785 19.0933C47.8785 19.5575 48.0526 20.0218 48.4008 20.312C48.749 20.6602 49.1552 20.8343 49.6195 20.8343C49.8516 20.8343 50.0838 20.7763 50.2579 20.7182C50.432 20.6602 50.6061 20.6022 50.6641 20.4861L50.7802 20.37V19.6736H49.8516V18.8031H49.7936Z" fill="black"/>
<path d="M59.8915 16.3657H58.7888V21.5888H59.8915V16.3657Z" fill="black"/>
<path d="M66.3914 16.3657H70.5118V17.4103H69.0029V21.6468H67.9002V17.4103H66.3914V16.3657Z" fill="black"/>
<path d="M79.6231 20.3701H77.5919L77.1277 21.5888H75.9089L77.9982 16.3657H79.2169L81.3061 21.5888H80.0874L79.6231 20.3701ZM79.2749 19.4415L78.6365 17.7005L77.9982 19.4415H79.2749Z" fill="black"/>
<path d="M91.2881 21.6468H87.6899V16.3657H88.8506V20.6022H91.2881V21.6468Z" fill="black"/>
<path d="M105.042 16.3657H107.247C107.77 16.3657 108.234 16.5398 108.582 16.888C108.93 17.2362 109.104 17.6425 109.104 18.1648C109.104 18.6871 108.93 19.0933 108.582 19.4415C108.234 19.7897 107.77 19.9639 107.247 19.9639H106.203V21.7049H105.042V16.3657ZM107.247 17.4103H106.203V18.9192H107.247C107.479 18.9192 107.654 18.8612 107.828 18.6871C108.002 18.571 108.06 18.3389 108.06 18.1648C108.06 17.9907 108.002 17.7585 107.828 17.6425C107.654 17.4684 107.479 17.4103 107.247 17.4103Z" fill="black"/>
<path d="M119.319 21.6468H115.779V16.3657H116.881V20.6022H119.319V21.6468Z" fill="black"/>
<path d="M129.184 20.3701H127.153L126.689 21.5888H125.47L127.559 16.3657H128.778L130.867 21.5888H129.649L129.184 20.3701ZM128.836 19.4415L128.198 17.7005L127.559 19.4415H128.836Z" fill="black"/>
<path d="M136.265 16.3657H140.385V17.4103H138.876V21.6468H137.774V17.4103H136.265V16.3657Z" fill="black"/>
<path d="M146.885 16.3657H150.715V17.4103H147.987V18.571H150.135V19.5576H147.987V21.6468H146.885V16.3657Z" fill="black"/>
<path d="M157.737 20.9504C157.215 20.4281 156.925 19.7897 156.925 19.0352C156.925 18.2808 157.215 17.6424 157.737 17.1201C158.26 16.5978 158.956 16.3076 159.768 16.3076C160.581 16.3076 161.219 16.5978 161.8 17.1201C162.322 17.6424 162.612 18.2808 162.612 19.0352C162.612 19.7897 162.322 20.4281 161.8 20.9504C161.277 21.4727 160.581 21.7628 159.768 21.7628C158.956 21.7628 158.26 21.4727 157.737 20.9504ZM158.55 17.7585C158.202 18.1067 158.085 18.5129 158.085 18.9772C158.085 19.4415 158.26 19.8477 158.55 20.1959C158.898 20.5441 159.304 20.7182 159.768 20.7182C160.233 20.7182 160.639 20.5441 160.987 20.1959C161.335 19.8477 161.451 19.4415 161.451 18.9772C161.451 18.5129 161.277 18.1067 160.987 17.7585C160.639 17.4103 160.291 17.2362 159.768 17.2362C159.246 17.2942 158.898 17.4683 158.55 17.7585Z" fill="black"/>
<path d="M169.344 21.6464V16.4233H171.666C172.188 16.4233 172.594 16.5974 172.942 16.9456C173.291 17.2939 173.465 17.7001 173.465 18.1644C173.465 18.3965 173.407 18.5706 173.349 18.7447C173.291 18.9188 173.233 19.0929 173.116 19.209C173 19.3251 172.942 19.4411 172.826 19.4992C172.71 19.5572 172.652 19.6152 172.594 19.6733L172.478 19.7313L173.581 21.7045H172.362L171.375 19.8474H170.389V21.7045H169.344V21.6464ZM172.362 18.1063C172.362 17.8742 172.304 17.7581 172.13 17.584C172.014 17.468 171.84 17.4099 171.608 17.4099H170.447V18.8027H171.608C171.84 18.8027 171.956 18.7447 172.13 18.6286C172.304 18.4545 172.362 18.2804 172.362 18.1063Z" fill="black"/>
<path d="M183.156 18.6871L184.955 16.3657H186V21.6468H184.839V18.1648L183.156 20.3121L181.473 18.1648V21.6468H180.371V16.3657H181.357L183.156 18.6871Z" fill="black"/>
</svg>
