<svg width="222" height="25" viewBox="0 0 222 25" fill="none" xmlns="http://www.w3.org/2000/svg">
<path d="M142.591 0.256592H141.693V24.4386H142.591V0.256592Z" fill="black"/>
<path d="M36.4976 3.78508L38.3577 0.321341C38.6784 0.257197 38.9992 0.257197 39.4482 0.257197C39.8972 0.257197 40.2179 0.257197 40.5386 0.321341L35.9203 8.46754C35.5996 8.53168 35.2788 8.53168 34.8298 8.53168C34.3808 8.53168 34.0601 8.53168 33.7394 8.46754L35.4071 5.51695L32.4565 0.257197C32.7773 0.193054 33.098 0.193054 33.547 0.193054C33.996 0.193054 34.3167 0.193054 34.6374 0.257197L36.4976 3.78508Z" fill="black"/>
<path d="M48.4922 3.52786V0.320698C49.1336 0.192411 49.8392 0.192411 50.5448 0.320698V8.53104C49.9034 8.65932 49.1978 8.65932 48.4922 8.53104V5.19559H45.0926V8.53104C44.4512 8.65932 43.7456 8.65932 43.04 8.53104V0.256554C43.6815 0.128268 44.387 0.128268 45.0926 0.256554V3.46372H48.4922V3.52786Z" fill="black"/>
<path d="M60.936 8.46689C60.2946 8.59518 59.589 8.59518 58.8835 8.46689V3.65615L55.0349 8.46689C54.5217 8.53104 54.0086 8.53104 53.4313 8.46689V0.256554C54.0727 0.128268 54.7783 0.128268 55.4839 0.256554V5.13144L59.3325 0.320698C59.8456 0.256554 60.3587 0.256554 60.936 0.320698V8.46689Z" fill="black"/>
<path d="M63.8867 0.256592H67.4145C68.1843 0.256592 68.8257 0.449022 69.3388 0.833881C69.852 1.21874 70.1086 1.73189 70.1086 2.37332C70.1086 3.20718 69.7237 3.78447 68.954 4.16933C69.7237 4.55419 70.2368 5.19562 70.2368 6.09363C70.2368 7.56892 69.1464 8.40279 67.4145 8.40279H63.8225V0.256592H63.8867ZM65.9392 1.98846V3.65618H67.2221C67.7353 3.65618 68.1201 3.33547 68.1201 2.82232C68.1201 2.24503 67.7994 1.98846 67.2221 1.98846H65.9392ZM65.9392 5.06734V6.79921H67.3504C67.9277 6.79921 68.2484 6.47849 68.2484 5.9012C68.2484 5.32391 67.9277 5.06734 67.2862 5.06734H65.9392Z" fill="black"/>
<path d="M74.9194 6.79921H78.6397C78.7679 7.3765 78.7679 7.88964 78.6397 8.46693H72.9309V0.256592H78.6397C78.7679 0.833881 78.7679 1.41117 78.6397 1.92432H74.9194V3.46376H78.1907C78.3189 4.04104 78.3189 4.61833 78.1907 5.13148H74.9194V6.79921Z" fill="black"/>
<path d="M81.2695 0.256592H84.4766C85.3746 0.256592 86.1444 0.513165 86.7216 1.02631C87.2989 1.53946 87.5555 2.18089 87.5555 3.01475C87.5555 3.84862 87.2348 4.49005 86.7216 5.00319C86.1444 5.51634 85.4388 5.77291 84.4766 5.77291H83.2579V8.46693C82.6165 8.59522 81.9109 8.59522 81.2053 8.46693V0.256592H81.2695ZM83.2579 4.10519H84.4766C85.0539 4.10519 85.5029 3.72033 85.5029 3.01475C85.5029 2.30918 85.0539 1.92432 84.4766 1.92432H83.2579V4.10519Z" fill="black"/>
<path d="M97.1129 6.22191C97.177 6.35019 97.2412 6.60677 97.177 7.11991C97.177 7.63306 97.1129 7.95378 97.1129 8.08206C96.4073 8.46692 95.5734 8.72349 94.6113 8.72349C93.2001 8.72349 92.1097 8.33863 91.2117 7.50477C90.3778 6.67091 89.9288 5.64462 89.9288 4.4259C89.9288 3.20717 90.3778 2.18088 91.2117 1.34702C92.0456 0.513155 93.2001 0.128296 94.6113 0.128296C95.5734 0.128296 96.4073 0.320726 97.1129 0.769729C97.177 0.898015 97.177 1.21873 97.177 1.73188C97.177 2.24502 97.177 2.5016 97.1129 2.62988C96.279 2.11674 95.4452 1.86016 94.7396 1.86016C93.9699 1.86016 93.3284 2.11674 92.8153 2.56574C92.3021 3.01474 92.0456 3.65618 92.0456 4.49004C92.0456 5.25976 92.3021 5.90119 92.8153 6.41434C93.3284 6.86334 93.9699 7.11991 94.7396 7.11991C95.5093 6.99163 96.279 6.73505 97.1129 6.22191Z" fill="black"/>
<path d="M107.568 8.46689C106.927 8.59518 106.221 8.59518 105.516 8.46689V3.65615L101.667 8.46689C101.154 8.53104 100.641 8.53104 100.064 8.46689V0.256554C100.705 0.128268 101.411 0.128268 102.116 0.256554V5.13144L105.965 0.320698C106.478 0.256554 106.991 0.256554 107.568 0.320698V8.46689Z" fill="black"/>
<path d="M116.677 0.256592C116.805 0.833881 116.805 1.41117 116.677 1.92432H114.432V8.46693C113.79 8.59522 113.085 8.59522 112.379 8.46693V1.98846H110.134C110.006 1.41117 110.006 0.833881 110.134 0.320735H116.677V0.256592Z" fill="black"/>
<path d="M121.295 6.79921H125.015C125.144 7.3765 125.144 7.88964 125.015 8.46693H119.307V0.256592H125.015C125.144 0.833881 125.144 1.41117 125.015 1.92432H121.295V3.46376H124.566C124.695 4.04104 124.695 4.61833 124.566 5.13148H121.295V6.79921Z" fill="black"/>
<path d="M133.739 0.256592C133.867 0.833881 133.867 1.41117 133.739 1.92432H131.494V8.46693C130.852 8.59522 130.147 8.59522 129.441 8.46693V1.98846H127.196C127.068 1.41117 127.068 0.833881 127.196 0.320735H133.739V0.256592Z" fill="black"/>
<path d="M43.2327 20.9749C43.361 21.1031 43.361 21.6163 43.361 22.386C43.361 23.1557 43.2969 23.6689 43.2327 23.8613C42.1423 24.5027 40.8594 24.8235 39.32 24.8235C37.1391 24.8235 35.3431 24.182 34.0602 22.8992C32.7132 21.6163 32.0718 20.0127 32.0718 18.0884C32.0718 16.1641 32.7132 14.5605 34.0602 13.2777C35.4072 11.9948 37.1391 11.3534 39.32 11.3534C40.8594 11.3534 42.1423 11.6741 43.2327 12.3155C43.2969 12.5079 43.361 13.0211 43.361 13.7908C43.361 14.5605 43.2969 15.0095 43.2327 15.202C41.8857 14.3681 40.667 13.9832 39.5124 13.9832C38.2937 13.9832 37.3315 14.3681 36.4977 15.1378C35.6638 15.8434 35.2789 16.8697 35.2789 18.0884C35.2789 19.3071 35.6638 20.3334 36.4977 21.1031C37.3315 21.8087 38.2937 22.1936 39.5124 22.1936C40.667 22.1936 41.9498 21.7446 43.2327 20.9749Z" fill="black"/>
<path d="M57.6647 24.5028C56.6384 24.6952 55.5479 24.6952 54.5217 24.5028V16.998L48.4922 24.5669C47.6583 24.6952 46.8245 24.6952 45.9906 24.5669V11.6741C47.0169 11.4817 48.1073 11.4817 49.1336 11.6741V19.243L55.1631 11.6741C55.997 11.5458 56.8308 11.5458 57.6647 11.6741V24.5028Z" fill="black"/>
<path d="M68.8896 16.6773V11.61C69.9159 11.4176 71.0064 11.4176 72.0327 11.61V24.5028C71.0064 24.6952 69.9159 24.6952 68.8896 24.5028V19.3072H63.5657V24.5028C62.5395 24.6952 61.449 24.6952 60.4227 24.5028V11.6741C61.449 11.4817 62.5395 11.4817 63.5657 11.6741V16.6773H68.8896Z" fill="black"/>
<path d="M77.9983 21.8729H83.7712C83.8995 22.7709 83.8995 23.6048 83.7712 24.5028H74.7911V11.6742H83.7712C83.8995 12.5722 83.8995 13.406 83.7712 14.304H77.9983V16.6773H83.1298C83.2581 17.5753 83.2581 18.4092 83.1298 19.3072H77.9983V21.8729Z" fill="black"/>
<path d="M86.016 11.6742H91.0833C92.5586 11.6742 93.7132 12.059 94.6112 12.8929C95.5092 13.6626 95.9582 14.753 95.9582 16.0359C95.9582 17.3188 95.5092 18.3451 94.6112 19.1789C93.7132 19.9486 92.5586 20.3976 91.0833 20.3976H89.159V24.6311C88.1327 24.8235 87.0423 24.8235 86.016 24.6311V11.6742ZM89.159 17.6395H91.0192C91.9813 17.6395 92.6227 17.0622 92.6227 15.9718C92.6227 14.8813 91.9172 14.304 91.0192 14.304H89.159V17.6395Z" fill="black"/>
<path d="M98.2034 11.6742H106.67C106.799 12.5722 106.799 13.406 106.67 14.304H101.346V24.567C100.32 24.7594 99.2297 24.7594 98.2034 24.567V11.6742Z" fill="black"/>
<path d="M120.397 24.5028C119.371 24.6952 118.28 24.6952 117.254 24.5028V16.998L111.224 24.5669C110.39 24.6952 109.557 24.6952 108.723 24.5669V11.6741C109.749 11.4817 110.84 11.4817 111.866 11.6741V19.243L117.895 11.6741C118.729 11.5458 119.563 11.5458 120.397 11.6741V24.5028Z" fill="black"/>
<path d="M133.033 11.6742V24.567C132.007 24.7594 130.917 24.7594 129.89 24.567V20.2052H128.672L125.849 24.567C125.4 24.6311 124.823 24.6952 124.117 24.6952C123.412 24.6952 122.899 24.6311 122.386 24.567L125.529 19.7562C123.989 19.0506 123.091 17.7036 123.091 15.9718C123.091 14.6889 123.54 13.6626 124.374 12.8929C125.272 12.1232 126.427 11.6742 127.838 11.6742H133.033ZM129.826 14.304H127.838C126.876 14.304 126.234 14.8813 126.234 15.9076C126.234 16.9339 126.94 17.5112 127.838 17.5112H129.826V14.304Z" fill="black"/>
<path d="M162.539 9.10973V0.257958C163.052 0.129672 163.63 0.129672 164.143 0.257958V10.5209H151.25V0.257958C151.827 0.129672 152.34 0.129672 152.854 0.257958V9.17387H156.895V0.257958C157.408 0.129672 157.921 0.129672 158.498 0.257958V9.17387H162.539V9.10973Z" fill="black"/>
<path d="M170.108 5.19558L175.047 10.4553C174.855 10.5195 174.47 10.5195 174.085 10.5195C173.7 10.5195 173.315 10.5195 173.123 10.4553L168.44 5.45216V10.4553C167.927 10.5836 167.414 10.5836 166.837 10.4553V0.192406C167.414 0.0641198 167.927 0.0641198 168.44 0.192406V4.87487L172.93 0.192406C173.187 0.128263 173.508 0.128263 173.892 0.128263C174.341 0.128263 174.662 0.128263 174.855 0.192406L170.108 5.19558Z" fill="black"/>
<path d="M181.269 0C182.872 0 184.155 0.513146 185.117 1.53944C186.208 2.56573 186.657 3.8486 186.657 5.38803C186.657 6.86333 186.144 8.1462 185.117 9.17249C184.091 10.1988 182.808 10.7119 181.269 10.7119C179.665 10.7119 178.382 10.1988 177.42 9.17249C176.394 8.1462 175.881 6.86333 175.881 5.38803C175.881 3.91274 176.394 2.62987 177.42 1.60358C178.447 0.513146 179.729 0 181.269 0ZM181.269 1.34701C180.178 1.34701 179.28 1.73187 178.575 2.50159C177.869 3.27131 177.484 4.23346 177.484 5.38803C177.484 6.54261 177.869 7.50476 178.575 8.27448C179.28 9.0442 180.178 9.36492 181.269 9.36492C182.359 9.36492 183.257 8.98006 183.963 8.27448C184.668 7.50476 185.053 6.54261 185.053 5.38803C185.053 4.23346 184.668 3.27131 183.963 2.50159C183.257 1.73187 182.359 1.34701 181.269 1.34701Z" fill="black"/>
<path d="M197.305 0.256592V10.5195C196.728 10.6478 196.214 10.6478 195.701 10.5195V1.6036H191.917L191.275 7.63307C191.083 9.68565 190.249 10.7119 188.581 10.7119C188.261 10.7119 188.004 10.7119 187.747 10.5837C187.683 10.1347 187.683 9.68565 187.747 9.23665C187.876 9.23665 188.004 9.30079 188.132 9.30079C189.03 9.30079 189.543 8.78765 189.672 7.50478L190.441 0.256592H197.305Z" fill="black"/>
<path d="M208.979 10.4553C208.401 10.5836 207.888 10.5836 207.311 10.4553L206.285 7.88959H201.795L200.768 10.4553C200.191 10.5836 199.678 10.5836 199.101 10.4553L203.334 0.192395C203.783 0.128251 204.232 0.128251 204.681 0.192395L208.979 10.4553ZM202.308 6.54258H205.772L204.04 2.30912L202.308 6.54258Z" fill="black"/>
<path d="M152.853 18.0243H155.034C156.189 18.0243 157.087 18.345 157.792 18.9223C158.498 19.5637 158.819 20.2693 158.819 21.2314C158.819 22.1294 158.498 22.8991 157.792 23.5406C157.087 24.182 156.189 24.4386 155.034 24.4386H151.25V14.1757H157.857C157.921 14.6247 157.921 15.0737 157.857 15.5227H152.853V18.0243ZM152.853 23.0916H155.034C156.381 23.0916 157.151 22.3219 157.151 21.2314C157.151 20.141 156.381 19.3713 155.034 19.3713H152.853V23.0916Z" fill="black"/>
<path d="M169.723 24.4386C169.21 24.5669 168.697 24.5669 168.12 24.4386V16.9338L162.218 24.5028C161.769 24.5669 161.32 24.5669 160.936 24.5028V14.2398C161.513 14.1115 162.026 14.1115 162.539 14.2398V21.8087L168.504 14.2398C168.953 14.1757 169.338 14.1757 169.787 14.2398V24.4386H169.723Z" fill="black"/>
<path d="M179.345 21.7446C179.345 22.6426 179.024 23.4123 178.318 23.9255C177.613 24.4386 176.715 24.7593 175.56 24.7593C174.277 24.7593 173.123 24.4386 172.225 23.8613C172.161 23.733 172.161 23.4765 172.161 23.0916C172.161 22.7067 172.161 22.4502 172.225 22.3219C173.187 23.0274 174.277 23.3482 175.496 23.3482C176.779 23.3482 177.741 22.6426 177.741 21.5522C177.741 20.59 177.1 19.8844 175.817 19.8844H174.085C173.957 19.4354 173.957 19.0506 174.085 18.6016H175.753C176.779 18.6016 177.42 17.896 177.42 16.998C177.42 16.0358 176.715 15.3303 175.496 15.3303C174.406 15.3303 173.379 15.651 172.353 16.3565C172.289 16.2924 172.289 16.0358 172.289 15.651C172.289 15.2661 172.353 15.0095 172.353 14.8813C173.251 14.304 174.277 13.9832 175.56 13.9832C176.587 13.9832 177.485 14.2398 178.062 14.753C178.703 15.2661 179.024 15.9075 179.024 16.7414C179.024 17.8318 178.447 18.7298 177.485 19.1789C178.703 19.5637 179.345 20.5259 179.345 21.7446Z" fill="black"/>
<path d="M188.517 18.5374V14.1757C189.03 14.0474 189.543 14.0474 190.121 14.1757V24.4386C189.543 24.5669 189.03 24.5669 188.517 24.4386V19.8844H182.873V24.4386C182.359 24.5669 181.846 24.5669 181.269 24.4386V14.1757C181.846 14.0474 182.359 14.0474 182.873 14.1757V18.5374H188.517Z" fill="black"/>
<path d="M194.354 23.0916H199.742C199.871 23.5406 199.871 23.9896 199.742 24.4386H192.751V14.1757H199.742C199.871 14.6247 199.871 15.0737 199.742 15.5227H194.354V18.5374H199.229C199.293 18.9864 199.293 19.4354 199.229 19.8844H194.354V23.0916Z" fill="black"/>
<path d="M210.262 22.3219C210.326 22.386 210.326 22.6426 210.326 23.0275C210.326 23.4123 210.326 23.6689 210.262 23.7972C209.364 24.3745 208.273 24.6952 206.926 24.6952C205.258 24.6952 203.911 24.182 202.885 23.1557C201.859 22.1294 201.346 20.8466 201.346 19.3713C201.346 17.896 201.859 16.6131 202.885 15.5868C203.911 14.5605 205.258 14.0474 206.926 14.0474C208.209 14.0474 209.364 14.3681 210.262 14.9454C210.326 15.0737 210.326 15.3303 210.326 15.7151C210.326 16.1 210.326 16.3566 210.262 16.4207C209.235 15.7151 208.145 15.3944 207.054 15.3944C205.9 15.3944 204.938 15.7793 204.168 16.549C203.398 17.3187 203.013 18.2808 203.013 19.4354C203.013 20.59 203.398 21.5522 204.168 22.3219C204.938 23.0916 205.9 23.4123 207.054 23.4123C208.145 23.3482 209.235 22.9633 210.262 22.3219Z" fill="black"/>
<path d="M222 24.4386C221.423 24.5669 220.91 24.5669 220.332 24.4386L219.306 21.8729H214.816L213.79 24.4386C213.212 24.5669 212.699 24.5669 212.122 24.4386L216.355 14.1757C216.804 14.1115 217.253 14.1115 217.702 14.1757L222 24.4386ZM215.329 20.5259H218.793L217.061 16.2924L215.329 20.5259Z" fill="black"/>
<path d="M0 0.194092V24.4403H24.2462V0.194092H0ZM21.1673 21.4255H3.01473V3.27297H21.1673V21.4255ZM15.0737 20.3992L6.99162 12.3172L15.0737 4.29926V8.59686L11.2892 12.3813L15.0737 16.1658V20.3992Z" fill="black"/>
</svg>
