<svg width="153" height="152" viewBox="0 0 153 152" fill="none" xmlns="http://www.w3.org/2000/svg">
<path d="M152.635 61.0492C152.635 44.2745 139.297 30.5922 122.674 29.9618C122.043 13.3386 108.361 0 91.5863 0C86.1706 0 81.0767 1.39464 76.6355 3.83555C72.1943 1.39464 67.1004 0 61.6847 0C44.91 0 31.2277 13.3386 30.5973 29.9618C13.9741 30.5922 0.635498 44.2745 0.635498 61.0492C0.635498 66.4649 2.03014 71.5588 4.47105 76C2.03014 80.4412 0.635498 85.5351 0.635498 90.9508C0.635498 107.725 13.9741 121.408 30.5973 122.038C31.2277 138.661 44.91 152 61.6847 152C67.1004 152 72.1943 150.605 76.6355 148.164C81.0767 150.605 86.1706 152 91.5863 152C108.361 152 122.043 138.661 122.674 122.038C139.297 121.408 152.635 107.725 152.635 90.9508C152.635 85.5351 151.241 80.4412 148.8 76C151.241 71.5588 152.635 66.4649 152.635 61.0492ZM150.144 61.0492C150.144 65.51 149.09 69.7193 147.264 73.4875C141.865 65.5444 132.888 60.2508 122.674 59.8634C122.485 54.8932 121.159 50.2113 118.898 46.0984C121.141 42.0187 122.462 37.3787 122.668 32.4533C137.92 33.0788 150.144 45.6465 150.144 61.0492ZM122.668 89.6451C122.462 84.7197 121.141 80.0797 118.898 76C121.141 71.9203 122.462 67.2803 122.668 62.3549C132.491 62.7577 141.036 68.1121 145.888 76C141.036 83.8879 132.491 89.2423 122.668 89.6451ZM106.537 115.351C98.6849 110.521 93.3442 102.031 92.8987 92.2632C102.666 92.7087 111.156 98.0494 115.986 105.902C113.621 109.747 110.383 112.985 106.537 115.351ZM117.362 108.414C119.007 111.808 119.994 115.566 120.176 119.54C116.202 119.359 112.444 118.371 109.05 116.726C112.317 114.506 115.141 111.681 117.362 108.414ZM37.285 105.902C42.1147 98.0494 50.6048 92.7087 60.3723 92.2632C59.9268 102.031 54.5861 110.521 46.7339 115.351C42.8885 112.985 39.6501 109.747 37.285 105.902ZM44.2214 116.726C40.8274 118.371 37.0693 119.359 33.0955 119.54C33.2767 115.566 34.2643 111.808 35.9091 108.414C38.1299 111.681 40.954 114.506 44.2214 116.726ZM7.38332 76C12.2349 68.1121 20.7801 62.7577 30.6032 62.3549C30.8089 67.2803 32.1304 71.9203 34.3727 76C32.1304 80.0797 30.8089 84.7197 30.6032 89.6451C20.7801 89.2423 12.2349 83.8879 7.38332 76ZM46.7339 36.6495C54.5861 41.4792 59.9268 49.9693 60.3723 59.7368C50.6048 59.2913 42.1147 53.9506 37.285 46.0984C39.6501 42.253 42.8885 39.0146 46.7339 36.6495ZM35.9091 43.5859C34.2643 40.1919 33.2767 36.4338 33.0955 32.46C37.0693 32.6412 40.8274 33.6288 44.2214 35.2736C40.954 37.4944 38.1299 40.3185 35.9091 43.5859ZM115.986 46.0984C111.156 53.9506 102.666 59.2913 92.8987 59.7368C93.3442 49.9693 98.6849 41.4792 106.537 36.6495C110.383 39.0146 113.621 42.253 115.986 46.0984ZM109.05 35.2736C112.444 33.6288 116.202 32.6412 120.176 32.46C119.994 36.4338 119.007 40.1919 117.362 43.5859C115.141 40.3185 112.317 37.4944 109.05 35.2736ZM90.3404 119.543C86.342 119.37 82.5609 118.38 79.148 116.726C84.0653 113.384 87.979 108.674 90.3404 103.147V119.543ZM62.9306 32.4566C66.929 32.6298 70.7101 33.6196 74.123 35.2736C69.2057 38.6158 65.292 43.326 62.9306 48.8533V32.4566ZM62.9306 62.2951H90.3404V89.7049H62.9306V62.2951ZM90.3404 48.8533C87.979 43.326 84.0653 38.6158 79.148 35.2736C82.5609 33.6196 86.342 32.6298 90.3404 32.4566V48.8533ZM90.2773 59.8033H62.9937C63.418 50.008 68.7654 41.4902 76.6355 36.6495C84.5056 41.4902 89.853 50.008 90.2773 59.8033ZM60.4388 62.3582V89.6418C50.6435 89.2175 42.1257 83.8701 37.285 76C42.1257 68.1299 50.6435 62.7825 60.4388 62.3582ZM35.9091 73.4875C34.2551 70.0746 33.2653 66.2935 33.0921 62.2951H49.4888C43.9615 64.6565 39.2513 68.5702 35.9091 73.4875ZM49.4888 89.7049H33.0921C33.2653 85.7065 34.2551 81.9254 35.9091 78.5125C39.2513 83.4298 43.9615 87.3435 49.4888 89.7049ZM62.9306 103.147C65.292 108.674 69.2057 113.384 74.123 116.726C70.7101 118.38 66.929 119.37 62.9306 119.543V103.147ZM62.9937 92.1967H90.2773C89.853 101.992 84.5056 110.51 76.6355 115.351C68.7654 110.51 63.418 101.992 62.9937 92.1967ZM92.8322 89.6418V62.3582C102.627 62.7825 111.145 68.1299 115.986 76C111.145 83.8701 102.627 89.2175 92.8322 89.6418ZM117.362 78.5125C119.016 81.9254 120.006 85.7065 120.179 89.7049H103.782C109.309 87.3435 114.02 83.4298 117.362 78.5125ZM103.782 62.2951H120.179C120.006 66.2935 119.016 70.0746 117.362 73.4875C114.02 68.5702 109.309 64.6565 103.782 62.2951ZM103.782 59.8033C109.309 57.4419 114.02 53.5281 117.362 48.6108C119.016 52.0238 120.006 55.8049 120.179 59.8033H103.782ZM92.8322 48.8533V32.4566C96.8306 32.6298 100.612 33.6196 104.025 35.2736C99.1074 38.6158 95.1936 43.326 92.8322 48.8533ZM76.6355 33.7372C72.5558 31.4949 67.9158 30.1734 62.9904 29.9677C63.3932 20.1446 68.7476 11.5994 76.6355 6.74782C84.5234 11.5994 89.8778 20.1446 90.2806 29.9677C85.3552 30.1734 80.7152 31.4949 76.6355 33.7372ZM60.4388 48.8533C58.0774 43.326 54.1636 38.6158 49.2463 35.2736C52.6593 33.6196 56.4404 32.6298 60.4388 32.4566V48.8533ZM49.4888 59.8033H33.0921C33.2653 55.8049 34.2551 52.0238 35.9091 48.6108C39.2513 53.5281 43.9615 57.4419 49.4888 59.8033ZM49.4888 92.1967C43.9615 94.5581 39.2513 98.4719 35.9091 103.389C34.2551 99.9762 33.2653 96.1951 33.0921 92.1967H49.4888ZM60.4388 103.147V119.543C56.4404 119.37 52.6593 118.38 49.2463 116.726C54.1636 113.384 58.0774 108.674 60.4388 103.147ZM76.6355 118.263C80.7152 120.505 85.3552 121.827 90.2806 122.032C89.8778 131.855 84.5234 140.401 76.6355 145.252C68.7476 140.401 63.3932 131.855 62.9904 122.032C67.9158 121.827 72.5558 120.505 76.6355 118.263ZM92.8322 103.147C95.1936 108.674 99.1074 113.384 104.025 116.726C100.612 118.38 96.8306 119.37 92.8322 119.543V103.147ZM103.782 92.1967H120.179C120.006 96.1951 119.016 99.9762 117.362 103.389C114.02 98.4719 109.309 94.5581 103.782 92.1967ZM91.5863 2.4918C106.989 2.4918 119.557 14.7159 120.182 29.9677C115.257 30.1734 110.617 31.4949 106.537 33.7372C102.424 31.4767 97.7423 30.1503 92.7721 29.9618C92.3847 19.7479 87.0911 10.7707 79.148 5.37194C82.9162 3.54577 87.1255 2.4918 91.5863 2.4918ZM61.6847 2.4918C66.1455 2.4918 70.3548 3.54577 74.123 5.37194C66.1799 10.7707 60.8863 19.7479 60.4989 29.9618C55.5287 30.1503 50.8468 31.4767 46.7339 33.7372C42.6542 31.4949 38.0142 30.1734 33.0888 29.9677C33.7142 14.7159 46.282 2.4918 61.6847 2.4918ZM3.1273 61.0492C3.1273 45.6465 15.3514 33.0788 30.6032 32.4533C30.8089 37.3787 32.1304 42.0187 34.3727 46.0984C32.1122 50.2113 30.7858 54.8932 30.5973 59.8634C20.3834 60.2508 11.4062 65.5444 6.00743 73.4875C4.18127 69.7193 3.1273 65.51 3.1273 61.0492ZM3.1273 90.9508C3.1273 86.49 4.18127 82.2807 6.00743 78.5125C11.4062 86.4556 20.3834 91.7492 30.5973 92.1366C30.7858 97.1068 32.1122 101.789 34.3727 105.902C32.1304 109.981 30.8089 114.621 30.6032 119.547C15.3514 118.921 3.1273 106.354 3.1273 90.9508ZM61.6847 149.508C46.282 149.508 33.7142 137.284 33.0888 122.032C38.0142 121.827 42.6542 120.505 46.7339 118.263C50.8468 120.523 55.5287 121.85 60.4989 122.038C60.8863 132.252 66.1799 141.229 74.123 146.628C70.3548 148.454 66.1455 149.508 61.6847 149.508ZM91.5863 149.508C87.1255 149.508 82.9162 148.454 79.148 146.628C87.0911 141.229 92.3847 132.252 92.7721 122.038C97.7423 121.85 102.424 120.523 106.537 118.263C110.617 120.505 115.257 121.827 120.182 122.032C119.557 137.284 106.989 149.508 91.5863 149.508ZM150.144 90.9508C150.144 106.354 137.92 118.921 122.668 119.547C122.462 114.621 121.141 109.981 118.898 105.902C121.159 101.789 122.485 97.1068 122.674 92.1366C132.888 91.7492 141.865 86.4556 147.264 78.5125C149.09 82.2807 150.144 86.49 150.144 90.9508Z" fill="#9DB1CD"/>
</svg>
