<svg width="170" height="170" viewBox="0 0 170 170" fill="none" xmlns="http://www.w3.org/2000/svg">
<path d="M170 84.9995L141.874 28.7476L141.665 28.3329L141.251 28.1255L84.9995 0L28.7476 28.1255L28.3329 28.3329L28.1255 28.7476L0 84.9995L28.1255 141.251L28.3329 141.665L28.7479 141.873L28.7476 141.874L84.9995 170L141.251 141.874L141.665 141.665L141.873 141.25L141.874 141.251L170 84.9995ZM137.272 30.7604L90.0761 77.9564L113.673 30.7604H137.272ZM113.673 139.239L90.076 92.0426L137.272 139.239H113.673ZM32.727 139.239L79.9229 92.0428L56.3253 139.239H32.727ZM56.3249 30.7604L79.9228 77.9562L32.727 30.7604H56.3249ZM83.6088 30.7604V79.1079L59.435 30.7604H83.6088ZM60.5419 27.9789L83.6088 4.91199V27.9789H60.5419ZM139.239 86.3903V110.565L90.891 86.3903H139.239ZM90.8911 83.6088L139.239 59.4346V83.6088H90.8911ZM142.02 86.3903H165.087L142.02 109.457V86.3903ZM142.02 83.6088V60.5428L165.087 83.6088H142.02ZM92.0428 79.9229L139.239 32.727V56.3253L92.0428 79.9229ZM77.9562 79.9228L30.7604 56.3249V32.727L77.9562 79.9228ZM27.9789 83.6088H4.91199L27.9789 60.5419V83.6088ZM30.7604 59.435L79.1079 83.6088H30.7604V59.435ZM79.1081 86.3903L30.7604 110.565V86.3903H79.1081ZM83.6088 90.8911V139.239H59.4346L83.6088 90.8911ZM83.6088 142.02V165.087L60.5428 142.02H83.6088ZM86.3903 142.02H109.457L86.3903 165.087V142.02ZM86.3903 139.239V90.891L110.565 139.239H86.3903ZM92.0426 90.076L139.239 113.673V137.272L92.0426 90.076ZM142.02 113.39L163.367 92.0436L142.02 134.738V113.39ZM142.02 56.6078V35.2614L163.367 77.955L142.02 56.6078ZM86.3903 79.1081V30.7604H110.565L86.3903 79.1081ZM86.3903 27.9789V4.91187L109.458 27.9789H86.3903ZM56.6087 27.9789H35.2612L77.957 6.63062L56.6087 27.9789ZM27.9789 56.6087L6.63062 77.957L27.9789 35.2612V56.6087ZM27.9789 86.3903V109.458L4.91187 86.3903H27.9789ZM77.9564 90.0761L30.7604 137.272V113.673L77.9564 90.0761ZM56.6078 142.02L77.955 163.367L35.2614 142.02H56.6078ZM113.39 142.02H134.738L92.0436 163.367L113.39 142.02ZM113.389 27.9789L92.0417 6.63028L134.739 27.9789H113.389ZM27.9789 113.389V134.739L6.63028 92.0417L27.9789 113.389Z" fill="#2B79E6"/>
</svg>
