<svg width="161" height="162" viewBox="0 0 161 162" fill="none" xmlns="http://www.w3.org/2000/svg">
<path d="M76.9383 3.86127C77.4151 1.52172 78.8452 0.0897303 80.7699 0.00497653C81.3374 -0.0197433 81.8853 0.045587 82.4242 0.246877C82.9348 0.437573 83.3955 0.697132 83.8028 1.05027C84.2315 1.42107 84.6158 1.83954 84.8203 2.36925C85.0089 2.86012 85.1227 3.37923 85.2846 3.93896C91.4607 4.31682 97.5425 5.37095 103.534 7.19492C104.065 5.93421 104.934 5.04429 106.255 4.68586C107.164 4.43866 108.075 4.47221 108.957 4.83947C111.031 5.70467 111.864 7.52334 111.296 10.013C114.13 11.219 116.891 12.5909 119.568 14.1271C122.222 15.6491 124.773 17.3301 127.222 19.1311C129.531 17.0299 131.634 17.5684 133.028 18.6596C134.377 19.712 135.323 21.8679 133.635 24.4564C138.157 28.6553 142.173 33.3097 145.612 38.4938C146.786 38.017 147.944 37.874 149.114 38.4055C149.981 38.7992 150.66 39.3819 151.117 40.2171C151.957 41.7533 151.937 43.8386 149.815 45.5954C152.709 51.1645 154.881 57.0142 156.354 63.143C157.542 63.256 158.62 63.6074 159.456 64.4726C160.074 65.1117 160.472 65.8745 160.577 66.7592C160.794 68.5796 159.842 70.3506 157.843 71.1981C157.896 71.8038 157.946 72.4288 158.01 73.0521C158.087 73.8078 158.202 74.56 158.25 75.3175C158.43 78.1585 158.512 81.0048 158.394 83.8494C158.325 85.5445 158.133 87.2342 158 88.9276C157.969 89.3036 157.959 89.6833 157.939 90.0629C159.876 90.9652 160.903 92.4272 160.575 94.5231C160.227 96.7461 158.702 97.8444 156.509 98.0898C155.056 104.347 152.891 110.308 149.958 116.008C151.325 117.581 151.72 119.308 150.58 121.118C149.518 122.804 147.907 123.385 145.904 122.953C142.357 128.366 138.173 133.247 133.42 137.62C134.412 139.829 134.037 141.678 132.383 142.985C130.787 144.245 128.686 144.145 127.124 142.82C122.026 146.562 116.551 149.689 110.642 152.138C110.903 153.314 110.677 154.375 110.01 155.334C109.505 156.061 108.845 156.614 107.993 156.911C107.015 157.251 106.04 157.236 105.079 156.833C104.128 156.434 103.416 155.766 102.915 154.868C96.8577 156.646 90.7189 157.686 84.3881 157.963C84.3294 158.221 84.2653 158.486 84.2066 158.751C83.7584 160.799 81.903 162.167 79.8948 161.984C77.8847 161.798 76.4011 160.433 76.0756 158.318C76.0578 158.198 76.0507 158.076 76.0365 157.926C69.8426 157.532 63.807 156.473 57.8764 154.658C57.7697 154.855 57.6825 155.03 57.5847 155.2C56.633 156.822 55.2455 157.682 53.3279 157.435C51.7946 157.237 50.7024 156.362 50.0887 154.949C49.6564 153.953 49.6404 152.931 50.0958 151.843C47.2764 150.589 44.5067 149.253 41.8438 147.71C39.1934 146.173 36.6372 144.498 34.1486 142.658C33.3161 143.656 32.2773 144.266 30.9769 144.305C29.947 144.337 29.0202 143.996 28.2304 143.324C26.6864 142.008 26.0425 139.684 27.8195 137.407C25.6049 135.284 23.424 133.114 21.4389 130.761C19.4679 128.425 17.6073 126.006 15.896 123.414C14.6295 123.961 13.347 124.16 12.0573 123.549C11.1768 123.133 10.4902 122.501 10.0668 121.616C9.1685 119.737 9.75018 117.634 11.6731 116.291C8.8074 110.771 6.64968 104.972 5.16614 98.8896C4.81571 98.8349 4.47061 98.7766 4.12374 98.7254C2.61885 98.51 1.0517 97.2617 0.756418 95.4165C0.425556 93.3383 1.53555 91.7827 2.9088 91.0747C3.13471 90.9581 3.36952 90.8592 3.6648 90.7233C3.30726 87.6492 3.0689 84.5486 3.04755 81.4321C3.02798 78.3086 3.22899 75.1974 3.55096 72.0598C1.39502 71.0586 0.196087 69.4713 0.784879 67.0787C1.28829 65.0376 2.81986 64.07 4.942 63.9199C5.67132 60.8034 6.56607 57.7488 7.65294 54.7488C8.74336 51.7418 10.0223 48.8161 11.4988 45.9309C10.0721 44.4371 9.63633 42.7156 10.7019 40.881C11.7727 39.0376 13.4768 38.4426 15.583 38.9334C19.0944 33.571 23.2213 28.7418 27.9085 24.407C26.6811 22.1487 27.5171 20.0793 28.8797 19.0128C30.1996 17.9798 32.2203 17.6267 34.1931 19.1911C39.2823 15.4143 44.7629 12.2925 50.601 9.83818C50.3626 7.61163 51.3534 5.88477 53.1536 5.15553C54.735 4.51458 56.9905 4.89421 58.3371 7.02012C60.3454 6.52219 62.3519 5.96246 64.3887 5.53692C66.4575 5.10433 68.5458 4.74412 70.6413 4.46691C72.7101 4.19322 74.8002 4.0608 76.9383 3.86127ZM104.208 78.4287C102.064 75.9849 100.245 73.4141 98.6294 70.6967C97.0035 67.9634 95.632 65.11 94.5078 62.1154C92.3519 62.1807 90.8737 61.2184 90.0536 59.2496C86.9193 59.7475 83.7957 59.9983 80.649 59.9647C77.4809 59.9312 74.343 59.601 71.2194 59.0607C70.3958 61.2978 68.7753 62.2531 66.4255 62.0765C64.1112 67.9669 60.8382 73.2552 56.7255 77.9855C58.3282 79.8536 58.346 81.7341 57.0101 83.6516C61.2064 88.5356 64.3424 93.9863 66.6105 99.9473C67.6457 99.8149 68.5476 99.9985 69.3943 100.504C70.2588 101.017 70.8032 101.791 71.2123 102.642C77.5538 101.588 83.826 101.685 90.0874 102.818C90.952 100.689 92.528 99.7407 94.8245 99.9367C97.0195 93.9439 100.221 88.5568 104.297 83.6922C102.979 81.9495 102.984 80.2103 104.208 78.4287ZM130.664 98.1798C128.393 104.591 125.052 110.324 120.621 115.404C122.001 117.366 121.792 119.193 120.319 120.936C124.113 125.453 127.253 130.342 129.729 135.553C130.284 135.689 130.769 135.761 131.216 135.931C131.684 136.109 132.116 136.383 132.571 136.619C136.051 133.776 142.826 125.817 144.685 122.381C142.483 120.44 142.673 118.247 143.666 116.743C144.141 116.022 144.788 115.514 145.598 115.185C146.7 114.739 147.78 114.823 148.858 115.284C150.326 112.507 151.523 109.655 152.61 106.752C153.761 103.676 155.198 98.6548 155.137 97.7755C154.517 97.5442 153.933 97.2069 153.52 96.679C153.104 96.1475 152.772 95.5542 152.389 94.9698C149.598 95.2452 146.768 95.3953 143.927 95.3565C141.092 95.3176 138.274 95.0475 135.432 94.7032C135.11 95.7785 134.684 96.7496 133.759 97.3994C132.85 98.035 131.844 98.3193 130.664 98.1798ZM25.8539 67.1635C26.199 66.0299 26.6757 65.1382 27.6061 64.492C28.5382 63.844 29.5628 63.738 30.6532 63.7839C32.9159 57.4221 36.2334 51.7012 40.6698 46.6213C39.1791 44.7196 39.5082 42.592 40.99 40.9746C37.2366 36.5056 34.0988 31.6428 31.5764 26.3881C30.4789 26.4446 29.6037 25.9414 28.7338 25.4134C24.1445 29.6988 20.119 34.3744 16.7285 39.5832C18.3704 40.7609 18.8578 42.795 18.0609 44.5872C17.6571 45.4966 16.9242 46.2099 16.0117 46.6284C14.923 47.1281 13.7703 47.1545 12.5927 46.6513C9.80176 52.2698 7.61025 58.0472 6.25478 64.2059C7.43948 64.7339 8.33423 65.5797 8.77716 66.8245C9.10091 66.8245 9.39263 66.8774 9.65768 66.8157C10.6022 66.5914 11.5753 66.6002 12.5252 66.5667C14.8785 66.4837 17.2355 66.5384 19.5924 66.5384C19.7454 66.5384 19.9055 66.519 20.0532 66.5508C21.0742 66.7627 22.1219 66.6921 23.1483 66.8404C23.3725 66.8722 23.5966 66.9057 23.8207 66.9322C24.4949 67.0117 25.1708 67.0876 25.8539 67.1635ZM31.4412 136.097C33.9156 130.559 37.0605 125.451 40.8548 120.756C40.0436 119.962 39.7021 119.054 39.6256 118.007C39.5473 116.949 39.9707 116.07 40.4901 115.284C39.6808 114.241 38.9141 113.24 38.135 112.252C36.5554 110.254 35.2301 108.091 34.0294 105.857C33.1382 104.201 32.2933 102.516 31.612 100.758C31.3612 100.112 31.0801 99.4759 30.824 98.8614C28.5257 98.9585 26.4054 97.9697 25.8895 94.5972C25.7757 94.5972 25.6476 94.5743 25.5302 94.6008C24.5198 94.8285 23.5005 94.9769 22.467 95.051C21.8871 95.0916 21.2948 95.0987 20.7309 95.2241C19.8326 95.4236 18.9147 95.4395 18.0164 95.4695C15.5598 95.5489 13.0997 95.4977 10.6414 95.4942C10.4386 95.4942 10.2233 95.5066 10.0383 95.443C9.66124 95.3141 9.29836 95.3494 8.92836 95.3865C8.58149 96.852 7.74899 97.9062 6.43622 98.5683C6.80088 99.8961 7.11929 101.178 7.50707 102.44C7.95356 103.895 8.43207 105.343 8.94615 106.777C9.75907 109.039 10.6627 111.265 11.7531 113.414C11.9577 113.819 12.1605 114.225 12.3597 114.631C12.5554 115.026 12.7457 115.424 12.9361 115.814C14.2061 115.325 16.186 116.155 17.1039 117.347C17.6233 118.021 17.8954 118.803 17.9417 119.642C18.0039 120.76 17.6002 121.741 16.9171 122.582C20.3431 127.731 24.3295 132.353 28.8512 136.577C29.6322 136.061 30.518 136.049 31.4412 136.097ZM120.4 41.1776C120.497 41.3083 120.525 41.3507 120.557 41.3895C120.607 41.4478 120.669 41.4955 120.714 41.5573C121.736 42.9186 122.007 44.3665 121.215 45.9327C121.071 46.2187 120.922 46.503 120.778 46.782C125.052 51.673 128.206 57.1749 130.462 63.1765C132.973 63.0759 134.539 64.2095 135.232 66.4855C138.121 65.9593 140.985 65.5938 143.867 65.5055C146.798 65.4172 149.737 65.3431 152.588 65.6256C152.998 65.1365 153.318 64.6739 153.721 64.2995C154.118 63.9305 154.6 63.6515 155.036 63.3407C153.647 57.3674 151.452 51.6959 148.643 46.1711C148.23 46.2258 147.798 46.367 147.389 46.3229C146.282 46.2046 145.313 45.7879 144.495 44.9792C143.358 43.8562 143.027 41.8504 143.748 40.4943C143.97 40.0758 144.239 39.6821 144.52 39.223C141.138 34.1025 137.136 29.494 132.665 25.3181C132.162 25.5229 131.732 25.7631 131.271 25.8655C130.807 25.9679 130.312 25.929 129.791 25.9555C127.322 31.4292 124.213 36.5056 120.4 41.1776ZM58.1717 153.404C58.531 153.494 58.8476 153.57 59.1625 153.655C60.2494 153.953 61.3309 154.276 62.4249 154.552C63.5188 154.827 64.6199 155.074 65.7246 155.3C66.6105 155.482 67.5034 155.634 68.3982 155.77C69.2449 155.899 70.1023 155.964 70.9472 156.1C71.8456 156.243 72.7421 156.388 73.6546 156.392C73.7827 156.392 73.9214 156.367 74.0371 156.407C74.7842 156.665 75.542 156.501 76.2944 156.531C76.869 154.963 77.9932 154.01 79.5763 153.822C81.8052 153.559 83.3368 154.647 84.2209 156.688C84.4236 156.688 84.6104 156.727 84.7741 156.681C85.4749 156.49 86.1882 156.556 86.898 156.536C86.9496 156.535 87.0012 156.538 87.051 156.533C87.8248 156.436 88.5986 156.33 89.3741 156.241C89.9772 156.174 90.5837 156.137 91.1868 156.074C91.587 156.031 91.989 155.98 92.3857 155.911C93.1773 155.774 93.9653 155.627 94.7533 155.472C95.6641 155.292 96.5748 155.111 97.4803 154.907C98.6045 154.651 99.7251 154.377 100.844 154.096C101.397 153.957 101.942 153.782 102.527 153.612C102.285 152.053 102.972 150.881 103.914 149.82C100.586 145.176 97.8645 140.26 95.753 134.924C95.0237 135.364 94.2606 135.334 93.4992 135.323C92.6739 135.311 92.0335 134.921 91.3629 134.474C90.6869 134.024 90.445 133.3 89.9949 132.758C89.23 132.855 88.4954 132.892 87.791 133.058C87.3089 133.171 86.8197 133.098 86.3608 133.208C85.5159 133.411 84.6496 133.423 83.8046 133.457C81.7074 133.542 79.6048 133.485 77.5058 133.483C77.3261 133.483 77.1358 133.513 76.9704 133.464C76.1592 133.22 75.3089 133.381 74.4907 133.194C73.8805 133.054 73.249 133.007 72.6247 132.924C72.0039 132.841 71.3831 132.763 70.7854 132.687C70.3175 133.536 69.8052 134.234 69.0154 134.703C68.1918 135.193 67.2829 135.198 66.3721 135.175C66.2013 135.57 66.0341 135.906 65.9114 136.257C65.2354 138.196 64.3798 140.061 63.4886 141.907C62.9105 143.105 62.2808 144.281 61.6297 145.441C61.0409 146.489 60.4095 147.514 59.7673 148.531C59.2052 149.421 58.6039 150.284 58.0205 151.16C57.8497 151.414 57.6843 151.674 57.7715 152C57.8924 152.45 58.0276 152.903 58.1717 153.404ZM90.4699 29.3333C91.3664 27.5446 92.8037 26.7218 94.6786 26.6706C95.7886 23.676 97.0213 20.812 98.4924 18.0522C99.9653 15.2907 101.559 12.605 103.418 10.0977C103.34 9.55743 103.267 9.04185 103.187 8.48035C102.635 8.31614 102.093 8.13251 101.538 7.99125C99.8408 7.55866 98.1509 7.08721 96.4379 6.73231C94.6466 6.36151 92.8375 6.0737 91.0267 5.81061C89.8793 5.64463 88.716 5.59166 87.558 5.48748C87.4815 5.48042 87.3979 5.50338 87.3285 5.47866C86.5831 5.20497 85.8165 5.39567 85.0747 5.32857C84.4343 7.13665 82.6519 8.36558 80.8767 8.24022C79.2241 8.12368 77.7619 7.20198 77.0451 5.23146C70.853 5.53869 64.78 6.53278 58.7907 8.32144C59.0202 9.52741 58.5239 10.5515 58.0169 11.5386C61.4198 16.2706 64.0578 21.3329 66.1604 26.713C68.5512 26.2557 70.2571 27.2003 71.3155 29.2733C72.0804 29.1744 72.7883 29.1391 73.4661 28.9749C73.9214 28.8636 74.3822 28.9254 74.818 28.823C75.7358 28.6076 76.6822 28.5794 77.6001 28.5723C80.046 28.5546 82.499 28.3763 84.9448 28.6835C85.7222 28.7806 86.512 28.7736 87.2929 28.8566C87.7892 28.9095 88.273 29.0561 88.7676 29.132C89.3154 29.2168 89.8669 29.2644 90.4699 29.3333ZM126.514 20.2293C121.53 16.5478 116.288 13.5567 110.645 11.1554C109.831 12.2378 108.674 12.711 107.12 12.7445C106.116 12.6757 105.078 12.1866 104.231 11.2755C100.8 16.2494 97.9872 21.4565 95.9931 27.1279C97.8289 28.0638 98.6507 29.5275 98.4675 31.5334C98.6916 31.6181 98.8784 31.6852 99.0616 31.7611C100.36 32.2962 101.678 32.7853 102.948 33.3785C104.999 34.3373 107.001 35.3897 108.915 36.6133C110.484 37.618 112.012 38.6668 113.465 39.8269C113.95 40.2153 114.459 40.5738 114.959 40.9481C115.575 40.3531 116.332 40.203 117.056 40.0264C117.81 39.841 118.517 40.2383 119.221 40.3954C121.722 37.9588 127.779 28.1097 128.411 25.4435C126.424 24.2145 125.959 22.3941 126.514 20.2293ZM34.8335 141.542C39.7999 145.229 45.0937 148.315 50.8056 150.697C50.8856 150.621 50.9621 150.554 51.0332 150.482C52.2535 149.232 53.7051 148.942 55.3167 149.546C55.8699 149.753 56.3608 150.125 56.8963 150.432C60.2956 145.57 63.0439 140.385 65.0255 134.783C63.4246 133.762 62.5939 132.396 62.866 130.517C62.6472 130.423 62.4889 130.351 62.327 130.284C61.0054 129.742 59.6641 129.244 58.3656 128.652C55.5924 127.388 52.9544 125.875 50.4587 124.13C49.2633 123.295 48.1373 122.363 46.974 121.482C46.7605 121.321 46.5168 121.199 46.2998 121.067C44.9265 122.121 43.4875 122.066 41.9452 121.582C41.842 121.704 41.7193 121.835 41.6126 121.978C40.7427 123.142 39.8533 124.295 39.0101 125.478C37.6582 127.376 36.4219 129.348 35.3137 131.394C34.5026 132.895 33.7662 134.435 33.0048 135.964C32.9088 136.155 32.8767 136.377 32.8198 136.568C34.4172 137.502 35.4151 139.155 34.8335 141.542ZM64.9704 27.4228C62.9425 22.041 60.2511 17.0458 56.9692 12.4037C56.5796 12.5838 56.2292 12.7834 55.8539 12.9105C55.5248 13.0217 55.1708 13.0871 54.8239 13.103C54.5571 13.1153 54.2849 13.0006 54.0128 12.9723C53.118 12.8805 52.3976 12.4673 51.7839 11.8352C51.5384 11.5827 51.2823 11.3408 51.0155 11.0795C45.2645 13.4632 39.9725 16.5337 35.0131 20.1728C36.0021 22.1963 35.5841 24.8308 33.0226 26.0473C33.4406 28.1008 39.5651 37.6392 42.1106 40.2153C42.6603 40.0864 43.1833 39.9028 43.7205 39.8481C44.6099 39.758 45.405 40.1006 46.1237 40.5844C46.3674 40.7486 46.5719 40.7857 46.7516 40.7203C51.7466 36.5939 57.236 33.4898 63.2947 31.4009C62.9585 30.1561 63.7216 28.2209 64.9704 27.4228ZM152.247 66.9551C151.786 66.9075 151.311 66.8174 150.834 66.8139C148.529 66.798 146.224 66.7874 143.92 66.8121C143.002 66.8227 142.086 66.9145 141.172 66.9958C140.489 67.0576 139.809 67.1564 139.13 67.25C138.175 67.3824 137.221 67.5255 136.268 67.6667C135.924 67.7179 135.583 67.7797 135.261 67.8345C134.898 69.413 134.037 70.5042 132.628 71.1399C133.808 77.5158 133.843 83.8741 132.744 90.2536C134.197 90.8292 135.076 91.8692 135.412 93.3771C141.072 94.2105 146.716 94.2158 152.329 93.6791C152.391 93.5555 152.43 93.5131 152.434 93.4672C152.576 91.7968 154.127 89.9605 156.175 89.8634C156.313 89.8563 156.448 89.7574 156.625 89.685C156.678 88.9911 156.728 88.3148 156.785 87.6386C156.827 87.1371 156.877 86.6374 156.923 86.136C156.97 85.6345 157.055 85.1348 157.059 84.6334C157.073 82.1667 157.066 79.7018 157.064 77.2351C157.064 77.0832 157.069 76.9296 157.055 76.7778C156.963 75.8013 156.863 74.8266 156.77 73.8502C156.697 73.098 156.632 72.3458 156.557 71.5936C156.553 71.5513 156.498 71.5142 156.468 71.4753C153.745 71.0939 152.496 69.5631 152.247 66.9551ZM126.192 141.793C125.203 139.563 125.691 137.38 128.332 135.853C125.904 130.769 122.877 126.069 119.251 121.768C118.446 121.964 117.725 122.273 116.903 122.128C116.087 121.983 115.386 121.588 114.687 121.205C109.674 125.366 104.142 128.499 97.9783 130.637C98.2825 132.028 97.6991 133.132 96.9039 134.14C99.0154 139.538 101.744 144.54 105.129 149.154C105.321 149.115 105.448 149.096 105.57 149.064C107.221 148.635 108.571 149.154 109.704 150.355C109.877 150.538 110.039 150.732 110.185 150.9C116.793 148.177 123.022 144.323 126.192 141.793ZM8.94615 93.9545C9.5296 94.0216 10.0561 94.1293 10.5827 94.1328C13.0926 94.1505 15.6025 94.1417 18.1107 94.1399C18.2637 94.1399 18.4273 94.1682 18.5696 94.1276C19.4306 93.8804 20.3307 94.0198 21.2041 93.8556C21.848 93.7338 22.5168 93.762 23.1679 93.6702C24.1872 93.5254 25.1993 93.333 26.3235 93.1441C26.8447 92.1906 27.558 91.2936 28.6787 90.861C28.5399 89.9623 28.3905 89.0776 28.2678 88.1913C28.1931 87.6457 28.1753 87.0912 28.097 86.5456C27.9423 85.4509 27.7804 84.3561 27.8071 83.249C27.8569 81.1991 27.6577 79.1473 27.9423 77.0991C28.0561 76.2781 28.0401 75.4411 28.1237 74.6148C28.1735 74.1204 28.3123 73.6366 28.3905 73.1457C28.4635 72.6848 28.5097 72.2205 28.5649 71.7808C27.1027 71.1151 26.1919 70.0734 25.8575 68.5407C25.2954 68.4719 24.7724 68.403 24.2494 68.3447C23.6962 68.2847 23.1323 68.2847 22.5915 68.1682C21.6185 67.9598 20.6242 67.9333 19.6511 67.9192C16.6912 67.8768 13.7259 67.7426 10.7694 68.0375C10.1486 68.0993 9.52605 68.1558 8.91947 68.2123C8.81985 69.3282 8.36981 70.227 7.66895 70.9686C6.94141 71.7367 6.00396 72.1657 4.85662 72.1957C4.81037 72.6531 4.7659 73.0733 4.72676 73.4918C4.71253 73.6436 4.76234 73.8149 4.7072 73.9456C4.50975 74.4099 4.60758 74.8937 4.56845 75.3687C4.52931 75.8419 4.43682 76.3151 4.4297 76.7883C4.40835 78.517 4.41369 80.2456 4.41191 81.9742C4.41191 82.8641 4.39946 83.754 4.42614 84.644C4.4546 85.5498 4.52398 86.4538 4.57556 87.3596C4.57912 87.4355 4.56667 87.5168 4.58624 87.5874C4.80681 88.3925 4.73032 89.233 4.88152 90.0452C4.91354 90.2112 4.93667 90.379 4.96157 90.5273C6.79021 90.9051 8.01404 91.4066 8.94615 93.9545ZM119.628 114.543C123.688 110.059 128.604 101.566 129.369 97.719C127.614 96.6172 126.899 95.0457 127.35 92.9481C124.232 92.0299 121.219 90.8628 118.328 89.3972C115.407 87.9158 112.671 86.1466 110.113 84.1001C109.293 84.8258 108.336 85.1207 107.285 85.1507C106.175 92.0175 102.993 97.7049 97.7613 102.213C98.174 103.141 98.2896 104.03 98.053 105.011C104.233 107.266 109.683 110.686 114.561 115.014C116.17 113.739 117.837 113.573 119.628 114.543ZM41.7068 47.5148C37.3309 52.5223 34.0917 58.0966 31.9215 64.3048C32.8412 64.7374 33.4086 65.4313 33.7857 66.2877C34.1628 67.1441 34.1593 68.0358 33.9938 68.9786C37.0854 69.9551 40.0899 71.124 42.9769 72.6089C45.8693 74.0956 48.5447 75.8949 51.124 77.8707C51.9547 77.2068 52.8548 76.859 53.8616 76.8819C55 69.9657 58.1895 64.236 63.4851 59.691C62.9816 58.7799 63.0528 57.8582 63.1738 56.9719C63.0653 56.88 63.0154 56.8182 62.9496 56.7847C62.8144 56.7158 62.6757 56.6523 62.5334 56.6011C59.9221 55.6705 57.4602 54.4257 55.089 53.0184C52.3193 51.3746 49.6973 49.5118 47.303 47.3488C47.1429 47.204 46.9437 47.0998 46.7463 46.9674C45.2094 48.3181 43.5462 48.3905 41.7068 47.5148ZM46.563 114.765C51.4459 110.314 56.9496 106.941 63.1524 104.688C63.1524 104.245 63.1186 103.862 63.1613 103.488C63.2076 103.094 63.3267 102.709 63.421 102.285C58.1432 97.7578 54.9769 92.014 53.8456 85.1578C52.5328 84.9777 51.6807 84.6528 50.738 83.7382C48.2387 85.7422 45.5473 87.4797 42.7066 88.9858C39.864 90.492 36.888 91.6891 33.8106 92.6532C34.2838 93.6738 34.4866 94.7014 34.1575 95.7944C33.832 96.8803 33.1702 97.7084 32.1652 98.3599C33.1525 101.176 34.435 103.839 35.8972 106.426C37.3772 109.041 40.6218 113.534 41.625 114.269C43.4768 113.278 45.0386 113.589 46.563 114.765ZM110.137 77.8884C112.643 75.8031 115.306 73.9862 118.15 72.4306C121.011 70.8679 123.999 69.5966 127.178 68.516C126.856 67.5608 126.927 66.6709 127.281 65.8039C127.649 64.9034 128.268 64.2148 129.081 63.7221C128.935 61.0047 122.398 49.8684 119.659 47.6896C118.89 48.108 118.04 48.304 117.124 48.2334C116.192 48.161 115.414 47.7672 114.673 47.1598C112.25 49.3634 109.646 51.3216 106.855 53.0237C104.076 54.7171 101.134 56.0908 98.1153 57.182C98.1153 57.7029 98.1615 58.1372 98.1028 58.5557C98.0441 58.9706 97.8787 59.3697 97.7578 59.7882C103.043 64.3348 106.191 70.0663 107.303 76.889C108.326 76.9367 108.843 77.0726 110.137 77.8884ZM68.8251 107.941C69.9991 114.433 69.8497 120.887 68.5334 127.339C70.3158 128.082 71.0344 129.521 71.1429 131.338C72.6211 131.553 74.0388 131.783 75.4637 131.961C76.2428 132.06 77.0326 132.097 77.8189 132.122C78.7136 132.152 79.6119 132.141 80.5067 132.141C82.241 132.141 83.9772 132.152 85.7062 131.974C85.7827 131.967 85.8592 131.97 85.9357 131.96C86.6365 131.864 87.3391 131.788 88.0347 131.665C88.5968 131.566 89.1909 131.589 89.7157 131.313C89.9327 129.097 91.0818 127.667 93.3267 127.106C92.6241 123.929 92.1331 120.784 92.053 117.59C91.973 114.357 92.0637 111.131 92.6596 108.038C91.9677 107.512 91.3451 107.04 90.6887 106.54C84.0074 109.173 77.2461 109.164 70.5755 106.59C69.9511 107.074 69.4121 107.489 68.8251 107.941ZM90.1977 30.6964C89.6214 30.624 89.0966 30.5658 88.5754 30.4916C87.5775 30.3504 86.5832 30.1597 85.5817 30.0661C84.4681 29.9637 83.3475 29.9195 82.2286 29.9019C80.11 29.8683 77.9914 29.8577 75.8782 30.0537C75.2983 30.1084 74.7184 30.1579 74.1402 30.2338C73.5408 30.3115 72.9431 30.4086 72.3472 30.5128C72.0839 30.5587 71.8278 30.6382 71.5965 30.6947C71.4133 31.6411 71.2158 32.4745 70.6858 33.2284C70.1325 34.0159 69.2734 34.3373 68.5245 34.8158C69.896 41.2589 69.9849 47.6807 68.7984 54.1185C69.1275 54.318 69.4352 54.4557 69.6754 54.6676C69.9404 54.9025 70.1414 55.2079 70.3424 55.4463C70.6484 55.3898 70.8245 55.3757 70.9882 55.3227C71.9203 55.0208 72.8381 54.6623 73.7845 54.4081C75.7412 53.8819 77.7299 53.5323 79.7702 53.5605C80.4106 53.5693 81.051 53.5835 81.6914 53.557C82.8939 53.5093 84.0786 53.6912 85.2437 53.9084C86.9478 54.2262 88.6395 54.6376 90.2404 55.3421C90.3916 55.4092 90.582 55.3898 90.6691 55.4004C91.2117 54.9695 91.6866 54.5935 92.2256 54.1662C92.1758 53.8625 92.1064 53.497 92.0584 53.1297C91.9445 52.2592 91.8307 51.3869 91.7364 50.5147C91.6279 49.5153 91.5247 48.5159 91.45 47.5148C91.4109 47.0098 91.434 46.4977 91.434 45.9909C91.4358 44.0398 91.3931 42.0887 91.6012 40.1429C91.6119 40.0423 91.603 39.9381 91.619 39.8392C91.7631 38.8734 91.9036 37.9076 92.0566 36.9435C92.1793 36.1825 92.3199 35.4232 92.4568 34.6322C91.8574 34.159 91.2028 33.7158 90.7919 33.0219C90.3774 32.3279 90.1728 31.5881 90.1977 30.6964ZM114.014 41.9881C109.256 37.987 103.95 34.92 98.0139 32.8047C97.5692 33.5551 96.9857 34.2031 96.2031 34.5863C95.4453 34.9588 94.6217 35.1848 93.7198 35.0065C93.5544 36.1613 93.437 37.309 93.2075 38.4337C93.1186 38.8646 93.147 39.2848 93.0812 39.705C92.8962 40.8739 92.7664 42.0481 92.7895 43.2329C92.8286 45.154 92.6596 47.0786 92.9265 48.9979C93.0794 50.0909 93.1275 51.1962 93.2644 52.2927C93.3303 52.8278 93.4886 53.3504 93.6077 53.8872C95.4026 53.7547 96.6051 54.6711 97.6759 55.9301C103.717 53.7512 109.06 50.5076 113.789 46.1552C113.307 44.7373 113.155 43.3477 114.014 41.9881ZM63.6238 105.97C60.5802 107.028 57.7288 108.414 55.0143 110.067C52.298 111.721 49.7685 113.635 47.4187 115.837C48.148 117.242 48.0751 118.636 47.3262 119.995C50.786 123.087 56.6597 126.874 63.2342 129.2C64.1254 127.695 65.472 126.95 67.2757 126.917C67.4429 125.792 67.6102 124.683 67.7685 123.572C67.8325 123.126 67.8521 122.672 67.9375 122.23C68.1136 121.316 68.1723 120.389 68.2114 119.464C68.2559 118.448 68.2505 117.43 68.2256 116.414C68.1972 115.279 68.2434 114.147 68.11 113.006C67.9819 111.912 67.8912 110.808 67.7542 109.713C67.6902 109.201 67.555 108.696 67.4518 108.183C65.8029 108.082 64.5577 107.384 63.6238 105.97ZM110.962 83.1308C114.244 85.7758 117.825 87.8999 121.688 89.5561C123.72 90.4266 125.79 91.1841 127.939 91.758C128.811 90.5467 129.985 90.0294 131.442 89.9887C132.505 83.7735 132.466 77.5988 131.326 71.3977C129.805 71.4418 128.66 70.8167 127.759 69.6973C121.555 71.7172 115.928 74.7101 110.958 78.8913C111.746 80.3321 111.736 81.7129 110.962 83.1308ZM63.6451 32.727C61.6671 33.3715 59.7566 34.1855 57.8835 35.0913C56.0211 35.9918 54.2351 37.0318 52.4972 38.1477C50.7397 39.2777 49.0854 40.5473 47.4845 41.8786C48.1711 43.2029 48.2351 44.5237 47.593 45.8197C51.6185 49.4358 56.0389 52.3245 60.9218 54.5052C61.8539 54.9219 62.7931 55.3509 63.7697 55.584C65.3813 53.9755 65.858 54.009 67.4341 53.8077C68.6401 47.52 68.512 41.2447 67.1619 35.0118C64.611 34.2596 64.4741 33.7935 63.6451 32.727ZM93.9813 108.175C92.9442 114.592 93.2235 120.904 94.7124 127.072C95.3421 127.418 95.9113 127.656 96.3898 128.015C96.8683 128.373 97.2561 128.852 97.7044 129.299C103.617 127.254 109.002 124.187 113.828 120.149C113.515 119.446 113.278 118.787 113.257 118.06C113.237 117.338 113.515 116.688 113.717 116.042C109.089 111.853 100.912 106.929 97.4945 106.277C96.6887 107.436 95.536 108.048 93.9813 108.175ZM32.8501 91.5673C39.1204 89.6462 44.8856 86.7699 49.9553 82.6381C49.6049 80.378 49.756 80.1732 50.2612 78.9301C45.2485 74.8372 39.5545 72.028 33.3268 70.1793C32.987 70.8485 32.4676 71.2476 31.8681 71.5424C31.2776 71.8355 30.6496 72.0227 29.9185 72.0174C29.4916 74.2192 29.2408 76.4123 29.1697 78.6176C29.0416 82.6293 29.1821 86.6286 30.0377 90.6103C31.121 90.5661 32.0069 90.9705 32.8501 91.5673ZM89.8598 104.086C83.6819 102.988 77.5787 102.947 71.4667 103.901C71.4257 104.192 71.3973 104.415 71.3617 104.637C71.3243 104.877 71.2781 105.117 71.2301 105.387C77.5503 107.771 83.7815 107.748 90.0874 105.329C90.0127 104.909 89.9416 104.522 89.8598 104.086ZM90.0359 56.7282C88.4847 56.0555 86.8678 55.5858 85.2028 55.2874C81.9635 54.7082 78.7207 54.7312 75.4921 55.3792C74.0335 55.6723 72.6158 56.1031 71.255 56.6699C71.2745 57.1096 71.2407 57.498 71.5556 57.8053C77.6481 58.8665 83.7459 58.9459 89.8402 57.966C89.9096 57.5298 89.9665 57.1643 90.0359 56.7282ZM95.7655 61.7657C97.9943 68.1258 102.811 75.3158 105.27 77.5264C105.375 77.4699 105.485 77.4134 105.595 77.3516C105.727 77.2792 105.859 77.205 105.992 77.1309C104.944 70.6101 101.954 65.1983 96.984 60.8811C96.5481 61.1972 96.1782 61.4656 95.7655 61.7657ZM65.3066 100.295C62.8642 93.5749 58.7996 87.5715 55.9855 84.5327C55.7471 84.6616 55.507 84.7905 55.2864 84.9106C55.8521 90.9087 59.9932 98.005 64.3318 101.091C64.6466 100.834 64.9615 100.578 65.3066 100.295ZM105.273 84.5204C101.25 89.2966 98.1615 94.5672 96.0145 100.405C96.3738 100.662 96.6976 100.894 97.0213 101.125C101.988 96.7584 104.966 91.3713 105.999 84.8947C105.752 84.7676 105.533 84.6545 105.273 84.5204ZM64.2713 60.8705C64.0151 61.0753 63.7839 61.236 63.5793 61.425C61.66 63.1995 60.011 65.1947 58.6644 67.4337C57.0066 70.1917 55.9375 73.1669 55.3273 76.3098C55.2722 76.5941 55.1993 76.9031 55.3896 77.2368C55.5372 77.1715 55.7027 77.1468 55.7881 77.0514C59.8331 72.4465 62.9763 67.303 65.1998 61.6121C64.869 61.3473 64.5915 61.1266 64.2713 60.8705Z" fill="#9DB1CD"/>
</svg>
