<svg width="176" height="175" viewBox="0 0 176 175" fill="none" xmlns="http://www.w3.org/2000/svg">
<path d="M28.5773 63.4556L28.6092 63.3909L28.6315 63.3224L40.3922 27.1655L78.3328 24.6856L78.4047 24.6809L78.4751 24.666L115.668 16.7726L136.786 48.3901L136.826 48.45L136.874 48.5036L162.307 76.7671L145.484 110.865L145.452 110.929L145.43 110.998L133.669 147.155L95.7288 149.635L95.6569 149.639L95.5864 149.654L58.3933 157.548L37.2753 125.93L37.2353 125.87L37.1871 125.817L11.7547 97.553L28.5773 63.4556Z" stroke="#2B79E6" stroke-width="2"/>
<path d="M28.5773 63.4556L28.6092 63.3909L28.6315 63.3224L40.3922 27.1655L78.3328 24.6856L78.4047 24.6809L78.4751 24.666L115.668 16.7726L136.786 48.3901L136.826 48.45L136.874 48.5036L162.307 76.7671L145.484 110.865L145.452 110.929L145.43 110.998L133.669 147.155L95.7288 149.635L95.6569 149.639L95.5864 149.654L58.3933 157.548L37.2753 125.93L37.2353 125.87L37.1871 125.817L11.7547 97.553L28.5773 63.4556Z" stroke="#2B79E6" stroke-width="2"/>
<path d="M44.5998 87.2321L44.6049 87.1602L44.5998 87.0883L42.7635 61.6026L65.7529 50.4501L65.8177 50.4186L65.8773 50.3782L87.0304 36.0451L108.184 50.3782L108.243 50.4186L108.308 50.4501L131.297 61.6026L129.461 87.0883L129.456 87.1602L129.461 87.2321L131.297 112.718L108.308 123.87L108.243 123.902L108.184 123.942L87.0305 138.275L65.8773 123.942L65.8177 123.902L65.7529 123.87L42.7635 112.718L44.5998 87.2321Z" stroke="#2B79E6" stroke-width="2"/>
<path d="M76.212 76.2624L76.2669 76.2157L76.3145 76.1616L82.3928 69.2561L91.0594 72.3416L91.1273 72.3657L91.1979 72.3799L100.217 74.1911L101.879 83.2394L101.892 83.3102L101.915 83.3785L104.856 92.0952L97.8504 98.0579L97.7955 98.1046L97.7479 98.1587L91.6697 105.064L83.0031 101.979L82.9352 101.955L82.8645 101.94L73.8451 100.129L72.1839 91.0809L72.1709 91.0101L72.1478 90.9418L69.2066 82.2252L76.212 76.2624Z" stroke="#2B79E6" stroke-width="2"/>
<path d="M112.81 26.1154L112.81 26.1155L112.822 26.1199L148.491 40.2414L153.304 78.4824L153.306 78.4943L159.034 116.609L128.526 139.867L128.526 139.867L128.516 139.875L98.5773 163.865L63.2578 148.885L63.2579 148.884L63.2466 148.88L27.5774 134.759L22.7636 96.5175L22.7638 96.5175L22.762 96.5056L17.0337 58.3909L47.5422 35.1327L47.5423 35.1328L47.5517 35.1252L77.4908 11.135L112.81 26.1154Z" stroke="#2B79E6"/>
<path d="M104.398 46.9477L104.398 46.9479L104.41 46.9523L127.971 56.2802L131.15 81.5405L131.15 81.5405L131.152 81.5523L134.936 106.729L114.784 122.092L114.784 122.092L114.774 122.1L94.9989 137.946L71.6696 128.051L71.6697 128.051L71.6584 128.046L48.0974 118.719L44.9176 93.4582L44.9178 93.4582L44.916 93.4463L41.1322 68.2694L61.2843 52.9064L61.2844 52.9065L61.2938 52.8989L81.0692 37.0529L104.398 46.9477Z" stroke="#2B79E6"/>
</svg>
