<svg width="176" height="179" viewBox="0 0 176 179" fill="none" xmlns="http://www.w3.org/2000/svg">
<path d="M176 56.4117L172.025 54.1312L173.207 49.6324L127.22 2.81955L122.796 4.02201L120.513 0H55.4867L53.2036 4.02201L48.7802 2.81955L2.79268 49.5909L3.97498 54.1312L0 56.4117V122.547L3.97498 124.869L2.79268 129.388L48.7802 176.16L53.2036 174.957L55.4867 179H120.513L122.796 174.957L127.22 176.16L173.207 129.388L172.025 124.889L176 122.547V56.4117ZM126.608 5.14153L170.945 50.2129L170.211 53.0117L140.816 35.7627L123.856 5.88788L126.608 5.14153ZM126.139 83.156L121.41 87.9658L112.645 79.0096V66.5704H119.331L123.816 74.4693L126.139 83.156ZM123.816 104.572L119.331 112.471H112.645V99.866L121.41 90.9512L126.139 95.7611L123.816 104.572ZM65.3936 114.544H77.7874L86.5527 123.459L81.8235 128.29L73.1601 125.926L65.3936 121.365V114.544ZM49.8605 95.7611L54.5898 90.9512L63.3551 99.866V112.471H56.669L52.2659 104.572L49.8605 95.7611ZM52.2659 74.3864L56.669 66.5704H63.3551V79.0096L54.5898 87.9244L49.8605 83.156L52.2659 74.3864ZM110.606 64.4972H98.2126L89.4473 55.5825L94.1765 50.7726L102.84 53.1361L110.606 57.6971V64.4972ZM100.251 66.5704H110.606V76.9364L100.251 66.5704ZM110.606 80.0462V99.0989L97.3565 112.575H78.6435L65.3936 99.0989V79.9633L78.6435 66.4875H97.3769L110.606 80.0462ZM95.318 64.4972H80.682L88 57.0544L95.318 64.4972ZM77.7874 64.4972H65.3936V57.6142L73.1601 53.0532L81.8235 50.6897L86.5527 55.4995L77.7874 64.4972ZM75.7489 66.5704L65.3936 76.9364V66.5704H75.7489ZM63.3551 82.1194V97.0257L56.0371 89.5829L63.3551 82.1194ZM65.3936 102.022L75.7489 112.554H65.3936V101.939V102.022ZM80.682 114.627H95.3384L88.0204 122.07L80.682 114.627ZM98.2126 114.627H110.606V121.427L102.84 125.988L94.1765 128.352L89.4473 123.542L98.2126 114.627ZM100.251 112.554L110.606 102.022V112.554H100.251ZM112.645 97.005V82.0365L119.963 89.4793L112.645 97.005ZM120.513 64.4972H112.645V56.4117L110.443 55.1264L119.392 57.5727L121.777 66.5704L120.513 64.4972ZM103.635 51.1251L90.0385 43.1433L112.176 30.1443L118.781 55.2508L103.635 51.1251ZM96.0315 49.0519L93.5854 48.3885L88 54.1312L82.435 48.3677L79.9685 49.0312L87.9796 44.325L96.0315 49.0519ZM72.3855 51.1251L57.2397 55.2715L63.8443 30.165L85.9615 43.1433L72.3855 51.1251ZM65.5566 55.1264L63.3551 56.4117V64.4972H55.4867L54.3044 66.5704L56.7098 57.4691L65.5566 55.1264ZM50.2275 73.5986L42.3794 87.4268L29.6595 64.9119L54.3044 58.2776L50.2275 73.5986ZM48.189 81.3316L47.5367 83.8194L53.1017 89.4793L47.5775 95.1391L48.189 97.6684L43.5617 89.5207L48.189 81.3316ZM50.2275 105.381L54.3044 120.785L29.6595 114.067L42.4406 91.5525L50.2275 105.381ZM54.3044 112.305L55.5682 114.544H63.4366V122.547L65.6382 123.832L56.6894 121.386L54.3044 112.305ZM72.467 127.854L86.0635 135.836L63.8239 148.835L57.2194 123.729L72.467 127.854ZM80.0704 129.927L82.5166 130.591L88.0815 124.931L93.6465 130.591L96.0927 129.927L88.0815 134.634L80.0704 129.927ZM103.716 127.854L118.883 123.708L112.176 148.835L90.0385 135.836L103.716 127.854ZM110.545 123.853L112.645 122.547V114.544H120.513L121.777 112.305L119.372 121.407L110.545 123.853ZM125.65 105.381L133.498 91.5525L146.279 114.067L121.573 120.785L125.65 105.381ZM127.689 97.6684L128.341 95.1598L122.776 89.5L128.341 83.8402L127.689 81.3316L132.316 89.4793L127.689 97.6684ZM125.65 73.6193L121.573 58.2776L146.341 64.9119L133.559 87.4061L125.65 73.6193ZM120.982 55.8934L113.99 29.0662L119.657 25.7284L139.308 37.2761L150.662 57.2617L147.4 63.046L120.982 55.8934ZM119.678 23.3442L113.42 26.993L111.585 19.9442L91.9342 14.5953L121.818 6.44765L137.29 33.6895L119.678 23.3442ZM109.934 21.6235L111.626 28.0711L88 41.9408L64.3743 28.0711L66.0662 21.6235L88 15.6526L109.934 21.6235ZM64.4966 19.9442L62.4582 26.993L56.3428 23.3442L38.7306 33.7102L54.1821 6.44765L84.0658 14.5746L64.4966 19.9442ZM56.3428 25.7491L62.0301 29.087L54.9363 55.8727L28.5995 63.046L25.3176 57.2617L36.6718 37.2761L56.3428 25.7491ZM22.9734 57.2825L26.561 63.6057L19.6507 65.4923L14.3507 85.478L6.33959 55.0849L33.1249 39.3493L22.9734 57.2825ZM21.2814 67.1924L27.621 65.4716L41.2583 89.4793L27.621 113.508L21.2814 111.787L15.4107 89.4793L21.2814 67.1924ZM19.6507 113.466L26.6018 115.353L23.0141 121.676L33.2064 139.588L6.33959 123.874L14.3507 93.522L19.6507 113.466ZM25.3583 121.759L28.6403 115.975L54.9771 123.148L62.0301 149.934L56.3428 153.23L36.6921 141.682L25.3583 121.759ZM56.3428 155.718L62.4582 151.965L64.4966 159.035L84.1473 164.384L54.1821 172.532L38.7102 145.352L56.3428 155.718ZM66.0866 157.439L64.3947 150.991L88 137.059L111.626 150.929L109.934 157.377L88 163.306L66.0866 157.439ZM111.585 159.035L113.42 151.965L119.678 155.718L137.29 145.352L121.818 172.532L91.9342 164.384L111.585 159.035ZM119.739 153.23L114.051 149.892L121.104 123.107L147.4 115.913L150.682 121.697L139.328 141.682L119.739 153.23ZM153.027 121.697L149.439 115.374L156.39 113.487L161.649 93.522L169.66 123.915L142.855 139.609L153.027 121.697ZM154.719 111.787L148.379 113.508L134.742 89.4793L148.379 65.4509L154.719 67.1716L160.589 89.4793L154.719 111.787ZM156.39 65.4923L149.439 63.6057L153.027 57.2825L142.834 39.37L169.62 55.1056L161.649 85.478L156.39 65.4923ZM56.669 2.0732H119.331L120.758 4.58177L88 13.5173L55.2217 4.58177L56.669 2.0732ZM5.05536 50.2129L49.3713 5.14153L52.1232 5.88788L35.1837 35.7627L5.7892 53.0117L5.05536 50.2129ZM2.03845 121.365V57.6142L4.52536 56.2044L13.3111 89.5207L4.52536 122.816L2.03845 121.365ZM49.3713 173.838L5.05536 128.766L5.7892 125.968L35.1837 143.279L52.1436 173.154L49.3713 173.838ZM119.331 176.906H56.669L55.2217 174.377L88 165.462L120.758 174.377L119.331 176.906ZM170.945 128.766L126.608 173.838L123.856 173.091L140.816 143.279L170.19 126.03L170.945 128.766ZM173.962 121.365L171.495 122.816L162.709 89.4793L171.475 56.2044L173.941 57.6557V121.365H173.962Z" fill="#2B79E6"/>
</svg>
