<svg width="123" height="129" viewBox="0 0 123 129" fill="none" xmlns="http://www.w3.org/2000/svg">
<path d="M121.574 39.4355V67.0502C121.574 100.228 94.6779 127.124 61.5 127.124V127.124C28.3221 127.124 1.42615 100.228 1.42615 67.0502V39.4355" stroke="#9DB1CD" stroke-width="2"/>
<path d="M60.7929 113.379C61.1834 113.77 61.8166 113.77 62.2071 113.379L68.5711 107.015C68.9616 106.625 68.9616 105.992 68.5711 105.601C68.1806 105.211 67.5474 105.211 67.1569 105.601L61.5 111.258L55.8432 105.601C55.4526 105.211 54.8195 105.211 54.429 105.601C54.0384 105.992 54.0384 106.625 54.429 107.015L60.7929 113.379ZM60.5 0.353027L60.5 112.672L62.5 112.672L62.5 0.353027L60.5 0.353027Z" fill="#9DB1CD"/>
<line x1="1.19581" y1="59.9344" x2="61.0697" y2="16.1593" stroke="#9DB1CD" stroke-width="2"/>
<path d="M2.38416 78.7183L61.0484 35.8273" stroke="#9DB1CD" stroke-width="2"/>
<path d="M8.599 95.5117L61.6387 56.4772" stroke="#9DB1CD" stroke-width="2"/>
<path d="M21.6842 111.859L121.185 40.2455" stroke="#9DB1CD" stroke-width="2"/>
<line x1="120.908" y1="61.5355" x2="61.7155" y2="16.2629" stroke="#9DB1CD" stroke-width="2"/>
<path d="M120.918 78.7178L61.7192 35.5718" stroke="#9DB1CD" stroke-width="2"/>
<path d="M114.703 95.5112L61.6629 56.4767" stroke="#9DB1CD" stroke-width="2"/>
<path d="M101.617 111.859L1.84327 40.2412" stroke="#9DB1CD" stroke-width="2"/>
</svg>
